<svg xmlns="http://www.w3.org/2000/svg" viewBox="0 0 22.5 18.67"><defs><style>.cls-1{fill:none;stroke:#383838;stroke-linecap:round;stroke-linejoin:round;}</style></defs><title>Apps Catalog</title><g id="Layer_2" data-name="Layer 2"><g id="Hermony_controler" data-name="Hermony controler"><g id="Row_7" data-name="Row 7"><g id="Apps_Catalog" data-name="Apps Catalog"><path class="cls-1" d="M9.34,5.66V9A.36.36,0,0,1,9,9.32H5.82"/><path class="cls-1" d="M4.05,9.32H.89A.36.36,0,0,1,.52,9V.87A.37.37,0,0,1,.89.5H9a.37.37,0,0,1,.36.37v3"/><path class="cls-1" d="M9.34,3.88a1.27,1.27,0,0,1,.88-.36,1.25,1.25,0,1,1,0,2.5,1.27,1.27,0,0,1-.88-.36"/><path class="cls-1" d="M4.05,9.33a1.25,1.25,0,1,1,1.77,0"/><path class="cls-1" d="M5.78,9.35H9a.36.36,0,0,1,.36.36v3.16"/><path class="cls-1" d="M9.32,14.64V17.8a.36.36,0,0,1-.36.37H.87A.37.37,0,0,1,.5,17.8V9.71a.37.37,0,0,1,.37-.36h3"/><path class="cls-1" d="M9.33,14.64a1.25,1.25,0,1,1,0-1.77"/><line class="cls-1" x1="13.51" y1="4.08" x2="22" y2="4.08"/><line class="cls-1" x1="13.51" y1="14.07" x2="22" y2="14.07"/></g></g></g></g></svg>