<svg xmlns="http://www.w3.org/2000/svg" viewBox="0 0 23 21.9"><defs><style>.cls-1,.cls-2,.cls-3,.cls-4,.cls-5,.cls-6{fill:none;stroke:#383838;stroke-linejoin:round;}.cls-2,.cls-3,.cls-4,.cls-5,.cls-6{stroke-linecap:round;}.cls-3{stroke-dasharray:2.33 2.33;}.cls-4{stroke-dasharray:2.68 2.68;}.cls-5{stroke-dasharray:2.27 2.27;}.cls-6{stroke-dasharray:2.65 2.65;}</style></defs><title>Infrastructure 2</title><g id="Layer_2" data-name="Layer 2"><g id="Hermony_controler" data-name="Hermony controler"><g id="Row_5" data-name="Row 5"><g id="Infrastructure_2" data-name="Infrastructure 2"><rect class="cls-1" x="0.5" y="0.5" width="5.5" height="4.4" rx="0.33" ry="0.33" transform="translate(6.5 5.4) rotate(180)"/><rect class="cls-1" x="8.06" y="8.2" width="6.87" height="5.5" rx="0.41" ry="0.41" transform="translate(23 21.9) rotate(180)"/><rect class="cls-1" x="17" y="0.5" width="5.5" height="4.4" rx="0.33" ry="0.33" transform="translate(39.5 5.4) rotate(180)"/><rect class="cls-1" x="0.5" y="17" width="5.5" height="4.4" rx="0.33" ry="0.33" transform="translate(6.5 38.4) rotate(180)"/><rect class="cls-1" x="17" y="17" width="5.5" height="4.4" rx="0.33" ry="0.33" transform="translate(39.5 38.4) rotate(180)"/><line class="cls-2" x1="16.44" y1="19.38" x2="14.94" y2="19.38"/><line class="cls-3" x1="12.61" y1="19.38" x2="9.11" y2="19.38"/><line class="cls-2" x1="7.94" y1="19.38" x2="6.44" y2="19.38"/><line class="cls-2" x1="19.8" y1="5.5" x2="19.8" y2="7"/><line class="cls-4" x1="19.8" y1="9.68" x2="19.8" y2="13.7"/><line class="cls-2" x1="19.8" y1="15.04" x2="19.8" y2="16.54"/><line class="cls-2" x1="6.57" y1="2.88" x2="8.07" y2="2.88"/><line class="cls-5" x1="10.34" y1="2.88" x2="13.74" y2="2.88"/><line class="cls-2" x1="14.87" y1="2.88" x2="16.37" y2="2.88"/><line class="cls-2" x1="3.3" y1="16.44" x2="3.3" y2="14.94"/><line class="cls-6" x1="3.3" y1="12.3" x2="3.3" y2="8.33"/><line class="cls-2" x1="3.3" y1="7" x2="3.3" y2="5.5"/><line class="cls-2" x1="11.79" y1="8.05" x2="11.79" y2="6.55"/><line class="cls-2" x1="11.79" y1="5.43" x2="11.79" y2="3.93"/><line class="cls-2" x1="11.79" y1="14.24" x2="11.79" y2="15.74"/><line class="cls-2" x1="11.79" y1="17.55" x2="11.79" y2="19.05"/><line class="cls-2" x1="7.66" y1="10.8" x2="6.91" y2="10.8"/><line class="cls-2" x1="4.29" y1="10.8" x2="3.54" y2="10.8"/><line class="cls-2" x1="15.23" y1="10.8" x2="16.73" y2="10.8"/><line class="cls-2" x1="18.54" y1="10.8" x2="20.04" y2="10.8"/></g></g></g></g></svg>