<svg xmlns="http://www.w3.org/2000/svg" viewBox="0 0 20.73 22.89"><defs><style>.cls-1,.cls-2,.cls-3{fill:none;stroke:#383838;stroke-width:0.89px;}.cls-1,.cls-2{stroke-linecap:round;}.cls-1{stroke-linejoin:round;}.cls-2,.cls-3{stroke-miterlimit:10;}</style></defs><title>My Apps 2</title><g id="Layer_2" data-name="Layer 2"><g id="Hermony_controler" data-name="Hermony controler"><g id="Row_7" data-name="Row 7"><g id="My_Apps_2" data-name="My Apps 2"><path class="cls-1" d="M18.25,18.93v3.16a.35.35,0,0,1-.35.35h-3"/><path class="cls-1" d="M13.19,22.44h-3a.35.35,0,0,1-.35-.35V14.36a.34.34,0,0,1,.35-.35H17.9a.35.35,0,0,1,.35.35v2.88"/><path class="cls-1" d="M18.25,17.24a1.15,1.15,0,0,1,.84-.35,1.2,1.2,0,0,1,0,2.39,1.15,1.15,0,0,1-.84-.35"/><path class="cls-1" d="M13.19,22.44a1.15,1.15,0,0,1-.35-.84,1.19,1.19,0,1,1,2,.84"/><path class="cls-2" d="M13.64,12.53a4.67,4.67,0,0,0-3.25-1.71,3.61,3.61,0,0,1-5.52,0A4.67,4.67,0,0,0,.44,15.47v3.64a.82.82,0,0,0,.82.81h6.3"/><path class="cls-3" d="M7.56.44A3.65,3.65,0,0,0,4,4.06a31.26,31.26,0,0,0,.5,3.74,3.22,3.22,0,0,0,6.23,0,31.26,31.26,0,0,0,.5-3.74A3.66,3.66,0,0,0,7.56.44Z"/></g></g></g></g></svg>