<svg xmlns="http://www.w3.org/2000/svg" viewBox="0 0 23 20.96"><defs><style>.cls-1{fill:none;stroke:#383838;stroke-linejoin:round;}</style></defs><title>Partition Config</title><g id="Layer_2" data-name="Layer 2"><g id="Hermony_controler" data-name="Hermony controler"><g id="Row_5" data-name="Row 5"><g id="Partition_Config" data-name="Partition Config"><rect class="cls-1" x="6.14" y="16.18" width="4.28" height="4.28" rx="0.44" ry="0.44"/><rect class="cls-1" x="11.78" y="16.18" width="4.28" height="4.28" rx="0.44" ry="0.44"/><rect class="cls-1" x="6.14" y="10.41" width="4.28" height="4.28" rx="0.44" ry="0.44"/><rect class="cls-1" x="13.37" y="6.53" width="4.28" height="4.28" rx="0.44" ry="0.44" transform="translate(5.62 -6.1) rotate(27)"/><rect class="cls-1" x="8.94" y="2.81" width="4.28" height="4.28" rx="0.44" ry="0.44" transform="translate(3.45 -4.49) rotate(27)"/><rect class="cls-1" x="0.5" y="16.18" width="4.28" height="4.28" rx="0.44" ry="0.44"/><rect class="cls-1" x="0.5" y="10.41" width="4.28" height="4.28" rx="0.44" ry="0.44"/><rect class="cls-1" x="0.5" y="4.68" width="4.28" height="4.28" rx="0.44" ry="0.44"/><rect class="cls-1" x="17.64" y="1.08" width="4.28" height="4.28" rx="0.44" ry="0.44" transform="translate(3.62 -8.63) rotate(27)"/></g></g></g></g></svg>