<svg xmlns="http://www.w3.org/2000/svg" viewBox="0 0 22 21.83"><defs><style>.cls-1{fill:#383838;}.cls-2,.cls-3{fill:none;stroke:#383838;stroke-miterlimit:10;}.cls-3{stroke-linecap:round;}</style></defs><title>Provider</title><g id="Layer_2" data-name="Layer 2"><g id="Hermony_controler" data-name="Hermony controler"><g id="Row_6" data-name="Row 6"><g id="Provider"><path class="cls-1" d="M19.38,17.59a1.62,1.62,0,1,1-1.62,1.62,1.63,1.63,0,0,1,1.62-1.62m0-1A2.62,2.62,0,1,0,22,19.21a2.62,2.62,0,0,0-2.62-2.62Z"/><path class="cls-1" d="M11,17.59a1.62,1.62,0,1,1-1.62,1.62A1.62,1.62,0,0,1,11,17.59m0-1a2.62,2.62,0,1,0,2.62,2.62A2.62,2.62,0,0,0,11,16.59Z"/><path class="cls-1" d="M2.62,17.59A1.62,1.62,0,1,1,1,19.21a1.63,1.63,0,0,1,1.62-1.62m0-1a2.62,2.62,0,1,0,2.62,2.62,2.62,2.62,0,0,0-2.62-2.62Z"/><path class="cls-2" d="M2.61,16.67V12.25A1.27,1.27,0,0,1,3.89,11H18.1a1.26,1.26,0,0,1,1.26,1.27l0,4.42"/><line class="cls-2" x1="10.96" y1="8.31" x2="10.96" y2="16.73"/><path class="cls-3" d="M11,8.89a4.2,4.2,0,1,1,4.2-4.19A4.2,4.2,0,0,1,11,8.89Z"/><path class="cls-3" d="M11,8.89c-1.57,0-2.39-2.11-2.39-4.19S9.38.5,11,.5s2.38,2.11,2.38,4.2S12.51,8.89,11,8.89Z"/><path class="cls-3" d="M7.46,2.36A16.06,16.06,0,0,0,11,2.71a15.79,15.79,0,0,0,3.48-.35"/><path class="cls-3" d="M14.43,7A14.87,14.87,0,0,0,11,6.68,17,17,0,0,0,7.46,7"/><line class="cls-3" x1="6.75" y1="4.76" x2="15.15" y2="4.76"/><line class="cls-3" x1="10.95" y1="0.5" x2="10.95" y2="8.89"/></g></g></g></g></svg>