<svg xmlns="http://www.w3.org/2000/svg" viewBox="0 0 19.06 23"><defs><style>.cls-1{fill:none;stroke:#383838;stroke-miterlimit:10;}.cls-2{font-size:4.58px;fill:#383838;font-family:MyriadPro-Regular, Myriad Pro;letter-spacing:0.32em;}</style></defs><title>SSL Certificate</title><g id="Layer_2" data-name="Layer 2"><g id="Hermony_controler" data-name="Hermony controler"><g id="Row_6" data-name="Row 6"><g id="SSL_Certificate" data-name="SSL Certificate"><path class="cls-1" d="M.5,1.23V16.9l5.6,5.6H17.82a.74.74,0,0,0,.74-.73V1.23A.74.74,0,0,0,17.82.5H1.23A.73.73,0,0,0,.5,1.23Zm.4,16H5.28a.51.51,0,0,1,.51.52v4.37"/><line class="cls-1" x1="3.35" y1="8.63" x2="9.45" y2="8.63"/><line class="cls-1" x1="3.35" y1="11.78" x2="9.32" y2="11.78"/><line class="cls-1" x1="3.35" y1="14.92" x2="9.32" y2="14.92"/><polygon class="cls-1" points="11.65 14.68 11.65 21.3 13.8 18.33 15.95 21.3 15.95 14.71 11.65 14.68"/><path class="cls-1" d="M13.8,8.27a2.28,2.28,0,1,0,2.27,2.27A2.28,2.28,0,0,0,13.8,8.27"/><text class="cls-2" transform="translate(3.59 5.68)">SSL</text></g></g></g></g></svg>