<svg xmlns="http://www.w3.org/2000/svg" viewBox="0 0 23 19.9"><defs><style>.cls-1{fill:#383838;}.cls-2{fill:none;stroke:#383838;stroke-miterlimit:10;}</style></defs><title>Tenant</title><g id="Layer_2" data-name="Layer 2"><g id="Hermony_controler" data-name="Hermony controler"><g id="Row_6" data-name="Row 6"><g id="Tenant"><path class="cls-1" d="M11.59,1A1.91,1.91,0,1,1,9.67,2.91,1.92,1.92,0,0,1,11.59,1m0-1A2.91,2.91,0,1,0,14.5,2.91,2.91,2.91,0,0,0,11.59,0Z"/><path class="cls-2" d="M3.66,10.73V9.3A1.27,1.27,0,0,1,4.92,8H18.18A1.26,1.26,0,0,1,19.43,9.3v1.45"/><line class="cls-2" x1="11.56" y1="5.38" x2="11.59" y2="10.74"/><path class="cls-2" d="M20.61,15.39a1.58,1.58,0,0,1-2.43,0,2.06,2.06,0,0,0-1.95,2.05V19a.36.36,0,0,0,.36.36h5.55A.36.36,0,0,0,22.5,19v-1.6A2.07,2.07,0,0,0,20.61,15.39Z"/><path class="cls-2" d="M19.37,10.83a1.62,1.62,0,0,0-1.6,1.59A15.37,15.37,0,0,0,18,14.06a1.41,1.41,0,0,0,2.74,0A14,14,0,0,0,21,12.42,1.61,1.61,0,0,0,19.37,10.83Z"/><path class="cls-2" d="M4.88,15.39a1.58,1.58,0,0,1-2.43,0A2.06,2.06,0,0,0,.5,17.44V19a.36.36,0,0,0,.36.36H6.41A.36.36,0,0,0,6.77,19v-1.6A2.07,2.07,0,0,0,4.88,15.39Z"/><path class="cls-2" d="M3.63,10.83A1.61,1.61,0,0,0,2,12.42a14,14,0,0,0,.22,1.64,1.41,1.41,0,0,0,2.74,0,15.37,15.37,0,0,0,.23-1.64A1.62,1.62,0,0,0,3.63,10.83Z"/><path class="cls-2" d="M12.77,15.39a1.59,1.59,0,0,1-1.22.57,1.56,1.56,0,0,1-1.21-.57,2.05,2.05,0,0,0-1.95,2.05V19a.36.36,0,0,0,.36.36H14.3a.36.36,0,0,0,.36-.36v-1.6A2.07,2.07,0,0,0,12.77,15.39Z"/><path class="cls-2" d="M11.52,10.83a1.61,1.61,0,0,0-1.59,1.59,14,14,0,0,0,.22,1.64,1.41,1.41,0,0,0,2.74,0,14,14,0,0,0,.22-1.64A1.61,1.61,0,0,0,11.52,10.83Z"/></g></g></g></g></svg>