<svg xmlns="http://www.w3.org/2000/svg" viewBox="0 0 23 16.4"><defs><style>.cls-1{fill:none;stroke:#383838;stroke-miterlimit:10;}</style></defs><title>Users</title><g id="Layer_2" data-name="Layer 2"><g id="Hermony_controler" data-name="Hermony controler"><g id="Row_6" data-name="Row 6"><g id="Users"><path class="cls-1" d="M11.5.5A2.89,2.89,0,0,0,8.64,3.36,24.63,24.63,0,0,0,9,6.31a2.54,2.54,0,0,0,4.92,0,24.63,24.63,0,0,0,.4-2.95A2.89,2.89,0,0,0,11.5.5Z"/><path class="cls-1" d="M13.74,8.7a2.86,2.86,0,0,1-4.37,0,3.71,3.71,0,0,0-3.5,3.69v2.87a.65.65,0,0,0,.64.65h10a.65.65,0,0,0,.64-.65V12.38A3.7,3.7,0,0,0,13.74,8.7Z"/><path class="cls-1" d="M4.94,3.76A2.28,2.28,0,0,0,2.68,6,21.11,21.11,0,0,0,3,8.34a2,2,0,0,0,3.88,0A19.76,19.76,0,0,0,7.19,6,2.28,2.28,0,0,0,4.94,3.76Z"/><path class="cls-1" d="M5,11a2.24,2.24,0,0,1-1.72-.8A2.92,2.92,0,0,0,.5,13.12v2.27A.51.51,0,0,0,1,15.9H5"/><path class="cls-1" d="M18.06,3.76A2.28,2.28,0,0,0,15.81,6a19.76,19.76,0,0,0,.31,2.33,2,2,0,0,0,3.88,0A21.11,21.11,0,0,0,20.32,6,2.28,2.28,0,0,0,18.06,3.76Z"/><path class="cls-1" d="M18.11,15.9H22a.51.51,0,0,0,.51-.51V13.12a2.92,2.92,0,0,0-2.67-2.9,2.25,2.25,0,0,1-1.72.8"/></g></g></g></g></svg>