<?xml version="1.0" encoding="UTF-8"?>
<svg width="51px" height="42px" viewBox="0 0 51 42" version="1.1" xmlns="http://www.w3.org/2000/svg" xmlns:xlink="http://www.w3.org/1999/xlink">
    <!-- Generator: Sketch 43.1 (39012) - http://www.bohemiancoding.com/sketch -->
    <title>icon-ladc</title>
    <desc>Created with Sketch.</desc>
    <defs></defs>
    <g id="A10-Lightning-Insight" stroke="none" stroke-width="1" fill="none" fill-rule="evenodd">
        <g id="Analytics-1-Client" transform="translate(-582.000000, -236.000000)" fill-rule="nonzero">
            <g id="icon-ladc" transform="translate(582.000000, 236.000000)">
                <g id="Layer_1">
                    <g id="Group">
                        <path d="M38.7437037,36.26 L41.2844444,36.26 C41.9066667,36.26 42.4044444,35.7622222 42.4044444,35.14 L42.4044444,32.0807407 C42.4044444,31.4585185 41.9066667,30.9607407 41.2844444,30.9607407 L38.7437037,30.9607407 C38.3911111,29.1666667 37.6859259,27.5074074 36.7111111,26.0451852 L38.5155556,24.2407407 C38.9511111,23.8051852 38.9511111,23.0896296 38.5155556,22.6540741 L36.3481481,20.4866667 C35.9125926,20.0511111 35.197037,20.0511111 34.7614815,20.4866667 L32.957037,22.2807407 C31.4948148,21.2955556 29.8355556,20.6007407 28.0414815,20.2481481 L28.0414815,17.7074074 C28.0414815,17.0851852 27.5437037,16.5874074 26.9214815,16.5874074 L23.8622222,16.5874074 C23.24,16.5874074 22.7422222,17.0851852 22.7422222,17.7074074 L22.7422222,20.2481481 C20.9481481,20.6007407 19.2888889,21.3059259 17.8266667,22.2807407 L16.0222222,20.4762963 C15.5866667,20.0407407 14.8711111,20.0407407 14.4355556,20.4762963 L12.2681481,22.6437037 C11.8325926,23.0792593 11.8325926,23.7948148 12.2681481,24.2303704 L14.0725926,26.0348148 C13.0874074,27.497037 12.3925926,29.1562963 12.04,30.9503704 L9.49925926,30.9503704 C8.87703704,30.9503704 8.37925926,31.4481481 8.37925926,32.0703704 L8.37925926,35.1296296 C8.37925926,35.7518519 8.87703704,36.2496296 9.49925926,36.2496296 L12.04,36.2496296 L17.4637037,33.5948148 C17.4637037,29.2185185 21.0207407,25.6614815 25.397037,25.6614815 C29.7733333,25.6614815 33.3303704,29.2185185 33.3303704,33.5948148" id="Shape" fill="#A7A9AC"></path>
                        <path d="M50.7733333,38.1162963 L50.7733333,3.93555556 C50.7733333,1.79925926 49.0414815,0.0674074074 46.9051852,0.0674074074 L3.86814815,0.0674074074 C1.73185185,0.0674074074 0,1.79925926 0,3.93555556 L0,38.1266667 C0,40.262963 1.73185185,41.9948148 3.86814815,41.9948148 L46.9051852,41.9948148 C49.0414815,41.9948148 50.7733333,40.2525926 50.7733333,38.1162963 Z M3.86814815,1.94444444 L46.9051852,1.94444444 C48.0044444,1.94444444 48.8962963,2.8362963 48.8962963,3.93555556 L48.8962963,8.55037037 L1.87703704,8.55037037 L1.87703704,3.93555556 C1.87703704,2.8362963 2.76888889,1.94444444 3.86814815,1.94444444 Z M1.87703704,38.1162963 L1.87703704,10.4274074 L48.8962963,10.4274074 L48.8962963,38.1162963 C48.8962963,39.2155556 48.0044444,40.1074074 46.9051852,40.1074074 L3.86814815,40.1074074 C2.76888889,40.1074074 1.87703704,39.2155556 1.87703704,38.1162963 Z" id="Shape" fill="#000000"></path>
                        <path d="M25.3866667,24.7385185 C20.4918519,24.7385185 16.52,28.7207407 16.52,33.6051852 C16.52,34.1237037 16.9451852,34.5488889 17.4637037,34.5488889 C17.9822222,34.5488889 18.4074074,34.1237037 18.4074074,33.6051852 C18.4074074,29.7474074 21.5392593,26.6155556 25.397037,26.6155556 C29.2548148,26.6155556 32.3866667,29.7474074 32.3866667,33.6051852 C32.3866667,34.1237037 32.8118519,34.5488889 33.3303704,34.5488889 C33.8488889,34.5488889 34.2740741,34.1237037 34.2740741,33.6051852 C34.2533333,28.7103704 30.2814815,24.7385185 25.3866667,24.7385185 Z" id="Shape" fill="#000000"></path>
                        <path d="M41.2948148,30.017037 L39.5007407,30.017037 C39.1585185,28.6585185 38.6192593,27.3725926 37.9037037,26.1696296 L39.1688889,24.9044444 C39.562963,24.5103704 39.7703704,23.9918519 39.7703704,23.4422222 C39.7703704,22.8925926 39.5525926,22.3740741 39.1688889,21.98 L37.0014815,19.8125926 C36.1925926,19.0037037 34.8859259,19.0037037 34.0874074,19.8125926 L32.8222222,21.0777778 C31.6192593,20.3622222 30.3333333,19.8333333 28.9748148,19.4807407 L28.9748148,17.7074074 C28.9748148,16.5666667 28.0518519,15.6437037 26.9111111,15.6437037 L23.8518519,15.6437037 C22.7111111,15.6437037 21.7881481,16.5666667 21.7881481,17.7074074 L21.7881481,19.5014815 C20.4296296,19.8437037 19.1437037,20.382963 17.9407407,21.0985185 L16.6755556,19.8333333 C16.2814815,19.4392593 15.762963,19.2318519 15.2133333,19.2318519 C14.6637037,19.2318519 14.1451852,19.4496296 13.7511111,19.8333333 L11.5837037,22.0007407 C11.1896296,22.3948148 10.9822222,22.9133333 10.9822222,23.462963 C10.9822222,24.0125926 11.2,24.5311111 11.5837037,24.9251852 L12.8488889,26.1903704 C12.1333333,27.3933333 11.6044444,28.6792593 11.2518519,30.0377778 L9.45777778,30.0377778 C8.31703704,30.0377778 7.39407407,30.9607407 7.39407407,32.1014815 L7.39407407,35.1607407 C7.39407407,36.3014815 8.31703704,37.2244444 9.45777778,37.2244444 L11.9985185,37.2244444 C12.517037,37.2244444 12.9422222,36.7992593 12.9422222,36.2807407 C12.9422222,35.7622222 12.517037,35.337037 11.9985185,35.337037 L9.45777778,35.337037 C9.35407407,35.337037 9.27111111,35.2540741 9.27111111,35.1503704 L9.27111111,32.0911111 C9.27111111,31.9874074 9.35407407,31.9044444 9.45777778,31.9044444 L11.9985185,31.9044444 C12.4444444,31.9044444 12.8385185,31.582963 12.9214815,31.1474074 C13.242963,29.5088889 13.8859259,27.9637037 14.8192593,26.5740741 C15.0681481,26.2007407 15.0162963,25.702963 14.7051852,25.3814815 L12.9007407,23.577037 C12.8592593,23.5355556 12.8488889,23.4837037 12.8488889,23.4525926 C12.8488889,23.4214815 12.8592593,23.3696296 12.9007407,23.3281481 L15.0681481,21.1607407 C15.1096296,21.1192593 15.1614815,21.1088889 15.1925926,21.1088889 C15.2237037,21.1088889 15.2755556,21.1192593 15.3274074,21.1607407 L17.1318519,22.9651852 C17.4533333,23.2866667 17.9511111,23.3281481 18.3244444,23.0792593 C19.7140741,22.1459259 21.2592593,21.5133333 22.8977778,21.1814815 C23.3333333,21.0985185 23.6548148,20.7044444 23.6548148,20.2585185 L23.6548148,17.7074074 C23.6548148,17.6037037 23.7377778,17.5207407 23.8414815,17.5207407 L26.9007407,17.5207407 C27.0044444,17.5207407 27.0874074,17.6037037 27.0874074,17.7074074 L27.0874074,20.2481481 C27.0874074,20.6940741 27.4088889,21.0881481 27.8444444,21.1711111 C29.482963,21.4925926 31.0281481,22.1355556 32.4177778,23.0688889 C32.7911111,23.3177778 33.2888889,23.2659259 33.6103704,22.9548148 L35.4148148,21.1503704 C35.4874074,21.0777778 35.6014815,21.0777778 35.6740741,21.1503704 L37.8414815,23.3177778 C37.882963,23.3592593 37.8933333,23.4111111 37.8933333,23.4422222 C37.8933333,23.4733333 37.882963,23.5251852 37.8414815,23.577037 L36.037037,25.3814815 C35.7155556,25.702963 35.6740741,26.2007407 35.922963,26.5740741 C36.8562963,27.9637037 37.4888889,29.5088889 37.8207407,31.1474074 C37.9037037,31.582963 38.2977778,31.9044444 38.7437037,31.9044444 L41.2844444,31.9044444 C41.3881481,31.9044444 41.4711111,31.9874074 41.4711111,32.0911111 L41.4711111,35.1503704 C41.4711111,35.2540741 41.3881481,35.337037 41.2844444,35.337037 L38.7437037,35.337037 C38.2251852,35.337037 37.8,35.7622222 37.8,36.2807407 C37.8,36.7992593 38.2251852,37.2244444 38.7437037,37.2244444 L41.2844444,37.2244444 C42.4251852,37.2244444 43.3481481,36.3014815 43.3481481,35.1607407 L43.3481481,32.1014815 C43.3481481,30.94 42.4251852,30.017037 41.2948148,30.017037 Z" id="Shape" fill="#000000"></path>
                        <path d="M8.48296296,6.1237037 C8.73185185,6.1237037 8.97037037,6.02 9.14666667,5.8437037 C9.32296296,5.66740741 9.42666667,5.42888889 9.42666667,5.18 C9.42666667,4.93111111 9.32296296,4.69259259 9.14666667,4.5162963 C8.97037037,4.34 8.73185185,4.2362963 8.48296296,4.2362963 C8.23407407,4.2362963 7.99555556,4.34 7.81925926,4.5162963 C7.64296296,4.69259259 7.53925926,4.93111111 7.53925926,5.18 C7.53925926,5.42888889 7.64296296,5.66740741 7.81925926,5.8437037 C7.99555556,6.03037037 8.23407407,6.1237037 8.48296296,6.1237037 Z" id="Shape" fill="#000000"></path>
                        <path d="M11.8014815,6.1237037 C12.0503704,6.1237037 12.2888889,6.02 12.4651852,5.8437037 C12.6414815,5.66740741 12.7451852,5.42888889 12.7451852,5.18 C12.7451852,4.93111111 12.6414815,4.69259259 12.4651852,4.5162963 C12.2888889,4.34 12.0503704,4.2362963 11.8014815,4.2362963 C11.5525926,4.2362963 11.3140741,4.34 11.1377778,4.5162963 C10.9614815,4.69259259 10.8577778,4.93111111 10.8577778,5.18 C10.8577778,5.42888889 10.9614815,5.66740741 11.1377778,5.8437037 C11.3140741,6.03037037 11.5525926,6.1237037 11.8014815,6.1237037 Z" id="Shape" fill="#000000"></path>
                        <path d="M5.16444444,6.1237037 C5.41333333,6.1237037 5.65185185,6.02 5.82814815,5.8437037 C6.00444444,5.66740741 6.10814815,5.42888889 6.10814815,5.18 C6.10814815,4.93111111 6.00444444,4.69259259 5.82814815,4.5162963 C5.65185185,4.34 5.41333333,4.2362963 5.16444444,4.2362963 C4.91555556,4.2362963 4.67703704,4.34 4.50074074,4.5162963 C4.32444444,4.69259259 4.22074074,4.93111111 4.22074074,5.18 C4.22074074,5.42888889 4.32444444,5.66740741 4.50074074,5.8437037 C4.67703704,6.03037037 4.91555556,6.1237037 5.16444444,6.1237037 Z" id="Shape" fill="#000000"></path>
                    </g>
                </g>
            </g>
        </g>
    </g>
</svg>