<?xml version="1.0" encoding="UTF-8"?>
<svg width="40px" height="41px" viewBox="0 0 40 41" version="1.1" xmlns="http://www.w3.org/2000/svg" xmlns:xlink="http://www.w3.org/1999/xlink">
    <!-- Generator: Sketch 43.1 (39012) - http://www.bohemiancoding.com/sketch -->
    <title>icon-client</title>
    <desc>Created with Sketch.</desc>
    <defs></defs>
    <g id="A10-Lightning-Insight" stroke="none" stroke-width="1" fill="none" fill-rule="evenodd">
        <g id="Analytics-1-Client" transform="translate(-158.000000, -236.000000)">
            <g id="icon-client" transform="translate(158.000000, 236.000000)">
                <g id="computer-1" transform="translate(0.000000, 4.699301)">
                    <g id="Layer_1">
                        <g id="Group">
                            <path d="M38.2435626,27.9407412 L1.66157278,27.9407412 C1.20509674,27.9407412 0.830786392,27.5658667 0.830786392,27.1087028 L0.830786392,22.2719078 L39.0834785,22.2719078 L39.0834785,27.1087028 C39.0834785,27.5658667 38.7091681,27.9407412 38.2435626,27.9407412 Z" id="Shape" fill="#A7A9AC"></path>
                            <path d="M39.0834785,12.9640492 C38.6270024,12.9640492 38.2526921,13.3389236 38.2526921,13.7960876 L38.2526921,21.7781707 L1.65244326,21.7781707 L1.65244326,3.61047411 C1.65244326,2.62299991 2.45584109,1.80924802 3.45095886,1.80924802 L19.2906774,1.80924802 C19.7471535,1.80924802 20.1214638,1.43437356 20.1214638,0.977209575 C20.1214638,0.520045593 19.7471535,0.145171128 19.2906774,0.145171128 L3.45095886,0.145171128 C1.55201853,0.145171128 0,1.69952867 0,3.60133083 L0,25.4720557 C0,27.3738579 1.55201853,28.9282154 3.45095886,28.9282154 L19.126346,28.9282154 L19.126346,34.3318937 L11.7770818,34.3318937 C11.3206058,34.3318937 10.9462954,34.7067681 10.9462954,35.1639321 C10.9462954,35.6210961 11.3206058,35.9959705 11.7770818,35.9959705 L28.1371831,35.9959705 C28.5936591,35.9959705 28.9679695,35.6210961 28.9679695,35.1639321 C28.9679695,34.7067681 28.5936591,34.3318937 28.1371831,34.3318937 L20.7879188,34.3318937 L20.7879188,28.9282154 L36.463306,28.9282154 C38.3622463,28.9282154 39.9142649,27.3738579 39.9142649,25.4720557 L39.9142649,13.7869443 C39.9051354,13.3297804 39.5399545,12.9640492 39.0834785,12.9640492 Z M36.4541765,27.2824251 L3.45095886,27.2824251 C2.46497061,27.2824251 1.65244326,26.4778165 1.65244326,25.481199 L1.65244326,23.4331043 L38.2526921,23.4331043 L38.2526921,25.481199 C38.2526921,26.4778165 37.4492943,27.2824251 36.4541765,27.2824251 Z" id="Shape" fill="#000000"></path>
                        </g>
                    </g>
                </g>
                <g id="Group-2" transform="translate(24.279720, 0.000000)">
                    <path d="M14.0456147,14.9140964 L14.0456147,13.0673537 C14.0456147,12.6798675 13.8710318,12.3088701 13.5634332,12.0615385 C11.8757979,10.6929702 10.0634606,9.77784321 9.6976677,9.59646669 C9.65610032,9.57997792 9.6311599,9.53051159 9.6311599,9.48928966 L9.6311599,6.88406331 C9.96369887,6.66970924 10.1798492,6.29871181 10.1798492,5.87000368 L10.1798492,3.17408907 C10.1798492,1.83025396 9.0824706,0.741994847 7.7273743,0.741994847 L7.4364027,0.741994847 L7.14543111,0.741994847 C5.7903348,0.750239234 4.69295621,1.83849834 4.69295621,3.17408907 L4.69295621,5.87000368 C4.69295621,6.29046743 4.90910654,6.66146485 5.24164551,6.88406331 L5.24164551,9.48104527 C5.24164551,9.53051159 5.21670508,9.57173353 5.17513771,9.5882223 C4.80934485,9.76959882 2.98869399,10.6764814 1.30937219,12.0532941 C1.00177365,12.3006257 0.827190686,12.6716231 0.827190686,13.0591093 L0.827190686,14.905852" id="XMLID_744_" fill="#3C92CA"></path>
                    <path d="M14.0456147,15.6560913 C14.4612884,15.6560913 14.8021409,15.3180714 14.8021409,14.905852 L14.8021409,13.0673537 C14.8021409,12.4490247 14.5277962,11.8719176 14.0456147,11.4844314 C12.6240106,10.3219728 11.0943314,9.48104527 10.3793726,9.11004785 L10.3793726,7.23032757 C10.7285385,6.86757453 10.9280619,6.38940007 10.9280619,5.87824807 L10.9280619,3.17408907 C10.9280619,1.42627898 9.48983084,0 7.7273743,0 L7.14543111,0 C5.37466109,0 3.94474352,1.42627898 3.94474352,3.17408907 L3.94474352,5.87000368 C3.94474352,6.38115569 4.14426691,6.85933014 4.49343282,7.22208318 L4.49343282,9.09355907 C3.77847404,9.4645565 2.25710825,10.305484 0.827190686,11.4679426 C0.345009181,11.8554288 0.070664531,12.4407803 0.070664531,13.0508649 L0.070664531,14.8976077 C0.070664531,15.309827 0.411516975,15.6478469 0.827190686,15.6478469 C1.2428644,15.6478469 1.58371684,15.309827 1.58371684,14.8976077 L1.58371684,13.0673537 C1.58371684,12.8942216 1.65853811,12.7375782 1.7915537,12.6386456 C3.41268117,11.3112992 5.17513771,10.4373942 5.51599016,10.2725064 C5.81527523,10.1241075 6.00648513,9.82730953 6.00648513,9.49753404 L6.00648513,6.88406331 C6.00648513,6.63673169 5.88178302,6.39764446 5.67394617,6.26573427 C5.54093058,6.17504601 5.46610931,6.03489142 5.46610931,5.87824807 L5.46610931,3.17408907 C5.46610931,2.2507177 6.22263547,1.49223408 7.16205805,1.49223408 L7.74400125,1.49223408 C8.67511036,1.49223408 9.43994999,2.2507177 9.43994999,3.17408907 L9.43994999,5.87000368 C9.43994999,6.02664704 9.35681525,6.17504601 9.23211314,6.25748988 C9.02427628,6.39764446 8.89957417,6.6284873 8.89957417,6.87581892 L8.89957417,9.47280088 C8.89957417,9.80257637 9.09078408,10.1076187 9.39006915,10.2560177 C9.73092159,10.4209054 11.4850647,11.3030548 13.1145056,12.6221568 C13.2475212,12.7293338 13.3223425,12.8859772 13.3223425,13.0508649 L13.3223425,14.8976077 C13.297402,15.3263158 13.629941,15.6560913 14.0456147,15.6560913 Z" id="Shape" fill="#000000"></path>
                </g>
            </g>
        </g>
    </g>
</svg>