<?xml version="1.0" encoding="UTF-8"?>
<svg width="42px" height="42px" viewBox="0 0 42 42" version="1.1" xmlns="http://www.w3.org/2000/svg" xmlns:xlink="http://www.w3.org/1999/xlink">
    <!-- Generator: Sketch 43.1 (39012) - http://www.bohemiancoding.com/sketch -->
    <title>icon-application</title>
    <desc>Created with Sketch.</desc>
    <defs></defs>
    <g id="A10-Lightning-Insight" stroke="none" stroke-width="1" fill="none" fill-rule="evenodd">
        <g id="Analytics-1-Client" transform="translate(-995.000000, -236.000000)">
            <g id="icon-application" transform="translate(995.000000, 236.000000)">
                <g id="Layer_1">
                    <g id="Group">
                        <ellipse id="XMLID_4231_" fill="#A7A9AC" cx="6.17142857" cy="31.8451705" rx="5.4" ry="5.36931818"></ellipse>
                        <ellipse id="XMLID_4230_" fill="#A7A9AC" cx="35.8285714" cy="31.8451705" rx="5.4" ry="5.36931818"></ellipse>
                        <ellipse id="XMLID_4216_" fill="#A7A9AC" cx="20.7257143" cy="6.14914773" rx="5.4" ry="5.36931818"></ellipse>
                        <path d="M29.0828571,38.4417614 C28.8942857,38.0582386 28.4314286,37.8963068 28.0457143,38.0838068 C25.8257143,39.1491477 23.4342857,39.6946023 20.9485714,39.6946023 C17.1857143,39.6946023 13.56,38.4076705 10.6542857,36.0639205 C11.7,34.9644886 12.3428571,33.4815341 12.3428571,31.8536932 C12.3428571,28.4701705 9.57428571,25.7173295 6.17142857,25.7173295 C2.76857143,25.7173295 0,28.4701705 0,31.8536932 C0,35.2372159 2.76857143,37.9900568 6.17142857,37.9900568 C7.36285714,37.9900568 8.48571429,37.6491477 9.42857143,37.0610795 C12.6514286,39.7627841 16.7142857,41.2372159 20.9485714,41.2372159 C23.6742857,41.2372159 26.2885714,40.640625 28.7228571,39.4730114 C29.1085714,39.2855114 29.2714286,38.8252841 29.0828571,38.4417614 Z M1.55142857,31.8451705 C1.55142857,29.3139205 3.62571429,27.2514205 6.17142857,27.2514205 C8.71714286,27.2514205 10.7914286,29.3139205 10.7914286,31.8451705 C10.7914286,34.3764205 8.71714286,36.4389205 6.17142857,36.4389205 C3.62571429,36.4389205 1.55142857,34.3764205 1.55142857,31.8451705 Z" id="Shape" fill="#000000"></path>
                        <path d="M3.09428571,22.6235795 C3.07714286,23.0497159 3.41142857,23.4076705 3.84857143,23.4247159 L3.87428571,23.4247159 C4.29428571,23.4247159 4.63714286,23.0923295 4.65428571,22.6747159 C4.84285714,17.1434659 7.8,12.140625 12.5571429,9.28551136 C13.3028571,8.84232955 14.0828571,8.45028409 14.88,8.12642045 C15.7114286,10.5383523 18.0171429,12.2855114 20.7171429,12.2855114 C24.12,12.2855114 26.8885714,9.53267045 26.8885714,6.14914773 C26.8885714,2.765625 24.12,0.0127840909 20.7171429,0.0127840909 C17.3142857,0.0127840909 14.5457143,2.765625 14.5457143,6.14914773 C14.5457143,6.30255682 14.5542857,6.44744318 14.5628571,6.59232955 C13.5942857,6.96732955 12.6428571,7.42755682 11.7514286,7.96448864 C6.54,11.0838068 3.3,16.5639205 3.09428571,22.6235795 Z M20.7257143,1.55539773 C23.2714286,1.55539773 25.3457143,3.61789773 25.3457143,6.14914773 C25.3457143,8.68039773 23.2714286,10.734375 20.7257143,10.734375 C18.18,10.734375 16.1057143,8.671875 16.1057143,6.140625 C16.1057143,3.609375 18.1714286,1.55539773 20.7257143,1.55539773 Z" id="Shape" fill="#000000"></path>
                        <path d="M35.8285714,25.7088068 C32.4257143,25.7088068 29.6571429,28.4616477 29.6571429,31.8451705 C29.6571429,35.2286932 32.4257143,37.9815341 35.8285714,37.9815341 C39.2314286,37.9815341 42,35.2286932 42,31.8451705 C42,29.4673295 40.6285714,27.3963068 38.6314286,26.3821023 C38.8028571,25.3764205 38.8971429,24.3536932 38.8971429,23.3309659 C38.8971429,17.2798295 35.8457143,11.6974432 30.7371429,8.390625 C30.3771429,8.16051136 29.8971429,8.26278409 29.6657143,8.62073864 C29.4342857,8.97869318 29.5371429,9.45596591 29.8971429,9.68607955 C34.5685714,12.703125 37.3542857,17.7997159 37.3542857,23.3309659 C37.3542857,24.1747159 37.2857143,25.0184659 37.1571429,25.8536932 C36.7285714,25.7599432 36.2828571,25.7088068 35.8285714,25.7088068 Z M40.4485714,31.8451705 C40.4485714,34.3764205 38.3742857,36.4389205 35.8285714,36.4389205 C33.2828571,36.4389205 31.2085714,34.3764205 31.2085714,31.8451705 C31.2085714,29.3139205 33.2828571,27.2514205 35.8285714,27.2514205 C38.3742857,27.2514205 40.4485714,29.3139205 40.4485714,31.8451705 Z" id="Shape" fill="#000000"></path>
                    </g>
                </g>
            </g>
        </g>
    </g>
</svg>