<?xml version="1.0" encoding="UTF-8"?>
<svg width="28px" height="32px" viewBox="0 0 28 32" version="1.1" xmlns="http://www.w3.org/2000/svg" xmlns:xlink="http://www.w3.org/1999/xlink">
    <!-- Generator: Sketch 43.1 (39012) - http://www.bohemiancoding.com/sketch -->
    <title>icon-cluster-server</title>
    <desc>Created with Sketch.</desc>
    <defs></defs>
    <g id="A10-Lightning-Insight" stroke="none" stroke-width="1" fill="none" fill-rule="evenodd">
        <g id="Analytics-1-Client" transform="translate(-575.000000, -412.000000)">
            <g id="icon-cluster-server" transform="translate(575.000000, 412.000000)">
                <g id="Layer_1">
                    <g id="Group">
                        <ellipse id="Oval" fill="#A7A9AC" cx="13.9755102" cy="29.642449" rx="1.75020408" ry="1.75020408"></ellipse>
                        <ellipse id="Oval" fill="#A7A9AC" cx="25.5869388" cy="29.642449" rx="1.75020408" ry="1.75020408"></ellipse>
                        <ellipse id="Oval" fill="#A7A9AC" cx="2.35102041" cy="29.642449" rx="1.75020408" ry="1.75020408"></ellipse>
                        <path d="M26.8995918,1.99183673 C26.8995918,0.894693878 26.004898,0 24.9077551,0 L3.04326531,0 C1.94612245,0 1.05142857,0.894693878 1.05142857,1.99183673 L1.05142857,6.5044898 C1.05142857,7.04653061 1.27346939,7.54285714 1.62612245,7.90204082 C1.27346939,8.26122449 1.05142857,8.75755102 1.05142857,9.29959184 L1.05142857,13.8122449 C1.05142857,14.3542857 1.27346939,14.8506122 1.62612245,15.2097959 C1.27346939,15.5689796 1.05142857,16.0653061 1.05142857,16.6073469 L1.05142857,21.12 C1.05142857,22.2171429 1.94612245,23.1118367 3.04326531,23.1118367 L24.9077551,23.1118367 C26.004898,23.1118367 26.8995918,22.2171429 26.8995918,21.12 L26.8995918,16.6073469 C26.8995918,16.0653061 26.677551,15.5689796 26.324898,15.2097959 C26.677551,14.8506122 26.8995918,14.3542857 26.8995918,13.8122449 L26.8995918,9.29959184 C26.8995918,8.75755102 26.677551,8.26122449 26.324898,7.90204082 C26.677551,7.54285714 26.8995918,7.04653061 26.8995918,6.5044898 L26.8995918,1.99183673 L26.8995918,1.99183673 Z M2.23346939,1.99183673 C2.23346939,1.5477551 2.59265306,1.18857143 3.03673469,1.18857143 L24.9012245,1.18857143 C25.3453061,1.18857143 25.7110204,1.5477551 25.7110204,1.99183673 L25.7110204,6.5044898 C25.7110204,6.94857143 25.3518367,7.31428571 24.9012245,7.31428571 L3.04326531,7.31428571 C2.59918367,7.31428571 2.24,6.95510204 2.24,6.5044898 L2.24,1.99183673 L2.23346939,1.99183673 Z M25.717551,9.29959184 L25.717551,13.8122449 C25.717551,14.2563265 25.3583673,14.6155102 24.9077551,14.6155102 L3.04326531,14.6155102 C2.59918367,14.6155102 2.24,14.2563265 2.24,13.8122449 L2.24,9.29959184 C2.24,8.8555102 2.59918367,8.49632653 3.04326531,8.49632653 L24.9077551,8.49632653 C25.3518367,8.49632653 25.717551,8.8555102 25.717551,9.29959184 Z M25.717551,21.12 C25.717551,21.5640816 25.3583673,21.9232653 24.9077551,21.9232653 L3.04326531,21.9232653 C2.59918367,21.9232653 2.24,21.5640816 2.24,21.12 L2.24,16.6073469 C2.24,16.1632653 2.59918367,15.8040816 3.04326531,15.8040816 L24.9077551,15.8040816 C25.3518367,15.8040816 25.717551,16.1632653 25.717551,16.6073469 L25.717551,21.12 L25.717551,21.12 Z" id="Shape" fill="#000000"></path>
                        <path d="M13.7142857,4.83918367 L21.0938776,4.83918367 C21.4204082,4.83918367 21.6881633,4.57142857 21.6881633,4.24489796 C21.6881633,3.91836735 21.4204082,3.65061224 21.0938776,3.65061224 L13.7142857,3.65061224 C13.3877551,3.65061224 13.12,3.91836735 13.12,4.24489796 C13.12,4.57142857 13.3877551,4.83918367 13.7142857,4.83918367 Z" id="Shape" fill="#000000"></path>
                        <ellipse id="Oval" fill="#000000" cx="7.69306122" cy="4.25142857" rx="1" ry="1"></ellipse>
                        <path d="M13.7142857,12.1469388 L21.0938776,12.1469388 C21.4204082,12.1469388 21.6881633,11.8791837 21.6881633,11.5526531 C21.6881633,11.2261224 21.4204082,10.9583673 21.0938776,10.9583673 L13.7142857,10.9583673 C13.3877551,10.9583673 13.12,11.2261224 13.12,11.5526531 C13.1265306,11.8857143 13.3877551,12.1469388 13.7142857,12.1469388 Z" id="Shape" fill="#000000"></path>
                        <path d="M21.0938776,18.2726531 L13.7142857,18.2726531 C13.3877551,18.2726531 13.12,18.5404082 13.12,18.8669388 C13.12,19.1934694 13.3877551,19.4612245 13.7142857,19.4612245 L21.0938776,19.4612245 C21.4204082,19.4612245 21.6881633,19.1934694 21.6881633,18.8669388 C21.6881633,18.5404082 21.4204082,18.2726531 21.0938776,18.2726531 Z" id="Shape" fill="#000000"></path>
                        <circle id="Oval" fill="#000000" cx="7.69306122" cy="11.5591837" r="1"></circle>
                        <circle id="Oval" fill="#000000" cx="7.69306122" cy="18.8669388" r="1"></circle>
                        <path d="M25.5869388,27.2979592 C24.5028571,27.2979592 23.5885714,28.042449 23.3208163,29.0481633 L16.2416327,29.0481633 C16.0261224,28.2318367 15.3861224,27.5918367 14.5697959,27.3763265 L14.5697959,25.5216327 C14.5697959,25.195102 14.3020408,24.9273469 13.9755102,24.9273469 C13.6489796,24.9273469 13.3812245,25.195102 13.3812245,25.5216327 L13.3812245,27.3763265 C12.564898,27.5918367 11.924898,28.2318367 11.7093878,29.0481633 L4.61061224,29.0481633 C4.34938776,28.042449 3.43510204,27.2979592 2.3444898,27.2979592 C1.05142857,27.2979592 0,28.3493878 0,29.642449 C0,30.9355102 1.05142857,31.9869388 2.3444898,31.9869388 C3.42857143,31.9869388 4.34285714,31.242449 4.61061224,30.2367347 L11.7093878,30.2367347 C11.9706122,31.242449 12.884898,31.9869388 13.9755102,31.9869388 C15.0661224,31.9869388 15.9738776,31.242449 16.2416327,30.2367347 L23.3273469,30.2367347 C23.5885714,31.242449 24.5028571,31.9869388 25.5934694,31.9869388 C26.8865306,31.9869388 27.9379592,30.9355102 27.9379592,29.642449 C27.9379592,28.3493878 26.88,27.2979592 25.5869388,27.2979592 Z M2.35102041,30.7983673 C1.71102041,30.7983673 1.18857143,30.2759184 1.18857143,29.6359184 C1.18857143,28.9959184 1.71102041,28.4734694 2.35102041,28.4734694 C2.99102041,28.4734694 3.51346939,28.9959184 3.51346939,29.6359184 C3.51346939,30.2759184 2.9844898,30.7983673 2.35102041,30.7983673 Z M13.9755102,30.7983673 C13.3355102,30.7983673 12.8130612,30.2759184 12.8130612,29.6359184 C12.8130612,28.9959184 13.3355102,28.4734694 13.9755102,28.4734694 C14.6155102,28.4734694 15.1379592,28.9959184 15.1379592,29.6359184 C15.1379592,30.2759184 14.6155102,30.7983673 13.9755102,30.7983673 Z M25.5869388,30.7983673 C24.9469388,30.7983673 24.4244898,30.2759184 24.4244898,29.6359184 C24.4244898,28.9959184 24.9469388,28.4734694 25.5869388,28.4734694 C26.2269388,28.4734694 26.7493878,28.9959184 26.7493878,29.6359184 C26.7493878,30.2759184 26.2269388,30.7983673 25.5869388,30.7983673 Z" id="Shape" fill="#000000"></path>
                    </g>
                </g>
            </g>
        </g>
    </g>
</svg>