<?xml version="1.0" encoding="UTF-8"?>
<svg width="32px" height="32px" viewBox="0 0 32 32" version="1.1" xmlns="http://www.w3.org/2000/svg" xmlns:xlink="http://www.w3.org/1999/xlink">
    <!-- Generator: Sketch 43.1 (39012) - http://www.bohemiancoding.com/sketch -->
    <title>icon-wan</title>
    <desc>Created with Sketch.</desc>
    <defs></defs>
    <g id="A10-Lightning-Insight" stroke="none" stroke-width="1" fill="none" fill-rule="evenodd">
        <g id="Analytics-1-Client" transform="translate(-164.000000, -410.000000)" fill-rule="nonzero">
            <g id="icon-wan" transform="translate(164.000000, 410.000000)">
                <g id="Layer_1">
                    <g id="Group">
                        <circle id="Oval" fill="#3C92CA" cx="15.9975837" cy="15.995102" r="3.84"></circle>
                        <path d="M15.9975837,20.4228571 C13.5551347,20.4228571 11.5698286,18.437551 11.5698286,15.995102 C11.5698286,13.5526531 13.5551347,11.5673469 15.9975837,11.5673469 C18.4400327,11.5673469 20.4253388,13.5526531 20.4253388,15.995102 C20.4253388,18.437551 18.4400327,20.4228571 15.9975837,20.4228571 Z M15.9975837,12.7493878 C14.2081959,12.7493878 12.7518694,14.2057143 12.7518694,15.995102 C12.7518694,17.7844898 14.2081959,19.2408163 15.9975837,19.2408163 C17.7869714,19.2408163 19.243298,17.7844898 19.243298,15.995102 C19.243298,14.2057143 17.7869714,12.7493878 15.9975837,12.7493878 Z" id="Shape" fill="#000000"></path>
                        <path d="M15.9975837,8.96816327 C16.3241143,8.96816327 16.5918694,8.70040816 16.5918694,8.37387755 L16.5918694,2.01959184 L17.9110531,3.33877551 C18.0286041,3.45632653 18.1788082,3.51510204 18.3290122,3.51510204 C18.4792163,3.51510204 18.6294204,3.45632653 18.7469714,3.33877551 C18.9755429,3.11020408 18.9755429,2.73142857 18.7469714,2.50285714 L16.4155429,0.171428571 C16.1869714,-0.0571428571 15.8081959,-0.0571428571 15.5796245,0.171428571 L13.2481959,2.50285714 C13.0196245,2.73142857 13.0196245,3.11020408 13.2481959,3.33877551 C13.4767673,3.56734694 13.8555429,3.56734694 14.0841143,3.33877551 L15.403298,2.01959184 L15.403298,8.37387755 C15.403298,8.70693878 15.6710531,8.96816327 15.9975837,8.96816327 Z" id="Shape" fill="#000000"></path>
                        <path d="M13.2481959,29.4873469 L15.5796245,31.8187755 C15.6971755,31.9363265 15.8473796,31.995102 15.9975837,31.995102 C16.1477878,31.995102 16.2979918,31.9363265 16.4155429,31.8187755 L18.7469714,29.4873469 C18.9755429,29.2587755 18.9755429,28.88 18.7469714,28.6514286 C18.5184,28.4228571 18.1396245,28.4228571 17.9110531,28.6514286 L16.5918694,29.9706122 L16.5918694,23.6163265 C16.5918694,23.2897959 16.3241143,23.0220408 15.9975837,23.0220408 C15.6710531,23.0220408 15.403298,23.2897959 15.403298,23.6163265 L15.403298,29.9706122 L14.0841143,28.6514286 C13.8555429,28.4228571 13.4767673,28.4228571 13.2481959,28.6514286 C13.0196245,28.88 13.0196245,29.2522449 13.2481959,29.4873469 Z" id="Shape" fill="#000000"></path>
                        <path d="M2.50533878,18.7444898 C2.6228898,18.8620408 2.77309388,18.9208163 2.92329796,18.9208163 C3.07350204,18.9208163 3.22370612,18.8620408 3.34125714,18.7444898 C3.56982857,18.5159184 3.56982857,18.1371429 3.34125714,17.9085714 L2.02207347,16.5893878 L8.37635918,16.5893878 C8.7028898,16.5893878 8.9706449,16.3216327 8.9706449,15.995102 C8.9706449,15.6685714 8.7028898,15.4008163 8.37635918,15.4008163 L2.02207347,15.4008163 L3.34125714,14.0816327 C3.56982857,13.8530612 3.56982857,13.4742857 3.34125714,13.2457143 C3.11268571,13.0171429 2.7339102,13.0171429 2.50533878,13.2457143 L0.173910204,15.5771429 C-0.0546612245,15.8057143 -0.0546612245,16.1844898 0.173910204,16.4130612 L2.50533878,18.7444898 Z" id="Shape" fill="#000000"></path>
                        <path d="M23.0245224,15.995102 C23.0245224,16.3216327 23.2922776,16.5893878 23.6188082,16.5893878 L29.9730939,16.5893878 L28.6539102,17.9085714 C28.4253388,18.1371429 28.4253388,18.5159184 28.6539102,18.7444898 C28.7714612,18.8620408 28.9216653,18.9208163 29.0718694,18.9208163 C29.2220735,18.9208163 29.3722776,18.8620408 29.4898286,18.7444898 L31.8212571,16.4130612 C32.0498286,16.1844898 32.0498286,15.8057143 31.8212571,15.5771429 L29.4898286,13.2457143 C29.2612571,13.0171429 28.8824816,13.0171429 28.6539102,13.2457143 C28.4253388,13.4742857 28.4253388,13.8530612 28.6539102,14.0816327 L29.9730939,15.4008163 L23.6188082,15.4008163 C23.2857469,15.4008163 23.0245224,15.6685714 23.0245224,15.995102 Z" id="Shape" fill="#000000"></path>
                        <path d="M8.99676735,5.10204082 C8.99676735,4.7755102 8.72901224,4.5077551 8.40248163,4.5077551 L5.10452245,4.5077551 C4.77799184,4.5077551 4.51023673,4.7755102 4.51023673,5.10204082 L4.51023673,8.4 C4.51023673,8.72653061 4.77799184,8.99428571 5.10452245,8.99428571 C5.43105306,8.99428571 5.69880816,8.72653061 5.69880816,8.4 L5.69880816,6.5322449 L10.1918694,11.0253061 C10.3094204,11.1428571 10.4596245,11.2016327 10.6098286,11.2016327 C10.7600327,11.2016327 10.9102367,11.1428571 11.0277878,11.0253061 C11.2563592,10.7967347 11.2563592,10.4179592 11.0277878,10.1893878 L6.53472653,5.69632653 L8.40248163,5.69632653 C8.72901224,5.69632653 8.99676735,5.42857143 8.99676735,5.10204082 Z" id="Shape" fill="#000000"></path>
                        <path d="M20.9673796,21.8008163 L25.4604408,26.2938776 L23.5926857,26.2938776 C23.2661551,26.2938776 22.9984,26.5616327 22.9984,26.8881633 C22.9984,27.2146939 23.2661551,27.482449 23.5926857,27.482449 L26.8906449,27.482449 C27.2171755,27.482449 27.4849306,27.2146939 27.4849306,26.8881633 L27.4849306,23.5902041 C27.4849306,23.2636735 27.2171755,22.9959184 26.8906449,22.9959184 C26.5641143,22.9959184 26.2963592,23.2636735 26.2963592,23.5902041 L26.2963592,25.4579592 L21.803298,20.964898 C21.5747265,20.7363265 21.195951,20.7363265 20.9673796,20.964898 C20.7322776,21.1934694 20.7322776,21.5657143 20.9673796,21.8008163 Z" id="Shape" fill="#000000"></path>
                        <path d="M5.10452245,22.9959184 C4.77799184,22.9959184 4.51023673,23.2636735 4.51023673,23.5902041 L4.51023673,26.8881633 C4.51023673,27.2146939 4.77799184,27.482449 5.10452245,27.482449 L8.40248163,27.482449 C8.72901224,27.482449 8.99676735,27.2146939 8.99676735,26.8881633 C8.99676735,26.5616327 8.72901224,26.2938776 8.40248163,26.2938776 L6.53472653,26.2938776 L11.0277878,21.8008163 C11.2563592,21.5722449 11.2563592,21.1934694 11.0277878,20.964898 C10.7992163,20.7363265 10.4204408,20.7363265 10.1918694,20.964898 L5.69880816,25.4579592 L5.69880816,23.5902041 C5.69880816,23.2636735 5.43105306,22.9959184 5.10452245,22.9959184 Z" id="Shape" fill="#000000"></path>
                        <path d="M20.9673796,11.0253061 C21.0849306,11.1428571 21.2351347,11.2016327 21.3853388,11.2016327 C21.5355429,11.2016327 21.6857469,11.1428571 21.803298,11.0253061 L26.2963592,6.5322449 L26.2963592,8.4 C26.2963592,8.72653061 26.5641143,8.99428571 26.8906449,8.99428571 C27.2171755,8.99428571 27.4849306,8.72653061 27.4849306,8.4 L27.4849306,5.10204082 C27.4849306,4.7755102 27.2171755,4.5077551 26.8906449,4.5077551 L23.5926857,4.5077551 C23.2661551,4.5077551 22.9984,4.7755102 22.9984,5.10204082 C22.9984,5.42857143 23.2661551,5.69632653 23.5926857,5.69632653 L25.4604408,5.69632653 L20.9673796,10.1893878 C20.7322776,10.4244898 20.7322776,10.7967347 20.9673796,11.0253061 Z" id="Shape" fill="#000000"></path>
                    </g>
                </g>
            </g>
        </g>
    </g>
</svg>