<svg xmlns="http://www.w3.org/2000/svg" viewBox="0 0 32 32"><defs><style>.cls-1{fill:#ffda44;}.cls-2{fill:#d80027;}.cls-3{fill:#0052b4;}.cls-4{fill:#ff9811;}</style></defs><title>AD</title><g id="Layer_2" data-name="Layer 2"><g id="AD"><path class="cls-1" d="M9,30.41a16,16,0,0,0,13.92,0L24.35,16,23,1.59A16,16,0,0,0,9,1.59L7.65,16Z"/><path class="cls-2" d="M23,30.41A16,16,0,0,0,23,1.59Z"/><path class="cls-3" d="M9,30.41V1.59A16,16,0,0,0,9,30.41Z"/><path class="cls-2" d="M16,21.57V16h4.17v2.09a5,5,0,0,1-2.41,2.78A7.23,7.23,0,0,1,16,21.57Z"/><rect class="cls-2" x="11.83" y="11.83" width="4.17" height="4.17"/><path class="cls-4" d="M18.09,10.43A1.4,1.4,0,0,0,16.7,9a1.36,1.36,0,0,0-.7.19A1.36,1.36,0,0,0,15.3,9a1.4,1.4,0,0,0-1.39,1.39H10.43v7c0,2.59,2.06,4.09,3.67,4.87a1.36,1.36,0,0,0-.19.7,1.39,1.39,0,0,0,1.39,1.39,1.36,1.36,0,0,0,.7-.19,1.36,1.36,0,0,0,.7.19A1.4,1.4,0,0,0,18.09,23a1.36,1.36,0,0,0-.19-.7c1.61-.78,3.67-2.28,3.67-4.87v-7Zm1.39,7c0,.36,0,1.47-1.72,2.56a8.58,8.58,0,0,1-1.76.83A8.58,8.58,0,0,1,14.24,20c-1.72-1.09-1.72-2.2-1.72-2.56V12.52h7Z"/></g></g></svg>