<svg xmlns="http://www.w3.org/2000/svg" viewBox="0 0 32 32"><defs><style>.cls-1{fill:#d80027;}.cls-2{fill:#496e2d;}.cls-3{fill:#ffda44;}</style></defs><title>AF</title><g id="Layer_2" data-name="Layer 2"><g id="AF"><path class="cls-1" d="M23,1.59A16,16,0,0,0,9,1.59L7.65,16,9,30.41a16,16,0,0,0,13.92,0L24.35,16Z"/><path d="M9,1.59A16,16,0,0,0,9,30.41Z"/><path class="cls-2" d="M23,1.59V30.41A16,16,0,0,0,23,1.59Z"/><path class="cls-3" d="M16,10.43A5.57,5.57,0,1,0,21.57,16,5.58,5.58,0,0,0,16,10.43Zm0,9.05A3.48,3.48,0,1,1,19.48,16,3.48,3.48,0,0,1,16,19.48Z"/><path class="cls-3" d="M16,13.91a1.39,1.39,0,0,0-1.39,1.39v2.09h2.78V15.3A1.39,1.39,0,0,0,16,13.91Z"/></g></g></svg>