<svg xmlns="http://www.w3.org/2000/svg" viewBox="0 0 32 32"><defs><style>.cls-1{fill:#0052b4;}.cls-2{fill:#f0f0f0;}.cls-3{fill:#ffda44;}.cls-4{fill:#a2001d;}</style></defs><title>ag</title><g id="Layer_2" data-name="Layer 2"><g id="ag"><path class="cls-1" d="M0,16a16,16,0,0,0,.32,3.2l15.68,1,15.68-1a16.16,16.16,0,0,0,0-6.4L16,11.83.32,12.8A16,16,0,0,0,0,16Z"/><path class="cls-2" d="M31.68,19.2H.32a16,16,0,0,0,31.36,0Z"/><path d="M.32,12.8H31.68a16,16,0,0,0-31.36,0Z"/><polygon class="cls-3" points="22.96 12.8 9.04 12.8 11.89 11.46 10.37 8.71 13.46 9.3 13.85 6.18 16 8.48 18.15 6.18 18.54 9.3 21.63 8.71 20.11 11.46 22.96 12.8"/><path class="cls-4" d="M0,16A16,16,0,0,0,16,32L3.2,6.4A15.92,15.92,0,0,0,0,16Z"/><path class="cls-4" d="M16,32A16,16,0,0,0,28.8,6.4Z"/></g></g></svg>