<svg xmlns="http://www.w3.org/2000/svg" viewBox="0 0 32 32"><defs><style>.cls-1{fill:#d80027;}</style></defs><title>AL</title><g id="Layer_2" data-name="Layer 2"><g id="AL"><circle class="cls-1" cx="16" cy="16" r="16"/><path d="M25,11.88H19.25a2.09,2.09,0,0,0-1.51-3.53A2.08,2.08,0,0,0,16,9.28a2.09,2.09,0,0,0-3.83,1.15,2.1,2.1,0,0,0,.58,1.45H7a2.87,2.87,0,0,0,2.87,2.78H9.74a2.78,2.78,0,0,0,2.78,2.78,2.74,2.74,0,0,0,.36,1.37l-2.31,2.31,1.77,1.77,2.52-2.51.3.08-1.52,3.43L16,26.43l2.36-2.54-1.52-3.43.3-.08,2.52,2.51,1.77-1.77-2.31-2.31a2.74,2.74,0,0,0,.36-1.37,2.78,2.78,0,0,0,2.78-2.78h-.09A2.87,2.87,0,0,0,25,11.88Z"/></g></g></svg>