<svg xmlns="http://www.w3.org/2000/svg" viewBox="0 0 32 32"><defs><style>.cls-1{fill:#d80027;}.cls-2{fill:#ffda44;}</style></defs><title>AO</title><g id="Layer_2" data-name="Layer 2"><g id="AO"><path class="cls-1" d="M0,16a16,16,0,0,1,32,0c-.7,0-16,2.09-16,2.09Z"/><path d="M32,16A16,16,0,0,1,0,16"/><polygon class="cls-2" points="13.81 12.73 15.16 13.71 14.65 15.3 16 14.32 17.36 15.3 16.84 13.71 18.19 12.72 16.52 12.72 16 11.13 15.48 12.72 13.81 12.73"/><path class="cls-2" d="M20,9.07A8,8,0,0,0,16,8v2.09a5.91,5.91,0,1,1-4.93,9.17L9.32,20.41A8.11,8.11,0,0,0,12,22.93,8,8,0,0,0,20,9.07Z"/><path class="cls-2" d="M11.39,14.61a2.08,2.08,0,0,0,.83,2.83L19,21.14a1.69,1.69,0,0,0,.63,2.33l1.83,1a1.74,1.74,0,0,0,2.36-.7l1-1.83Z"/></g></g></svg>