<svg xmlns="http://www.w3.org/2000/svg" viewBox="0 0 32 32"><defs><style>.cls-1{fill:#f0f0f0;}.cls-2{fill:#338af3;}.cls-3{fill:#ffda44;}</style></defs><title>ar</title><g id="Layer_2" data-name="Layer 2"><g id="ar"><circle class="cls-1" cx="16" cy="16" r="16"/><path class="cls-2" d="M16,0A16,16,0,0,0,1.59,9H30.41A16,16,0,0,0,16,0Z"/><path class="cls-2" d="M16,32a16,16,0,0,0,14.41-9H1.59A16,16,0,0,0,16,32Z"/><polygon class="cls-3" points="20.78 16 18.83 16.92 19.87 18.81 17.75 18.41 17.48 20.55 16 18.97 14.52 20.55 14.25 18.41 12.13 18.81 13.17 16.92 11.22 16 13.17 15.08 12.13 13.19 14.25 13.59 14.52 11.45 16 13.03 17.48 11.45 17.75 13.59 19.87 13.19 18.83 15.08 20.78 16"/></g></g></svg>