<svg xmlns="http://www.w3.org/2000/svg" viewBox="0 0 32 32"><defs><style>.cls-1{fill:#f0f0f0;}.cls-2{fill:#0052b4;}.cls-3{fill:#d80027;}.cls-4{fill:#a2001d;}.cls-5{fill:#ffda44;}</style></defs><title>AS</title><g id="Layer_2" data-name="Layer 2"><g id="AS"><circle class="cls-1" cx="16" cy="16" r="16"/><path class="cls-2" d="M23.76,2A16,16,0,0,0,0,16l11.13-5.57Z"/><path class="cls-2" d="M0,16A16,16,0,0,0,23.76,30L11.13,21.57Z"/><path class="cls-3" d="M25.1,2.84A14.22,14.22,0,0,0,23.76,2L0,16H0L23.76,30a14.22,14.22,0,0,0,1.34-.83L2.74,16Z"/><path class="cls-4" d="M27.83,15.4H25.92a1.51,1.51,0,0,0-.09-2,1.51,1.51,0,0,0,0-2.14l0,0a1.56,1.56,0,0,0,0-2.18l-8.57,8.57a1.5,1.5,0,0,0,2.13,0l.16-.15,4.1-.37v1.76H25V17l2.09-.19Z"/><polygon class="cls-5" points="17.39 19.48 16 18.78 17.39 18.09 26.43 18.09 26.43 19.48 17.39 19.48"/></g></g></svg>