<svg xmlns="http://www.w3.org/2000/svg" viewBox="0 0 32 32"><defs><style>.cls-1{fill:#0052b4;}.cls-2{fill:#f0f0f0;}.cls-3{fill:#d80027;}</style></defs><title>au</title><g id="Layer_2" data-name="Layer 2"><g id="au"><path class="cls-1" d="M32,16A16,16,0,0,1,0,16L16,0A16,16,0,0,1,32,16Z"/><path class="cls-2" d="M16,0Z"/><path class="cls-2" d="M16,16h0v0Z"/><path class="cls-2" d="M16,8.35V0h0A16,16,0,0,0,0,16H8.35V11.3l4.7,4.7H16l0,0V13.05l-4.7-4.7Z"/><path class="cls-3" d="M8.09,2.09a16,16,0,0,0-6,6V16H6.26V6.26H16V2.09Z"/><path class="cls-3" d="M16,14,10.32,8.35h-2L16,16h0Z"/><polygon class="cls-2" points="9.65 18.78 10.53 20.62 12.51 20.16 11.62 21.99 13.22 23.26 11.23 23.7 11.24 25.74 9.65 24.47 8.06 25.74 8.07 23.7 6.08 23.26 7.68 21.99 6.79 20.16 8.77 20.62 9.65 18.78"/><polygon class="cls-2" points="23.95 22.26 24.39 23.18 25.39 22.95 24.94 23.86 25.74 24.5 24.75 24.72 24.75 25.74 23.95 25.1 23.16 25.74 23.16 24.72 22.17 24.5 22.97 23.86 22.52 22.95 23.52 23.18 23.95 22.26"/><polygon class="cls-2" points="19.87 12.52 20.31 13.44 21.3 13.21 20.86 14.13 21.66 14.76 20.66 14.98 20.66 16 19.87 15.36 19.08 16 19.08 14.98 18.09 14.76 18.88 14.13 18.44 13.21 19.43 13.44 19.87 12.52"/><polygon class="cls-2" points="23.95 6.96 24.39 7.88 25.39 7.64 24.94 8.56 25.74 9.19 24.75 9.42 24.75 10.44 23.95 9.8 23.16 10.44 23.16 9.42 22.17 9.19 22.97 8.56 22.52 7.64 23.52 7.88 23.95 6.96"/><polygon class="cls-2" points="27.52 11.13 27.96 12.05 28.95 11.82 28.51 12.73 29.31 13.37 28.31 13.59 28.32 14.61 27.52 13.97 26.73 14.61 26.73 13.59 25.74 13.37 26.54 12.73 26.09 11.82 27.08 12.05 27.52 11.13"/><polygon class="cls-2" points="24.97 16 25.32 17.06 26.43 17.06 25.53 17.72 25.88 18.78 24.97 18.13 24.07 18.78 24.41 17.72 23.51 17.06 24.63 17.06 24.97 16"/></g></g></svg>