<svg xmlns="http://www.w3.org/2000/svg" viewBox="0 0 32 32"><defs><style>.cls-1{fill:#ffda44;}.cls-2{fill:#338af3;}.cls-3{fill:#f0f0f0;}.cls-4{fill:#d80027;}</style></defs><title>aw</title><g id="Layer_2" data-name="Layer 2"><g id="aw"><circle class="cls-1" cx="16" cy="16" r="16"/><path class="cls-2" d="M16,32a16,16,0,0,0,12.13-5.57H3.87A16,16,0,0,0,16,32Z"/><path class="cls-2" d="M32,16A16,16,0,1,0,.55,20.17h30.9A16,16,0,0,0,32,16Z"/><path class="cls-2" d="M1.27,22.26a15.87,15.87,0,0,0,1.08,2.09h27.3a15.87,15.87,0,0,0,1.08-2.09Z"/><polygon class="cls-3" points="7.33 10.09 4.21 8.71 7.33 7.33 8.71 4.21 10.09 7.33 13.22 8.71 10.09 10.09 8.71 13.22 7.33 10.09"/><polygon class="cls-4" points="8.71 5.93 9.56 7.86 11.49 8.71 9.56 9.56 8.71 11.49 7.86 9.56 5.93 8.71 7.86 7.86 8.71 5.93"/></g></g></svg>