<svg xmlns="http://www.w3.org/2000/svg" viewBox="0 0 32 32"><defs><style>.cls-1{fill:#d80027;}.cls-2{fill:#6da544;}.cls-3{fill:#338af3;}.cls-4{fill:#f0f0f0;}</style></defs><title>az</title><g id="Layer_2" data-name="Layer 2"><g id="az"><path class="cls-1" d="M32,16a15.85,15.85,0,0,0-1-5.57L16,9.74,1,10.43A16,16,0,0,0,1,21.57l15,.69,15-.69A15.85,15.85,0,0,0,32,16Z"/><path class="cls-2" d="M16,32A16,16,0,0,0,31,21.57H1A16,16,0,0,0,16,32Z"/><path class="cls-3" d="M1,10.43H31a16,16,0,0,0-30,0Z"/><path class="cls-4" d="M16.35,20.52a4.52,4.52,0,0,1,0-9A4.57,4.57,0,0,1,18.5,12a5.57,5.57,0,1,0,0,8A4.57,4.57,0,0,1,16.35,20.52Z"/><polygon class="cls-4" points="19.83 12.87 20.43 14.55 22.04 13.79 21.27 15.4 22.96 16 21.27 16.6 22.04 18.21 20.43 17.45 19.83 19.13 19.23 17.45 17.61 18.21 18.38 16.6 16.7 16 18.38 15.4 17.61 13.79 19.23 14.55 19.83 12.87"/></g></g></svg>