<svg xmlns="http://www.w3.org/2000/svg" viewBox="0 0 32 32"><defs><style>.cls-1{fill:#f0f0f0;}.cls-2{fill:#ffda44;}.cls-3{fill:#0052b4;}</style></defs><title>ba</title><g id="Layer_2" data-name="Layer 2"><g id="ba"><circle class="cls-1" cx="16" cy="16" r="16"/><path class="cls-2" d="M16,0A16,16,0,0,0,2.5,7.4L24.2,29.74A16,16,0,0,0,16,0Z"/><path class="cls-3" d="M32,16A16,16,0,0,0,27.83,5.22V26.78A16,16,0,0,0,32,16Z"/><path class="cls-3" d="M20,30.12h1.67l.52-1.6.52,1.6h.84a15.12,15.12,0,0,0,1.49-.9L2.79,7a16.38,16.38,0,0,0-1,1.67l.2.61H3.67l-1.36,1,.52,1.59-1.36-1-.81.59A16,16,0,0,0,21.33,31.09ZM3.57,15.3l.52-1.59-1.36-1H4.41l.51-1.59.52,1.59H7.12l-1.36,1,.52,1.59-1.36-1ZM7,18.78l.52-1.59-1.36-1H7.86l.51-1.59.52,1.59h1.68l-1.36,1,.52,1.59-1.35-1Zm3.45,3.48L11,20.67l-1.36-1h1.68l.52-1.59.51,1.59H14l-1.36,1,.52,1.59-1.35-1Zm4.81,2.49-1.36,1,.52-1.6-1.36-1h1.68l.52-1.59.52,1.59h1.67l-1.35,1,.52,1.6Zm2.09,4.47.52-1.6-1.35-1h1.67l.52-1.6.52,1.6h1.67l-1.35,1,.52,1.6-1.36-1Z"/></g></g></svg>