<svg xmlns="http://www.w3.org/2000/svg" viewBox="0 0 32 32"><defs><style>.cls-1{fill:#ffda44;}.cls-2{fill:#0052b4;}</style></defs><title>bb</title><g id="Layer_2" data-name="Layer 2"><g id="bb"><path class="cls-1" d="M23,1.59A16,16,0,0,0,9,1.59L7.65,16,9,30.41a16,16,0,0,0,13.92,0L24.35,16Z"/><path class="cls-2" d="M9,1.59A16,16,0,0,0,9,30.41Z"/><path class="cls-2" d="M23,1.59V30.41A16,16,0,0,0,23,1.59Z"/><path d="M20.87,9.74l.93.47-.93-.47-.93-.47a17.3,17.3,0,0,0-1.48,6.38H17V9.74L16,8.35,15,9.74v5.91H13.54a17.3,17.3,0,0,0-1.48-6.38l-1.86.94a15.87,15.87,0,0,1,1.28,6.49v1H15v5.91H17V17.74h3.48v-1a17.57,17.57,0,0,1,.64-4.7,13.09,13.09,0,0,1,.64-1.8Z"/></g></g></svg>