<svg xmlns="http://www.w3.org/2000/svg" viewBox="0 0 32 32"><defs><style>.cls-1{fill:#f0f0f0;}.cls-2{fill:#d80027;}.cls-3{fill:#6da544;}</style></defs><title>bi</title><g id="Layer_2" data-name="Layer 2"><g id="bi"><circle class="cls-1" cx="16" cy="16" r="16"/><path class="cls-2" d="M25.74,3.31a16,16,0,0,0-19.48,0L16,13.05Z"/><path class="cls-2" d="M16,19,6.26,28.69a16,16,0,0,0,19.48,0L16,19Z"/><path class="cls-3" d="M13.05,16,3.31,6.26a16,16,0,0,0,0,19.48L13.05,16Z"/><path class="cls-3" d="M19,16l9.74,9.74a16,16,0,0,0,0-19.48L19,16Z"/><circle class="cls-1" cx="16" cy="16" r="6.96"/><polygon class="cls-2" points="16 11.13 16.6 12.17 17.81 12.17 17.2 13.22 17.81 14.26 16.6 14.26 16 15.3 15.4 14.26 14.19 14.26 14.79 13.22 14.19 12.17 15.4 12.17 16 11.13"/><polygon class="cls-2" points="12.94 16 13.54 17.04 14.74 17.04 14.14 18.09 14.74 19.13 13.54 19.13 12.94 20.17 12.34 19.13 11.13 19.13 11.73 18.09 11.13 17.04 12.34 17.04 12.94 16"/><polygon class="cls-2" points="19.06 16 19.66 17.04 20.87 17.04 20.27 18.09 20.87 19.13 19.66 19.13 19.06 20.17 18.46 19.13 17.25 19.13 17.86 18.09 17.25 17.04 18.46 17.04 19.06 16"/></g></g></svg>