<svg xmlns="http://www.w3.org/2000/svg" viewBox="0 0 32 32"><defs><style>.cls-1{fill:#d80027;}.cls-2{fill:#0052b4;}.cls-3{fill:#f0f0f0;}.cls-4{fill:#f3f3f3;}.cls-5{fill:#6da544;}.cls-6{fill:#a2001d;}.cls-7{fill:#338af3;}</style></defs><title>bm</title><g id="Layer_2" data-name="Layer 2"><g id="bm"><path class="cls-1" d="M32,16A16,16,0,0,1,0,16L16,0A16,16,0,0,1,32,16Z"/><polygon class="cls-2" points="16 7.65 16 13.05 10.44 7.65 16 7.65"/><polygon class="cls-2" points="8.35 16 13.05 16 8.35 9.74 7.65 14.61 8.35 16"/><path class="cls-3" d="M16,0Z"/><path class="cls-3" d="M16,16h0v0Z"/><path class="cls-3" d="M16,8.35V0h0A16,16,0,0,0,0,16H8.35V11.3l4.7,4.7H16l0,0V13.05l-4.7-4.7Z"/><path class="cls-1" d="M8.09,2.09a16,16,0,0,0-6,6V16.7H6.26V6.26H16.7V2.09Z"/><path class="cls-1" d="M16.64,14.67,10.32,8.35h-2l8.29,8.29h0Z"/><path class="cls-4" d="M18.09,8.35V16c0,3.73,9.74,3.73,9.74,0V8.35Z"/><path class="cls-5" d="M18.09,16h0c0,3.73,4.87,4.87,4.87,4.87s4.87-1.14,4.87-4.87H18.09Z"/><polygon class="cls-6" points="22.96 12.94 20.7 13.91 20.7 16 22.96 17.39 25.22 16 25.22 13.91 22.96 12.94"/><rect class="cls-7" x="20.7" y="11.83" width="4.52" height="2.09"/></g></g></svg>