<svg xmlns="http://www.w3.org/2000/svg" viewBox="0 0 32 32"><defs><style>.cls-1{fill:#f0f0f0;}.cls-2{fill:#ffda44;}.cls-3{fill:#d80027;}</style></defs><title>bn</title><g id="Layer_2" data-name="Layer 2"><g id="bn"><circle class="cls-1" cx="16" cy="16" r="16"/><path d="M2.14,8a15.89,15.89,0,0,0-1.6,3.89L27.29,27.34A16,16,0,0,0,29.85,24Z"/><path class="cls-2" d="M24,2.15A16,16,0,0,0,4.71,4.66L31.46,20.11A16,16,0,0,0,24,2.15Z"/><path class="cls-2" d="M8,29.85a16,16,0,0,0,19.29-2.51L.54,11.89A16,16,0,0,0,8,29.85Z"/><path class="cls-3" d="M20.52,14.26a4.52,4.52,0,0,1-9,0A4.45,4.45,0,0,1,12,12.11a5.56,5.56,0,1,0,8,0A4.57,4.57,0,0,1,20.52,14.26Z"/><rect class="cls-3" x="14.96" y="9.04" width="2.09" height="10.43"/><path class="cls-3" d="M19.48,11.13h-7a.9.9,0,0,0,.9.87h0a.87.87,0,0,0,.87.87.87.87,0,0,0,.87.87h1.74a.87.87,0,0,0,.87-.87.87.87,0,0,0,.87-.87h0A.9.9,0,0,0,19.48,11.13Z"/><rect class="cls-3" x="11.13" y="20.17" width="9.74" height="2.09"/><rect class="cls-3" x="18.09" y="20.87" width="4.17" height="2.09"/><rect class="cls-3" x="9.74" y="20.87" width="4.17" height="2.09"/></g></g></svg>