<svg xmlns="http://www.w3.org/2000/svg" viewBox="0 0 32 32"><defs><style>.cls-1{fill:#ffda44;}.cls-2{fill:#ff9811;}.cls-3{fill:#f0f0f0;}</style></defs><title>bt</title><g id="Layer_2" data-name="Layer 2"><g id="bt"><path class="cls-1" d="M4.69,27.31A16,16,0,0,1,27.31,4.69s4.25,14.37-2,20.62S4.69,27.32,4.69,27.31Z"/><path class="cls-2" d="M4.69,27.31A16,16,0,0,0,27.31,4.69Z"/><path class="cls-3" d="M25.05,9V6.26H19.72l-.41.41a4.63,4.63,0,0,0-1,4.37c.17,1.15.19,1.59-.24,2s-.86.41-2,.24-2.92-.42-4.37,1a4.64,4.64,0,0,0-1,4.38c.17,1.14.19,1.58-.24,2s-.87.41-2,.25A9,9,0,0,0,7,20.81l0,2.78a8.24,8.24,0,0,1,1,.11,10.64,10.64,0,0,0,1.47.14,4.13,4.13,0,0,0,1.69-.33v2.23h4.17V23.65H13.22V22.26h1.4V20.17H13.5a8,8,0,0,0-.12-1.87c-.16-1.15-.18-1.59.24-2s.87-.41,2-.24a5.7,5.7,0,0,0,3.16-.19v2.23H23V16H20.88V14.61h1.39V12.52H21.16A8.53,8.53,0,0,0,21,10.65,3.47,3.47,0,0,1,21,9Z"/></g></g></svg>