<svg xmlns="http://www.w3.org/2000/svg" viewBox="0 0 32 32"><defs><style>.cls-1{fill:#f0f0f0;}.cls-2{fill:#338af3;}</style></defs><title>bw</title><g id="Layer_2" data-name="Layer 2"><g id="bw"><path class="cls-1" d="M.76,11.13a16,16,0,0,0,0,9.74l15.24.7,15.24-.7a16,16,0,0,0,0-9.74L16,10.43Z"/><path d="M32,16a15.88,15.88,0,0,0-.24-2.78H.24a16.22,16.22,0,0,0,0,5.56H31.76A15.88,15.88,0,0,0,32,16Z"/><path class="cls-2" d="M16,32A16,16,0,0,0,31.24,20.87H.76A16,16,0,0,0,16,32Z"/><path class="cls-2" d="M16,0A16,16,0,0,0,.76,11.13H31.24A16,16,0,0,0,16,0Z"/></g></g></svg>