<svg xmlns="http://www.w3.org/2000/svg" viewBox="0 0 32 32"><defs><style>.cls-1{fill:#fcfcfc;}.cls-2{fill:#a2001d;}.cls-3{fill:#6da544;}</style></defs><title>by</title><g id="Layer_2" data-name="Layer 2"><g id="by"><circle class="cls-1" cx="16" cy="16" r="16"/><polygon class="cls-2" points="6.61 14.84 4.87 11.69 6.61 8.58 8.35 11.69 6.61 14.84"/><polygon class="cls-2" points="3.13 14.84 1.39 11.69 3.13 8.58 4.87 11.69 3.13 14.84"/><polygon class="cls-2" points="6.61 23.42 4.87 20.27 6.61 17.16 8.35 20.27 6.61 23.42"/><polygon class="cls-2" points="3.13 23.42 1.39 20.27 3.13 17.16 4.87 20.27 3.13 23.42"/><path class="cls-2" d="M8.35,3.11l-.49-.88A15.87,15.87,0,0,0,5.38,4L6.61,6.26Z"/><path class="cls-2" d="M6.61,25.74,5.37,28a16.26,16.26,0,0,0,2.47,1.8l.51-.92Z"/><path class="cls-3" d="M9.74,20.17V30.73A16,16,0,0,0,31,21.57Z"/><path class="cls-2" d="M31,21.57A16,16,0,0,0,16,0,15.91,15.91,0,0,0,9.74,1.27v20.3Z"/></g></g></svg>