<svg xmlns="http://www.w3.org/2000/svg" viewBox="0 0 32 32"><defs><style>.cls-1{fill:#0052b4;}.cls-2{fill:#a2001d;}.cls-3{fill:#f0f0f0;}.cls-4{fill:#6da544;}.cls-5{fill:#ffda44;}</style></defs><title>bz</title><g id="Layer_2" data-name="Layer 2"><g id="bz"><path class="cls-1" d="M32,16A16,16,0,0,0,25,2.78l-9-.69L7,2.78A16,16,0,0,0,7,29.22l9,.69,9-.69A16,16,0,0,0,32,16Z"/><path class="cls-2" d="M25,2.78a16,16,0,0,0-18,0Z"/><path class="cls-2" d="M7,29.22a16,16,0,0,0,18,0Z"/><circle class="cls-3" cx="16" cy="16" r="7.65"/><circle class="cls-4" cx="16" cy="16" r="6.26"/><circle class="cls-3" cx="16" cy="16" r="4.17"/><polygon class="cls-1" points="16 14.96 13.74 16 13.74 17.74 16 19.13 18.26 17.74 18.26 16 16 14.96"/><rect class="cls-5" x="13.74" y="13.91" width="4.52" height="2.09"/></g></g></svg>