<svg xmlns="http://www.w3.org/2000/svg" viewBox="0 0 32 32"><defs><style>.cls-1{fill:#f0f0f0;}.cls-2{fill:#d80027;}</style></defs><title>ca</title><g id="Layer_2" data-name="Layer 2"><g id="ca"><circle class="cls-1" cx="16" cy="16" r="16"/><path class="cls-2" d="M32,16A16,16,0,0,0,23,1.59V30.41A16,16,0,0,0,32,16Z"/><path class="cls-2" d="M0,16A16,16,0,0,0,9,30.41V1.59A16,16,0,0,0,0,16Z"/><polygon class="cls-2" points="18.78 18.09 21.57 16.7 20.17 16 20.17 14.61 17.39 16 18.78 13.22 17.39 13.22 16 11.13 14.61 13.22 13.22 13.22 14.61 16 11.83 14.61 11.83 16 10.44 16.7 13.22 18.09 12.52 19.48 15.3 19.48 15.3 21.57 16.7 21.57 16.7 19.48 19.48 19.48 18.78 18.09"/></g></g></svg>