<svg xmlns="http://www.w3.org/2000/svg" viewBox="0 0 32 32"><defs><style>.cls-1{fill:#6da544;}.cls-2{fill:#ffda44;}.cls-3{fill:#a2001d;}</style></defs><title>cc</title><g id="Layer_2" data-name="Layer 2"><g id="cc"><circle class="cls-1" cx="16" cy="16" r="16"/><polygon class="cls-2" points="24.56 22.96 25 23.88 25.99 23.64 25.55 24.56 26.34 25.19 25.35 25.42 25.36 26.43 24.56 25.8 23.77 26.43 23.77 25.42 22.78 25.19 23.57 24.56 23.13 23.64 24.12 23.88 24.56 22.96"/><polygon class="cls-2" points="20.48 13.22 20.92 14.13 21.91 13.91 21.46 14.82 22.26 15.45 21.27 15.68 21.27 16.7 20.48 16.06 19.68 16.7 19.69 15.68 18.69 15.45 19.49 14.82 19.05 13.91 20.04 14.13 20.48 13.22"/><polygon class="cls-2" points="24.56 7.65 25 8.57 25.99 8.34 25.55 9.26 26.34 9.89 25.35 10.11 25.36 11.13 24.56 10.49 23.77 11.13 23.77 10.11 22.78 9.89 23.57 9.26 23.13 8.34 24.12 8.57 24.56 7.65"/><polygon class="cls-2" points="28.13 11.83 28.57 12.74 29.56 12.52 29.12 13.43 29.91 14.06 28.92 14.29 28.92 15.3 28.13 14.67 27.34 15.3 27.34 14.29 26.34 14.06 27.14 13.43 26.7 12.52 27.69 12.74 28.13 11.83"/><polygon class="cls-2" points="25.58 16.7 25.92 17.76 27.04 17.76 26.14 18.41 26.48 19.48 25.58 18.82 24.67 19.48 25.02 18.41 24.11 17.76 25.23 17.76 25.58 16.7"/><path class="cls-2" d="M17.74,20.52a4.52,4.52,0,0,1,0-9,4.57,4.57,0,0,1,2.15.54,5.57,5.57,0,1,0,0,8A4.57,4.57,0,0,1,17.74,20.52Z"/><path class="cls-2" d="M10.06,6.26a2.78,2.78,0,0,0-4.82,0Z"/><path class="cls-2" d="M10.07,6.28,7.65,8.7,5.23,6.28a2.74,2.74,0,0,0-.36,1.37,2.78,2.78,0,0,0,5.56,0A2.74,2.74,0,0,0,10.07,6.28Z"/><path class="cls-3" d="M7,8v2.35a3.1,3.1,0,0,0,.69.08,3.19,3.19,0,0,0,.7-.08V8Z"/></g></g></svg>