<svg xmlns="http://www.w3.org/2000/svg" viewBox="0 0 32 32"><defs><style>.cls-1{fill:#f0f0f0;}.cls-2{fill:#0052b4;}.cls-3{fill:#6da544;}.cls-4{fill:#ffda44;}.cls-5{fill:#d80027;}</style></defs><title>cf</title><g id="Layer_2" data-name="Layer 2"><g id="cf"><circle class="cls-1" cx="16" cy="16" r="16"/><path class="cls-2" d="M30.05,8.35A16,16,0,0,0,20.17.55l-.69,7.8Z"/><path class="cls-2" d="M2,8.35H12.52L11.83.55A16,16,0,0,0,2,8.35Z"/><path class="cls-3" d="M19.48,16v7.65H30.05A15.92,15.92,0,0,0,32,16Z"/><path class="cls-3" d="M12.52,16H0a15.92,15.92,0,0,0,2,7.65H12.52V16Z"/><path class="cls-4" d="M2,23.65a16,16,0,0,0,9.88,7.8l.69-6.82Z"/><path class="cls-4" d="M20.17,31.45a16,16,0,0,0,9.88-7.8l-10.57,1Z"/><polygon class="cls-4" points="19.48 24.63 30.05 23.65 19.48 23.65 19.48 24.63"/><polygon class="cls-4" points="12.52 23.65 1.95 23.65 12.52 24.63 12.52 23.65"/><path class="cls-5" d="M16,0a16,16,0,0,0-4.17.55v30.9a16.08,16.08,0,0,0,8.34,0V.55A16,16,0,0,0,16,0Z"/><polygon class="cls-4" points="8.61 3.48 9.04 4.81 10.44 4.81 9.3 5.63 9.74 6.96 8.61 6.13 7.48 6.96 7.91 5.63 6.78 4.81 8.18 4.81 8.61 3.48"/></g></g></svg>