<svg xmlns="http://www.w3.org/2000/svg" xmlns:xlink="http://www.w3.org/1999/xlink" viewBox="0 0 31.9 31.9"><defs><style>.cls-1{fill:none;}.cls-2{clip-path:url(#clip-path);}.cls-3{fill:#ffda44;}.cls-4{fill:#d80027;}.cls-5{fill:#6da544;}</style><clipPath id="clip-path" transform="translate(0 -0.02)"><rect class="cls-1" width="31.93" height="32"/></clipPath></defs><title>cg</title><g id="Layer_2" data-name="Layer 2"><g id="cg"><g class="cls-2"><path class="cls-3" d="M8.65,30.16l11.71-9.77L30.13,8.67A16,16,0,0,0,23.26,1.8L11.54,11.56,1.77,23.29a16,16,0,0,0,6.88,6.87Z" transform="translate(0 -0.02)"/><path class="cls-4" d="M27.23,27.25a16,16,0,0,0,2.9-18.59L8.64,30.15a15.94,15.94,0,0,0,18.59-2.9Z" transform="translate(0 -0.02)"/><path class="cls-5" d="M4.67,4.7a16,16,0,0,0-2.9,18.59L23.26,1.8A15.94,15.94,0,0,0,4.67,4.7Z" transform="translate(0 -0.02)"/></g></g></g></svg>