<svg xmlns="http://www.w3.org/2000/svg" viewBox="0 0 32 32"><defs><style>.cls-1{fill:#0052b4;}.cls-2{fill:#f0f0f0;}.cls-3{fill:#d80027;}</style></defs><title>ck</title><g id="Layer_2" data-name="Layer 2"><g id="ck"><path class="cls-1" d="M32,16A16,16,0,0,1,0,16L16,0A16,16,0,0,1,32,16Z"/><path class="cls-2" d="M16,0Z"/><path class="cls-2" d="M16,16h0v0Z"/><path class="cls-2" d="M16,8.35V0h0A16,16,0,0,0,0,16H8.35V11.3l4.7,4.7H16l0,0V13.05l-4.7-4.7Z"/><path class="cls-3" d="M8.09,2.09a16,16,0,0,0-6,6V16H6.26V6.26H16V2.09Z"/><path class="cls-3" d="M16,14,10.32,8.35h-2L16,16h0Z"/><polygon class="cls-2" points="21.57 16 21.86 16.91 22.82 16.91 22.04 17.47 22.34 18.39 21.57 17.82 20.79 18.39 21.09 17.47 20.31 16.91 21.27 16.91 21.57 16"/><polygon class="cls-2" points="17.63 17.63 18.48 18.07 19.16 17.39 19.01 18.33 19.86 18.77 18.92 18.92 18.77 19.86 18.33 19.01 17.39 19.16 18.07 18.48 17.63 17.63"/><polygon class="cls-2" points="16 21.57 16.91 21.27 16.91 20.31 17.47 21.09 18.39 20.79 17.82 21.57 18.39 22.34 17.47 22.04 16.91 22.82 16.91 21.86 16 21.57"/><polygon class="cls-2" points="17.63 25.5 18.07 24.65 17.39 23.97 18.33 24.12 18.77 23.27 18.92 24.21 19.86 24.36 19.01 24.8 19.16 25.74 18.48 25.07 17.63 25.5"/><polygon class="cls-2" points="21.57 27.13 21.27 26.22 20.31 26.22 21.09 25.66 20.79 24.75 21.57 25.31 22.34 24.75 22.04 25.66 22.82 26.22 21.86 26.22 21.57 27.13"/><polygon class="cls-2" points="25.5 25.5 24.65 25.07 23.97 25.74 24.12 24.8 23.27 24.36 24.21 24.21 24.36 23.27 24.8 24.12 25.74 23.97 25.07 24.65 25.5 25.5"/><polygon class="cls-2" points="27.13 21.57 26.22 21.86 26.22 22.82 25.66 22.04 24.75 22.34 25.31 21.57 24.75 20.79 25.66 21.09 26.22 20.31 26.22 21.27 27.13 21.57"/><polygon class="cls-2" points="25.5 17.63 25.07 18.48 25.74 19.16 24.8 19.01 24.36 19.86 24.21 18.92 23.27 18.77 24.12 18.33 23.97 17.39 24.65 18.07 25.5 17.63"/></g></g></svg>