<svg xmlns="http://www.w3.org/2000/svg" viewBox="0 0 32 32"><defs><style>.cls-1{fill:#d80027;}.cls-2{fill:#ffda44;}.cls-3{fill:#496e2d;}</style></defs><title>cm</title><g id="Layer_2" data-name="Layer 2"><g id="cm"><path class="cls-1" d="M23,1.59A16,16,0,0,0,9,1.59L7.65,16,9,30.41a16,16,0,0,0,13.92,0L24.35,16Z"/><polygon class="cls-2" points="16 10.44 17.38 14.69 21.85 14.69 18.23 17.31 19.62 21.57 16 18.94 12.38 21.57 13.77 17.31 10.15 14.69 14.62 14.69 16 10.44"/><path class="cls-3" d="M9,1.59A16,16,0,0,0,9,30.41Z"/><path class="cls-2" d="M23,1.59V30.41A16,16,0,0,0,23,1.59Z"/></g></g></svg>