<svg xmlns="http://www.w3.org/2000/svg" viewBox="0 0 32 32"><defs><style>.cls-1{fill:#d80027;}.cls-2{fill:#ffda44;}</style></defs><title>cn</title><g id="Layer_2" data-name="Layer 2"><g id="cn"><circle class="cls-1" cx="16" cy="16" r="16"/><polygon class="cls-2" points="8.76 9.74 10.14 13.99 14.61 13.99 10.99 16.62 12.38 20.87 8.76 18.24 5.14 20.87 6.53 16.62 2.91 13.99 7.38 13.99 8.76 9.74"/><polygon class="cls-2" points="18.97 24.78 17.91 23.48 16.35 24.09 17.26 22.68 16.2 21.38 17.82 21.81 18.73 20.4 18.82 22.07 20.44 22.51 18.88 23.11 18.97 24.78"/><polygon class="cls-2" points="21.07 20.97 21.57 19.37 20.2 18.4 21.88 18.38 22.37 16.77 22.91 18.36 24.59 18.34 23.24 19.34 23.78 20.93 22.41 19.96 21.07 20.97"/><polygon class="cls-2" points="23.9 11.74 23.16 13.25 24.36 14.42 22.71 14.18 21.97 15.68 21.68 14.03 20.02 13.79 21.51 13.01 21.22 11.36 22.42 12.53 23.9 11.74"/><polygon class="cls-2" points="19.01 7.18 18.89 8.85 20.44 9.48 18.81 9.88 18.69 11.56 17.81 10.13 16.18 10.53 17.26 9.25 16.38 7.83 17.93 8.46 19.01 7.18"/></g></g></svg>