<svg xmlns="http://www.w3.org/2000/svg" viewBox="0 0 32 32"><defs><style>.cls-1{fill:#f0f0f0;}.cls-2{fill:#0052b4;}.cls-3{fill:#d80027;}</style></defs><title>cu</title><g id="Layer_2" data-name="Layer 2"><g id="cu"><circle class="cls-1" cx="16" cy="16" r="16"/><path class="cls-2" d="M16,0A16,16,0,0,0,3.2,6.4H28.8A16,16,0,0,0,16,0Z"/><path class="cls-2" d="M16,32a16,16,0,0,0,12.8-6.4H3.2A16,16,0,0,0,16,32Z"/><path class="cls-2" d="M0,16a16,16,0,0,0,.32,3.2H31.68a16.16,16.16,0,0,0,0-6.4H.32A16,16,0,0,0,0,16Z"/><path class="cls-3" d="M4.69,4.69a16,16,0,0,0,0,22.62L16,16Z"/><polygon class="cls-1" points="6.48 11.83 7.51 15.02 10.86 15.02 8.15 16.98 9.19 20.17 6.48 18.2 3.76 20.17 4.8 16.98 2.09 15.02 5.44 15.02 6.48 11.83"/></g></g></svg>