<svg xmlns="http://www.w3.org/2000/svg" viewBox="0 0 32 32"><defs><style>.cls-1{fill:#f0f0f0;}.cls-2{fill:#0052b4;}.cls-3{fill:#d80027;}.cls-4{fill:#ffda44;}</style></defs><title>cv</title><g id="Layer_2" data-name="Layer 2"><g id="cv"><circle class="cls-1" cx="16" cy="16" r="16"/><path class="cls-2" d="M16,32a16,16,0,0,0,12.13-5.57H3.87A16,16,0,0,0,16,32Z"/><path class="cls-2" d="M32,16A16,16,0,1,0,.55,20.17h30.9A16,16,0,0,0,32,16Z"/><path class="cls-3" d="M1.27,22.26a15.87,15.87,0,0,0,1.08,2.09h27.3a15.87,15.87,0,0,0,1.08-2.09Z"/><polygon class="cls-4" points="11.44 17.04 11.7 17.84 12.53 17.84 11.86 18.33 12.12 19.13 11.44 18.64 10.76 19.13 11.02 18.33 10.34 17.84 11.18 17.84 11.44 17.04"/><polygon class="cls-4" points="11.44 27.48 11.7 28.27 12.53 28.27 11.86 28.77 12.12 29.57 11.44 29.07 10.76 29.57 11.02 28.77 10.34 28.27 11.18 28.27 11.44 27.48"/><polygon class="cls-4" points="6.58 23.95 6.84 24.75 7.68 24.75 7 25.24 7.26 26.04 6.58 25.54 5.9 26.04 6.16 25.24 5.48 24.75 6.32 24.75 6.58 23.95"/><polygon class="cls-4" points="8.44 18.09 8.69 18.88 9.53 18.88 8.85 19.38 9.11 20.17 8.44 19.68 7.76 20.17 8.02 19.38 7.34 18.88 8.18 18.88 8.44 18.09"/><polygon class="cls-4" points="5.48 21.37 6.32 21.37 6.58 20.57 6.84 21.37 7.68 21.37 7 21.86 7.26 22.66 6.58 22.17 5.9 22.66 6.16 21.86 5.48 21.37"/><polygon class="cls-4" points="7.76 28.37 8.02 27.57 7.34 27.08 8.18 27.08 8.44 26.28 8.69 27.08 9.53 27.08 8.85 27.57 9.11 28.37 8.44 27.88 7.76 28.37"/><polygon class="cls-4" points="16.29 23.95 16.03 24.75 15.2 24.75 15.87 25.24 15.61 26.04 16.29 25.54 16.97 26.04 16.71 25.24 17.39 24.75 16.55 24.75 16.29 23.95"/><polygon class="cls-4" points="14.44 18.09 14.18 18.88 13.34 18.88 14.02 19.38 13.76 20.17 14.44 19.68 15.12 20.17 14.86 19.38 15.53 18.88 14.7 18.88 14.44 18.09"/><polygon class="cls-4" points="17.39 21.37 16.55 21.37 16.29 20.57 16.03 21.37 15.2 21.37 15.87 21.86 15.61 22.66 16.29 22.17 16.97 22.66 16.71 21.86 17.39 21.37"/><polygon class="cls-4" points="15.12 28.37 14.86 27.57 15.53 27.08 14.7 27.08 14.44 26.28 14.18 27.08 13.34 27.08 14.02 27.57 13.76 28.37 14.44 27.88 15.12 28.37"/></g></g></svg>