<svg xmlns="http://www.w3.org/2000/svg" viewBox="0 0 32 32"><defs><style>.cls-1{fill:#ffda44;}.cls-2{fill:#0052b4;}.cls-3{fill:#f0f0f0;}</style></defs><title>cw</title><g id="Layer_2" data-name="Layer 2"><g id="cw"><circle class="cls-1" cx="16" cy="16" r="16"/><path class="cls-2" d="M16,32a16,16,0,0,0,12.83-6.43H3.17A16,16,0,0,0,16,32Z"/><path class="cls-2" d="M32,16A16,16,0,1,0,.93,21.39H31.07A16,16,0,0,0,32,16Z"/><polygon class="cls-3" points="10.95 10.26 11.81 12.92 14.61 12.92 12.35 14.56 13.21 17.22 10.95 15.58 8.69 17.22 9.55 14.56 7.29 12.92 10.09 12.92 10.95 10.26"/><polygon class="cls-3" points="6.15 7.48 6.67 9.07 8.35 9.07 6.99 10.06 7.51 11.65 6.15 10.67 4.8 11.65 5.32 10.06 3.96 9.07 5.63 9.07 6.15 7.48"/></g></g></svg>