<svg xmlns="http://www.w3.org/2000/svg" viewBox="0 0 32 32"><defs><style>.cls-1{fill:#0052b4;}.cls-2{fill:#6da544;}.cls-3{fill:#ffda44;}.cls-4{fill:#f0f0f0;}</style></defs><title>cx</title><g id="Layer_2" data-name="Layer 2"><g id="cx"><path class="cls-1" d="M27.31,27.31A16,16,0,0,1,4.69,4.69c.49.49,12.79,9.83,12.79,9.83Z"/><path class="cls-2" d="M4.69,4.69A16,16,0,0,1,27.31,27.31"/><circle class="cls-3" cx="16" cy="16" r="4.17"/><polygon class="cls-4" points="5.96 22.96 6.4 23.87 7.39 23.64 6.94 24.56 7.74 25.19 6.75 25.42 6.75 26.43 5.96 25.8 5.16 26.43 5.17 25.42 4.17 25.19 4.97 24.56 4.53 23.64 5.52 23.87 5.96 22.96"/><polygon class="cls-4" points="3.09 15.3 3.52 16.22 4.52 15.99 4.07 16.91 4.87 17.54 3.88 17.77 3.88 18.78 3.09 18.15 2.29 18.78 2.29 17.77 1.3 17.54 2.1 16.91 1.66 15.99 2.65 16.22 3.09 15.3"/><polygon class="cls-4" points="5.96 9.04 6.4 9.96 7.39 9.73 6.94 10.65 7.74 11.28 6.75 11.5 6.75 12.52 5.96 11.88 5.16 12.52 5.17 11.5 4.17 11.28 4.97 10.65 4.53 9.73 5.52 9.96 5.96 9.04"/><polygon class="cls-4" points="9.53 13.91 9.96 14.83 10.96 14.6 10.51 15.52 11.31 16.15 10.32 16.37 10.32 17.39 9.53 16.75 8.73 17.39 8.73 16.37 7.74 16.15 8.54 15.52 8.1 14.6 9.09 14.83 9.53 13.91"/><polygon class="cls-4" points="6.97 18.09 7.32 19.15 8.44 19.15 7.53 19.81 7.88 20.87 6.97 20.21 6.07 20.87 6.42 19.81 5.51 19.15 6.63 19.15 6.97 18.09"/><path class="cls-2" d="M16,18.78h1.39a2.22,2.22,0,0,0,0-2.08l1.39-1.4-.69-1.39h-.7A1.74,1.74,0,0,1,15.65,15a1.74,1.74,0,0,1-1.74-1.05h-.69l.69,1.39-.69,1.4.69.69A1.52,1.52,0,0,1,16,16.7,2.14,2.14,0,0,1,16,18.78Z"/><path class="cls-3" d="M26.38,8.76a2.24,2.24,0,0,0,.05-.52,2.77,2.77,0,0,0-1.92-2.65A5.19,5.19,0,0,1,25,7.89a5.55,5.55,0,0,1-.06.82A3,3,0,0,0,24.33,8,2.86,2.86,0,0,0,21,7.83a5.42,5.42,0,0,1,2.18,1,5.64,5.64,0,0,1,1.26,1.51l-4.25,1.33a10.72,10.72,0,0,0,7.66-2.08A1.43,1.43,0,0,0,26.38,8.76Z"/></g></g></svg>