<svg xmlns="http://www.w3.org/2000/svg" viewBox="0 0 32 32"><defs><style>.cls-1{fill:#f0f0f0;}.cls-2{fill:#496e2d;}.cls-3{fill:#ffda44;}.cls-4{fill:#d80027;}</style></defs><title>dm</title><g id="Layer_2" data-name="Layer 2"><g id="dm"><path class="cls-1" d="M32,16A16,16,0,1,1,16,0,16,16,0,0,1,32,16Z"/><path class="cls-2" d="M19.13,31.69A16,16,0,0,0,31.69,19.13H19.13Z"/><path class="cls-2" d="M.31,19.13A16,16,0,0,0,12.87,31.69V19.13Z"/><path class="cls-2" d="M31.69,12.87A16,16,0,0,0,19.13.31V12.87Z"/><path class="cls-2" d="M12.87.31A16,16,0,0,0,.31,12.87H12.87Z"/><path class="cls-3" d="M15,19.13H12.87V31.69A15.92,15.92,0,0,0,15,32Z"/><path class="cls-3" d="M15,12.87V0a15.92,15.92,0,0,0-2.09.28V12.87Z"/><path d="M17,0c-.34,0-.69,0-1,0s-.7,0-1,0V12.87H17Z"/><path d="M15,32c.34,0,.69,0,1,0s.7,0,1,0V19.13H15V32Z"/><path class="cls-3" d="M12.87,15V12.87H.31A15.92,15.92,0,0,0,0,15Z"/><path class="cls-3" d="M19.13,15H32a15.92,15.92,0,0,0-.28-2.09H19.13Z"/><path d="M19.13,17H32c0-.34,0-.69,0-1s0-.7,0-1H19.13Z"/><path d="M0,15c0,.34,0,.69,0,1s0,.7,0,1H12.87V15Z"/><path class="cls-4" d="M23.65,16A7.65,7.65,0,1,1,16,8.35,7.64,7.64,0,0,1,23.65,16Z"/><path class="cls-2" d="M17.74,16.85c-.57-1.13-1.31-2.29-1.31-2.29s0-.52,0-.84a.85.85,0,0,0-1.7-.07.67.67,0,0,0-.63.67.68.68,0,0,0,.36.6,1,1,0,0,1,.58-.54.51.51,0,0,0,.13.09l.11.06a7.44,7.44,0,0,0-.4,1.75A2.38,2.38,0,0,0,16,18.54v0l-.57.57h1.14V18l.56.57a1.37,1.37,0,0,0,.57-1.71Z"/><path class="cls-2" d="M16,9.74l.26.8h.84l-.68.49.26.8-.68-.5-.68.5.26-.8-.68-.49h.84Z"/><path class="cls-2" d="M12.32,10.93l.68.5.68-.5-.26.8.68.49h-.84L13,13l-.26-.8H11.9l.68-.49Z"/><path class="cls-2" d="M10.05,14.07h.83l.26-.8.26.8h.84l-.68.49.26.8-.68-.5-.68.49.26-.79Z"/><path class="cls-2" d="M10.05,17.93l.67-.49-.26-.8.68.5.68-.5-.26.8.68.49H11.4l-.26.8-.26-.8Z"/><path class="cls-2" d="M12.32,21.06l.26-.79-.68-.49h.84L13,19l.26.8h.84l-.68.49.26.79L13,20.57Z"/><path class="cls-2" d="M16,22.26l-.26-.8H14.9l.68-.49-.26-.8.68.5.68-.5-.26.8.68.49h-.84Z"/><path class="cls-2" d="M19.68,21.06,19,20.57l-.68.5.26-.8-.68-.49h.84L19,19l.26.8h.84l-.68.49Z"/><path class="cls-2" d="M22,17.93h-.83l-.26.8-.26-.8h-.84l.68-.49-.26-.8.68.5.68-.5-.26.8Z"/><path class="cls-2" d="M22,14.07l-.67.49.26.79-.68-.49-.68.5.26-.8-.68-.49h.84l.26-.8.26.8Z"/><path class="cls-2" d="M19.68,10.93l-.26.8.68.49h-.84L19,13l-.26-.8H17.9l.68-.49-.26-.79.68.49Z"/></g></g></svg>