<svg xmlns="http://www.w3.org/2000/svg" viewBox="0 0 32 32"><defs><style>.cls-1{fill:#f0f0f0;}.cls-2{fill:#d80027;}.cls-3{fill:#0052b4;}.cls-4{fill:#496e2d;}</style></defs><title>do</title><g id="Layer_2" data-name="Layer 2"><g id="do"><path class="cls-1" d="M32,16A16,16,0,1,1,16,0,16,16,0,0,1,32,16Z"/><path class="cls-2" d="M.55,20.17A16,16,0,0,0,11.83,31.45V20.17Z"/><path class="cls-3" d="M11.83.55A16,16,0,0,0,.55,11.83H11.83Z"/><path class="cls-2" d="M31.45,11.83A16,16,0,0,0,20.17.55V11.83Z"/><path class="cls-3" d="M20.17,31.45A16,16,0,0,0,31.45,20.17H20.17Z"/><path class="cls-4" d="M20.17,16a4.17,4.17,0,0,1-8.34,0c0-2.31,4.17-4.17,4.17-4.17s4.17,1.86,4.17,4.17Z"/><path class="cls-3" d="M11.83,16a4.17,4.17,0,0,1,8.34,0"/><path class="cls-2" d="M13.65,13.91v2.61a2.35,2.35,0,0,0,4.7,0V13.91Z"/></g></g></svg>