<svg xmlns="http://www.w3.org/2000/svg" viewBox="0 0 32 32"><defs><style>.cls-1{fill:#f0f0f0;}.cls-2{fill:#496e2d;}.cls-3{fill:#d80027;}</style></defs><title>DZ</title><g id="Layer_2" data-name="Layer 2"><g id="DZ"><path class="cls-1" d="M16,0a16,16,0,0,1,0,32c0-.7-2.09-16-2.09-16Z"/><path class="cls-2" d="M16,32A16,16,0,0,1,16,0"/><polygon class="cls-3" points="19.44 12.93 18.13 14.74 16 14.05 17.31 15.86 16 17.67 18.13 16.98 19.44 18.78 19.44 16.55 21.57 15.86 19.44 15.17 19.44 12.93"/><path class="cls-3" d="M17.33,20.52a4.52,4.52,0,1,1,0-9,4.57,4.57,0,0,1,2.15.54,5.57,5.57,0,1,0,0,8A4.57,4.57,0,0,1,17.33,20.52Z"/></g></g></svg>