<svg xmlns="http://www.w3.org/2000/svg" viewBox="0 0 32 32"><defs><style>.cls-1{fill:#ffda44;}.cls-2{fill:#d80027;}.cls-3{fill:#0052b4;}.cls-4{fill:#338af3;}</style></defs><title>ec</title><g id="Layer_2" data-name="Layer 2"><g id="ec"><path class="cls-1" d="M0,16a16,16,0,0,1,32,0L16,17.39Z"/><path class="cls-2" d="M2.14,24a16,16,0,0,0,27.72,0L16,23Z"/><path class="cls-3" d="M29.86,24A15.94,15.94,0,0,0,32,16H0a15.94,15.94,0,0,0,2.14,8Z"/><path class="cls-1" d="M21.57,16A5.57,5.57,0,1,1,16,10.43,5.58,5.58,0,0,1,21.57,16Z"/><path class="cls-4" d="M16,19.48A3.48,3.48,0,0,1,12.52,16V13.91a3.48,3.48,0,0,1,7,0V16A3.48,3.48,0,0,1,16,19.48Z"/><path d="M21.57,7.65H17.39a1.39,1.39,0,1,0-2.78,0H10.43A1.43,1.43,0,0,0,11.87,9h0a1.39,1.39,0,0,0,1.39,1.39,1.4,1.4,0,0,0,1.39,1.4h2.78a1.4,1.4,0,0,0,1.39-1.4A1.39,1.39,0,0,0,20.17,9h0a1.43,1.43,0,0,0,1.44-1.39Z"/></g></g></svg>