<svg xmlns="http://www.w3.org/2000/svg" viewBox="0 0 32 32"><defs><style>.cls-1{fill:#f0f0f0;}.cls-2{fill:#d80027;}.cls-3{fill:#ff9811;}</style></defs><title>eg</title><g id="Layer_2" data-name="Layer 2"><g id="eg"><path class="cls-1" d="M32,16A16,16,0,1,1,16,0,16,16,0,0,1,32,16Z"/><path class="cls-2" d="M16,0A16,16,0,0,0,1,10.43H31A16,16,0,0,0,16,0Z"/><path d="M16,32A16,16,0,0,0,31,21.57H1A16,16,0,0,0,16,32Z"/><path class="cls-3" d="M21.57,14.26H17.39a1.39,1.39,0,1,0-2.78,0H10.43a1.43,1.43,0,0,0,1.44,1.39h0A1.39,1.39,0,0,0,13.22,17a1.39,1.39,0,0,0,1.39,1.39h2.78A1.39,1.39,0,0,0,18.78,17a1.39,1.39,0,0,0,1.39-1.39h0a1.43,1.43,0,0,0,1.44-1.39Z"/></g></g></svg>