<svg xmlns="http://www.w3.org/2000/svg" xmlns:xlink="http://www.w3.org/1999/xlink" viewBox="0 0 31.9 31.9"><defs><style>.cls-1{fill:none;}.cls-2{fill:#f0f0f0;}.cls-3{fill:#496e2d;}.cls-4{clip-path:url(#clip-path);}.cls-5{fill:#d80027;}</style><clipPath id="clip-path" transform="translate(0 -0.02)"><rect class="cls-1" width="31.93" height="32"/></clipPath></defs><title>eh</title><g id="Layer_2" data-name="Layer 2"><g id="eh"><path class="cls-2" d="M1.58,9a16,16,0,0,0,0,13.87L16,24.3l14.37-1.39A16,16,0,0,0,30.32,9L16,7.65Z" transform="translate(0 -0.02)"/><path class="cls-3" d="M1.58,22.91a16,16,0,0,0,28.74,0Z" transform="translate(0 -0.02)"/><g class="cls-4"><path d="M1.58,9H30.32A16,16,0,0,0,1.58,9Z" transform="translate(0 -0.02)"/><path class="cls-5" d="M4.67,4.7a15.94,15.94,0,0,0,0,22.55L16,16Z" transform="translate(0 -0.02)"/></g><path class="cls-5" d="M20.11,16a4.86,4.86,0,0,1,3.82-4.75,5.17,5.17,0,0,0-1-.11,4.86,4.86,0,1,0,0,9.71,5.17,5.17,0,0,0,1-.11A4.86,4.86,0,0,1,20.11,16Z" transform="translate(0 -0.02)"/><path class="cls-5" d="M24.13,12.85,24.82,15h2.23l-1.81,1.31.69,2.12-1.8-1.31-1.8,1.31L23,16.28,21.21,15h2.23Z" transform="translate(0 -0.02)"/></g></g></svg>