<svg xmlns="http://www.w3.org/2000/svg" xmlns:xlink="http://www.w3.org/1999/xlink" viewBox="0 0 31.9 31.9"><defs><style>.cls-1{fill:none;}.cls-2{fill:#338af3;}.cls-3{clip-path:url(#clip-path);}.cls-4{fill:#6da544;}.cls-5{fill:#d80027;}.cls-6{fill:#ffda44;}</style><clipPath id="clip-path" transform="translate(0 -0.02)"><rect class="cls-1" width="31.93" height="32"/></clipPath></defs><title>er</title><g id="Layer_2" data-name="Layer 2"><g id="er"><path class="cls-2" d="M14.56,14.59S4.68,27.26,4.67,27.25A15.95,15.95,0,0,0,31.9,16Z" transform="translate(0 -0.02)"/><g class="cls-3"><path class="cls-4" d="M14.56,16S4.68,4.69,4.67,4.7A15.95,15.95,0,0,1,31.9,16Z" transform="translate(0 -0.02)"/><path class="cls-5" d="M4.67,4.7a15.94,15.94,0,0,0,0,22.55L31.9,16Z" transform="translate(0 -0.02)"/></g><path class="cls-6" d="M8.32,9.39a5.55,5.55,0,0,0-5.55,5.54V17a5.55,5.55,0,0,0,11.1,0V14.93A5.55,5.55,0,0,0,8.32,9.39ZM11.79,17a3.46,3.46,0,0,1-2.43,3.3V18.06l1.47-1.48L9.36,15.11V13.89H7.28V16L5.81,17.45l1.47,1.47v1.4A3.47,3.47,0,0,1,4.85,17V14.93a3.47,3.47,0,0,1,6.94,0Z" transform="translate(0 -0.02)"/></g></g></svg>