<svg xmlns="http://www.w3.org/2000/svg" viewBox="0 0 32 32"><defs><style>.cls-1{fill:#ffda44;}.cls-2{fill:#d80027;}.cls-3{fill:#6da544;}.cls-4{fill:#0052b4;}</style></defs><title>et</title><g id="Layer_2" data-name="Layer 2"><g id="et"><path class="cls-1" d="M0,16a15.85,15.85,0,0,0,1,5.57L16,23l15-1.39a16,16,0,0,0,0-11.06L16,9,1,10.51A15.85,15.85,0,0,0,0,16Z"/><path class="cls-2" d="M16,32A16,16,0,0,0,31,21.57H1A16,16,0,0,0,16,32Z"/><path class="cls-3" d="M16,0A16,16,0,0,0,1,10.43H31A16,16,0,0,0,16,0Z"/><path class="cls-4" d="M23.65,16A7.65,7.65,0,1,1,16,8.35,7.64,7.64,0,0,1,23.65,16Z"/><path class="cls-1" d="M16,10.07l1.38,4.26h4.48L18.23,17l1.4,4.27L16,18.58l-3.62,2.63L13.76,17l-3.62-2.62h4.48Z"/><path class="cls-1" d="M21.51,17.06l-4.38-1.43,2.7-3.72-1.12-.82L16,14.82l-2.71-3.73-1.12.82,2.7,3.72-4.38,1.43.43,1.32L15.3,17v4.61h1.4V17l4.38,1.42Z"/></g></g></svg>