<svg xmlns="http://www.w3.org/2000/svg" viewBox="0 0 32 32"><defs><style>.cls-1{fill:#338af3;}.cls-2{fill:#0052b4;}.cls-3{fill:#f0f0f0;}.cls-4{fill:#d80027;}.cls-5{fill:#f3f3f3;}</style></defs><title>fj</title><g id="Layer_2" data-name="Layer 2"><g id="fj"><path class="cls-1" d="M32,16A16,16,0,0,1,0,16L16,0A16,16,0,0,1,32,16Z"/><path class="cls-2" d="M16,7.65v5.4l-5.57-5.4Z"/><path class="cls-2" d="M8.35,16h4.7L8.35,9.74l-.7,4.87Z"/><path class="cls-3" d="M16,16h0v0l0,0Z"/><path class="cls-3" d="M16,8.35V0h0A16,16,0,0,0,0,16H8.35V11.3l4.7,4.7H16l0,0V13.05l-4.7-4.7Z"/><path class="cls-4" d="M8.09,2.09a16,16,0,0,0-6,6V16H6.26V6.26H16V2.09Z"/><path class="cls-4" d="M16,14,10.32,8.35h-2L16,16h0Z"/><path class="cls-5" d="M18.09,10.43V16c0,3.73,4.87,4.87,4.87,4.87s4.87-1.14,4.87-4.87V10.43L23,9Z"/><path class="cls-4" d="M27.83,10.43V8.35H18.09v2.08h4.17v4.18H18.09V16h4.17v4.66c.42.14.7.21.7.21s.27-.07.69-.21V16h4.18V14.61H23.65V10.43Z"/></g></g></svg>