<svg xmlns="http://www.w3.org/2000/svg" viewBox="0 0 32 32"><defs><style>.cls-1{fill:#0052b4;}.cls-2{fill:#f0f0f0;}.cls-3{fill:#d80027;}.cls-4{fill:#ffda44;}.cls-5{fill:#338af3;}.cls-6{fill:#f3f3f3;}</style></defs><title>fk</title><g id="Layer_2" data-name="Layer 2"><g id="fk"><path class="cls-1" d="M32,16A16,16,0,0,1,0,16L16,0A16,16,0,0,1,32,16Z"/><path class="cls-2" d="M16,16h0v0l0,0Z"/><path class="cls-2" d="M16,8.35V0h0A16,16,0,0,0,0,16H8.35V11.3l4.7,4.7H16l0,0V13.05l-4.7-4.7Z"/><path class="cls-3" d="M8.09,2.09a16,16,0,0,0-6,6V16H6.26V6.26H16V2.09Z"/><path class="cls-3" d="M16,14,10.32,8.35h-2L16,16h0Z"/><path class="cls-4" d="M25.74,18.78v.7H20.17v-.7H18.09v2.79h1.39v.69h7v-.69h1.4V18.78Z"/><path class="cls-5" d="M18.09,8.35V16c0,3.73,4.87,4.87,4.87,4.87s4.87-1.14,4.87-4.87V8.35Z"/><path class="cls-6" d="M23,14.06c-1.22,0-1.22,1.11-2.44,1.11s-1.22-1.11-2.43-1.11V16c1.21,0,1.21,1.12,2.43,1.12S21.74,16,23,16s1.21,1.12,2.43,1.12S26.61,16,27.83,16V14.06c-1.22,0-1.22,1.11-2.44,1.11S24.17,14.06,23,14.06Z"/><path class="cls-6" d="M23,10.16c-1.22,0-1.22,1.11-2.44,1.11s-1.22-1.11-2.43-1.11V12.1c1.21,0,1.21,1.12,2.43,1.12S21.74,12.1,23,12.1s1.21,1.12,2.43,1.12,1.22-1.12,2.44-1.12V10.16c-1.22,0-1.22,1.11-2.44,1.11S24.17,10.16,23,10.16Z"/></g></g></svg>