<svg xmlns="http://www.w3.org/2000/svg" viewBox="0 0 32 32"><defs><style>.cls-1{fill:#338af3;}.cls-2{fill:#f0f0f0;}</style></defs><title>fm</title><g id="Layer_2" data-name="Layer 2"><g id="fm"><path class="cls-1" d="M32,16A16,16,0,1,1,16,0,16,16,0,0,1,32,16Z"/><path class="cls-2" d="M16,7l.69,2.12h2.24L17.12,10.4l.69,2.12L16,11.21l-1.81,1.31.69-2.12L13.07,9.08h2.24Z"/><path class="cls-2" d="M7,16l2.12-.69V13.07l1.32,1.81,2.12-.69L11.21,16l1.31,1.81-2.12-.69L9.08,18.93V16.69Z"/><path class="cls-2" d="M16,25l-.69-2.12H13.07l1.81-1.32-.69-2.12L16,20.79l1.81-1.31-.69,2.12,1.81,1.32H16.69Z"/><path class="cls-2" d="M25,16l-2.12.69v2.24L21.6,17.12l-2.12.69L20.79,16l-1.31-1.81,2.12.69,1.32-1.81v2.24Z"/></g></g></svg>