<svg xmlns="http://www.w3.org/2000/svg" viewBox="0 0 32 32"><defs><style>.cls-1{fill:#f0f0f0;}.cls-2{fill:#0052b4;}.cls-3{fill:#d80027;}</style></defs><title>fo</title><g id="Layer_2" data-name="Layer 2"><g id="fo"><path class="cls-1" d="M32,16A16,16,0,1,1,16,0,16,16,0,0,1,32,16Z"/><path class="cls-2" d="M31.3,16l.56-2.09a15.62,15.62,0,0,0-.41-2.08H14.61V.06a16,16,0,0,0-2.09.32L9.74,2.09,8.35,2A15.92,15.92,0,0,0,6.26,3.31v8.52H.55a15.62,15.62,0,0,0-.41,2.08L.7,16,.14,18.09a15.94,15.94,0,0,0,.41,2.08H6.26v8.52a15.92,15.92,0,0,0,2.09,1.36l2.08-.14,2.09,1.71a16,16,0,0,0,2.09.32V20.17H31.45a15.94,15.94,0,0,0,.41-2.08Z"/><path class="cls-3" d="M31.86,13.91H12.52V.38A15.74,15.74,0,0,0,8.35,2v12H.14a15.67,15.67,0,0,0,0,4.18H8.35v12a15.74,15.74,0,0,0,4.17,1.57V18.09H31.86a15.67,15.67,0,0,0,0-4.18Z"/></g></g></svg>