<svg xmlns="http://www.w3.org/2000/svg" viewBox="0 0 32 32"><defs><style>.cls-1{fill:#f0f0f0;}.cls-2{fill:#0052b4;}.cls-3{fill:#d80027;}</style></defs><title>UK</title><g id="Layer_2" data-name="Layer 2"><g id="UK"><circle class="cls-1" cx="16" cy="16" r="16"/><path class="cls-2" d="M3.31,6.26A15.81,15.81,0,0,0,.55,11.83H8.87Z"/><path class="cls-2" d="M31.45,11.83a15.81,15.81,0,0,0-2.76-5.57l-5.56,5.57Z"/><path class="cls-2" d="M.55,20.17a15.81,15.81,0,0,0,2.76,5.57l5.56-5.57Z"/><path class="cls-2" d="M25.74,3.31A15.81,15.81,0,0,0,20.17.55V8.87Z"/><path class="cls-2" d="M6.26,28.69a15.81,15.81,0,0,0,5.57,2.76V23.13Z"/><path class="cls-2" d="M11.83.55A15.81,15.81,0,0,0,6.26,3.31l5.57,5.56Z"/><path class="cls-2" d="M20.17,31.45a15.81,15.81,0,0,0,5.57-2.76l-5.57-5.56v8.32Z"/><path class="cls-2" d="M23.13,20.17l5.56,5.57a15.81,15.81,0,0,0,2.76-5.57Z"/><path class="cls-3" d="M31.86,13.91H18.09V.14a15.67,15.67,0,0,0-4.18,0V13.91H.14a15.67,15.67,0,0,0,0,4.18H13.91V31.86a15.67,15.67,0,0,0,4.18,0V18.09H31.86a15.67,15.67,0,0,0,0-4.18Z"/><path class="cls-3" d="M20.17,20.17h0l7.14,7.14a12.9,12.9,0,0,0,.94-1l-6.11-6.12Z"/><path class="cls-3" d="M11.83,20.17h0L4.69,27.31a12.9,12.9,0,0,0,1,.94l6.12-6.11v-2Z"/><path class="cls-3" d="M11.83,11.83h0L4.69,4.69a12.9,12.9,0,0,0-.94,1l6.11,6.12Z"/><path class="cls-3" d="M20.17,11.83h0l7.14-7.14a12.9,12.9,0,0,0-1-.94L20.17,9.86Z"/></g></g></svg>