<svg xmlns="http://www.w3.org/2000/svg" xmlns:xlink="http://www.w3.org/1999/xlink" viewBox="0 0 31.9 31.9"><defs><style>.cls-1{fill:none;}.cls-2{fill:#ffda44;}.cls-3{fill:#a2001d;}.cls-4{clip-path:url(#clip-path);}.cls-5{fill:#0052b4;}.cls-6{fill:#496e2d;}</style><clipPath id="clip-path" transform="translate(0 -0.02)"><rect class="cls-1" width="31.93" height="32"/></clipPath></defs><title>gd</title><g id="Layer_2" data-name="Layer 2"><g id="gd"><path class="cls-2" d="M31.9,16A16,16,0,1,1,16,0a16,16,0,0,1,16,16Z" transform="translate(0 -0.02)"/><path class="cls-3" d="M7,2.8a15.93,15.93,0,0,1,18,0l-9,.69Z" transform="translate(0 -0.02)"/><g class="cls-4"><path class="cls-5" d="M16,16l-1-1-.27.48Z" transform="translate(0 -0.02)"/><path class="cls-6" d="M4.67,4.7a15.94,15.94,0,0,0,0,22.55L16,16Z" transform="translate(0 -0.02)"/><path class="cls-6" d="M27.23,4.7a15.94,15.94,0,0,1,0,22.55L16,16Z" transform="translate(0 -0.02)"/></g><path class="cls-3" d="M21.5,16A5.55,5.55,0,1,1,16,10.43,5.55,5.55,0,0,1,21.5,16Z" transform="translate(0 -0.02)"/><path class="cls-2" d="M16,10.43l1.24,3.82h4L18,16.62l1.25,3.83L16,18.08l-3.26,2.37,1.25-3.83-3.26-2.37h4Z" transform="translate(0 -0.02)"/><path class="cls-3" d="M16,0h0A15.93,15.93,0,0,0,4.67,4.7H27.23A15.93,15.93,0,0,0,16,0Z" transform="translate(0 -0.02)"/><path class="cls-3" d="M4.67,27.25a15.93,15.93,0,0,0,22.56,0Z" transform="translate(0 -0.02)"/><path class="cls-2" d="M16,1.76l.26.79H17L16.37,3l.26.8L16,3.35l-.68.49.26-.8-.67-.49h.83Z" transform="translate(0 -0.02)"/><path class="cls-2" d="M12.08,1.76l.26.79h.84L12.5,3l.26.8-.68-.49-.67.49.25-.8L11,2.55h.83Z" transform="translate(0 -0.02)"/><path class="cls-2" d="M19.82,1.76l.26.79h.83L20.24,3l.25.8-.67-.49-.68.49L19.4,3l-.68-.49h.84Z" transform="translate(0 -0.02)"/><path class="cls-2" d="M16,28.11l.26.8H17l-.67.49.26.79L16,29.7l-.68.49.26-.79-.67-.49h.83Z" transform="translate(0 -0.02)"/><path class="cls-2" d="M12.08,28.11l.26.8h.84l-.68.49.26.79-.68-.49-.67.49.25-.79L11,28.91h.83Z" transform="translate(0 -0.02)"/><path class="cls-2" d="M19.82,28.11l.26.8h.83l-.67.49.25.79-.67-.49-.68.49.26-.79-.68-.49h.84Z" transform="translate(0 -0.02)"/><path class="cls-2" d="M4.86,15.71A1.39,1.39,0,1,1,2.52,17.2a4.82,4.82,0,0,1-.32-3.09,4.85,4.85,0,0,1,2.66,1.6Z" transform="translate(0 -0.02)"/><path class="cls-3" d="M4.75,17a.69.69,0,1,1-.69-.69.69.69,0,0,1,.69.69Z" transform="translate(0 -0.02)"/></g></g></svg>