<svg xmlns="http://www.w3.org/2000/svg" viewBox="0 0 32 32"><defs><style>.cls-1{fill:#f0f0f0;}.cls-2{fill:#d80027;}</style></defs><title>ge</title><g id="Layer_2" data-name="Layer 2"><g id="ge"><path class="cls-1" d="M32,16A16,16,0,1,1,16,0,16,16,0,0,1,32,16Z"/><path class="cls-2" d="M31.86,13.91H18.09V.14a15.67,15.67,0,0,0-4.18,0V13.91H.14a15.67,15.67,0,0,0,0,4.18H13.91V31.86a15.67,15.67,0,0,0,4.18,0V18.09H31.86a15.67,15.67,0,0,0,0-4.18Z"/><path class="cls-2" d="M9.74,7.65V5.57H7.65V7.65H5.57V9.74H7.65v2.09H9.74V9.74h2.09V7.65Z"/><path class="cls-2" d="M24.35,7.65V5.57H22.26V7.65H20.17V9.74h2.09v2.09h2.09V9.74h2.08V7.65Z"/><path class="cls-2" d="M9.74,22.26V20.17H7.65v2.09H5.57v2.09H7.65v2.08H9.74V24.35h2.09V22.26Z"/><path class="cls-2" d="M24.35,22.26V20.17H22.26v2.09H20.17v2.09h2.09v2.08h2.09V24.35h2.08V22.26Z"/></g></g></svg>