<svg xmlns="http://www.w3.org/2000/svg" viewBox="0 0 32 32"><defs><style>.cls-1{fill:#f0f0f0;}.cls-2{fill:#d80027;}.cls-3{fill:#ffda44;}</style></defs><title>gg</title><g id="Layer_2" data-name="Layer 2"><g id="gg"><path class="cls-1" d="M32,16A16,16,0,1,1,16,0,16,16,0,0,1,32,16Z"/><path class="cls-2" d="M31.86,13.91H18.09V.14a15.67,15.67,0,0,0-4.18,0V13.91H.14a15.67,15.67,0,0,0,0,4.18H13.91V31.86a15.67,15.67,0,0,0,4.18,0V18.09H31.86a15.67,15.67,0,0,0,0-4.18Z"/><path class="cls-3" d="M20.52,16.7l1.05.69V14.61l-1.05.69H16.7V11.48l.69-1.05H14.61l.69,1.05V15.3H11.48l-1.05-.69v2.78l1.05-.69H15.3v3.82l-.69,1.05h2.78l-.69-1.05V16.7Z"/></g></g></svg>