<svg xmlns="http://www.w3.org/2000/svg" viewBox="0 0 32 32"><defs><style>.cls-1{fill:#f9f9f9;}.cls-2{fill:#d80027;}.cls-3{fill:#ffda44;}</style></defs><title>gi</title><g id="Layer_2" data-name="Layer 2"><g id="gi"><path class="cls-1" d="M32,16A16,16,0,1,1,16,0,16,16,0,0,1,32,16Z"/><path class="cls-2" d="M16,32A16,16,0,0,0,31,21.57H1A16,16,0,0,0,16,32Z"/><path class="cls-2" d="M22.26,13.22V11.13H23V9.74H21.57v.69h-1.4V9.74H18.78v1.39h.7v2.09H18.09V8.35h.69V7H17.39v.69H16.7V7H15.3v.69h-.69V7H13.22V8.35h.69v4.87H12.52V11.13h.7V9.74H11.83v.69h-1.4V9.74H9v1.39h.7v2.09H8.35v5.56h15.3V13.22Z"/><path class="cls-3" d="M16,18.09a2.08,2.08,0,0,0-.7,4.05V25H13.22v2.79H16.7V22.14a2.08,2.08,0,0,0-.7-4.05Zm0,2.78a.7.7,0,1,1,.7-.7.7.7,0,0,1-.7.7Z"/></g></g></svg>