<svg xmlns="http://www.w3.org/2000/svg" xmlns:xlink="http://www.w3.org/1999/xlink" viewBox="0 0 31.9 31.9"><defs><style>.cls-1{fill:none;}.cls-2{fill:#f0f0f0;}.cls-3{fill:#6da544;}.cls-4{clip-path:url(#clip-path);}.cls-5{fill:#d80027;}.cls-6{fill:#0052b4;}.cls-7{fill:#dedde0;}.cls-8{fill:#786145;}</style><clipPath id="clip-path" transform="translate(0 -0.02)"><rect class="cls-1" width="31.93" height="32"/></clipPath></defs><title>gq</title><g id="Layer_2" data-name="Layer 2"><g id="gq"><path class="cls-2" d="M31.9,16A16,16,0,1,1,16,0a16,16,0,0,1,16,16Z" transform="translate(0 -0.02)"/><path class="cls-3" d="M9.71,10.43h21.2A15.95,15.95,0,0,0,4.67,4.7Z" transform="translate(0 -0.02)"/><g class="cls-4"><path class="cls-5" d="M9.71,21.52h21.2A15.95,15.95,0,0,1,4.67,27.25Z" transform="translate(0 -0.02)"/><path class="cls-6" d="M4.67,4.7a15.94,15.94,0,0,0,0,22.55L16,16Z" transform="translate(0 -0.02)"/></g><path class="cls-7" d="M18.72,13.2v3.47c0,2.12,2.78,2.77,2.78,2.77s2.77-.65,2.77-2.77V13.2Z" transform="translate(0 -0.02)"/><rect class="cls-8" x="20.8" y="16.02" width="1.39" height="2.01"/><path class="cls-3" d="M22.89,15.28a1.39,1.39,0,0,0-2.78,0,.7.7,0,0,0,0,1.39h2.78a.7.7,0,0,0,0-1.39Z" transform="translate(0 -0.02)"/></g></g></svg>