<svg xmlns="http://www.w3.org/2000/svg" viewBox="0 0 32 32"><defs><style>.cls-1{fill:#f0f0f0;}.cls-2{fill:#338af3;}</style></defs><title>gr</title><g id="Layer_2" data-name="Layer 2"><g id="gr"><path class="cls-1" d="M32,16A16,16,0,1,1,16,0,16,16,0,0,1,32,16Z"/><path class="cls-2" d="M16,11.83H31.45a15.87,15.87,0,0,0-1.8-4.18H16Z"/><path class="cls-2" d="M6,28.52H26a16,16,0,0,0,3.69-4.17H2.35A16,16,0,0,0,6,28.52Z"/><path class="cls-2" d="M5.57,3.87A16,16,0,0,0,2.35,7.65H5.57Z"/><path class="cls-2" d="M16,16V11.83H9.74V16H5.57V11.83h-5a16.08,16.08,0,0,0,0,8.34h30.9A16,16,0,0,0,32,16Z"/><path class="cls-2" d="M16,0A15.91,15.91,0,0,0,9.74,1.27V7.65H16V3.48H26A15.9,15.9,0,0,0,16,0Z"/></g></g></svg>