<svg xmlns="http://www.w3.org/2000/svg" viewBox="0 0 32 32"><defs><style>.cls-1{fill:#f0f0f0;}.cls-2{fill:#338af3;}.cls-3{fill:#acabb1;}.cls-4{fill:#6da544;}</style></defs><title>gt</title><g id="Layer_2" data-name="Layer 2"><g id="gt"><path class="cls-1" d="M32,16A16,16,0,1,1,16,0,16,16,0,0,1,32,16Z"/><path class="cls-2" d="M32,16A16,16,0,0,0,23,1.59V30.41A16,16,0,0,0,32,16Z"/><path class="cls-2" d="M0,16A16,16,0,0,0,9,30.41V1.59A16,16,0,0,0,0,16Z"/><path class="cls-3" d="M20.18,18.71,17.48,16l2.57-2.58-.12-1.36-.73-.73L16,14.52l-3.2-3.19-.73.73L12,13.42,14.52,16l-2.7,2.71,1.47,1.47L16,17.48l2.71,2.7Z"/><path class="cls-4" d="M19.94,12.06l-1.48,1.48a3.48,3.48,0,1,1-4.92,0l-1.48-1.48a5.57,5.57,0,1,0,7.88,0Z"/></g></g></svg>