<svg xmlns="http://www.w3.org/2000/svg" viewBox="0 0 32 32"><defs><style>.cls-1{fill:#d80027;}.cls-2{fill:#0052b4;}.cls-3{fill:#338af3;}.cls-4{fill:#ffda44;}.cls-5{fill:#6da544;}.cls-6{fill:#a2001d;}</style></defs><title>gu</title><g id="Layer_2" data-name="Layer 2"><g id="gu"><path class="cls-1" d="M7,29.22a16,16,0,0,0,18,0l-9-1.39Z"/><path class="cls-1" d="M25,2.78a16,16,0,0,0-18,0l9,1.39Z"/><path class="cls-2" d="M32,16A17,17,0,0,0,25,2.78H7A16,16,0,0,0,7,29.22H25A16,16,0,0,0,32,16Z"/><path class="cls-1" d="M15.09,26.1c-.21-.19-5.35-4.65-5.35-10.1s5.14-9.91,5.35-10.1L16,5.12l.91.78c.21.19,5.35,4.65,5.35,10.1s-5.14,9.91-5.35,10.1l-.91.78Z"/><path class="cls-3" d="M20.87,16c0-4.87-4.87-9-4.87-9s-4.87,4.17-4.87,9a9.4,9.4,0,0,0,1.09,4.17h7.56A9.4,9.4,0,0,0,20.87,16Z"/><path class="cls-2" d="M20.87,16a9.4,9.4,0,0,1-1.09,4.17l-3.78.7-3.78-.7A9.4,9.4,0,0,1,11.13,16Z"/><path class="cls-4" d="M16,25a17.5,17.5,0,0,0,3.78-4.87H12.22A17.5,17.5,0,0,0,16,25Z"/><path class="cls-5" d="M12.87,13.22h6.26L16,16.35Z"/><rect class="cls-6" x="14.96" y="15.3" width="2.09" height="6.26"/></g></g></svg>