<svg xmlns="http://www.w3.org/2000/svg" viewBox="0 0 32 32"><defs><style>.cls-1{fill:#ffda44;}.cls-2{fill:#6da544;}.cls-3{fill:#d80027;}</style></defs><title>gw</title><g id="Layer_2" data-name="Layer 2"><g id="gw"><path class="cls-1" d="M16,0a16,16,0,0,0-4.17.55L10.43,16l1.4,15.45A16,16,0,1,0,16,0Z"/><path class="cls-2" d="M10.43,16l1.4,15.45A16,16,0,0,0,32,16Z"/><path class="cls-3" d="M0,16A16,16,0,0,0,8.35,30.05V2A16,16,0,0,0,0,16Z"/><path class="cls-3" d="M0,16A16,16,0,0,0,11.83,31.45V.55A16,16,0,0,0,0,16Z"/><path d="M6.05,11.83l1,3.18h3.35L7.72,17l1,3.18-2.71-2-2.72,2,1-3.18L1.66,15H5Z"/></g></g></svg>