<svg xmlns="http://www.w3.org/2000/svg" viewBox="0 0 32 32"><defs><style>.cls-1{fill:#f0f0f0;}.cls-2{fill:#338af3;}</style></defs><title>hn</title><g id="Layer_2" data-name="Layer 2"><g id="hn"><path class="cls-1" d="M32,16A16,16,0,1,1,16,0,16,16,0,0,1,32,16Z"/><path class="cls-2" d="M16,32a16,16,0,0,0,14.41-9H1.59A16,16,0,0,0,16,32Z"/><path class="cls-2" d="M16,0A16,16,0,0,0,1.59,9H30.41A16,16,0,0,0,16,0Z"/><path class="cls-2" d="M9.85,10.43l.51,1.6H12l-1.36,1,.52,1.6-1.35-1-1.36,1L9,13,7.65,12H9.33Z"/><path class="cls-2" d="M9.85,17.39l.51,1.6H12l-1.36,1,.52,1.6-1.35-1-1.36,1L9,20,7.65,19H9.33Z"/><path class="cls-2" d="M22.15,10.43l.52,1.6h1.68L23,13l.52,1.6-1.36-1-1.35,1,.52-1.6L20,12h1.68Z"/><path class="cls-2" d="M22.15,17.39l.52,1.6h1.68L23,20l.52,1.6-1.36-1-1.35,1,.52-1.6L20,19h1.68Z"/><path class="cls-2" d="M16,13.91l.52,1.6h1.67l-1.35,1,.52,1.6L16,17.1l-1.36,1,.52-1.6-1.35-1h1.67Z"/></g></g></svg>