<svg xmlns="http://www.w3.org/2000/svg" viewBox="0 0 32 32"><defs><style>.cls-1{fill:#f0f0f0;}.cls-2{fill:#0052b4;}.cls-3{fill:#d80027;}.cls-4{fill:#338af3;}</style></defs><title>hr</title><g id="Layer_2" data-name="Layer 2"><g id="hr"><path class="cls-1" d="M32,16a15.85,15.85,0,0,0-1-5.57L16,9.74,1,10.43A16,16,0,0,0,1,21.57l15,.69,15-.69A15.85,15.85,0,0,0,32,16Z"/><path class="cls-2" d="M16,32A16,16,0,0,0,31,21.57H1A16,16,0,0,0,16,32Z"/><path class="cls-3" d="M1,10.43H31a16,16,0,0,0-30,0Z"/><polygon class="cls-4" points="20.17 11.13 17.39 11.13 17.86 7.65 19.71 6.26 21.57 7.65 21.57 10.44 20.17 11.13"/><polygon class="cls-4" points="11.83 11.13 14.61 11.13 14.14 7.65 12.29 6.26 10.44 7.65 10.44 10.44 11.83 11.13"/><polygon class="cls-2" points="17.86 11.13 14.14 11.13 14.14 7.65 16 6.26 17.86 7.65 17.86 11.13"/><path class="cls-1" d="M10.43,10.43v7.66a5.57,5.57,0,0,0,2.24,4.46l1-.25,1.23,1.24a5.83,5.83,0,0,0,1.12.11,5.91,5.91,0,0,0,1.12-.11l1.4-1.17.81.17a5.56,5.56,0,0,0,2.24-4.45V10.43Z"/><rect class="cls-3" x="10.43" y="10.43" width="2.23" height="2.23"/><rect class="cls-3" x="14.89" y="10.43" width="2.23" height="2.23"/><rect class="cls-3" x="19.34" y="10.43" width="2.23" height="2.23"/><rect class="cls-3" x="12.66" y="12.66" width="2.23" height="2.23"/><rect class="cls-3" x="17.11" y="12.66" width="2.23" height="2.23"/><rect class="cls-3" x="10.43" y="14.89" width="2.23" height="2.23"/><rect class="cls-3" x="12.66" y="17.11" width="2.23" height="2.23"/><rect class="cls-3" x="14.89" y="14.89" width="2.23" height="2.23"/><rect class="cls-3" x="19.34" y="14.89" width="2.23" height="2.23"/><rect class="cls-3" x="17.11" y="17.11" width="2.23" height="2.23"/><rect class="cls-3" x="14.89" y="19.34" width="2.23" height="2.23"/><path class="cls-3" d="M12.66,19.34H10.58a5.42,5.42,0,0,0,1.08,2.22h1Z"/><path class="cls-3" d="M19.34,21.56h1a5.42,5.42,0,0,0,1.08-2.22H19.34Z"/><path class="cls-3" d="M12.66,21.56v1a5.65,5.65,0,0,0,2.23,1v-2Z"/><path class="cls-3" d="M17.11,21.56v2a5.65,5.65,0,0,0,2.23-1v-1Z"/></g></g></svg>