<svg xmlns="http://www.w3.org/2000/svg" viewBox="0 0 32 32"><defs><style>.cls-1{fill:#a2001d;}.cls-2{fill:#0052b4;}.cls-3{fill:#f0f0f0;}.cls-4{fill:#6da544;}.cls-5{fill:#ffda44;}</style></defs><title>ht</title><g id="Layer_2" data-name="Layer 2"><g id="ht"><path class="cls-1" d="M32,16A16,16,0,0,1,0,16C0,7.16,16,0,16,0S32,7.16,32,16Z"/><path class="cls-2" d="M0,16a16,16,0,0,1,32,0"/><path class="cls-3" d="M21.57,20.17,16,19.48l-5.57.69V11.83H21.57Z"/><path class="cls-2" d="M18.78,16.7A2.78,2.78,0,1,1,16,13.91a2.78,2.78,0,0,1,2.78,2.79Z"/><path class="cls-1" d="M17.39,16.7A1.39,1.39,0,1,1,16,15.3a1.39,1.39,0,0,1,1.39,1.4Z"/><path class="cls-4" d="M13.91,13.22h4.18L16,15.3Z"/><rect class="cls-5" x="15.3" y="14.61" width="1.39" height="4.17"/><path class="cls-4" d="M18.23,18.37H13.77l-3.34,1.8H21.57Z"/></g></g></svg>