<svg xmlns="http://www.w3.org/2000/svg" viewBox="0 0 32 32"><defs><style>.cls-1{fill:#f0f0f0;}.cls-2{fill:#0052b4;}</style></defs><title>il</title><g id="Layer_2" data-name="Layer 2"><g id="il"><path class="cls-1" d="M32,16A16,16,0,1,1,16,0,16,16,0,0,1,32,16Z"/><path class="cls-2" d="M22,12.52H18L16,9l-2,3.48H10L12,16l-2,3.48h4L16,23l2-3.48h4L20,16ZM18.47,16l-1.24,2.14H14.77L13.53,16l1.24-2.14h2.46ZM16,11.73l.46.79h-.92Zm-3.7,2.13h.92l-.46.8Zm0,4.28.46-.8.46.8ZM16,20.27l-.46-.79h.92Zm3.7-2.13h-.92l.46-.8Zm-.92-4.28h.92l-.46.8Z"/><path class="cls-2" d="M26,3.48H6A16,16,0,0,0,2.35,7.65h27.3A16,16,0,0,0,26,3.48Z"/><path class="cls-2" d="M6,28.52H26a16,16,0,0,0,3.69-4.17H2.35A16,16,0,0,0,6,28.52Z"/></g></g></svg>