<svg xmlns="http://www.w3.org/2000/svg" viewBox="0 0 32 32"><defs><style>.cls-1{fill:#f0f0f0;}.cls-2{fill:#0052b4;}.cls-3{fill:#496e2d;}.cls-4{fill:#d80027;}.cls-5{fill:#6da544;}.cls-6{fill:#a2001d;}.cls-7{fill:#ffda44;}</style></defs><title>io</title><g id="Layer_2" data-name="Layer 2"><g id="io"><circle class="cls-1" cx="16" cy="16" r="16"/><path class="cls-2" d="M29.33,17.91C28,17.91,28,16.7,26.67,16.7S25.33,17.91,24,17.91s-1.33-1.21-2.67-1.21S20,17.91,18.67,17.91,17.33,16.7,16,16.7s-1.33,1.21-2.67,1.21S12,16.7,10.67,16.7,9.33,17.91,8,17.91,6.67,16.7,5.33,16.7,4,17.91,2.67,17.91,1.33,16.71,0,16.7a16.84,16.84,0,0,0,.26,2.15c1.06.16,1.15,1.2,2.39,1.2S4,18.83,5.33,18.83,6.67,20.05,8,20.05s1.33-1.22,2.67-1.22,1.33,1.22,2.66,1.22,1.34-1.22,2.67-1.22,1.33,1.22,2.67,1.22,1.33-1.22,2.66-1.22,1.34,1.22,2.67,1.22,1.33-1.22,2.67-1.22,1.33,1.22,2.66,1.22,1.33-1,2.39-1.2A16.84,16.84,0,0,0,32,16.7C30.67,16.71,30.66,17.91,29.33,17.91Z"/><path class="cls-2" d="M26.67,20.87c-1.34,0-1.34,1.22-2.67,1.22s-1.33-1.22-2.67-1.22S20,22.09,18.67,22.09,17.33,20.87,16,20.87s-1.33,1.22-2.67,1.22S12,20.87,10.67,20.87,9.33,22.09,8,22.09s-1.33-1.22-2.67-1.22S4,22.09,2.67,22.09c-1,0-1.24-.66-1.85-1a16.67,16.67,0,0,0,1.42,3.09,1.88,1.88,0,0,0,.43,0C4,24.22,4,23,5.33,23S6.67,24.22,8,24.22,9.33,23,10.67,23s1.33,1.22,2.66,1.22S14.67,23,16,23s1.33,1.22,2.67,1.22S20,23,21.33,23s1.34,1.22,2.67,1.22S25.33,23,26.67,23s1.33,1.22,2.66,1.22a1.88,1.88,0,0,0,.43,0,16.67,16.67,0,0,0,1.42-3.09c-.61.35-.86,1-1.85,1C28,22.09,28,20.87,26.67,20.87Z"/><path class="cls-2" d="M31.63,12.56c-1,.2-1.1,1.18-2.3,1.18S28,12.52,26.67,12.52,25.33,13.74,24,13.74s-1.33-1.22-2.67-1.22S20,13.74,18.67,13.74,17.33,12.52,16,12.52a1.91,1.91,0,0,0-1.41.68v2.14A1.87,1.87,0,0,1,16,14.66c1.33,0,1.33,1.21,2.67,1.21s1.33-1.21,2.66-1.21,1.34,1.21,2.67,1.21,1.33-1.21,2.67-1.21,1.33,1.21,2.66,1.21,1.33-1,2.39-1.19h.22A14.7,14.7,0,0,0,31.63,12.56Z"/><path class="cls-2" d="M30.46,9.14a1.65,1.65,0,0,1-1.13.43C28,9.57,28,8.35,26.67,8.35S25.33,9.57,24,9.57s-1.33-1.22-2.67-1.22S20,9.57,18.67,9.57,17.33,8.35,16,8.35A1.87,1.87,0,0,0,14.59,9v2.13A1.91,1.91,0,0,1,16,10.48c1.33,0,1.33,1.22,2.67,1.22s1.33-1.22,2.66-1.22S22.67,11.7,24,11.7s1.33-1.22,2.67-1.22S28,11.7,29.33,11.7c1,0,1.22-.61,1.78-1C30.92,10.19,30.7,9.66,30.46,9.14Z"/><path class="cls-2" d="M26.78,4.18h-.11c-1.34,0-1.34,1.22-2.67,1.22s-1.33-1.22-2.67-1.22S20,5.39,18.67,5.39,17.33,4.17,16,4.17a1.88,1.88,0,0,0-1.41.69V7A1.87,1.87,0,0,1,16,6.31c1.33,0,1.33,1.22,2.67,1.22S20,6.31,21.33,6.31,22.67,7.53,24,7.53s1.33-1.22,2.67-1.22S28,7.53,29.33,7.53l.23,0A16.14,16.14,0,0,0,26.78,4.18Z"/><polygon class="cls-2" points="16 0 16 0 16 0 16 0"/><path class="cls-2" d="M20.09.53a1.92,1.92,0,0,1-1.42.69C17.33,1.22,17.33,0,16,0h0a1.86,1.86,0,0,0-1.37.64V2.77A1.86,1.86,0,0,1,16,2.13c1.33,0,1.33,1.22,2.67,1.22S20,2.13,21.33,2.13,22.67,3.35,24,3.35a1.64,1.64,0,0,0,1.17-.46A15.74,15.74,0,0,0,20.09.53Z"/><path class="cls-2" d="M18.67,30.44c-1.34,0-1.34-1.22-2.67-1.22s-1.33,1.22-2.67,1.22S12,29.22,10.67,29.22c-1,0-1.26.71-1.92,1.05A16,16,0,0,0,14.68,32a1.75,1.75,0,0,1,2.64,0,16,16,0,0,0,5.93-1.68c-.66-.34-.9-1.05-1.92-1.05C20,29.22,20,30.44,18.67,30.44Z"/><path class="cls-2" d="M24,26.26c-1.33,0-1.33-1.22-2.67-1.22S20,26.26,18.67,26.26,17.33,25,16,25s-1.33,1.22-2.67,1.22S12,25,10.67,25,9.33,26.26,8,26.26,6.67,25,5.33,25c-1,0-1.23.63-1.8,1A15.32,15.32,0,0,0,4.68,27.3a1.75,1.75,0,0,1,.65-.12c1.34,0,1.34,1.22,2.67,1.22s1.33-1.22,2.67-1.22S12,28.4,13.33,28.4s1.34-1.22,2.67-1.22,1.33,1.22,2.67,1.22,1.33-1.22,2.66-1.22S22.67,28.4,24,28.4s1.33-1.22,2.67-1.22a1.75,1.75,0,0,1,.65.12A15.32,15.32,0,0,0,28.47,26c-.58-.36-.84-1-1.8-1C25.33,25,25.33,26.26,24,26.26Z"/><path class="cls-1" d="M16,0Z"/><path class="cls-1" d="M16,16h0v0Z"/><polygon class="cls-3" points="18.09 16 18.09 16 18.09 16 18.09 16"/><polygon class="cls-2" points="16 8.35 16 13.05 10.44 7.65 16 8.35"/><polygon class="cls-2" points="8.35 16 13.05 16 8.35 9.74 7.65 14.61 8.35 16"/><path class="cls-1" d="M16,8.35V0h0A16,16,0,0,0,0,16H8.35V11.3l4.7,4.7H16l0,0V13.05l-4.7-4.7Z"/><path class="cls-4" d="M8.09,2.09a16,16,0,0,0-6,6V16H6.26V6.26H16V2.09Z"/><path class="cls-4" d="M16,14,10.32,8.35h-2L16,16h0Z"/><polygon class="cls-5" points="20.87 8.35 27.13 8.35 24 11.48 20.87 8.35"/><rect class="cls-6" x="23.3" y="10.78" width="1.39" height="3.83"/><rect class="cls-6" x="23.3" y="20.87" width="1.39" height="3.83"/><path class="cls-7" d="M28.17,18.78a2.08,2.08,0,0,0-3.47-1.55V16h.69V14.61H24.7v-.7H23.3v.7h-.69V16h.69v1.23a2,2,0,0,0-1.39-.53,2.09,2.09,0,0,0-1.39,3.64v1.23h7V20.34A2.07,2.07,0,0,0,28.17,18.78Z"/><path class="cls-4" d="M26.09,18.09a.71.71,0,0,0-.47.17l-.92.83H23.3l-.92-.83a.71.71,0,0,0-.47-.17.69.69,0,0,0-.46,1.21l.46.42v.45h4.18v-.45l.46-.42a.69.69,0,0,0-.46-1.21Z"/></g></g></svg>