<svg xmlns="http://www.w3.org/2000/svg" viewBox="0 0 32 32"><defs><style>.cls-1{fill:#f0f0f0;}.cls-2{fill:#a2001d;}.cls-3{fill:#496e2d;}</style></defs><title>iq</title><g id="Layer_2" data-name="Layer 2"><g id="iq"><path class="cls-1" d="M32,16A16,16,0,1,1,16,0,16,16,0,0,1,32,16Z"/><path class="cls-2" d="M16,0A16,16,0,0,0,1,10.43H31A16,16,0,0,0,16,0Z"/><path d="M16,32A16,16,0,0,0,31,21.57H1A16,16,0,0,0,16,32Z"/><path class="cls-3" d="M12.17,15H9.09a1.39,1.39,0,0,1,1.34-1.05V11.83A3.48,3.48,0,0,0,7,15.3V17h5.21a.35.35,0,0,1,.35.35v.7H5.57v2.08h9V17.39A2.43,2.43,0,0,0,12.17,15Z"/><path class="cls-3" d="M17.39,18.09V11.83H15.3v8.34h3.48V18.09Z"/><path class="cls-3" d="M24.35,18.09V11.83H22.26v6.26h-.69V16H19.48v4.17h6.26V18.09Z"/></g></g></svg>