<svg xmlns="http://www.w3.org/2000/svg" viewBox="0 0 32 32"><defs><style>.cls-1{fill:#f0f0f0;}.cls-2{fill:#d80027;}.cls-3{fill:#6da544;}</style></defs><title>ir</title><g id="Layer_2" data-name="Layer 2"><g id="ir"><path class="cls-1" d="M32,16A16,16,0,1,1,16,0,16,16,0,0,1,32,16Z"/><path class="cls-2" d="M21.2,11.83H19.1q0,.35,0,.69a8,8,0,0,1-1.06,4.12,3.88,3.88,0,0,1-1,1.11V11.83H15v5.92a3.88,3.88,0,0,1-1-1.11,8,8,0,0,1-1.06-4.12q0-.35,0-.69H10.8c0,.23,0,.46,0,.69,0,4.29,2.29,7.65,5.22,7.65s5.22-3.36,5.22-7.65c0-.23,0-.46,0-.69Z"/><path class="cls-3" d="M6.61,7.65H8.7V9h2.08V7.65h2.09V9H15V7.65H17V9h2.09V7.65h2.09V9H23.3V7.65h2.09V9h5A16,16,0,0,0,1.59,9h5Z"/><path class="cls-2" d="M25.39,23v1.39H23.3V23H21.22v1.39H19.13V23H17v1.39H15V23H12.87v1.39H10.78V23H8.7v1.39H6.61V23h-5a16,16,0,0,0,28.82,0Z"/></g></g></svg>