<svg xmlns="http://www.w3.org/2000/svg" viewBox="0 0 32 32"><defs><style>.cls-1{fill:#f0f0f0;}.cls-2{fill:#0052b4;}.cls-3{fill:#d80027;}</style></defs><title>is</title><g id="Layer_2" data-name="Layer 2"><g id="is"><path class="cls-1" d="M32,16A16,16,0,1,1,16,0,16,16,0,0,1,32,16Z"/><path class="cls-2" d="M.55,20.17a16,16,0,0,0,5.71,8.52V20.17Z"/><path class="cls-2" d="M14.61,31.94c.46,0,.92.06,1.39.06A16,16,0,0,0,31.45,20.17H14.61Z"/><path class="cls-2" d="M31.45,11.83A16,16,0,0,0,16,0c-.47,0-.93,0-1.39.06V11.83Z"/><path class="cls-2" d="M6.26,3.31A16,16,0,0,0,.55,11.83H6.26Z"/><path class="cls-3" d="M31.86,13.91H12.52V.38A15.74,15.74,0,0,0,8.35,2v12H.14a15.67,15.67,0,0,0,0,4.18H8.35v12a15.74,15.74,0,0,0,4.17,1.57V18.09H31.86a15.67,15.67,0,0,0,0-4.18Z"/></g></g></svg>