<svg xmlns="http://www.w3.org/2000/svg" viewBox="0 0 32 32"><defs><style>.cls-1{fill:#f0f0f0;}.cls-2{fill:#d80027;}.cls-3{fill:#ffda44;}</style></defs><title>je</title><g id="Layer_2" data-name="Layer 2"><g id="je"><path class="cls-1" d="M32,16A16,16,0,1,1,16,0,16,16,0,0,1,32,16Z"/><path class="cls-2" d="M28.69,25.74,19,16l9.74-9.74a16.26,16.26,0,0,0-3-2.95L16,13.05,6.26,3.31A16.26,16.26,0,0,0,3.31,6.26L13.05,16h0L3.31,25.74a16.26,16.26,0,0,0,2.95,3L16,19l9.74,9.74a16.26,16.26,0,0,0,3-3Z"/><path class="cls-3" d="M13.22,4.87l2.78.7,2.78-.7V2.5l-1.11.56L16,1.39,14.33,3.06,13.22,2.5Z"/><path class="cls-2" d="M13.22,4.87V6.61C13.22,8.74,16,9.39,16,9.39s2.78-.65,2.78-2.78V4.87Z"/></g></g></svg>