<svg xmlns="http://www.w3.org/2000/svg" xmlns:xlink="http://www.w3.org/1999/xlink" viewBox="0 0 31.9 31.9"><defs><style>.cls-1{fill:none;}.cls-2{fill:#f0f0f0;}.cls-3{clip-path:url(#clip-path);}.cls-4{fill:#6da544;}.cls-5{fill:#d80027;}</style><clipPath id="clip-path" transform="translate(0 -0.02)"><rect class="cls-1" width="31.93" height="32"/></clipPath></defs><title>jo</title><g id="Layer_2" data-name="Layer 2"><g id="jo"><path class="cls-2" d="M31.9,16A16,16,0,1,1,16,0a16,16,0,0,1,16,16Z" transform="translate(0 -0.02)"/><path d="M9.71,10.43h21.2A15.95,15.95,0,0,0,4.67,4.7Z" transform="translate(0 -0.02)"/><g class="cls-3"><path class="cls-4" d="M9.71,21.52h21.2A15.95,15.95,0,0,1,4.67,27.25Z" transform="translate(0 -0.02)"/><path class="cls-5" d="M4.67,4.7a15.94,15.94,0,0,0,0,22.55L16,16Z" transform="translate(0 -0.02)"/></g><path class="cls-2" d="M6.33,12.51l.88,1.83,2-.46L8.3,15.71,9.89,17l-2,.44v2L6.33,18.17,4.75,19.44v-2l-2-.44,1.59-1.26-.88-1.83,2,.46Z" transform="translate(0 -0.02)"/></g></g></svg>