<svg xmlns="http://www.w3.org/2000/svg" viewBox="0 0 32 32"><defs><style>.cls-1{fill:#f0f0f0;}.cls-2{fill:#496e2d;}.cls-3{fill:#a2001d;}</style></defs><title>ke</title><g id="Layer_2" data-name="Layer 2"><g id="ke"><path class="cls-1" d="M32,16A16,16,0,1,1,16,0,16,16,0,0,1,32,16Z"/><path d="M16,0A16,16,0,0,0,1.59,9H30.41A16,16,0,0,0,16,0Z"/><path class="cls-2" d="M16,32A16,16,0,0,1,1.59,23H30.41A16,16,0,0,1,16,32Z"/><path class="cls-3" d="M31.24,11.13H.76a16,16,0,0,0,0,9.74H31.24a16,16,0,0,0,0-9.74Z"/><path class="cls-1" d="M21,7.39l-1.89-.87-3.09,7-3.09-7L11,7.39,14.85,16,11,24.61l1.89.87,3.09-7,3.09,7L21,24.61,17.15,16Z"/><path class="cls-1" d="M17.29,8.22A15.62,15.62,0,0,0,16,7a15.62,15.62,0,0,0-1.29,1.26V23.78A15.62,15.62,0,0,0,16,25a15.62,15.62,0,0,0,1.29-1.26Z"/><path class="cls-3" d="M12.52,11.2v9.6A16.86,16.86,0,0,0,15,24V8a16.86,16.86,0,0,0-2.44,3.24Z"/><path class="cls-3" d="M19.48,11.2A16.86,16.86,0,0,0,17,8V24a16.86,16.86,0,0,0,2.44-3.24Z"/><path d="M19.48,11.2v9.6A9.92,9.92,0,0,0,20.87,16a9.92,9.92,0,0,0-1.39-4.8Z"/><path d="M12.52,11.2v9.6A9.92,9.92,0,0,1,11.13,16a9.92,9.92,0,0,1,1.39-4.8Z"/></g></g></svg>