<svg xmlns="http://www.w3.org/2000/svg" viewBox="0 0 32 32"><defs><style>.cls-1{fill:#d80027;}.cls-2{fill:#0052b4;}.cls-3{fill:#f0f0f0;}</style></defs><title>kh</title><g id="Layer_2" data-name="Layer 2"><g id="kh"><path class="cls-1" d="M0,16a15.92,15.92,0,0,0,2,7.65L16,25l14.05-1.39a16,16,0,0,0,0-15.3L16,7,2,8.35A15.92,15.92,0,0,0,0,16Z"/><path class="cls-2" d="M2,8.35h28.1A16,16,0,0,0,2,8.35Z"/><path class="cls-2" d="M16,32a16,16,0,0,0,14.05-8.35H2A16,16,0,0,0,16,32Z"/><polygon class="cls-3" points="21.57 19.13 21.57 17.04 20.17 17.04 20.17 14.26 18.78 12.87 17.39 14.26 17.39 11.48 16 10.09 14.61 11.48 14.61 14.26 13.22 12.87 11.83 14.26 11.83 17.04 10.44 17.04 10.44 19.13 9.04 19.13 9.04 21.22 22.96 21.22 22.96 19.13 21.57 19.13"/></g></g></svg>