<svg xmlns="http://www.w3.org/2000/svg" viewBox="0 0 32 32"><defs><style>.cls-1{fill:#d80027;}.cls-2{fill:#ffda44;}.cls-3{fill:#f0f0f0;}.cls-4{fill:#0052b4;}</style></defs><title>ki</title><g id="Layer_2" data-name="Layer 2"><g id="ki"><path class="cls-1" d="M0,16a16,16,0,0,1,32,0"/><path class="cls-2" d="M21.57,14.88,19.29,16l1.21,2.2L18,17.68l-.31,2.49L16,18.34l-1.72,1.83L14,17.68l-2.47.47L12.71,16l-2.28-1.07,2.28-1.07-1.21-2.2,2.47.47.31-2.49L16,11.42l1.72-1.83L18,12.08l2.47-.47-1.21,2.2Z"/><path class="cls-2" d="M20.17,5.22H17a1,1,0,1,0-2.08,0H11.83a1.07,1.07,0,0,0,1.07,1h0a1,1,0,0,0,1,1,1,1,0,0,0,1.05,1H17a1,1,0,0,0,1.05-1,1,1,0,0,0,1-1h0a1.07,1.07,0,0,0,1.07-1Z"/><path class="cls-3" d="M32,16A16,16,0,0,1,0,16Z"/><path class="cls-4" d="M16,32a16,16,0,0,0,12.4-5.89c-.53-.36-.81-.94-1.73-.94-1.34,0-1.34,1.22-2.67,1.22s-1.33-1.22-2.67-1.22S20,26.39,18.67,26.39,17.33,25.17,16,25.17s-1.33,1.22-2.67,1.22S12,25.17,10.67,25.17,9.33,26.39,8,26.39s-1.33-1.22-2.67-1.22c-.92,0-1.2.58-1.73.94A16,16,0,0,0,16,32Z"/><path class="cls-4" d="M29.33,18C28,18,28,16.82,26.67,16.82S25.33,18,24,18s-1.33-1.22-2.67-1.22S20,18,18.67,18,17.33,16.82,16,16.82,14.67,18,13.33,18,12,16.82,10.67,16.82,9.33,18,8,18s-1.33-1.22-2.67-1.22S4,18,2.67,18,1.33,16.83,0,16.82A16.84,16.84,0,0,0,.28,19c1.06.16,1.15,1.2,2.39,1.2S4,19,5.33,19,6.67,20.17,8,20.17,9.33,19,10.67,19s1.33,1.22,2.66,1.22S14.67,19,16,19s1.33,1.22,2.67,1.22S20,19,21.33,19s1.34,1.22,2.67,1.22S25.33,19,26.67,19s1.33,1.22,2.66,1.22,1.33-1,2.39-1.19A17.21,17.21,0,0,0,32,16.82c-1.31,0-1.32,1.22-2.65,1.22Z"/><path class="cls-4" d="M26.67,21c-1.34,0-1.34,1.21-2.67,1.21S22.67,21,21.33,21,20,22.21,18.67,22.21,17.33,21,16,21s-1.33,1.21-2.67,1.21S12,21,10.67,21,9.33,22.21,8,22.21,6.67,21,5.33,21,4,22.21,2.67,22.21c-1,0-1.23-.62-1.79-1a15.76,15.76,0,0,0,1.45,3.08,1.72,1.72,0,0,0,.34,0C4,24.35,4,23.13,5.33,23.13S6.67,24.35,8,24.35s1.33-1.22,2.67-1.22,1.33,1.22,2.66,1.22,1.34-1.22,2.67-1.22,1.33,1.22,2.67,1.22,1.33-1.22,2.66-1.22,1.34,1.22,2.67,1.22,1.33-1.22,2.67-1.22,1.33,1.22,2.66,1.22a1.72,1.72,0,0,0,.34,0,15.76,15.76,0,0,0,1.45-3.08c-.56.35-.83,1-1.79,1C28,22.21,28,21,26.67,21Z"/><path class="cls-3" d="M32,14.74c-1.28,0-1.3,1.21-2.62,1.21S28,14.73,26.67,14.73,25.33,16,24,16s-1.33-1.22-2.67-1.22S20,16,18.67,16,17.33,14.73,16,14.73,14.67,16,13.33,16,12,14.73,10.67,14.73,9.33,16,8,16s-1.33-1.22-2.67-1.22S4,16,2.67,16,1.33,14.77.05,14.74c0,.41,0,.83,0,1.26s0,.58,0,.87c1.31,0,1.32,1.22,2.65,1.22S4,16.87,5.33,16.87,6.67,18.09,8,18.09s1.33-1.22,2.67-1.22,1.33,1.22,2.66,1.22,1.34-1.22,2.67-1.22,1.33,1.22,2.67,1.22,1.33-1.22,2.66-1.22,1.34,1.22,2.67,1.22,1.33-1.22,2.67-1.22,1.33,1.22,2.66,1.22,1.34-1.21,2.65-1.22c0-.29,0-.58,0-.87s0-.85-.05-1.26Z"/></g></g></svg>