<svg xmlns="http://www.w3.org/2000/svg" viewBox="0 0 32 32"><defs><style>.cls-1{fill:#f0f0f0;}.cls-2{fill:#d80027;}.cls-3{fill:#ffda44;}.cls-4{fill:#0052b4;}.cls-5{fill:#6da544;}</style></defs><title>km</title><g id="Layer_2" data-name="Layer 2"><g id="km"><circle class="cls-1" cx="16" cy="16" r="16"/><path class="cls-2" d="M32,16H14.66C11.21,19.4,9.13,22.06,7,24.18l9.05.82,14-1.39A16,16,0,0,0,32,16Z"/><path class="cls-3" d="M7,8.3H30A16,16,0,0,0,4.71,4.66Z"/><path class="cls-4" d="M7.7,23.61c-1.44,1.43-2,2.64-3,3.68a16,16,0,0,0,25.42-3.68Z"/><path class="cls-5" d="M4.69,4.64a16,16,0,0,0,0,22.63L16,16Z"/><path class="cls-1" d="M4.22,16A4.87,4.87,0,0,1,8.05,11.2,4.57,4.57,0,0,0,7,11.08a4.87,4.87,0,0,0,0,9.74,5.19,5.19,0,0,0,1.05-.11A4.88,4.88,0,0,1,4.22,16Z"/><polygon class="cls-1" points="7.99 11.78 8.25 12.58 9.09 12.58 8.41 13.07 8.67 13.87 7.99 13.37 7.32 13.87 7.57 13.07 6.9 12.58 7.73 12.58 7.99 11.78"/><polygon class="cls-1" points="7.99 13.87 8.25 14.66 9.09 14.66 8.41 15.16 8.67 15.95 7.99 15.46 7.32 15.95 7.57 15.16 6.9 14.66 7.73 14.66 7.99 13.87"/><polygon class="cls-1" points="7.99 15.95 8.25 16.75 9.09 16.75 8.41 17.24 8.67 18.04 7.99 17.55 7.32 18.04 7.57 17.24 6.9 16.75 7.73 16.75 7.99 15.95"/><polygon class="cls-1" points="7.99 18.04 8.25 18.84 9.09 18.84 8.41 19.33 8.67 20.13 7.99 19.64 7.32 20.13 7.57 19.33 6.9 18.84 7.73 18.84 7.99 18.04"/></g></g></svg>