<svg xmlns="http://www.w3.org/2000/svg" xmlns:xlink="http://www.w3.org/1999/xlink" viewBox="0 0 31.9 31.9"><defs><style>.cls-1{fill:none;}.cls-2{fill:#ffda44;}.cls-3{clip-path:url(#clip-path);}.cls-4{fill:#6da544;}.cls-5{fill:#d80027;}.cls-6{fill:#f0f0f0;}</style><clipPath id="clip-path" transform="translate(0 -0.03)"><rect class="cls-1" width="31.93" height="32"/></clipPath></defs><title>kn</title><g id="Layer_2" data-name="Layer 2"><g id="kn"><path class="cls-2" d="M31.9,16A16,16,0,1,1,16,0a16,16,0,0,1,16,16Z" transform="translate(0 -0.03)"/><g class="cls-3"><path d="M4.67,27.25A15.55,15.55,0,0,0,6.8,29L29,6.83A16.29,16.29,0,0,0,27.23,4.7,15.55,15.55,0,0,0,25.1,2.91L2.88,25.12a16.29,16.29,0,0,0,1.79,2.13Z" transform="translate(0 -0.03)"/><path class="cls-4" d="M4.67,4.7a16,16,0,0,0-2.9,18.59L23.26,1.8A15.94,15.94,0,0,0,4.67,4.7Z" transform="translate(0 -0.03)"/><path class="cls-5" d="M27.23,27.25a16,16,0,0,0,2.9-18.59L8.64,30.15a15.94,15.94,0,0,0,18.59-2.9Z" transform="translate(0 -0.03)"/></g><path class="cls-6" d="M10.14,18.84l1.49.76,1.18-1.18-.26,1.65,1.49.76-1.65.26-.26,1.65-.76-1.49-1.65.26,1.18-1.18Z" transform="translate(0 -0.03)"/><path class="cls-6" d="M18.82,10.17l1.49.76,1.18-1.19-.26,1.65,1.48.76-1.65.26-.26,1.65L20,12.58l-1.65.26,1.19-1.18Z" transform="translate(0 -0.03)"/></g></g></svg>