<svg xmlns="http://www.w3.org/2000/svg" viewBox="0 0 32 32"><defs><style>.cls-1{fill:#f0f0f0;}.cls-2{fill:#0052b4;}.cls-3{fill:#d80027;}</style></defs><title>kp</title><g id="Layer_2" data-name="Layer 2"><g id="kp"><path class="cls-1" d="M32,16A16,16,0,1,1,16,0,16,16,0,0,1,32,16Z"/><path class="cls-2" d="M16,0A16,16,0,0,0,3.87,5.57H28.13A16,16,0,0,0,16,0Z"/><path class="cls-2" d="M28.13,26.43H3.87a16,16,0,0,0,24.26,0Z"/><path class="cls-3" d="M29.65,7.65H2.35a16,16,0,0,0,0,16.7h27.3a16,16,0,0,0,0-16.7Z"/><path class="cls-1" d="M16,16A6.16,6.16,0,1,1,9.84,9.84,6.16,6.16,0,0,1,16,16Z"/><path class="cls-3" d="M9.84,9.84l1.38,4.25H15.7l-3.62,2.63L13.47,21,9.84,18.35,6.22,21l1.39-4.26L4,14.09H8.46Z"/></g></g></svg>