<svg xmlns="http://www.w3.org/2000/svg" viewBox="0 0 32 32"><defs><style>.cls-1{fill:#f0f0f0;}.cls-2{fill:#d80027;}.cls-3{fill:#0052b4;}</style></defs><title>kr</title><g id="Layer_2" data-name="Layer 2"><g id="kr"><path class="cls-1" d="M32,16A16,16,0,1,1,16,0,16,16,0,0,1,32,16Z"/><path class="cls-2" d="M21.57,16c0,1.39-2.5,4.87-5.57,4.87S10.43,17.39,10.43,16a5.57,5.57,0,0,1,11.14,0Z"/><path class="cls-3" d="M21.57,16a5.57,5.57,0,0,1-11.14,0"/><path d="M21.9,20.92l1.48-1.48,1,1L22.89,21.9Z"/><path d="M19.44,23.38l1.48-1.48,1,1-1.47,1.47Z"/><path d="M24.85,23.87l1.48-1.48,1,1-1.47,1.47Z"/><path d="M22.39,26.33l1.48-1.48,1,1-1.47,1.47Z"/><path d="M23.38,22.39l1.47-1.47,1,1-1.48,1.48Z"/><path d="M20.92,24.85l1.47-1.47,1,1L21.9,25.84Z"/><path d="M24.85,11.08,20.92,7.15l1-1,3.94,3.94Z"/><path d="M20.92,10.1,19.44,8.62l1-1L21.9,9.11Z"/><path d="M23.38,12.56,21.9,11.08l1-1,1.47,1.47Z"/><path d="M23.87,7.15,22.39,5.67l1-1,1.47,1.47Z"/><path d="M26.33,9.61,24.85,8.13l1-1,1.47,1.47Z"/><path d="M5.67,22.39l3.94,3.94-1,1L4.69,23.38Z"/><path d="M9.61,23.38l1.47,1.47-1,1L8.62,24.36Z"/><path d="M7.15,20.92l1.47,1.47-1,1L6.16,21.9Z"/><path d="M8.62,19.44l3.94,3.94-1,1L7.64,20.43Z"/><path d="M9.61,5.67,5.67,9.61l-1-1L8.62,4.69Z"/><path d="M11.08,7.15,7.15,11.08l-1-1L10.1,6.16Z"/><path d="M12.56,8.62,8.62,12.56l-1-1,3.93-3.93Z"/></g></g></svg>