<svg xmlns="http://www.w3.org/2000/svg" xmlns:xlink="http://www.w3.org/1999/xlink" viewBox="0 0 31.9 31.9"><defs><style>.cls-1{fill:none;}.cls-2{fill:#f0f0f0;}.cls-3{fill:#d80027;}.cls-4{clip-path:url(#clip-path);}.cls-5{fill:#6da544;}</style><clipPath id="clip-path" transform="translate(0 -0.02)"><rect class="cls-1" width="31.93" height="32"/></clipPath></defs><title>kw</title><g id="Layer_2" data-name="Layer 2"><g id="kw"><path class="cls-2" d="M30.91,21.52a16,16,0,0,0,0-11.09L16,9,1,10.43A16,16,0,0,0,1,21.52l15,1.39Z" transform="translate(0 -0.02)"/><path class="cls-3" d="M16,31.93a16,16,0,0,0,15-10.41H1A16,16,0,0,0,16,31.93Z" transform="translate(0 -0.02)"/><g class="cls-4"><path class="cls-5" d="M16,0A16,16,0,0,0,1,10.43H30.91A16,16,0,0,0,16,0Z" transform="translate(0 -0.02)"/><path d="M4.67,4.7a15.94,15.94,0,0,0,0,22.55l5.73-5.73V10.43Z" transform="translate(0 -0.02)"/></g></g></g></svg>