<svg xmlns="http://www.w3.org/2000/svg" viewBox="0 0 32 32"><defs><style>.cls-1{fill:#338af3;}.cls-2{fill:#ffda44;}</style></defs><title>kz</title><g id="Layer_2" data-name="Layer 2"><g id="kz"><path class="cls-1" d="M32,16A16,16,0,1,1,16,0,16,16,0,0,1,32,16Z"/><path class="cls-2" d="M25,16.17H7a2.32,2.32,0,0,0,2.33,2.26H9.22a2.27,2.27,0,0,0,2.26,2.27A2.26,2.26,0,0,0,13.74,23h4.52a2.26,2.26,0,0,0,2.26-2.26,2.27,2.27,0,0,0,2.26-2.27h-.07A2.32,2.32,0,0,0,25,16.17Z"/><path class="cls-1" d="M22.26,13.22a6.26,6.26,0,0,1-12.52,0"/><path class="cls-2" d="M20.78,13.22l-2,.92,1,1.89-2.12-.41-.27,2.15L16,16.19l-1.48,1.58-.27-2.15L12.13,16l1-1.89-1.95-.92,1.95-.92-1-1.89,2.12.4.27-2.14L16,10.24l1.48-1.57.27,2.14,2.12-.4-1,1.89Z"/></g></g></svg>