<svg xmlns="http://www.w3.org/2000/svg" viewBox="0 0 32 32"><defs><style>.cls-1{fill:#d80027;}.cls-2{fill:#0052b4;}.cls-3{fill:#ffda44;}</style></defs><title>li</title><g id="Layer_2" data-name="Layer 2"><g id="li"><path class="cls-1" d="M32,16A16,16,0,0,1,0,16c.7,0,16-2.09,16-2.09Z"/><path class="cls-2" d="M0,16a16,16,0,0,1,32,0"/><path class="cls-3" d="M11.83,11.13A2.1,2.1,0,0,0,9.74,9a2,2,0,0,0-1.39.54V8.35H9V7H8.35v-.7H7V7h-.7V8.35H7V9.58A2,2,0,0,0,5.57,9a2.09,2.09,0,0,0-2.09,2.09,2.12,2.12,0,0,0,.69,1.56v1.22h7V12.69a2.09,2.09,0,0,0,.7-1.56Z"/></g></g></svg>