<svg xmlns="http://www.w3.org/2000/svg" viewBox="0 0 32 32"><defs><style>.cls-1{fill:#ffda44;}.cls-2{fill:#ff9811;}.cls-3{fill:#6da544;}.cls-4{fill:#a2001d;}</style></defs><title>lk</title><g id="Layer_2" data-name="Layer 2"><g id="lk"><path class="cls-1" d="M32,16A16,16,0,1,1,16,0,16,16,0,0,1,32,16Z"/><path class="cls-2" d="M12.52,2.78H7l-.72.53L4.87,16,6.26,28.69l.72.53h5.54Z"/><path class="cls-3" d="M0,16A16,16,0,0,0,6.26,28.69V3.31A16,16,0,0,0,0,16Z"/><path class="cls-1" d="M25.74,9.75v.4h0Z"/><path class="cls-4" d="M30.72,20.17h-3l-1.27,1.4v2.78H23.65V23H25V20.17H18.78v1.74H17.39V18.6A2.07,2.07,0,0,1,16.7,17V8a2.09,2.09,0,0,1,2.08-2.09V18.78h2.79l.95-.79a3.3,3.3,0,0,1-.26-1.29V14.61H20.17V10.43h4.18c0-.69,1-1.39,1-1.39s1.05.7,1.05,1.39v4.18h3.33a4.2,4.2,0,0,1-.55-2.09,4.15,4.15,0,0,1,1.37-3.09A16,16,0,0,0,25,2.78H14.61V29.22H25a16.05,16.05,0,0,0,6.26-8.45Z"/></g></g></svg>