<svg xmlns="http://www.w3.org/2000/svg" viewBox="0 0 32 32"><defs><style>.cls-1{fill:#f0f0f0;}.cls-2{fill:#d80027;}.cls-3{fill:#0052b4;}</style></defs><title>lr</title><g id="Layer_2" data-name="Layer 2"><g id="lr"><path class="cls-1" d="M32,16A16,16,0,1,1,16,0,16,16,0,0,1,32,16Z"/><path class="cls-1" d="M3.66,5.82H28.34A16.06,16.06,0,0,0,25.2,2.91H6.8A16.06,16.06,0,0,0,3.66,5.82Z"/><path class="cls-1" d="M0,16a13.81,13.81,0,0,0,.07,1.45H31.93a15.05,15.05,0,0,0,0-2.9H.07A13.81,13.81,0,0,0,0,16Z"/><path class="cls-1" d="M1.74,23.27H30.26a16,16,0,0,0,1.14-2.91H.6a16,16,0,0,0,1.14,2.91Z"/><path class="cls-1" d="M6.8,29.09H25.2a16.06,16.06,0,0,0,3.14-2.91H3.66A16.06,16.06,0,0,0,6.8,29.09Z"/><path class="cls-1" d="M.6,11.64H31.4a16,16,0,0,0-1.14-2.91H1.74A16,16,0,0,0,.6,11.64Z"/><path class="cls-2" d="M7.65,2.91H25.2A16,16,0,0,0,16,0,16.86,16.86,0,0,0,7.65,2.91Z"/><path class="cls-2" d="M15.3,8.73h15a16.28,16.28,0,0,0-1.92-2.91h-13Z"/><path class="cls-2" d="M15.3,14.55H31.93a16.25,16.25,0,0,0-.53-2.91H15.3Z"/><path class="cls-2" d="M.6,20.36H31.4a16.25,16.25,0,0,0,.53-2.91H.07A16.25,16.25,0,0,0,.6,20.36Z"/><path class="cls-2" d="M3.66,26.18H28.34a16.28,16.28,0,0,0,1.92-2.91H1.74a16.28,16.28,0,0,0,1.92,2.91Z"/><path class="cls-2" d="M16,32a16,16,0,0,0,9.2-2.91H6.8A16,16,0,0,0,16,32Z"/><path class="cls-3" d="M.6,11.64a16.25,16.25,0,0,0-.53,2.91H16V0A16,16,0,0,0,.6,11.64Z"/><path class="cls-1" d="M9.52,4.17l1,3.19h3.35l-2.71,2,1,3.19-2.72-2-2.71,2,1-3.19-2.71-2H8.49Z"/></g></g></svg>