<svg xmlns="http://www.w3.org/2000/svg" viewBox="0 0 32 32"><defs><style>.cls-1{fill:#f0f0f0;}.cls-2{fill:#6da544;}.cls-3{fill:#0052b4;}</style></defs><title>ls</title><g id="Layer_2" data-name="Layer 2"><g id="ls"><path class="cls-1" d="M0,16a15.94,15.94,0,0,0,1.59,7L16,23.65,30.41,23A16,16,0,0,0,30.41,9L16,8.35,1.59,9A15.94,15.94,0,0,0,0,16Z"/><path class="cls-2" d="M16,32a16,16,0,0,0,14.41-9H1.59A16,16,0,0,0,16,32Z"/><path class="cls-3" d="M16,0A16,16,0,0,0,1.59,9H30.41A16,16,0,0,0,16,0Z"/><path d="M17,15.65V11.83H15v3.82l-2.52,2.52a4.17,4.17,0,0,0,7.12,0Z"/></g></g></svg>