<svg xmlns="http://www.w3.org/2000/svg" viewBox="0 0 32 32"><defs><style>.cls-1{fill:#496e2d;}.cls-2{fill:#d80027;}.cls-3{fill:#f0f0f0;}</style></defs><title>ly</title><g id="Layer_2" data-name="Layer 2"><g id="ly"><path d="M1.59,9A16,16,0,0,0,1.59,23L16,24.35,30.41,23A16,16,0,0,0,30.41,9L16,7.65Z"/><path class="cls-1" d="M1.59,23a16,16,0,0,0,28.82,0Z"/><path class="cls-2" d="M1.59,9H30.41A16,16,0,0,0,1.59,9Z"/><path class="cls-3" d="M19.72,13.07,21,14.88l2.12-.69L21.85,16l1.31,1.81L21,17.12l-1.32,1.81V16.69L17.6,16l2.12-.69Z"/><path class="cls-3" d="M16.14,20.52a4.52,4.52,0,1,1,0-9,4.57,4.57,0,0,1,2.15.54,5.57,5.57,0,1,0,0,8,4.57,4.57,0,0,1-2.15.54Z"/></g></g></svg>