<svg xmlns="http://www.w3.org/2000/svg" viewBox="0 0 32 32"><defs><style>.cls-1{fill:#d80027;}.cls-2{fill:#ffda44;}</style></defs><title>ma</title><g id="Layer_2" data-name="Layer 2"><g id="ma"><path class="cls-1" d="M32,16A16,16,0,1,1,16,0,16,16,0,0,1,32,16Z"/><path class="cls-2" d="M25.46,13.13H18.23L16,6.26l-2.23,6.87H6.54l5.85,4.25-2.23,6.87L16,20l5.84,4.25-2.23-6.87ZM14,16.84l.76-2.32h2.44L18,16.84h0l-2,1.44-2-1.44Zm2.75-3.71H15.23L16,10.76ZM19.16,16l-.48-1.47h2.49Zm-5.84-1.47L12.84,16l-2-1.47ZM12.8,20.6l.77-2.36,1.25.9Zm4.38-1.46,1.25-.9.77,2.36Z"/></g></g></svg>