<svg xmlns="http://www.w3.org/2000/svg" viewBox="0 0 32 32"><defs><style>.cls-1{fill:#ffda44;}.cls-2{fill:#0052b4;}.cls-3{fill:#d80027;}.cls-4{fill:#ff9811;}</style></defs><title>md</title><g id="Layer_2" data-name="Layer 2"><g id="md"><path class="cls-1" d="M23,1.59A16,16,0,0,0,9,1.59L7.65,16,9,30.41a16,16,0,0,0,13.92,0L24.35,16Z"/><path class="cls-2" d="M9,1.59A16,16,0,0,0,9,30.41Z"/><path class="cls-3" d="M23,1.59V30.41A16,16,0,0,0,23,1.59Z"/><path class="cls-4" d="M21.57,12.59H17.74a1.74,1.74,0,1,0-3.48,0H10.43A1.77,1.77,0,0,0,12.2,14.3h0A1.7,1.7,0,0,0,13.86,16a1.72,1.72,0,0,0,1.4,1.69l-1.35,3a5.53,5.53,0,0,0,4.18,0l-1.35-3A1.72,1.72,0,0,0,18.14,16a1.7,1.7,0,0,0,1.71-1.71H19.8a1.77,1.77,0,0,0,1.77-1.71Z"/><path class="cls-2" d="M16,15l-2.26,1v2.09L16,19.48l2.26-1.39V16Z"/><rect class="cls-3" x="13.74" y="13.91" width="4.52" height="2.09"/></g></g></svg>