<svg xmlns="http://www.w3.org/2000/svg" viewBox="0 0 32 32"><defs><style>.cls-1{fill:#ffda44;}.cls-2{fill:#a2001d;}.cls-3{fill:#6da544;}.cls-4{fill:#0052b4;}</style></defs><title>me</title><g id="Layer_2" data-name="Layer 2"><g id="me"><path class="cls-1" d="M32,16A16,16,0,1,1,16,0,16,16,0,0,1,32,16Z"/><path class="cls-2" d="M32,16A16,16,0,0,0,25,2.78H7A16,16,0,0,0,7,29.22H25A16,16,0,0,0,32,16Z"/><path class="cls-1" d="M12.52,11.83h7V9l-1.39.7L16,7.65,13.91,9.74,12.52,9Z"/><path class="cls-1" d="M22.26,16H18.78a1.58,1.58,0,0,0,.22-.8,1.6,1.6,0,0,0-3-.76,1.6,1.6,0,0,0-3,.76,1.67,1.67,0,0,0,.21.8H9.74a2,2,0,0,0,2,1.93h-.06A1.92,1.92,0,0,0,13,19.77l-1.56,1.57L13,22.81l2.1-2.09.25.07L14,23.65a5.24,5.24,0,0,0,3.92,0L16.7,20.79l.25-.07,2.1,2.09,1.47-1.47L19,19.77a1.92,1.92,0,0,0,1.37-1.84h-.06a2,2,0,0,0,2-1.93Z"/><path class="cls-3" d="M16,17l-2.26,1.05v2.08L16,21.57l2.26-1.4V18.09Z"/><rect class="cls-4" x="13.74" y="16" width="4.52" height="2.78"/></g></g></svg>