<svg xmlns="http://www.w3.org/2000/svg" viewBox="0 0 32 32"><defs><style>.cls-1{fill:#0052b4;}.cls-2{fill:#f0f0f0;}.cls-3{fill:#ff9811;}</style></defs><title>mh</title><g id="Layer_2" data-name="Layer 2"><g id="mh"><path class="cls-1" d="M16,32A16,16,0,0,0,30.17,8.56L16,16,23.44,1.83A16,16,0,0,0,4.69,27.31,15.91,15.91,0,0,0,16,32Z"/><path class="cls-2" d="M30.15,8.58a16.06,16.06,0,0,0-6.73-6.73L4.67,27.33Z"/><path class="cls-3" d="M4.67,27.33,30.15,8.58A16,16,0,0,0,27.29,4.7Z"/><path class="cls-2" d="M13.89,9.38l-2,.92,1,1.89-2.12-.4-.27,2.14L9.11,12.36,7.63,13.93l-.26-2.14-2.13.4,1-1.89L4.33,9.38l2-.92-1-1.89L7.37,7l.26-2.15L9.11,6.41l1.48-1.58L10.86,7,13,6.57l-1,1.89Z"/></g></g></svg>