<svg xmlns="http://www.w3.org/2000/svg" viewBox="0 0 32 32"><defs><style>.cls-1{fill:#ffda44;}.cls-2{fill:#d80027;}</style></defs><title>mk</title><g id="Layer_2" data-name="Layer 2"><g id="mk"><path class="cls-1" d="M32,16A16,16,0,1,1,16,0,16,16,0,0,1,32,16Z"/><path class="cls-2" d="M18.43,31.82a15.94,15.94,0,0,0,7-2.92L16,16Z"/><path class="cls-2" d="M13.57.18a15.94,15.94,0,0,0-7,2.92L16,16Z"/><path class="cls-2" d="M6.54,28.9a15.94,15.94,0,0,0,7,2.92L16,16Z"/><path class="cls-2" d="M3.1,6.54a15.94,15.94,0,0,0-2.92,7L16,16Z"/><path class="cls-2" d="M.18,18.43a15.94,15.94,0,0,0,2.92,7L16,16Z"/><path class="cls-2" d="M31.82,13.57a15.94,15.94,0,0,0-2.92-7L16,16Z"/><path class="cls-2" d="M25.46,3.1a15.94,15.94,0,0,0-7-2.92L16,16Z"/><path class="cls-2" d="M28.9,25.46a15.94,15.94,0,0,0,2.92-7L16,16Z"/><path class="cls-2" d="M21.57,16A5.57,5.57,0,1,1,16,10.43,5.58,5.58,0,0,1,21.57,16Z"/><path class="cls-1" d="M20.17,16A4.17,4.17,0,1,1,16,11.83,4.17,4.17,0,0,1,20.17,16Z"/></g></g></svg>