<svg xmlns="http://www.w3.org/2000/svg" viewBox="0 0 32 32"><defs><style>.cls-1{fill:#6da544;}.cls-2{fill:#ffda44;}.cls-3{fill:#d80027;}.cls-4{fill:#f0f0f0;}</style></defs><title>mm</title><g id="Layer_2" data-name="Layer 2"><g id="mm"><path class="cls-1" d="M31,21.57a16,16,0,0,0,0-11.14L16,9,1,10.43A16,16,0,0,0,1,21.57L16,23Z"/><path class="cls-2" d="M31,10.43a16,16,0,0,0-30,0Z"/><path class="cls-3" d="M16,32A16,16,0,0,0,31,21.57H1A16,16,0,0,0,16,32Z"/><path class="cls-4" d="M27,13.54H18.59L16,5.57l-2.59,8H5l6.78,4.92-2.59,8L16,21.57l6.78,4.86-2.59-8Z"/></g></g></svg>