<svg xmlns="http://www.w3.org/2000/svg" viewBox="0 0 32 32"><defs><style>.cls-1{fill:#0052b4;}.cls-2{fill:#a2001d;}.cls-3{fill:#ffda44;}</style></defs><title>mn</title><g id="Layer_2" data-name="Layer 2"><g id="mn"><path class="cls-1" d="M16,32a15.85,15.85,0,0,0,5.57-1l.69-15L21.57,1A16,16,0,0,0,10.43,1L9.74,16l.69,15A15.85,15.85,0,0,0,16,32Z"/><path class="cls-2" d="M0,16A16,16,0,0,0,10.43,31V1A16,16,0,0,0,0,16Z"/><path class="cls-2" d="M21.57,1V31a16,16,0,0,0,0-30Z"/><rect class="cls-3" x="7.65" y="16" width="1.39" height="5.57"/><rect class="cls-3" x="2.09" y="16" width="1.39" height="5.57"/><path class="cls-3" d="M7,18.09A1.4,1.4,0,1,1,5.57,16.7,1.39,1.39,0,0,1,7,18.09Z"/><path class="cls-3" d="M6.26,13.22a.7.7,0,1,1-.69-.7.69.69,0,0,1,.69.7Z"/><rect class="cls-3" x="4.17" y="20.17" width="2.78" height="1.39"/><rect class="cls-3" x="4.17" y="14.61" width="2.78" height="1.39"/><path class="cls-3" d="M5.57,8.35l.49,1.51H7.65l-1.29.94.49,1.52-1.28-.94-1.29.94.49-1.52L3.48,9.86H5.07Z"/></g></g></svg>