<svg xmlns="http://www.w3.org/2000/svg" viewBox="0 0 32 32"><defs><style>.cls-1{fill:#496e2d;}.cls-2{fill:#f0f0f0;}.cls-3{fill:#ffda44;}</style></defs><title>mo</title><g id="Layer_2" data-name="Layer 2"><g id="mo"><path class="cls-1" d="M32,16A16,16,0,1,1,16,0,16,16,0,0,1,32,16Z"/><path class="cls-2" d="M18.78,15.33a3.17,3.17,0,0,0-1.11.21,3.46,3.46,0,0,0,.32-1.4c0-2-2-3.48-2-3.48s-2,1.49-2,3.48a3.46,3.46,0,0,0,.32,1.4,3.17,3.17,0,0,0-1.11-.21c-2,0-3.48,2-3.48,2s1.49,2,3.48,2A4.35,4.35,0,0,0,16,18.06a4.35,4.35,0,0,0,2.78,1.25c2,0,3.48-2,3.48-2s-1.49-2-3.48-2Z"/><path class="cls-3" d="M16,6.26l.41,1.26h1.33l-1.08.79.41,1.26L16,8.79l-1.07.78.41-1.26-1.08-.79h1.33Z"/><path class="cls-3" d="M11,8.47l.79.71.92-.53-.43,1,.79.71L12,10.22l-.43,1-.22-1L10.25,10l.92-.53Z"/><path class="cls-3" d="M7.25,12.17l1,.22.53-.92.11,1.06,1,.22-1,.43.11,1.06-.71-.79-1,.43L8,13Z"/><path class="cls-3" d="M21.05,8.47l-.79.71-.92-.53.43,1-.79.71L20,10.22l.43,1,.22-1L21.75,10l-.92-.53Z"/><path class="cls-3" d="M24.75,12.17l-1,.22-.53-.92-.11,1.06-1,.22,1,.43-.11,1.06.71-.79,1,.43L24,13Z"/><path class="cls-2" d="M16,24.87a6.9,6.9,0,0,0,4.2-1.41H11.8A6.9,6.9,0,0,0,16,24.87Z"/><path class="cls-2" d="M9.62,20.7a6.87,6.87,0,0,0,.83,1.41h11.1a6.87,6.87,0,0,0,.83-1.41Z"/></g></g></svg>