<svg xmlns="http://www.w3.org/2000/svg" viewBox="0 0 32 32"><defs><style>.cls-1{fill:#f0f0f0;}.cls-2{fill:#0052b4;}</style></defs><title>mq</title><g id="Layer_2" data-name="Layer 2"><g id="mq"><path class="cls-1" d="M32,16A16,16,0,1,1,16,0,16,16,0,0,1,32,16Z"/><path class="cls-2" d="M31.86,13.91A16,16,0,0,0,18.09.14V13.91Z"/><path class="cls-2" d="M13.91.14A16,16,0,0,0,.14,13.91H13.91Z"/><path class="cls-2" d="M.14,18.09A16,16,0,0,0,13.91,31.86V18.09Z"/><path class="cls-2" d="M18.09,31.86A16,16,0,0,0,31.86,18.09H18.09Z"/><path class="cls-1" d="M21.46,10.15a.38.38,0,0,1,.39-.38h.82a2.37,2.37,0,0,0,0-4.74h-.78a1.66,1.66,0,0,0-1-.31,1.31,1.31,0,0,0-1.43,1.14A1.31,1.31,0,0,0,20.89,7h1.78a.39.39,0,1,1,0,.77h-.82a2.37,2.37,0,0,0,0,4.74H25v-2H21.85a.39.39,0,0,1-.39-.39Z"/><path class="cls-1" d="M8.94,10.15a.38.38,0,0,1,.39-.38h.82a2.37,2.37,0,0,0,0-4.74H9.37a1.66,1.66,0,0,0-1-.31A1.31,1.31,0,0,0,7,5.86,1.31,1.31,0,0,0,8.37,7h1.78a.39.39,0,1,1,0,.77H9.33a2.37,2.37,0,0,0,0,4.74h3.19v-2H9.33a.39.39,0,0,1-.39-.39Z"/><path class="cls-1" d="M21.46,24.91a.38.38,0,0,1,.39-.38h.82a2.37,2.37,0,0,0,0-4.74h-.78a1.66,1.66,0,0,0-1-.31,1.31,1.31,0,0,0-1.43,1.14,1.31,1.31,0,0,0,1.41,1.15h1.78a.39.39,0,0,1,.39.39.38.38,0,0,1-.39.38h-.82a2.37,2.37,0,1,0,0,4.74H25v-2H21.85a.38.38,0,0,1-.39-.39Z"/><path class="cls-1" d="M8.94,24.91a.38.38,0,0,1,.39-.38h.82a2.37,2.37,0,0,0,0-4.74H9.37a1.66,1.66,0,0,0-1-.31A1.31,1.31,0,0,0,7,20.62a1.31,1.31,0,0,0,1.41,1.15h1.78a.39.39,0,0,1,.39.39.38.38,0,0,1-.39.38H9.33a2.37,2.37,0,1,0,0,4.74h3.19v-2H9.33a.38.38,0,0,1-.39-.39Z"/></g></g></svg>