<svg xmlns="http://www.w3.org/2000/svg" viewBox="0 0 32 32"><defs><style>.cls-1{fill:#496e2d;}.cls-2{fill:#ffda44;}</style></defs><title>mr</title><g id="Layer_2" data-name="Layer 2"><g id="mr"><path class="cls-1" d="M32,16A16,16,0,1,1,16,0,16,16,0,0,1,32,16Z"/><path class="cls-2" d="M16,18.48a5.58,5.58,0,0,1-5.44-4.37,5.86,5.86,0,0,0-.13,1.19,5.57,5.57,0,0,0,11.14,0,5.86,5.86,0,0,0-.13-1.19A5.58,5.58,0,0,1,16,18.48Z"/><path class="cls-2" d="M16,11.13l.52,1.59h1.67l-1.35,1,.52,1.59-1.36-1-1.36,1,.52-1.59-1.35-1h1.67Z"/></g></g></svg>