<svg xmlns="http://www.w3.org/2000/svg" viewBox="0 0 32 32"><defs><style>.cls-1{fill:#0052b4;}.cls-2{fill:#f0f0f0;}.cls-3{fill:#d80027;}.cls-4{fill:#338af3;}.cls-5{fill:#a2001d;}</style></defs><title>ms</title><g id="Layer_2" data-name="Layer 2"><g id="ms"><path class="cls-1" d="M32,16A16,16,0,0,1,0,16L16,0A16,16,0,0,1,32,16Z"/><path class="cls-2" d="M16,16h0v0l0,0Z"/><path class="cls-2" d="M16,8.35V0h0A16,16,0,0,0,0,16H8.35V11.3l4.7,4.7H16l0,0V13.05l-4.7-4.7Z"/><path class="cls-3" d="M8.09,2.09a16,16,0,0,0-6,6V16H6.26V6.26H16V2.09Z"/><path class="cls-3" d="M16,14,10.32,8.35h-2L16,16h0Z"/><path class="cls-4" d="M18.09,8.35V16c0,3.73,4.87,4.87,4.87,4.87s4.87-1.14,4.87-4.87V8.35Z"/><path class="cls-5" d="M18.09,16c0,3.73,4.87,4.87,4.87,4.87s4.87-1.14,4.87-4.87Z"/><path d="M25,11.83H23.65v-1.4H22.26v1.4H20.87v1.39h1.39v4.17h1.39V13.22H25Z"/></g></g></svg>