<svg xmlns="http://www.w3.org/2000/svg" viewBox="0 0 32 32"><defs><style>.cls-1{fill:#d80027;}.cls-2{fill:#ffda44;}.cls-3{fill:#0052b4;}.cls-4{fill:#6da544;}</style></defs><title>mu</title><g id="Layer_2" data-name="Layer 2"><g id="mu"><path class="cls-1" d="M2,8.35,16,9.74,30.05,8.35A16,16,0,0,0,2,8.35Z"/><path class="cls-2" d="M2,23.65,16,25l14.05-1.39A15.92,15.92,0,0,0,32,16L16,14.61,0,16a15.92,15.92,0,0,0,2,7.65Z"/><path class="cls-3" d="M2,8.35A15.92,15.92,0,0,0,0,16H32a15.92,15.92,0,0,0-1.95-7.65Z"/><path class="cls-4" d="M16,32a16,16,0,0,0,14.05-8.35H2A16,16,0,0,0,16,32Z"/></g></g></svg>