<svg xmlns="http://www.w3.org/2000/svg" viewBox="0 0 32 32"><defs><style>.cls-1{fill:#d80027;}.cls-2{fill:#496e2d;}</style></defs><title>mw</title><g id="Layer_2" data-name="Layer 2"><g id="mw"><path class="cls-1" d="M0,16a15.85,15.85,0,0,0,1,5.57l15,.69,15-.69a16,16,0,0,0,0-11.14L16,9.74,1,10.43A15.85,15.85,0,0,0,0,16Z"/><path d="M16,0A16,16,0,0,0,1,10.43H31A16,16,0,0,0,16,0Z"/><path class="cls-2" d="M31,21.57H1a16,16,0,0,0,30,0Z"/><path class="cls-1" d="M20.78,7.65l-2-.92,1-1.89-2.12.41L17.48,3.1,16,4.68,14.52,3.1l-.27,2.15-2.12-.41,1,1.89-1.95.92Z"/></g></g></svg>