<svg xmlns="http://www.w3.org/2000/svg" viewBox="0 0 32 32"><defs><style>.cls-1{fill:#f0f0f0;}.cls-2{fill:#d80027;}.cls-3{fill:#6da544;}.cls-4{fill:#ff9811;}</style></defs><title>mx</title><g id="Layer_2" data-name="Layer 2"><g id="mx"><path class="cls-1" d="M32,16A16,16,0,1,1,16,0,16,16,0,0,1,32,16Z"/><path class="cls-2" d="M32,16A16,16,0,0,0,23,1.59V30.41A16,16,0,0,0,32,16Z"/><path class="cls-3" d="M0,16A16,16,0,0,0,9,30.41V1.59A16,16,0,0,0,0,16Z"/><path class="cls-3" d="M11.83,16a4.17,4.17,0,0,0,8.34,0V14.61H11.83Z"/><path class="cls-4" d="M21.57,13.22H17.39a1.39,1.39,0,1,0-2.78,0H10.43a1.43,1.43,0,0,0,1.44,1.39h0A1.39,1.39,0,0,0,13.22,16a1.39,1.39,0,0,0,1.39,1.39h2.78A1.39,1.39,0,0,0,18.78,16a1.39,1.39,0,0,0,1.39-1.39h0a1.43,1.43,0,0,0,1.44-1.39Z"/></g></g></svg>