<svg xmlns="http://www.w3.org/2000/svg" xmlns:xlink="http://www.w3.org/1999/xlink" viewBox="0 0 31.9 31.9"><defs><style>.cls-1{fill:none;}.cls-2{fill:#f0f0f0;}.cls-3{fill:#ffda44;}.cls-4{fill:#496e2d;}.cls-5{clip-path:url(#clip-path);}.cls-6{fill:#a2001d;}</style><clipPath id="clip-path" transform="translate(0 -0.02)"><rect class="cls-1" width="31.93" height="32"/></clipPath></defs><title>mz</title><g id="Layer_2" data-name="Layer 2"><g id="mz"><path class="cls-2" d="M31.9,16A16,16,0,1,1,16,0a16,16,0,0,1,16,16Z" transform="translate(0 -0.02)"/><path class="cls-3" d="M8.62,22.22l-3.95,5a15.94,15.94,0,0,0,26-5Z" transform="translate(0 -0.02)"/><path class="cls-4" d="M30.66,9.79a15.95,15.95,0,0,0-26-5.09l4,5.09Z" transform="translate(0 -0.02)"/><g class="cls-5"><path d="M3.47,11.76v8.38H31.35A15.93,15.93,0,0,0,31.9,16a16.22,16.22,0,0,0-.56-4.22Z" transform="translate(0 -0.02)"/><path class="cls-6" d="M4.67,4.7a15.94,15.94,0,0,0,0,22.55L16,16Z" transform="translate(0 -0.02)"/></g><path class="cls-3" d="M6.46,11.81l1,3.18h3.34l-2.7,2,1,3.18-2.7-2-2.71,2,1-3.18-2.7-2H5.42Z" transform="translate(0 -0.02)"/><rect class="cls-2" x="3.43" y="15.95" width="6.05" height="2.77"/><path d="M10.62,12.8l-1-1L6.46,15,3.27,11.81l-1,1L5.48,16,2.29,19.17l1,1L6.46,17l3.18,3.18,1-1L7.43,16Z" transform="translate(0 -0.02)"/></g></g></svg>