<svg xmlns="http://www.w3.org/2000/svg" viewBox="0 0 32 32"><defs><style>.cls-1{fill:#ffda44;}.cls-2{fill:#0052b4;}.cls-3{fill:#f0f0f0;}.cls-4{fill:#d80027;}</style></defs><title>nu</title><g id="Layer_2" data-name="Layer 2"><g id="nu"><path class="cls-1" d="M32,16A16,16,0,0,1,0,16L16,0A16,16,0,0,1,32,16Z"/><path class="cls-2" d="M16,7.65v5.4l-5.57-5.4Z"/><path class="cls-2" d="M8.35,16h4.7L8.35,9.74l-.7,4.87Z"/><path class="cls-3" d="M16,16h0v0l0,0Z"/><path class="cls-3" d="M16,8.35V0h0A16,16,0,0,0,0,16H8.35V11.3l4.7,4.7H16l0,0V13.05l-4.7-4.7Z"/><path class="cls-4" d="M16,14,10.32,8.35h-2L16,16h0Z"/><path class="cls-4" d="M8.09,2.09A15.81,15.81,0,0,0,6.33,3.26H7L5.25,4.52l.66,2L4.17,5.3,4,5.43a16.08,16.08,0,0,0-1.9,2.66V16H6.26V6.26H16V2.09Z"/><path class="cls-2" d="M6.83,2.88l-.51.38L5.25,4.52,4.17,5.3,4,5.43c-.4.45-.76.92-1.11,1.4a3,3,0,0,0,4-3.95Z"/><path class="cls-1" d="M4,5.43l.18-.13L5.91,6.56l-.66-2L7,3.26H6.32A15.94,15.94,0,0,0,4,5.43Z"/><path class="cls-1" d="M11.06,2.78l.34,1.07h1.12l-.9.65L12,5.57l-.9-.66-.91.66L10.5,4.5l-.9-.65h1.11Z"/><path class="cls-1" d="M4.17,9.74l.35,1.06H5.64l-.91.66.35,1.06-.91-.66-.9.66.35-1.06-.91-.66H3.83Z"/></g></g></svg>