<svg xmlns="http://www.w3.org/2000/svg" viewBox="0 0 32 32"><defs><style>.cls-1{fill:#0052b4;}.cls-2{fill:#f0f0f0;}.cls-3{fill:#d80027;}</style></defs><title>nz</title><g id="Layer_2" data-name="Layer 2"><g id="nz"><path class="cls-1" d="M32,16A16,16,0,0,1,0,16L16,0A16,16,0,0,1,32,16Z"/><path class="cls-2" d="M16,16h0v0l0,0Z"/><path class="cls-2" d="M16,8.35V0h0A16,16,0,0,0,0,16H8.35V11.3l4.7,4.7H16l0,0V13.05l-4.7-4.7Z"/><path class="cls-3" d="M8.09,2.09a16,16,0,0,0-6,6V16H6.26V6.26H16V2.09Z"/><path class="cls-3" d="M16,14,10.32,8.35h-2L16,16Z"/><path class="cls-3" d="M27.71,11.87l.34,1.07h1.12l-.9.65.34,1.07-.9-.66-.91.66.35-1.07-.9-.65h1.11Z"/><path class="cls-3" d="M23.71,19.52l.52,1.6h1.68l-1.36,1,.52,1.6-1.36-1-1.35,1,.51-1.6-1.35-1H23.2Z"/><path class="cls-3" d="M23.86,7l.44,1.33h1.39l-1.13.82L25,10.48l-1.13-.82-1.13.82.44-1.33L22,8.33h1.39Z"/><path class="cls-3" d="M20,11.83l.52,1.59h1.67l-1.35,1L21.38,16,20,15l-1.36,1,.52-1.59-1.35-1H19.5Z"/></g></g></svg>