<svg xmlns="http://www.w3.org/2000/svg" viewBox="0 0 32 32"><defs><style>.cls-1{fill:#f0f0f0;}.cls-2{fill:#d80027;}.cls-3{fill:#6da544;}</style></defs><title>om</title><g id="Layer_2" data-name="Layer 2"><g id="om"><path class="cls-1" d="M32,16A16,16,0,1,1,16,0,16,16,0,0,1,32,16Z"/><path class="cls-2" d="M0,16A16,16,0,0,0,8.35,30.05V2A16,16,0,0,0,0,16Z"/><path class="cls-2" d="M31,21.57a16,16,0,0,0,0-11.14H1A16,16,0,0,0,1,21.57L16,23Z"/><path class="cls-3" d="M16,32A16,16,0,0,0,31,21.57H1A16,16,0,0,0,16,32Z"/><path class="cls-2" d="M0,16A16,16,0,0,0,11.83,31.45V.55A16,16,0,0,0,0,16Z"/><path class="cls-1" d="M9.79,7,8.31,5.57l-1,1-1-1L4.87,7l1,1-1,1,1.48,1.47,1-1,1,1L9.79,9l-1-1Z"/></g></g></svg>