<svg xmlns="http://www.w3.org/2000/svg" viewBox="0 0 32 32"><defs><style>.cls-1{fill:#f0f0f0;}.cls-2{fill:#0052b4;}.cls-3{fill:#d80027;}</style></defs><title>pa</title><g id="Layer_2" data-name="Layer 2"><g id="pa"><path class="cls-1" d="M32,16A16,16,0,1,1,16,0,16,16,0,0,1,32,16Z"/><path class="cls-2" d="M0,16A16,16,0,0,0,16,32V16Z"/><path class="cls-3" d="M16,0A16,16,0,0,1,32,16H16Z"/><path class="cls-2" d="M9.52,5.57l1,3.18h3.35l-2.71,2,1,3.19-2.72-2-2.71,2,1-3.19-2.71-2H8.49Z"/><path class="cls-3" d="M22.48,18.09l1,3.19h3.35l-2.71,2,1,3.18-2.71-2-2.72,2,1-3.18-2.71-2h3.35Z"/></g></g></svg>