<svg xmlns="http://www.w3.org/2000/svg" viewBox="0 0 32 32"><defs><style>.cls-1{fill:#f0f0f0;}.cls-2{fill:#d80027;}.cls-3{fill:#ffda44;}.cls-4{fill:#0052b4;}</style></defs><title>pf</title><g id="Layer_2" data-name="Layer 2"><g id="pf"><path class="cls-1" d="M32,16A16,16,0,1,1,16,0,16,16,0,0,1,32,16Z"/><path class="cls-2" d="M2,8.35h28.1A16,16,0,0,0,2,8.35Z"/><path class="cls-2" d="M16,32a16,16,0,0,0,14.05-8.35H2A16,16,0,0,0,16,32Z"/><path class="cls-3" d="M21.57,16c0,3.07-2.5,4.87-5.57,4.87s-5.57-1.8-5.57-4.87a5.57,5.57,0,0,1,11.14,0Z"/><path class="cls-4" d="M21.57,16a5.57,5.57,0,0,1-11.14,0"/><rect class="cls-2" x="12.52" y="14.61" width="1.39" height="2.78"/><rect class="cls-2" x="18.09" y="14.61" width="1.39" height="2.78"/><rect class="cls-2" x="15.3" y="12.52" width="1.39" height="4.87"/></g></g></svg>