<svg xmlns="http://www.w3.org/2000/svg" xmlns:xlink="http://www.w3.org/1999/xlink" viewBox="0 0 31.9 31.9"><defs><style>.cls-1{fill:none;}.cls-2{clip-path:url(#clip-path);}.cls-3{fill:#a2001d;}.cls-4{fill:#f0f0f0;}.cls-5{fill:#ffda44;}</style><clipPath id="clip-path" transform="translate(0 -0.03)"><rect class="cls-1" width="31.93" height="32"/></clipPath></defs><title>pg</title><g id="Layer_2" data-name="Layer 2"><g id="pg"><g class="cls-2"><path d="M27.23,27.25A15.95,15.95,0,0,1,4.67,4.7C10.9-1.53,20-.55,26.25,5.68s7.21,15.34,1,21.57Z" transform="translate(0 -0.03)"/><path class="cls-3" d="M4.67,4.7A15.95,15.95,0,0,1,27.23,27.25" transform="translate(0 -0.03)"/></g><path class="cls-4" d="M12.19,21.52l.26.8h.83l-.67.49.26.79-.68-.49-.68.49.26-.79-.67-.49h.83Z" transform="translate(0 -0.03)"/><path class="cls-4" d="M10.06,13.89l.43,1.33h1.39L10.75,16l.43,1.32-1.12-.82-1.13.82L9.36,16l-1.13-.82h1.4Z" transform="translate(0 -0.03)"/><path class="cls-4" d="M10.06,23.6l.43,1.33h1.39l-1.13.82.43,1.32-1.12-.82-1.13.82.43-1.32-1.13-.82h1.4Z" transform="translate(0 -0.03)"/><path class="cls-4" d="M14.13,17.36l.43,1.33H16l-1.13.82.43,1.32L14.13,20,13,20.83l.43-1.32-1.13-.82h1.4Z" transform="translate(0 -0.03)"/><path class="cls-4" d="M6,17.36l.43,1.33h1.4l-1.13.82.43,1.32L6,20l-1.12.82.43-1.32-1.13-.82H5.55Z" transform="translate(0 -0.03)"/><path class="cls-5" d="M26.7,11.84a4.08,4.08,0,0,0-2.63-1.21l3-2.32A5.58,5.58,0,0,0,22.72,6.7a4.15,4.15,0,0,0-1.07-1.82L20.47,7.23a1.52,1.52,0,0,0-.29-.39,1.73,1.73,0,1,0-2.45,2.45,1.85,1.85,0,0,0,.39.3l-2.35,1.17a4.09,4.09,0,0,0,1.82,1.07,5.54,5.54,0,0,0,1.61,4.33l2.6-3.35a1.06,1.06,0,0,1,.73-.3,1,1,0,0,1,1,1,1.07,1.07,0,0,1-.3.74l1,1a2.43,2.43,0,0,0,.23-3.17,2.78,2.78,0,0,1,1.24,4.64l1,1a4.15,4.15,0,0,0,0-5.88Z" transform="translate(0 -0.03)"/></g></g></svg>