<svg xmlns="http://www.w3.org/2000/svg" viewBox="0 0 32 32"><defs><style>.cls-1{fill:#f0f0f0;}.cls-2{fill:#d80027;}.cls-3{fill:#0052b4;}.cls-4{fill:#ffda44;}</style></defs><title>ph</title><g id="Layer_2" data-name="Layer 2"><g id="ph"><path class="cls-1" d="M32,16A16,16,0,1,1,16,0,16,16,0,0,1,32,16Z"/><path class="cls-2" d="M16,0V16L4.69,27.31A16,16,0,0,0,32,16C32,7.16,16,0,16,0Z"/><path class="cls-3" d="M16,0A15.91,15.91,0,0,0,4.69,4.69L16,16H32A16,16,0,0,0,16,0Z"/><path class="cls-4" d="M11,16l-2-.92,1-1.89-2.12.4-.27-2.14L6.17,13,4.7,11.45l-.27,2.14-2.13-.4,1.05,1.89-2,.92,2,.92L2.3,18.81l2.13-.4.27,2.14L6.17,19l1.48,1.58.27-2.14,2.12.4L9,16.92Z"/><path class="cls-4" d="M4.27,6.26l.65.91L6,6.83l-.66.9L6,8.64,4.91,8.29l-.66.9V8.07L3.19,7.72l1.07-.34Z"/><path class="cls-4" d="M4.27,22.81l.65.91L6,23.38l-.66.9.65.91-1.06-.35-.66.9V24.62l-1.06-.35,1.07-.34Z"/><path class="cls-4" d="M13.54,14.54l-.65.91-1.06-.34.66.9-.65.91,1.06-.36.66.9V16.35L14.62,16l-1.07-.34Z"/></g></g></svg>