<svg xmlns="http://www.w3.org/2000/svg" viewBox="0 0 32 32"><defs><style>.cls-1{fill:#0052b4;}.cls-2{fill:#f0f0f0;}.cls-3{fill:#d80027;}.cls-4{fill:#acabb1;}.cls-5{fill:#338af3;}.cls-6{fill:#6da544;}.cls-7{fill:#ffda44;}</style></defs><title>pn</title><g id="Layer_2" data-name="Layer 2"><g id="pn"><path class="cls-1" d="M32,16A16,16,0,0,1,0,16L16,0A16,16,0,0,1,32,16Z"/><path class="cls-2" d="M16,16h0v0l0,0Z"/><path class="cls-2" d="M16,8.35V0h0A16,16,0,0,0,0,16H8.35V11.3l4.7,4.7H16l0,0V13.05l-4.7-4.7Z"/><path class="cls-3" d="M8.09,2.09a16,16,0,0,0-6,6V16H6.26V6.26H16V2.09Z"/><path class="cls-3" d="M16,14,10.32,8.35h-2L16,16h0Z"/><path class="cls-4" d="M25,9.74,23,10.43l-2.09-.69L20.17,8l.7-1.74H25L24.35,8Z"/><path class="cls-5" d="M18.09,9.74v7.65c0,3.73,4.87,4.87,4.87,4.87s4.87-1.14,4.87-4.87V9.74Z"/><path class="cls-6" d="M18.53,19.2C19.72,21.5,23,22.26,23,22.26s3.23-.76,4.43-3.06L23,11.83Z"/><path class="cls-7" d="M27.83,17.31,23,9.74l-4.87,7.57v.08a3.76,3.76,0,0,0,.44,1.81L23,12.31l4.43,6.89a3.87,3.87,0,0,0,.44-1.81Z"/></g></g></svg>