<svg xmlns="http://www.w3.org/2000/svg" viewBox="0 0 32 32"><defs><style>.cls-1{fill:#f0f0f0;}.cls-2{fill:#0052b4;}.cls-3{fill:#d80027;}.cls-4{fill:#ffda44;}</style></defs><title>rs</title><g id="Layer_2" data-name="Layer 2"><g id="rs"><path class="cls-1" d="M32,16A16,16,0,1,1,16,0,16,16,0,0,1,32,16Z"/><path class="cls-2" d="M16,0A16,16,0,0,0,1,21.57H31A16,16,0,0,0,16,0Z"/><path class="cls-3" d="M16,0A16,16,0,0,0,1,10.43H31A16,16,0,0,0,16,0Z"/><path class="cls-3" d="M4.14,9v8c0,4.54,5.93,5.93,5.93,5.93S16,21.57,16,17V9Z"/><path class="cls-4" d="M6.59,10.43h7V7.65l-1.39.7L10.07,6.26,8,8.35l-1.39-.7Z"/><path class="cls-4" d="M14.61,18.14l-4.52-4.53L5.57,18.14,7,19.61l3.05-3,3,3Z"/><path class="cls-1" d="M14.61,13.91H12.5a1.35,1.35,0,0,0,.19-.69,1.39,1.39,0,0,0-1.39-1.39,1.37,1.37,0,0,0-1.23.73,1.39,1.39,0,0,0-2.62.66,1.35,1.35,0,0,0,.19.69H5.57A1.42,1.42,0,0,0,7,15.3H7a1.4,1.4,0,0,0,1.39,1.4,1.39,1.39,0,0,0,1.13,1.36L8.39,20.54a4.52,4.52,0,0,0,1.7.33,4.59,4.59,0,0,0,1.7-.33l-1.1-2.48a1.38,1.38,0,0,0,1.14-1.36,1.4,1.4,0,0,0,1.39-1.4h-.05a1.43,1.43,0,0,0,1.44-1.39Z"/></g></g></svg>