<svg xmlns="http://www.w3.org/2000/svg" viewBox="0 0 32 32"><defs><style>.cls-1{fill:#ffda44;}.cls-2{fill:#338af3;}.cls-3{fill:#496e2d;}</style></defs><title>rw</title><g id="Layer_2" data-name="Layer 2"><g id="rw"><path class="cls-1" d="M0,16a15.92,15.92,0,0,0,2,7.65L16,25l14.05-1.39A15.92,15.92,0,0,0,32,16L16,14.61Z"/><path class="cls-2" d="M30.05,8.35A16,16,0,0,0,0,16H32a15.92,15.92,0,0,0-1.95-7.65Z"/><path class="cls-3" d="M16,32a16,16,0,0,0,14.05-8.35H2A16,16,0,0,0,16,32Z"/><path class="cls-1" d="M18.09,9.36l1.95.92-1,1.9,2.12-.41.27,2.14,1.48-1.57,1.48,1.57.27-2.14,2.12.41-1-1.9,1.95-.92L25.7,8.44l1-1.89L24.62,7l-.27-2.15L22.87,6.39,21.39,4.81,21.12,7,19,6.55l1,1.89Z"/></g></g></svg>