<svg xmlns="http://www.w3.org/2000/svg" viewBox="0 0 32 32"><defs><style>.cls-1{fill:#6da544;}.cls-2{fill:#f0f0f0;}</style></defs><title>sa</title><g id="Layer_2" data-name="Layer 2"><g id="sa"><path class="cls-1" d="M32,16A16,16,0,1,1,16,0,16,16,0,0,1,32,16Z"/><path class="cls-2" d="M9,19.13a2.1,2.1,0,0,0,2.09,2.09h6.26A1.74,1.74,0,0,0,19.13,23h2.09A1.74,1.74,0,0,0,23,21.22V19.13Z"/><path class="cls-2" d="M23.13,9v4.87a1.39,1.39,0,0,1-1.39,1.39v2.09a3.48,3.48,0,0,0,3.48-3.48V9Z"/><path class="cls-2" d="M8.17,13.91A1.39,1.39,0,0,1,6.78,15.3v2.09a3.48,3.48,0,0,0,3.48-3.48V9H8.17Z"/><rect class="cls-2" x="20" y="9.04" width="2.09" height="4.87"/><path class="cls-2" d="M16.87,11.83a.35.35,0,0,1-.7,0V9H14.09v2.79a.35.35,0,0,1-.7,0V9H11.3v2.79a2.44,2.44,0,0,0,2.44,2.43,2.37,2.37,0,0,0,1.39-.44,2.39,2.39,0,0,0,1.39.44l.31,0a1.39,1.39,0,0,1-1.35,1.06v2.09A3.48,3.48,0,0,0,19,13.91V9H16.87Z"/><rect class="cls-2" x="11.3" y="15.3" width="3.13" height="2.09"/></g></g></svg>