<svg xmlns="http://www.w3.org/2000/svg" xmlns:xlink="http://www.w3.org/1999/xlink" viewBox="0 0 31.9 31.9"><defs><style>.cls-1{fill:none;}.cls-2{clip-path:url(#clip-path);}.cls-3{fill:#496e2d;}.cls-4{fill:#0052b4;}.cls-5{fill:#ffda44;}.cls-6{fill:#f0f0f0;}</style><clipPath id="clip-path" transform="translate(0 -0.02)"><rect class="cls-1" width="31.93" height="32"/></clipPath></defs><title>sb</title><g id="Layer_2" data-name="Layer 2"><g id="sb"><g class="cls-2"><path class="cls-3" d="M27.23,27.25a15.94,15.94,0,0,0,.71-21.79L16,16,5.43,28a16,16,0,0,0,21.8-.72Z" transform="translate(0 -0.02)"/><path class="cls-4" d="M4.67,4.7A16,16,0,0,1,26.47,4L16,16,4,26.49A15.94,15.94,0,0,1,4.67,4.7Z" transform="translate(0 -0.02)"/></g><path class="cls-5" d="M26.47,4,4,26.49c.23.26.46.52.71.76s.5.49.76.72L27.94,5.46c-.23-.26-.46-.52-.71-.76s-.5-.49-.76-.72Z" transform="translate(0 -0.02)"/><path class="cls-6" d="M6.72,5.57l.34,1.06H8.18l-.9.66.34,1.06-.9-.66-.9.66.34-1.06-.9-.66H6.38Z" transform="translate(0 -0.02)"/><path class="cls-6" d="M12.41,5.57l.35,1.06h1.11l-.9.66.34,1.06-.9-.66-.9.66.34-1.06L11,6.63h1.12Z" transform="translate(0 -0.02)"/><path class="cls-6" d="M6.72,11.12l.34,1.06H8.18l-.9.65.34,1.06-.9-.65-.9.65.34-1.06-.9-.65H6.38Z" transform="translate(0 -0.02)"/><path class="cls-6" d="M12.41,11.12l.35,1.06h1.11l-.9.65.34,1.06-.9-.65-.9.65.34-1.06-.9-.65h1.12Z" transform="translate(0 -0.02)"/><path class="cls-6" d="M9.57,8.35l.34,1.06H11l-.9.65.35,1.06-.9-.65-.91.65L9,10.06l-.9-.65H9.22Z" transform="translate(0 -0.02)"/></g></g></svg>