<svg xmlns="http://www.w3.org/2000/svg" xmlns:xlink="http://www.w3.org/1999/xlink" viewBox="0 0 31.9 31.9"><defs><style>.cls-1{fill:none;}.cls-2{fill:#f0f0f0;}.cls-3{clip-path:url(#clip-path);}.cls-4{fill:#d80027;}.cls-5{fill:#496e2d;}</style><clipPath id="clip-path" transform="translate(0 -0.02)"><rect class="cls-1" width="31.93" height="32"/></clipPath></defs><title>sd</title><g id="Layer_2" data-name="Layer 2"><g id="sd"><path class="cls-2" d="M1.58,9a16,16,0,0,0,0,13.87L16,24.3l14.37-1.39A16,16,0,0,0,30.32,9L16,7.65Z" transform="translate(0 -0.02)"/><path d="M1.58,22.91a16,16,0,0,0,28.74,0Z" transform="translate(0 -0.02)"/><g class="cls-3"><path class="cls-4" d="M1.58,9H30.32A16,16,0,0,0,1.58,9Z" transform="translate(0 -0.02)"/><path class="cls-5" d="M4.67,4.7a15.94,15.94,0,0,0,0,22.55L16,16Z" transform="translate(0 -0.02)"/></g></g></g></svg>