<svg xmlns="http://www.w3.org/2000/svg" viewBox="0 0 32 32"><defs><style>.cls-1{fill:#f0f0f0;}.cls-2{fill:#d80027;}</style></defs><title>sg</title><g id="Layer_2" data-name="Layer 2"><g id="sg"><path class="cls-1" d="M32,16A16,16,0,1,1,16,0,16,16,0,0,1,32,16Z"/><path class="cls-2" d="M0,16a16,16,0,0,1,32,0"/><path class="cls-1" d="M9.74,8.35a4.88,4.88,0,0,1,3.83-4.76,5.19,5.19,0,0,0-1.05-.11,4.87,4.87,0,0,0,0,9.74,4.57,4.57,0,0,0,1.05-.12A4.86,4.86,0,0,1,9.74,8.35Z"/><path class="cls-1" d="M16,3.83l.35,1.06h1.11l-.9.66.34,1.06L16,6l-.9.66.34-1.06-.9-.66h1.11Z"/><path class="cls-1" d="M13.29,5.91,13.63,7h1.12l-.9.65.34,1.07L13.29,8l-.91.66.35-1.07L11.83,7h1.11Z"/><path class="cls-1" d="M18.71,5.91,19.06,7h1.11l-.9.65.35,1.07L18.71,8l-.9.66.34-1.07L17.25,7h1.12Z"/><path class="cls-1" d="M17.67,9,18,10.11h1.12l-.9.65.34,1.07-.9-.66-.91.66.35-1.07-.91-.65h1.12Z"/><path class="cls-1" d="M14.33,9l.35,1.07H15.8l-.91.65.35,1.07-.91-.66-.9.66.34-1.07-.9-.65H14Z"/></g></g></svg>