<svg xmlns="http://www.w3.org/2000/svg" viewBox="0 0 32 32"><defs><style>.cls-1{fill:#f0f0f0;}.cls-2{fill:#0052b4;}.cls-3{fill:#d80027;}</style></defs><title>sk</title><g id="Layer_2" data-name="Layer 2"><g id="sk"><path class="cls-1" d="M32,16A16,16,0,1,1,16,0,16,16,0,0,1,32,16Z"/><path class="cls-2" d="M16,32A16,16,0,0,0,31,10.43H1A16,16,0,0,0,16,32Z"/><path class="cls-3" d="M16,32A16,16,0,0,0,31,21.57H1A16,16,0,0,0,16,32Z"/><path class="cls-1" d="M4.14,9v8c0,4.54,5.93,5.93,5.93,5.93S16,21.57,16,17V9Z"/><path class="cls-3" d="M5.53,9v8a3.37,3.37,0,0,0,.35,1.5h8.38a3.37,3.37,0,0,0,.35-1.5V9Z"/><path class="cls-1" d="M12.85,14.61H10.76V13.22h1.4V11.83h-1.4v-1.4H9.37v1.4H8v1.39H9.37v1.39H7.29V16H9.37v1.39h1.39V16h2.09Z"/><path class="cls-2" d="M7.78,20.48a9.92,9.92,0,0,0,2.29,1,9.92,9.92,0,0,0,2.29-1,5,5,0,0,0,1.9-1.95,2.46,2.46,0,0,0-1.41-.44,2.51,2.51,0,0,0-.55.06,2.44,2.44,0,0,0-4.46,0,2.51,2.51,0,0,0-.55-.06,2.43,2.43,0,0,0-1.41.44,5,5,0,0,0,1.9,1.95Z"/></g></g></svg>