<svg xmlns="http://www.w3.org/2000/svg" viewBox="0 0 32 32"><defs><style>.cls-1{fill:#338af3;}.cls-2{fill:#f0f0f0;}.cls-3{fill:#6da544;}.cls-4{fill:#ffda44;}</style></defs><title>sm</title><g id="Layer_2" data-name="Layer 2"><g id="sm"><path class="cls-1" d="M32,16A16,16,0,0,1,0,16c.7,0,16-2.09,16-2.09Z"/><path class="cls-2" d="M0,16a16,16,0,0,1,32,0"/><path class="cls-3" d="M22.35,11,16,17.39,9.65,11a7.62,7.62,0,0,0-1.3,4.26v2.09a7.66,7.66,0,0,0,5.17,7.24,2.31,2.31,0,0,0,.25,2.5l2.28-1.82,2.27,1.82a2.32,2.32,0,0,0,.24-2.53,7.66,7.66,0,0,0,5.09-7.21V15.3A7.62,7.62,0,0,0,22.35,11Z"/><path class="cls-4" d="M16,23a5.58,5.58,0,0,1-5.57-5.57V15.3a5.57,5.57,0,0,1,11.14,0v2.09A5.58,5.58,0,0,1,16,23Z"/><path class="cls-1" d="M19.48,17.39V15.3a3.48,3.48,0,0,0-7,0v2.09l3.48.7Z"/><path class="cls-3" d="M12.52,17.39a3.48,3.48,0,0,0,7,0Z"/><path class="cls-4" d="M20.17,9.74A2.08,2.08,0,0,0,16.7,8.18V7h.69V5.57H16.7v-.7H15.3v.7h-.69V7h.69V8.18a2.09,2.09,0,0,0-2.78,3.11v1.23h7V11.29a2.08,2.08,0,0,0,.69-1.55Z"/></g></g></svg>