<svg xmlns="http://www.w3.org/2000/svg" xmlns:xlink="http://www.w3.org/1999/xlink" viewBox="0 0 31.9 31.9"><defs><style>.cls-1{fill:none;}.cls-2{fill:#ffda44;}.cls-3{fill:#6da544;}.cls-4{clip-path:url(#clip-path);}.cls-5{fill:#d80027;}</style><clipPath id="clip-path" transform="translate(0 -0.02)"><rect class="cls-1" width="31.93" height="32"/></clipPath></defs><title>st</title><g id="Layer_2" data-name="Layer 2"><g id="st"><path class="cls-2" d="M31.9,16A16,16,0,1,1,16,0a16,16,0,0,1,16,16Z" transform="translate(0 -0.02)"/><path class="cls-3" d="M9.71,10.43h21.2A15.95,15.95,0,0,0,4.67,4.7Z" transform="translate(0 -0.02)"/><g class="cls-4"><path class="cls-3" d="M9.71,21.52h21.2A15.95,15.95,0,0,1,4.67,27.25Z" transform="translate(0 -0.02)"/><path class="cls-5" d="M4.67,4.7a15.94,15.94,0,0,0,0,22.55L16,16Z" transform="translate(0 -0.02)"/></g><path d="M20.25,13.2l.69,2.12h2.23l-1.8,1.31.69,2.12-1.81-1.31-1.8,1.31.69-2.12-1.8-1.31h2.23Z" transform="translate(0 -0.02)"/><path d="M27.19,13.2l.69,2.12h2.23L28.3,16.63,29,18.75l-1.8-1.31-1.8,1.31.68-2.12-1.8-1.31H26.5Z" transform="translate(0 -0.02)"/></g></g></svg>