<svg xmlns="http://www.w3.org/2000/svg" viewBox="0 0 32 32"><defs><style>.cls-1{fill:#f0f0f0;}.cls-2{fill:#0052b4;}.cls-3{fill:#ffda44;}.cls-4{fill:#6da544;}</style></defs><title>sv</title><g id="Layer_2" data-name="Layer 2"><g id="sv"><path class="cls-1" d="M32,16A16,16,0,1,1,16,0,16,16,0,0,1,32,16Z"/><path class="cls-2" d="M16,0A16,16,0,0,0,1.59,9H30.41A16,16,0,0,0,16,0Z"/><path class="cls-2" d="M16,32a16,16,0,0,0,14.41-9H1.59A16,16,0,0,0,16,32Z"/><path class="cls-3" d="M12.79,16.7,16,11.13l3.21,5.57Z"/><path class="cls-4" d="M20.17,18.53,16,20.62l-4.17-2.09V15.75h8.34Z"/><path class="cls-3" d="M19.94,11.37l-1.48,1.47a3.48,3.48,0,1,1-4.92,0l-1.48-1.47a5.57,5.57,0,1,0,7.88,0Z"/></g></g></svg>