<svg xmlns="http://www.w3.org/2000/svg" viewBox="0 0 32 32"><defs><style>.cls-1{fill:#f0f0f0;}.cls-2{fill:#d80027;}.cls-3{fill:#6da544;}</style></defs><title>sy</title><g id="Layer_2" data-name="Layer 2"><g id="sy"><path class="cls-1" d="M32,16A16,16,0,1,1,16,0,16,16,0,0,1,32,16Z"/><path class="cls-2" d="M16,0A16,16,0,0,0,1,10.43H31A16,16,0,0,0,16,0Z"/><path d="M16,32A16,16,0,0,0,31,21.57H1A16,16,0,0,0,16,32Z"/><path class="cls-3" d="M9.56,12.17l.86,2.66h2.8L11,16.47l.86,2.66L9.56,17.49,7.3,19.13l.86-2.66L5.9,14.83H8.7Z"/><path class="cls-3" d="M22.44,12.17l.86,2.66h2.8l-2.26,1.64.86,2.66-2.26-1.64-2.26,1.64L21,16.47l-2.26-1.64h2.8Z"/></g></g></svg>