<svg xmlns="http://www.w3.org/2000/svg" viewBox="0 0 32 32"><defs><style>.cls-1{fill:#ffda44;}.cls-2{fill:#0052b4;}.cls-3{fill:#a2001d;}.cls-4{fill:#f0f0f0;}</style></defs><title>sz</title><g id="Layer_2" data-name="Layer 2"><g id="sz"><path class="cls-1" d="M30.41,23A16,16,0,0,0,30.41,9L16,8.35,1.59,9A16,16,0,0,0,1.59,23L16,23.65Z"/><path d="M16,0A16,16,0,0,0,1.59,9H30.41A16,16,0,0,0,16,0Z"/><path class="cls-2" d="M16,32A16,16,0,0,1,1.59,23H30.41A16,16,0,0,1,16,32Z"/><path class="cls-3" d="M31.24,11.13H.76a16,16,0,0,0,0,9.74H31.24a16,16,0,0,0,0-9.74Z"/><rect class="cls-1" x="5.57" y="15.3" width="20.87" height="1.39"/><rect class="cls-1" x="8.35" y="12.52" width="15.3" height="1.39"/><path class="cls-4" d="M23.75,16S20.17,20.17,16,20.17,11.83,16,11.83,16s0-4.17,4.17-4.17S23.75,16,23.75,16Z"/><path d="M16,20.17C11.83,20.17,8.25,16,8.25,16s3.58-4.17,7.75-4.17"/><rect class="cls-4" x="13.22" y="14.61" width="1.39" height="2.78"/><rect x="17.39" y="14.61" width="1.39" height="2.78"/><path class="cls-2" d="M7,16a1.4,1.4,0,1,1-1.39-1.39A1.39,1.39,0,0,1,7,16Z"/><path class="cls-2" d="M27.83,16a1.4,1.4,0,1,1-1.4-1.39A1.4,1.4,0,0,1,27.83,16Z"/></g></g></svg>