<svg xmlns="http://www.w3.org/2000/svg" viewBox="0 0 32 32"><defs><style>.cls-1{fill:#0052b4;}.cls-2{fill:#f0f0f0;}.cls-3{fill:#d80027;}.cls-4{fill:#ffda44;}.cls-5{fill:#ff9811;}.cls-6{fill:#a2001d;}.cls-7{fill:#6da544;}</style></defs><title>tc</title><g id="Layer_2" data-name="Layer 2"><g id="tc"><path class="cls-1" d="M32,16A16,16,0,0,1,0,16L16,0A16,16,0,0,1,32,16Z"/><path class="cls-2" d="M16,16h0v0l0,0Z"/><path class="cls-2" d="M16,8.35V0h0A16,16,0,0,0,0,16H8.35V11.3l4.7,4.7H16l0,0V13.05l-4.7-4.7Z"/><path class="cls-3" d="M8.09,2.09a16,16,0,0,0-6,6V16H6.26V6.26H16V2.09Z"/><path class="cls-3" d="M16,14,10.32,8.35h-2L16,16h0Z"/><path class="cls-4" d="M18.09,8.35V16c0,3.73,4.87,4.87,4.87,4.87s4.87-1.14,4.87-4.87V8.35Z"/><path class="cls-5" d="M22.26,11.13c0,.77-.62,2.78-1.39,2.78s-1.39-2-1.39-2.78,1.39-1.39,1.39-1.39,1.39.62,1.39,1.39Z"/><path class="cls-6" d="M26,12.65a5.63,5.63,0,0,0,.4-1.75c0-.64-.83-1.16-.83-1.16s-.84.52-.84,1.16a5.93,5.93,0,0,0,.4,1.75l-.48,1.08a2.42,2.42,0,0,0,1.83,0Z"/><path class="cls-7" d="M21.91,16a7.23,7.23,0,0,0-.69,2.78H24.7A7.15,7.15,0,0,0,24,16l-1-.7Z"/><path class="cls-3" d="M24,16v-.35a1,1,0,0,0-2.09,0V16Z"/></g></g></svg>