<svg xmlns="http://www.w3.org/2000/svg" viewBox="0 0 32 32"><defs><style>.cls-1{fill:#ffda44;}.cls-2{fill:#496e2d;}.cls-3{fill:#d80027;}.cls-4{fill:#f0f0f0;}</style></defs><title>tg</title><g id="Layer_2" data-name="Layer 2"><g id="tg"><path class="cls-1" d="M32,16A16,16,0,1,1,16,0,16,16,0,0,1,32,16Z"/><path class="cls-2" d="M16,0s-.7,6.4-.7,6.4H28.8A16,16,0,0,0,16,0Z"/><path class="cls-2" d="M16,32a16,16,0,0,0,12.8-6.4H3.2A16,16,0,0,0,16,32Z"/><path class="cls-2" d="M31.68,12.8H15.3l.7,6.4H31.68a16.16,16.16,0,0,0,0-6.4Z"/><path class="cls-3" d="M16,19.2V0A16,16,0,0,0,.32,19.2Z"/><path class="cls-4" d="M8.83,7.65l1,3.19h3.36l-2.71,2,1,3.19L8.83,14,6.12,16l1-3.19-2.71-2H7.79Z"/></g></g></svg>