<svg xmlns="http://www.w3.org/2000/svg" viewBox="0 0 32 32"><defs><style>.cls-1{fill:#f0f0f0;}.cls-2{fill:#0052b4;}.cls-3{fill:#d80027;}</style></defs><title>th</title><g id="Layer_2" data-name="Layer 2"><g id="th"><path class="cls-1" d="M32,16A16,16,0,1,1,16,0,16,16,0,0,1,32,16Z"/><path class="cls-2" d="M31,10.43H1A16,16,0,0,0,1,21.57H31a16,16,0,0,0,0-11.14Z"/><path class="cls-3" d="M16,0A16,16,0,0,0,3.87,5.57H28.13A16,16,0,0,0,16,0Z"/><path class="cls-3" d="M28.13,26.43H3.87a16,16,0,0,0,24.26,0Z"/></g></g></svg>