<svg xmlns="http://www.w3.org/2000/svg" viewBox="0 0 32 32"><defs><style>.cls-1{fill:#ffda44;}.cls-2{fill:#0052b4;}.cls-3{fill:#f0f0f0;}</style></defs><title>tk</title><g id="Layer_2" data-name="Layer 2"><g id="tk"><path class="cls-1" d="M32,16A16,16,0,1,1,16,0,16,16,0,0,1,32,16Z"/><path class="cls-2" d="M25.74,7.65a11,11,0,0,0-.21,2.16,10.49,10.49,0,0,0,6.12,9.52A16,16,0,1,0,29.2,25H9V23H30.41c.22-.46.42-.92.59-1.39H9Z"/><path class="cls-3" d="M11.75,8.35l.35,1.06h1.12l-.91.66.35,1.06-.91-.66-.9.66.35-1.06-.91-.66h1.12Z"/><path class="cls-3" d="M7.21,16l.44,1.33H9l-1.13.82.43,1.33-1.13-.82-1.13.82.44-1.33-1.13-.82H6.78Z"/><path class="cls-3" d="M7.21,4.87,7.65,6.2H9L7.91,7l.43,1.33L7.21,7.53l-1.13.82L6.52,7,5.39,6.2H6.78Z"/><path class="cls-3" d="M3.74,11.13l.43,1.33h1.4l-1.13.82.43,1.33-1.13-.82-1.13.82L3,13.28l-1.13-.82H3.3Z"/></g></g></svg>