<svg xmlns="http://www.w3.org/2000/svg" viewBox="0 0 32 32"><defs><style>.cls-1{fill:#496e2d;}.cls-2{fill:#f0f0f0;}.cls-3{fill:#d80027;}.cls-4{fill:#ff9811;}</style></defs><title>tm</title><g id="Layer_2" data-name="Layer 2"><g id="tm"><path class="cls-1" d="M16,0a16,16,0,0,0-3.48.38L11.83,16l.69,15.62A16,16,0,1,0,16,0Z"/><path class="cls-1" d="M4.17,5.22a16,16,0,0,0,0,21.56L4.87,16Z"/><path class="cls-2" d="M23.4,12.07a4.87,4.87,0,0,0-2-5.77,4.22,4.22,0,0,1,1,.25,4.87,4.87,0,1,1-3.29,9.16,4.63,4.63,0,0,1-.95-.46,4.88,4.88,0,0,0,5.21-3.18Z"/><path class="cls-2" d="M19,5.7l-.69.88L17.3,6.2l.63.93L17.24,8l1.08-.31.63.92,0-1.11,1.07-.32L19,6.82Z"/><path class="cls-2" d="M20.88,8.58l-.68.88-1.05-.38.63.93-.69.88,1.07-.31.63.92,0-1.11,1.07-.32-1-.37Z"/><path class="cls-2" d="M15.78,6.75l-.69.88L14,7.25l.63.93L14,9.06l1.07-.31.63.92,0-1.12,1.08-.31-1.06-.38Z"/><path class="cls-2" d="M15.7,10.05l-.68.88-1-.38.63.93-.69.88L15,12.05l.62.92,0-1.12,1.07-.31-1-.38Z"/><path class="cls-2" d="M18.84,11.17l-.68.89-1.05-.38.63.92-.69.89,1.07-.32.63.93,0-1.12,1.07-.31-1.05-.38Z"/><path class="cls-3" d="M4.17,5.22V26.78a16,16,0,0,0,8.35,4.84V.38A16,16,0,0,0,4.17,5.22Z"/><path class="cls-2" d="M7.36,8.42,6,7.38V5.91l1.4-1h2l1.39,1V7.38l-1.39,1Z"/><path class="cls-4" d="M8.35,4.87h-1L6,5.91v.72H8.35Z"/><path class="cls-4" d="M8.35,8.42h1l1.39-1V6.63H8.35Z"/><path class="cls-2" d="M7.36,27.13l-1.4-1V24.62l1.4-1h2l1.39,1v1.47l-1.39,1Z"/><path class="cls-4" d="M8.35,23.58h-1l-1.4,1v.72H8.35Z"/><path class="cls-4" d="M8.35,27.13h1l1.39-1v-.75H8.35Z"/><path class="cls-1" d="M7.36,17.78l-1.4-1V15.26l1.4-1h2l1.39,1v1.48l-1.39,1Z"/><path class="cls-1" d="M10.78,20.07h-.61v-.61H9.1l-.75-.76-.76.76H6.52v.61H5.91v1.21h.61v.61H7.59l.76.76.75-.76h1.07v-.61h.61Z"/><path class="cls-1" d="M10.78,10.71h-.61v-.6H9.1l-.75-.76-.76.76H6.52v.6H5.91v1.22h.61v.61H7.59l.76.76.75-.76h1.07v-.61h.61Z"/><rect class="cls-3" x="7.65" y="15.3" width="1.39" height="1.39"/><path class="cls-3" d="M9,11.32a.7.7,0,1,1-.69-.69.69.69,0,0,1,.69.69Z"/><path class="cls-3" d="M9,20.68a.7.7,0,1,1-.69-.7.69.69,0,0,1,.69.7Z"/></g></g></svg>