<svg xmlns="http://www.w3.org/2000/svg" xmlns:xlink="http://www.w3.org/1999/xlink" viewBox="0 0 31.9 31.9"><defs><style>.cls-1{fill:none;}.cls-2{fill:#f0f0f0;}.cls-3{clip-path:url(#clip-path);}.cls-4{fill:#d80027;}</style><clipPath id="clip-path" transform="translate(0 -0.02)"><rect class="cls-1" width="31.93" height="32"/></clipPath></defs><title>tt</title><g id="Layer_2" data-name="Layer 2"><g id="tt"><path class="cls-2" d="M8.64,1.8A16,16,0,0,0,1.77,8.66L12,19.9,23.26,30.15a16,16,0,0,0,6.87-6.86L19.87,12.05Z" transform="translate(0 -0.02)"/><g class="cls-3"><path d="M27.23,27.25A16.29,16.29,0,0,0,29,25.12L6.8,2.9A16.38,16.38,0,0,0,2.88,6.83L25.1,29.05a16.38,16.38,0,0,0,2.13-1.8Z" transform="translate(0 -0.02)"/><path class="cls-4" d="M4.67,27.25a15.94,15.94,0,0,0,18.59,2.9L1.77,8.66a16,16,0,0,0,2.9,18.59Z" transform="translate(0 -0.02)"/><path class="cls-4" d="M27.23,4.7A15.94,15.94,0,0,0,8.64,1.8L30.13,23.29A16,16,0,0,0,27.23,4.7Z" transform="translate(0 -0.02)"/></g></g></g></svg>