<svg xmlns="http://www.w3.org/2000/svg" viewBox="0 0 32 32"><defs><style>.cls-1{fill:#338af3;}.cls-2{fill:#0052b4;}.cls-3{fill:#f0f0f0;}.cls-4{fill:#d80027;}.cls-5{fill:#ffda44;}</style></defs><title>tv</title><g id="Layer_2" data-name="Layer 2"><g id="tv"><path class="cls-1" d="M32,16A16,16,0,0,1,0,16L16,0A16,16,0,0,1,32,16Z"/><path class="cls-2" d="M7.65,16h5.4l-4.7-5.57-.7,2.09Z"/><path class="cls-2" d="M16,13.05l-5.57-5.4H16Z"/><path class="cls-3" d="M16,16h0v0l0,0Z"/><path class="cls-3" d="M16,8.35V0h0A16,16,0,0,0,0,16H8.35V11.3l4.7,4.7H16l0,0V13.05l-4.7-4.7Z"/><path class="cls-4" d="M8.09,2.09a16,16,0,0,0-6,6V16H6.26V6.26H16V2.09Z"/><path class="cls-4" d="M16,14,10.32,8.35h-2L16,16Z"/><path class="cls-5" d="M17.46,26.43l.35,1.07h1.12l-.91.65.35,1.07-.91-.66-.9.66.34-1.07L16,27.5h1.12Z"/><path class="cls-5" d="M26.36,19.48l.35,1.06h1.12l-.91.66.35,1.06-.91-.66-.9.66.34-1.06-.9-.66H26Z"/><path class="cls-5" d="M28.59,9l.35,1.07h1.12l-.91.65.35,1.07-.91-.66-.9.66L28,10.76l-.9-.65h1.12Z"/><path class="cls-5" d="M29.15,16.7l.34,1.06h1.12l-.91.66.35,1.06-.9-.66-.91.66.35-1.06-.91-.66H28.8Z"/><path class="cls-5" d="M19.07,23.93l1,.51.79-.79-.17,1.11,1,.5-1.1.18-.18,1.1-.5-1-1.11.17.79-.79Z"/><path class="cls-5" d="M19.07,19.76l1,.51.79-.79-.17,1.1,1,.51-1.1.17-.18,1.11-.5-1-1.11.18.79-.79Z"/><path class="cls-5" d="M22.54,22.44l1,.5.79-.79-.18,1.11,1,.5-1.1.18L23.87,25l-.51-1-1.1.17.79-.79Z"/><path class="cls-5" d="M22.54,13.5l1,.51.79-.79-.18,1.1,1,.51-1.1.17-.18,1.11-.51-1-1.1.18.79-.79Z"/><path class="cls-5" d="M25.91,13.39l1,.51.79-.79-.17,1.1,1,.51-1.1.18L27.24,16l-.5-1-1.11.18.79-.79Z"/></g></g></svg>