<svg xmlns="http://www.w3.org/2000/svg" viewBox="0 0 32 32"><defs><style>.cls-1{fill:#d80027;}.cls-2{fill:#0052b4;}.cls-3{fill:#f0f0f0;}</style></defs><title>tw</title><g id="Layer_2" data-name="Layer 2"><g id="tw"><path class="cls-1" d="M32,16A16,16,0,0,1,0,16L16,0A16,16,0,0,1,32,16Z"/><path class="cls-2" d="M16,16V0A16,16,0,0,0,0,16Z"/><path class="cls-3" d="M13.91,9.36,12,10.28l1,1.9-2.12-.41-.27,2.14L9.13,12.34,7.65,13.91l-.27-2.14-2.12.41,1-1.9L4.35,9.36l2-.92-1-1.89L7.38,7l.27-2.15L9.13,6.39l1.48-1.58L10.88,7,13,6.55,12,8.44Z"/><path class="cls-2" d="M12.11,9.36a3,3,0,1,1-3-3,3,3,0,0,1,3,3Z"/><path class="cls-3" d="M9.13,11a1.59,1.59,0,1,1,1.59-1.59A1.59,1.59,0,0,1,9.13,11Z"/></g></g></svg>