<svg xmlns="http://www.w3.org/2000/svg" xmlns:xlink="http://www.w3.org/1999/xlink" viewBox="0 0 31.9 31.9"><defs><style>.cls-1{fill:none;}.cls-2{fill:#ffda44;}.cls-3{clip-path:url(#clip-path);}.cls-4{fill:#6da544;}.cls-5{fill:#338af3;}</style><clipPath id="clip-path" transform="translate(0 -0.02)"><rect class="cls-1" width="31.93" height="32"/></clipPath></defs><title>tz</title><g id="Layer_2" data-name="Layer 2"><g id="tz"><path class="cls-2" d="M31.9,16A16,16,0,1,1,16,0a16,16,0,0,1,16,16Z" transform="translate(0 -0.02)"/><g class="cls-3"><path d="M4.67,27.25A15.55,15.55,0,0,0,6.8,29L29,6.83A16.29,16.29,0,0,0,27.23,4.7,15.55,15.55,0,0,0,25.1,2.91L2.88,25.12a16.29,16.29,0,0,0,1.79,2.13Z" transform="translate(0 -0.02)"/><path class="cls-4" d="M4.67,4.7a16,16,0,0,0-2.9,18.59L23.26,1.8A15.94,15.94,0,0,0,4.67,4.7Z" transform="translate(0 -0.02)"/><path class="cls-5" d="M27.23,27.25a16,16,0,0,0,2.9-18.59L8.64,30.15a15.94,15.94,0,0,0,18.59-2.9Z" transform="translate(0 -0.02)"/></g></g></g></svg>