<svg xmlns="http://www.w3.org/2000/svg" viewBox="0 0 32 32"><defs><style>.cls-1{fill:#ffda44;}.cls-2{fill:#d80027;}.cls-3{fill:#f0f0f0;}</style></defs><title>ug</title><g id="Layer_2" data-name="Layer 2"><g id="ug"><path class="cls-1" d="M27.92,26.67a16,16,0,0,0,0-21.34L16,4.17,4.08,5.33a16,16,0,0,0,0,21.34L16,27.83Z"/><path d="M4.08,5.33H27.92a16,16,0,0,0-23.84,0Z"/><path class="cls-2" d="M0,16l16,1.39L32,16a15.91,15.91,0,0,0-.91-5.33H.91A15.91,15.91,0,0,0,0,16Z"/><path d="M.91,21.33H31.09A16,16,0,0,0,32,16H0a16,16,0,0,0,.91,5.33Z"/><path class="cls-2" d="M27.92,26.67H4.08a16,16,0,0,0,23.84,0Z"/><path class="cls-3" d="M21.34,16A5.34,5.34,0,1,1,16,10.66,5.34,5.34,0,0,1,21.34,16Z"/><path d="M18,16.27l-2-.85s.46-1.51.48-1.62a.85.85,0,0,0,0-.23,1,1,0,0,0-.31-.74l.5-.49a1.74,1.74,0,0,0-2.46,0l.49.49a1,1,0,0,0-.26,1l-.74.74h1.34a13,13,0,0,0-.86,1.52A1.41,1.41,0,0,0,14.92,18l.4.18.68.63v.7l-.7.69h1.4V18.78l.63-.63h1.31l0,0a1.4,1.4,0,0,0-.7-1.84Z"/></g></g></svg>