<svg xmlns="http://www.w3.org/2000/svg" viewBox="0 0 32 32"><defs><style>.cls-1{fill:#f0f0f0;}.cls-2{fill:#d80027;}.cls-3{fill:#0052b4;}</style></defs><title>US</title><g id="Layer_2" data-name="Layer 2"><g id="US"><circle class="cls-1" cx="16" cy="16" r="16"/><path class="cls-2" d="M15.3,16H32a16,16,0,0,0-.55-4.17H15.3Z"/><path class="cls-2" d="M15.3,7.65H29.65A16,16,0,0,0,26,3.48H15.3Z"/><path class="cls-2" d="M16,32a15.9,15.9,0,0,0,10-3.48H6A15.9,15.9,0,0,0,16,32Z"/><path class="cls-2" d="M2.35,24.35h27.3a15.87,15.87,0,0,0,1.8-4.18H.55A15.87,15.87,0,0,0,2.35,24.35Z"/><path class="cls-3" d="M7.41,2.5H8.87l-1.36,1L8,5.08l-1.35-1-1.36,1L5.77,3.7A16.26,16.26,0,0,0,2.66,7.16h.47l-.86.63c-.14.22-.27.45-.39.68l.41,1.27-.77-.56c-.19.41-.36.82-.52,1.24l.45,1.4H3.13l-1.36,1,.52,1.59-1.35-1L.12,14A16.52,16.52,0,0,0,0,16H16V0A15.94,15.94,0,0,0,7.41,2.5ZM8,14.4l-1.35-1-1.36,1,.52-1.59-1.36-1H6.16l.52-1.59.51,1.59H8.87l-1.36,1ZM7.51,8.14,8,9.74l-1.35-1-1.36,1,.52-1.6-1.36-1H6.16l.52-1.59.51,1.59H8.87Zm6.26,6.26-1.36-1-1.35,1,.52-1.59-1.36-1H11.9l.51-1.59.52,1.59h1.68l-1.36,1Zm-.52-6.26.52,1.6-1.36-1-1.35,1,.52-1.6-1.36-1H11.9l.51-1.59.52,1.59h1.68Zm0-4.66.52,1.6-1.36-1-1.35,1,.52-1.6-1.36-1H11.9L12.41.9l.52,1.6h1.68Z"/></g></g></svg>