<svg xmlns="http://www.w3.org/2000/svg" viewBox="0 0 32 32"><defs><style>.cls-1{fill:#f0f0f0;}.cls-2{fill:#338af3;}.cls-3{fill:#ffda44;}</style></defs><title>uy</title><g id="Layer_2" data-name="Layer 2"><g id="uy"><path class="cls-1" d="M32,16A16,16,0,1,1,16,0,16,16,0,0,1,32,16Z"/><path class="cls-2" d="M16,11.83H31.45a15.87,15.87,0,0,0-1.8-4.18H16Z"/><path class="cls-2" d="M6,28.52H26a16,16,0,0,0,3.69-4.17H2.35A16,16,0,0,0,6,28.52Z"/><path class="cls-2" d="M16,0V3.48H26A15.9,15.9,0,0,0,16,0Z"/><path class="cls-2" d="M16,11.83H31.45a15.87,15.87,0,0,0-1.8-4.18H16Z"/><path class="cls-2" d="M0,16a16,16,0,0,0,.55,4.17h30.9A16,16,0,0,0,32,16Z"/><path class="cls-3" d="M13.91,9.36,12,10.28l1,1.9-2.12-.41-.27,2.14L9.13,12.34,7.65,13.91l-.27-2.14-2.12.41,1-1.9L4.35,9.36l2-.92-1-1.89L7.38,7l.27-2.15L9.13,6.39l1.48-1.58L10.88,7,13,6.55,12,8.44Z"/></g></g></svg>