<svg xmlns="http://www.w3.org/2000/svg" viewBox="0 0 32 32"><defs><style>.cls-1{fill:#f0f0f0;}.cls-2{fill:#d80027;}.cls-3{fill:#6da544;}.cls-4{fill:#338af3;}</style></defs><title>uz</title><g id="Layer_2" data-name="Layer 2"><g id="uz"><path class="cls-1" d="M.76,11.13a16,16,0,0,0,0,9.74l15.24.7,15.24-.7a16,16,0,0,0,0-9.74L16,10.43Z"/><path class="cls-2" d="M31.24,11.13,16,10.43l-15.24.7c-.15.46-.27.92-.38,1.39H31.62c-.11-.47-.23-.93-.38-1.39Z"/><path class="cls-2" d="M.38,19.48c.11.47.23.93.38,1.39h0l15.24.7,15.24-.7c.15-.46.27-.92.38-1.39Z"/><path class="cls-3" d="M16,32A16,16,0,0,0,31.24,20.87H.76A16,16,0,0,0,16,32Z"/><path class="cls-4" d="M16,0A16,16,0,0,0,.76,11.13H31.24A16,16,0,0,0,16,0Z"/><path class="cls-1" d="M7.31,6.61A3.13,3.13,0,0,1,9.77,3.55a2.93,2.93,0,0,0-.67-.07,3.13,3.13,0,0,0,0,6.26,3.62,3.62,0,0,0,.67-.07A3.13,3.13,0,0,1,7.31,6.61Z"/><path class="cls-1" d="M11.62,8l.21.65h.69L12,9.09l.22.65-.56-.4-.55.4.21-.65-.56-.41h.69Z"/><path class="cls-1" d="M13.81,8l.21.65h.69l-.56.41.22.65-.56-.4-.55.4.21-.65-.56-.41h.69Z"/><path class="cls-1" d="M16,8l.21.65h.69l-.56.41.21.65L16,9.34l-.56.4.22-.65-.56-.41h.69Z"/><path class="cls-1" d="M18.19,8l.21.65h.69l-.56.41.21.65-.55-.4-.56.4.21-.65-.55-.41H18Z"/><path class="cls-1" d="M20.38,8l.21.65h.68l-.55.41.21.65-.55-.4-.56.4L20,9.09l-.55-.41h.68Z"/><path class="cls-1" d="M13.81,5.76l.21.65h.69l-.56.4.22.65-.56-.4-.55.4.21-.65-.56-.4h.69Z"/><path class="cls-1" d="M16,5.76l.21.65h.69l-.56.4.21.65L16,7.06l-.56.4.22-.65-.56-.4h.69Z"/><path class="cls-1" d="M18.19,5.76l.21.65h.69l-.56.4.21.65-.55-.4-.56.4.21-.65-.55-.4H18Z"/><path class="cls-1" d="M20.38,5.76l.21.65h.68l-.55.4.21.65-.55-.4-.56.4L20,6.81l-.55-.4h.68Z"/><path class="cls-1" d="M16,3.48l.21.65h.69l-.56.4.21.66L16,4.78l-.56.41.22-.66-.56-.4h.69Z"/><path class="cls-1" d="M18.19,3.48l.21.65h.69l-.56.4.21.66-.55-.41-.56.41.21-.66-.55-.4H18Z"/><path class="cls-1" d="M20.38,3.48l.21.65h.68l-.55.4.21.66-.55-.41-.56.41L20,4.53l-.55-.4h.68Z"/></g></g></svg>