<svg xmlns="http://www.w3.org/2000/svg" viewBox="0 0 32 32"><defs><style>.cls-1{fill:#ffda44;}.cls-2{fill:#338af3;}.cls-3{fill:#6da544;}</style></defs><title>vc</title><g id="Layer_2" data-name="Layer 2"><g id="vc"><path class="cls-1" d="M23.65,2A16,16,0,0,0,8.35,2L7,16,8.35,30.05a16,16,0,0,0,15.3,0L25,16Z"/><path class="cls-2" d="M8.35,30.05V2a16,16,0,0,0,0,28.1Z"/><path class="cls-3" d="M32,16A16,16,0,0,0,23.65,2v28.1A16,16,0,0,0,32,16Z"/><path class="cls-3" d="M12.52,20.17,9.74,16l2.78-4.17L15.3,16Z"/><path class="cls-3" d="M19.48,20.17,16.7,16l2.78-4.17L22.26,16Z"/><path class="cls-3" d="M16,25.74l-2.78-4.17L16,17.39l2.78,4.18Z"/></g></g></svg>