<svg xmlns="http://www.w3.org/2000/svg" viewBox="0 0 32 32"><defs><style>.cls-1{fill:#0052b4;}.cls-2{fill:#d80027;}.cls-3{fill:#f0f0f0;}.cls-4{fill:#ffda44;}</style></defs><title>ve</title><g id="Layer_2" data-name="Layer 2"><g id="ve"><path class="cls-1" d="M30.41,23A16,16,0,0,0,30.41,9L16,7.65,1.59,9A16,16,0,0,0,1.59,23L16,24.35Z"/><path class="cls-2" d="M16,32a16,16,0,0,0,14.41-9H1.59A16,16,0,0,0,16,32Z"/><path class="cls-3" d="M27.71,19.14l-.84.66.36,1-.89-.6-.84.66.29-1-.89-.6,1.08,0,.29-1,.37,1Z"/><path class="cls-3" d="M25.55,15.39,25,16.3l.69.82-1-.26-.57.91L24,16.7l-1-.26,1-.4L23.86,15l.69.82Z"/><path class="cls-3" d="M22.23,12.61,22,13.66l.93.54-1.07.11-.22,1-.44-1-1.07.11.8-.72-.44-1,.93.54Z"/><path class="cls-3" d="M18.16,11.13l.15,1.06,1.06.19-1,.47.14,1.06-.74-.77-1,.47.5-.95-.75-.77,1.06.19Z"/><path class="cls-3" d="M13.84,11.13l.5.95,1.06-.19-.75.77.5.95-1-.47-.74.77.14-1.06-1-.47,1.06-.19Z"/><path class="cls-3" d="M9.77,12.61l.8.72.92-.54-.43,1,.8.72-1.07-.11-.44,1-.22-1L9.06,14.2l.93-.54Z"/><path class="cls-3" d="M6.45,15.39l1,.4L8.14,15,8.06,16l1,.4L8,16.7l-.08,1.07-.57-.91-1,.26L7,16.3Z"/><path class="cls-3" d="M4.29,19.14l1.07,0,.37-1,.29,1,1.08,0-.89.6.29,1-.84-.66-.89.6.36-1Z"/><path class="cls-4" d="M30.41,9A16,16,0,0,0,1.59,9Z"/></g></g></svg>