<svg xmlns="http://www.w3.org/2000/svg" viewBox="0 0 32 32"><defs><style>.cls-1{fill:#0052b4;}.cls-2{fill:#f0f0f0;}.cls-3{fill:#d80027;}.cls-4{fill:#ffda44;}.cls-5{fill:#6da544;}.cls-6{fill:#496e2d;}.cls-7{fill:#a2001d;}</style></defs><title>vg</title><g id="Layer_2" data-name="Layer 2"><g id="vg"><path class="cls-1" d="M32,16A16,16,0,0,1,0,16L16,0A16,16,0,0,1,32,16Z"/><path class="cls-2" d="M16,0Z"/><path class="cls-2" d="M16,16h0v0Z"/><path class="cls-2" d="M16,8.35V0h0A16,16,0,0,0,0,16H8.35V11.3l4.7,4.7H16l0,0V13.05l-4.7-4.7Z"/><path class="cls-3" d="M8.09,2.09a16,16,0,0,0-6,6V16H6.26V6.26H16V2.09Z"/><path class="cls-4" d="M23,16l-4.33,4.32a4.86,4.86,0,0,0,8.65,0Z"/><path class="cls-3" d="M16,14,10.32,8.35h-2L16,16h0Z"/><path class="cls-5" d="M18.09,8.35V16h0c0,3.73,4.87,4.87,4.87,4.87s4.87-1.14,4.87-4.87h0V8.35Z"/><path class="cls-6" d="M27.83,16Z"/><polygon class="cls-6" points="18.09 16 18.09 16 18.09 16 18.09 16"/><rect class="cls-2" x="21.91" y="11.83" width="2.09" height="5.57"/><circle class="cls-7" cx="22.96" cy="11.83" r="1.04"/><rect class="cls-4" x="19.48" y="9.74" width="1.39" height="1.39"/><rect class="cls-4" x="19.48" y="12.87" width="1.39" height="1.39"/><rect class="cls-4" x="19.48" y="16" width="1.39" height="1.39"/><rect class="cls-4" x="25.04" y="9.74" width="1.39" height="1.39"/><rect class="cls-4" x="25.04" y="12.87" width="1.39" height="1.39"/><rect class="cls-4" x="25.04" y="16" width="1.39" height="1.39"/></g></g></svg>