<svg xmlns="http://www.w3.org/2000/svg" viewBox="0 0 32 32"><defs><style>.cls-1{fill:#fcfcfc;}.cls-2{fill:#ffda44;}.cls-3{fill:#f0f0f0;}.cls-4{fill:#338af3;}.cls-5{fill:#d80027;}.cls-6{fill:#0052b4;}</style></defs><title>vi</title><g id="Layer_2" data-name="Layer 2"><g id="vi"><path class="cls-1" d="M32,16A16,16,0,1,1,16,0,16,16,0,0,1,32,16Z"/><path class="cls-2" d="M18.72,11.18a2.72,2.72,0,0,0-5.44,0h-6a2.75,2.75,0,0,0,2.77,2.67H10a2.68,2.68,0,0,0,2.68,2.68,2.68,2.68,0,0,0,2.18,2.63h2.32a2.68,2.68,0,0,0,2.18-2.63A2.68,2.68,0,0,0,22,13.85h-.09a2.75,2.75,0,0,0,2.77-2.67Z"/><path class="cls-2" d="M14.81,18.9l-1.69,3.8a7.69,7.69,0,0,0,5.76,0l-1.69-3.8Z"/><path class="cls-3" d="M12.52,12.51v4.68c0,2.67,3.48,3.48,3.48,3.48s3.48-.81,3.48-3.48V12.51Z"/><path class="cls-4" d="M3.88,16.11l1.88,5.26,1.86-5.26H9l-2.71,7H5.19l-2.73-7Z"/><rect class="cls-4" x="25.74" y="16.11" width="1.35" height="6.96"/><path class="cls-5" d="M13.91,14V19.7a6.66,6.66,0,0,0,1.39.75V14Z"/><path class="cls-5" d="M18.09,14V19.7a6.66,6.66,0,0,1-1.39.75V14Z"/><rect class="cls-6" x="12.52" y="12.51" width="6.96" height="2.21"/></g></g></svg>