<svg xmlns="http://www.w3.org/2000/svg" xmlns:xlink="http://www.w3.org/1999/xlink" viewBox="0 0 31.9 31.9"><defs><style>.cls-1{fill:none;}.cls-2{clip-path:url(#clip-path);}.cls-3{fill:#f0f0f0;}.cls-4{fill:#d80027;}.cls-5{fill:#6da544;}.cls-6{fill:#ffda44;}</style><clipPath id="clip-path" transform="translate(0 -0.02)"><rect class="cls-1" width="31.93" height="32"/></clipPath></defs><title>vu</title><g id="Layer_2" data-name="Layer 2"><g id="vu"><g class="cls-2"><path d="M31.9,16a18,18,0,0,0-.13-2.09H13.87L4.67,4.7a15.94,15.94,0,0,0,0,22.55l9.2-9.19h17.9A18,18,0,0,0,31.9,16Z" transform="translate(0 -0.02)"/></g><path class="cls-3" d="M31.9,16.34v0Z" transform="translate(0 -0.02)"/><path class="cls-3" d="M31.88,16.77v0Z" transform="translate(0 -0.02)"/><path class="cls-3" d="M31.86,17.12c0,.05,0,.09,0,.14s0-.09,0-.14Z" transform="translate(0 -0.02)"/><path class="cls-3" d="M31.81,14.24s0,.1,0,.16,0-.11,0-.16Z" transform="translate(0 -0.02)"/><path class="cls-3" d="M31.88,15.09v0Z" transform="translate(0 -0.02)"/><path class="cls-3" d="M31.89,15.52v0Z" transform="translate(0 -0.02)"/><path class="cls-3" d="M31.85,14.69c0,.05,0,.09,0,.14s0-.09,0-.14Z" transform="translate(0 -0.02)"/><path class="cls-4" d="M31.77,13.89a1,1,0,0,0,0,.17A15.95,15.95,0,0,0,4.67,4.7l9.2,9.19Z" transform="translate(0 -0.02)"/><path class="cls-5" d="M31.77,18.06H13.87l-9.2,9.19a15.95,15.95,0,0,0,27.12-9.36,1,1,0,0,0,0,.17Z" transform="translate(0 -0.02)"/><path class="cls-3" d="M31.82,17.55c0,.06,0,.11,0,.16s0-.1,0-.16Z" transform="translate(0 -0.02)"/><path d="M31.86,14.83c0,.08,0,.17,0,.26,0-.09,0-.18,0-.26Z" transform="translate(0 -0.02)"/><path d="M31.79,14.06a1.1,1.1,0,0,0,0,.18,1.1,1.1,0,0,1,0-.18Z" transform="translate(0 -0.02)"/><path d="M31.82,14.4l0,.29,0-.29Z" transform="translate(0 -0.02)"/><path d="M31.9,16v0Z" transform="translate(0 -0.02)"/><path d="M31.88,16.87c0,.08,0,.17,0,.25,0-.08,0-.17,0-.25Z" transform="translate(0 -0.02)"/><path d="M31.85,17.26l0,.29,0-.29Z" transform="translate(0 -0.02)"/><path d="M31.81,17.71a1.1,1.1,0,0,0,0,.18,1.1,1.1,0,0,1,0-.18Z" transform="translate(0 -0.02)"/><path d="M31.9,15.61v0Z" transform="translate(0 -0.02)"/><path d="M31.88,15.18c0,.11,0,.22,0,.34,0-.12,0-.23,0-.34Z" transform="translate(0 -0.02)"/><path d="M31.89,16.43c0,.11,0,.23,0,.34,0-.11,0-.23,0-.34Z" transform="translate(0 -0.02)"/><path class="cls-6" d="M31.89,15.28H13.28L3.73,5.72a8.21,8.21,0,0,0-.85,1.11L12,16,2.87,25.11a7.8,7.8,0,0,0,.85,1.11l9.56-9.56H31.89c0-.23,0-.46,0-.69s0-.54,0-.69Z" transform="translate(0 -0.02)"/><path class="cls-6" d="M3.87,19.38V18a2.42,2.42,0,0,0,2.42-2.42,1.71,1.71,0,0,0-1.71-1.71,1.16,1.16,0,0,0-1.16,1.17.74.74,0,0,0,.74.74.42.42,0,0,0,.42-.42H5.92a1.76,1.76,0,0,1-1.76,1.76,2.08,2.08,0,0,1-2.08-2.08,2.5,2.5,0,0,1,2.5-2.5,3,3,0,0,1,3.05,3,3.77,3.77,0,0,1-3.76,3.76Z" transform="translate(0 -0.02)"/></g></g></svg>