<svg xmlns="http://www.w3.org/2000/svg" viewBox="0 0 32 32"><defs><style>.cls-1{fill:#d80027;}.cls-2{fill:#0052b4;}.cls-3{fill:#f0f0f0;}</style></defs><title>ws</title><g id="Layer_2" data-name="Layer 2"><g id="ws"><path class="cls-1" d="M32,16A16,16,0,0,1,0,16L16,0A16,16,0,0,1,32,16Z"/><path class="cls-2" d="M16,16V0A16,16,0,0,0,0,16Z"/><path class="cls-3" d="M12.82,10.43l.25.8h.84l-.68.49.26.8L12.82,12l-.68.49.26-.8-.68-.49h.84Z"/><path class="cls-3" d="M8.61,4.17,9,5.5h1.39L9.3,6.32l.44,1.33L8.61,6.83l-1.13.82.43-1.33L6.78,5.5H8.17Z"/><path class="cls-3" d="M12.78,5.57l.43,1.32h1.4l-1.13.82L13.91,9l-1.13-.82L11.65,9l.43-1.33L11,6.89h1.4Z"/><path class="cls-3" d="M9.48,11.13l.43,1.33h1.4l-1.13.82.43,1.33-1.13-.82-1.13.82.43-1.33-1.13-.82h1.4Z"/><path class="cls-3" d="M5.82,7.65,6.26,9H7.65L6.52,9.8,7,11.13l-1.13-.82-1.13.82L5.13,9.8,4,9H5.39Z"/></g></g></svg>