<svg xmlns="http://www.w3.org/2000/svg" viewBox="0 0 32 32"><defs><style>.cls-1{fill:#0052b4;}.cls-2{fill:#f0f0f0;}.cls-3{fill:#ffda44;}</style></defs><title>xk</title><g id="Layer_2" data-name="Layer 2"><g id="xk"><path class="cls-1" d="M32,16A16,16,0,1,1,16,0,16,16,0,0,1,32,16Z"/><path class="cls-2" d="M7,9.74l.34,1.06H8.49l-.9.66.34,1.06L7,11.86l-.91.66.35-1.06-.9-.66H6.68Z"/><path class="cls-2" d="M10.51,8.7l.34,1.06H12l-.9.66.34,1.06-.9-.66-.91.66L10,10.42,9,9.76h1.12Z"/><path class="cls-2" d="M14,7.65l.35,1.07h1.12l-.91.65.35,1.06L14,9.78l-.9.65.35-1.06-.91-.65h1.12Z"/><path class="cls-2" d="M25,9.74l-.34,1.06H23.51l.9.66-.34,1.06.9-.66.91.66-.35-1.06.9-.66H25.32Z"/><path class="cls-2" d="M21.49,8.7l-.34,1.06H20l.9.66-.34,1.06.9-.66.91.66-.35-1.06L23,9.76H21.84Z"/><path class="cls-2" d="M18,7.65l-.35,1.07H16.55l.91.65-.35,1.06L18,9.78l.9.65-.35-1.06.91-.65H18.36Z"/><path class="cls-3" d="M18.78,16.7,16,13.22l-1.39.69V15.3l-2.09,1.4H11.13v1.79a5.58,5.58,0,0,1,3.48,5.16H16V22.26l1.39-1.39,1.39,1.39,1.39-1.39V19.48l1.4-2.09Z"/></g></g></svg>