<svg xmlns="http://www.w3.org/2000/svg" xmlns:xlink="http://www.w3.org/1999/xlink" viewBox="0 0 31.9 31.9"><defs><style>.cls-1{fill:none;}.cls-2{clip-path:url(#clip-path);}.cls-3{fill:#f0f0f0;}.cls-4{fill:#ffda44;}.cls-5{fill:#6da544;}.cls-6{fill:#0052b4;}.cls-7{fill:#d80027;}</style><clipPath id="clip-path" transform="translate(0 -0.02)"><rect class="cls-1" width="31.93" height="32"/></clipPath></defs><title>za</title><g id="Layer_2" data-name="Layer 2"><g id="za"><g class="cls-2"><path class="cls-3" d="M31.9,16A16,16,0,1,1,16,0a16,16,0,0,1,16,16Z" transform="translate(0 -0.02)"/><path d="M4.67,27.25a15.94,15.94,0,0,1,0-22.55L13.87,16Z" transform="translate(0 -0.02)"/></g><path class="cls-4" d="M13.87,16,2.12,8a16.48,16.48,0,0,0-1,2L7.1,16l-5.95,6a16.48,16.48,0,0,0,1,2Z" transform="translate(0 -0.02)"/><path class="cls-5" d="M31.77,13.89H13.87L4.67,4.7A15.91,15.91,0,0,0,2.12,8L10,16,2.12,23.92a15.91,15.91,0,0,0,2.55,3.33l9.2-9.19h17.9a16.79,16.79,0,0,0,0-4.17Z" transform="translate(0 -0.02)"/><path class="cls-6" d="M6.24,28.63a15.95,15.95,0,0,0,25.11-8.49H14.73Z" transform="translate(0 -0.02)"/><path class="cls-7" d="M31.35,11.81A15.95,15.95,0,0,0,6.24,3.32l8.49,8.49Z" transform="translate(0 -0.02)"/></g></g></svg>