<svg xmlns="http://www.w3.org/2000/svg" viewBox="0 0 32 32"><defs><style>.cls-1{fill:#496e2d;}.cls-2{fill:#d80027;}.cls-3{fill:#ff9811;}</style></defs><title>zm</title><g id="Layer_2" data-name="Layer 2"><g id="zm"><path class="cls-1" d="M32,16A16,16,0,1,1,16,0,16,16,0,0,1,32,16Z"/><path class="cls-2" d="M22.26,16H16V32a16,16,0,0,0,5.33-.91Z"/><path class="cls-3" d="M26.67,27.92A16,16,0,0,0,32,16H25.74Z"/><path d="M21.33,16V31.09a15.94,15.94,0,0,0,5.34-3.17V16Z"/><path class="cls-3" d="M29.57,10.43H25.39a1.39,1.39,0,0,0-2.78,0H18.43a1.44,1.44,0,0,0,1.44,1.4h0a1.39,1.39,0,0,0,1.39,1.39,1.39,1.39,0,0,0,1.39,1.39h2.78a1.39,1.39,0,0,0,1.39-1.39,1.39,1.39,0,0,0,1.39-1.39h0a1.44,1.44,0,0,0,1.44-1.4Z"/></g></g></svg>