<svg xmlns="http://www.w3.org/2000/svg" viewBox="0 0 32 32"><defs><style>.cls-1{fill:#f0f0f0;}.cls-2{fill:#ffda44;}.cls-3{fill:#6da544;}.cls-4{fill:#d80027;}</style></defs><title>zw</title><g id="Layer_2" data-name="Layer 2"><g id="zw"><path class="cls-1" d="M32,16A16,16,0,1,1,16,0,16,16,0,0,1,32,16Z"/><path class="cls-2" d="M30.47,9.16a16.13,16.13,0,0,0-3.26-4.58L16,3.48,4.79,4.58l-.1.11L9.16,9.16,16,9.37Z"/><path class="cls-2" d="M4.69,27.31l.17.18,11.14,1,11.13-1a16,16,0,0,0,3.31-4.58l-20.7-.65-5,5Z"/><path d="M31.84,13.74l-18.62-.52L16,16l-2.78,2.78,18.61-.45A16.28,16.28,0,0,0,32,16a16.81,16.81,0,0,0-.16-2.26Z"/><path class="cls-3" d="M16,0A16,16,0,0,0,4.79,4.58H27.21A16,16,0,0,0,16,0Z"/><path class="cls-4" d="M13.74,13.74h18.1a16.19,16.19,0,0,0-1.37-4.58H9.16Z"/><path class="cls-4" d="M9.09,22.91H30.44a15.9,15.9,0,0,0,1.39-4.58H13.67Z"/><path class="cls-3" d="M16,32a15.94,15.94,0,0,0,11.13-4.51H4.87A15.94,15.94,0,0,0,16,32Z"/><path d="M5.71,3.75a12.9,12.9,0,0,0-1,.94L16,16,4.69,27.31a12.9,12.9,0,0,0,1,.94L18,16Z"/><path class="cls-4" d="M6.43,11.83l1,3.18h3.35L8.11,17l1,3.18-2.72-2-2.71,2,1-3.18L2,15H5.4Z"/><path class="cls-2" d="M9.28,16.26l-2.7-1s-.2-1.87-.21-1.93a1,1,0,0,0-2.07.2,1.26,1.26,0,0,0,0,.27l-.76.76H4.93c0,1.4-1,1.4-1,2.79l.57,1.39H7.94l.58-1.39h0A1.19,1.19,0,0,0,8.63,17a1.2,1.2,0,0,0,.65-.72Z"/></g></g></svg>