<svg xmlns="http://www.w3.org/2000/svg" viewBox="0 0 19.19 22"><defs><style>.cls-1,.cls-2{fill:none;stroke:#000;stroke-linecap:round;stroke-miterlimit:10;}.cls-1{fill-rule:evenodd;}</style></defs><title>Delete</title><g id="Layer_2" data-name="Layer 2"><g id="Action_icons" data-name="Action icons"><g id="Delete"><path class="cls-1" d="M16.61,6.28V19.87A1.65,1.65,0,0,1,15,21.5H3.91a1.65,1.65,0,0,1-1.64-1.63V6.28"/><line class="cls-2" x1="6.02" y1="6.28" x2="6.02" y2="19.59"/><line class="cls-2" x1="9.59" y1="6.28" x2="9.59" y2="19.59"/><line class="cls-2" x1="12.97" y1="6.22" x2="12.97" y2="19.59"/><rect class="cls-2" x="0.5" y="3.36" width="18.19" height="2.08" rx="1.04" ry="1.04"/><path class="cls-1" d="M6.32,2.43a1.88,1.88,0,0,1,.57-1.36A1.9,1.9,0,0,1,8.25.5h2.43a1.95,1.95,0,0,1,1.94,1.93"/></g></g></g></svg>