<svg xmlns="http://www.w3.org/2000/svg" viewBox="0 0 22 22"><defs><style>.cls-1{fill:none;stroke:#383838;stroke-linecap:round;stroke-linejoin:round;}.cls-2{fill:#383838;}</style></defs><title>dot chart</title><g id="Layer_2" data-name="Layer 2"><g id="Action_icons" data-name="Action icons"><g id="dot_chart" data-name="dot chart"><path class="cls-1" d="M21.5,21.5H1.41a.91.91,0,0,1-.91-.91V.5"/><path class="cls-2" d="M3.6,8.43A1.54,1.54,0,1,0,2.07,6.9,1.53,1.53,0,0,0,3.6,8.43Zm5.12,4.26a1.53,1.53,0,1,0-1.54-1.53,1.53,1.53,0,0,0,1.54,1.53Zm7.84.37A1.53,1.53,0,1,0,15,11.53a1.53,1.53,0,0,0,1.54,1.53Zm1.53,3.67a1.54,1.54,0,1,0,1.53-1.53,1.54,1.54,0,0,0-1.53,1.53Zm0-11.1a1.54,1.54,0,1,0-1.53-1.54,1.53,1.53,0,0,0,1.53,1.54ZM3.6,16.73A1.54,1.54,0,1,0,2.07,15.2,1.54,1.54,0,0,0,3.6,16.73Zm5.12.77A1.53,1.53,0,1,0,10.25,16,1.52,1.52,0,0,0,8.72,17.5Zm3.06-9.07A1.54,1.54,0,1,0,10.25,6.9a1.53,1.53,0,0,0,1.53,1.53Z"/></g></g></g></svg>