<svg xmlns="http://www.w3.org/2000/svg" viewBox="0 0 18.68 22"><defs><style>.cls-1{fill:none;stroke:#383838;stroke-miterlimit:10;}</style></defs><title>Duplicate</title><g id="Layer_2" data-name="Layer 2"><g id="Action_icons" data-name="Action icons"><g id="Duplicate"><path class="cls-1" d="M.5,3.59V16.78L5.22,21.5h9.87a.62.62,0,0,0,.62-.62V3.59A.62.62,0,0,0,15.09,3h-14A.62.62,0,0,0,.5,3.59ZM.84,17h3.5a.62.62,0,0,1,.62.62v3.5"/><path class="cls-1" d="M15.71,19h1.85a.62.62,0,0,0,.62-.62V1.12A.62.62,0,0,0,17.56.5h-14A.62.62,0,0,0,3,1.12V3"/><line class="cls-1" x1="2.9" y1="6.73" x2="12.84" y2="6.73"/><line class="cls-1" x1="2.9" y1="9.38" x2="12.84" y2="9.38"/><line class="cls-1" x1="2.9" y1="12.03" x2="12.84" y2="12.03"/></g></g></g></svg>