<svg xmlns="http://www.w3.org/2000/svg" viewBox="0 0 22.14 19.97"><defs><style>.cls-1,.cls-2,.cls-3{fill:none;}.cls-1,.cls-2{stroke:#383838;}.cls-1,.cls-3{stroke-miterlimit:10;}.cls-2{stroke-linecap:round;stroke-linejoin:round;}.cls-3{stroke:#939596;}.cls-4{fill:#383838;}</style></defs><title>View log</title><g id="Layer_2" data-name="Layer 2"><g id="Action_icons" data-name="Action icons"><g id="View_log" data-name="View log"><path class="cls-1" d="M15,11.5V2.7a.41.41,0,0,0-.42-.4H9.5M6,2.3H.91a.4.4,0,0,0-.41.4V19.07a.4.4,0,0,0,.41.4H12.27"/><line class="cls-1" x1="7.23" y1="7.49" x2="12.45" y2="7.49"/><path class="cls-1" d="M11,4.17h.79c0-.19-.15-.34-.31-.39a4.44,4.44,0,0,0-.63-.15,1.68,1.68,0,0,1-1.4-.94,1.53,1.53,0,0,1-.13-.52c-.05-.35-.12-.44-.46-.49a.69.69,0,0,1-.54-.45C8.28,1.09,8.23,1,8.18.81A.46.46,0,0,0,7.73.5h0a.44.44,0,0,0-.44.31c-.06.14-.1.28-.16.42a.69.69,0,0,1-.55.45c-.34.05-.4.14-.45.49A1.53,1.53,0,0,1,6,2.69a1.69,1.69,0,0,1-1.4.94A4.14,4.14,0,0,0,4,3.78c-.17.05-.36.2-.31.39H11Z"/><line class="cls-1" x1="7.23" y1="11.48" x2="11.15" y2="11.48"/><line class="cls-2" x1="4.25" y1="8.43" x2="3.67" y2="7.85"/><line class="cls-2" x1="4.25" y1="8.43" x2="5.42" y2="7.27"/><line class="cls-2" x1="4.25" y1="12.12" x2="3.67" y2="11.54"/><line class="cls-2" x1="4.25" y1="12.12" x2="5.42" y2="10.96"/><g id="View"><path class="cls-3" d="M9.65,15.68a9.62,9.62,0,0,0,3.93,2.8,5.7,5.7,0,0,0,4.24-.08,9.59,9.59,0,0,0,3-2c.23-.22.44-.46.66-.69l-.05-.07A9.86,9.86,0,0,0,18.15,13a5.45,5.45,0,0,0-4.24-.36,8.51,8.51,0,0,0-3.14,1.93C10.38,14.89,10,15.29,9.65,15.68Z"/><path class="cls-1" d="M9.65,15.68c.38-.39.73-.79,1.12-1.15a8.51,8.51,0,0,1,3.14-1.93,5.45,5.45,0,0,1,4.24.36,9.86,9.86,0,0,1,3.3,2.68l.05.07c-.22.23-.43.47-.66.69a9.59,9.59,0,0,1-3,2,5.7,5.7,0,0,1-4.24.08A9.62,9.62,0,0,1,9.65,15.68Zm3.72-.09a2.17,2.17,0,1,0,2.16-2.16A2.17,2.17,0,0,0,13.37,15.59Z"/><path class="cls-4" d="M16.71,14.89a1.27,1.27,0,0,1-.09,1.51,1.37,1.37,0,0,1-2.45-1,1.4,1.4,0,0,1,1.3-1.19.77.77,0,0,0-.12,1,.71.71,0,0,0,.75.3A.79.79,0,0,0,16.71,14.89Z"/></g></g></g></g></svg>