<svg xmlns="http://www.w3.org/2000/svg" viewBox="0 0 19.06 23"><defs><style>.cls-1{fill:none;stroke:#383838;stroke-miterlimit:10;}</style></defs><title>aFlex</title><g id="Layer_2" data-name="Layer 2"><g id="Thunder_ADC" data-name="Thunder ADC"><g id="Row_3" data-name="Row 3"><g id="aFlex"><path class="cls-1" d="M.5,1.23V16.9l5.6,5.6H17.82a.74.74,0,0,0,.74-.73V1.23A.74.74,0,0,0,17.82.5H1.23A.73.73,0,0,0,.5,1.23Zm.4,16H5.06a.73.73,0,0,1,.73.73v4.16"/><line class="cls-1" x1="3.35" y1="4.97" x2="15.15" y2="4.97"/><line class="cls-1" x1="3.35" y1="8.11" x2="15.15" y2="8.11"/><line class="cls-1" x1="3.35" y1="11.26" x2="15.15" y2="11.26"/><polyline class="cls-1" points="9.17 16.59 7.73 15.39 9.17 14.19"/><polyline class="cls-1" points="13.21 16.59 14.65 15.39 13.21 14.19"/><line class="cls-1" x1="10.59" y1="17.35" x2="11.79" y2="13.43"/></g></g></g></g></svg>