<svg xmlns="http://www.w3.org/2000/svg" viewBox="0 0 23 23.01"><defs><style>.cls-1,.cls-2,.cls-3{fill:none;stroke:#383838;stroke-miterlimit:10;}.cls-1{stroke-width:1.36px;}.cls-3{stroke-linecap:round;}</style></defs><title>AppService</title><g id="Layer_2" data-name="Layer 2"><g id="Thunder_ADC" data-name="Thunder ADC"><g id="Row_2" data-name="Row 2"><g id="AppService"><path class="cls-1" d="M12.75,18.29a1.55,1.55,0,1,1,1.55-1.55A1.55,1.55,0,0,1,12.75,18.29Z"/><path class="cls-2" d="M13.42,22.29H12.08a.19.19,0,0,1-.2-.2V20.88a4,4,0,0,1-1.44-.59l-.85.85a.19.19,0,0,1-.28,0l-1-.95a.19.19,0,0,1,0-.28l.85-.85a4.34,4.34,0,0,1-.59-1.44H7.4a.2.2,0,0,1-.2-.2V16.07a.2.2,0,0,1,.2-.2H8.61a4.34,4.34,0,0,1,.59-1.44l-.85-.85a.19.19,0,0,1,0-.28l1-1a.21.21,0,0,1,.29,0l.85.85a3.88,3.88,0,0,1,1.44-.59V11.4a.19.19,0,0,1,.2-.2h1.34a.2.2,0,0,1,.2.2v1.21a4,4,0,0,1,1.44.59l.85-.85a.21.21,0,0,1,.29,0l.95,1a.19.19,0,0,1,0,.28l-.85.86a4.2,4.2,0,0,1,.59,1.43h1.2a.2.2,0,0,1,.21.2v1.35a.2.2,0,0,1-.21.2h-1.2a4.16,4.16,0,0,1-.6,1.44l.86.85a.21.21,0,0,1,0,.28l-1,.95a.19.19,0,0,1-.28,0l-.85-.85a4.14,4.14,0,0,1-1.44.59v1.21A.2.2,0,0,1,13.42,22.29Z"/><path class="cls-3" d="M6.62,22.51H1.28a.78.78,0,0,1-.78-.78V5.31a.78.78,0,0,1,.78-.78H17.69a.78.78,0,0,1,.78.78v5.5"/><path class="cls-2" d="M2.51,3.29a.78.78,0,0,1,.78-.78H19.71a.78.78,0,0,1,.78.78V19.72a.77.77,0,0,1-.78.77"/><path class="cls-2" d="M4.53,1.28A.78.78,0,0,1,5.31.5H21.72a.78.78,0,0,1,.78.78V17.7a.78.78,0,0,1-.76.78"/></g></g></g></g></svg>