<svg xmlns="http://www.w3.org/2000/svg" viewBox="0 0 19.06 23"><defs><style>.cls-1{fill:none;stroke:#383838;stroke-miterlimit:10;}</style></defs><title>Certificate</title><g id="Layer_2" data-name="Layer 2"><g id="Thunder_ADC" data-name="Thunder ADC"><g id="Row_3" data-name="Row 3"><g id="Certificate"><path class="cls-1" d="M.5,1.23V16.9l5.6,5.6H17.82a.74.74,0,0,0,.74-.73V1.23A.74.74,0,0,0,17.82.5H1.23A.73.73,0,0,0,.5,1.23Zm.4,16H5.28a.51.51,0,0,1,.51.52v4.37"/><line class="cls-1" x1="3.35" y1="4.97" x2="9.45" y2="4.97"/><line class="cls-1" x1="3.35" y1="8.11" x2="9.32" y2="8.11"/><line class="cls-1" x1="3.35" y1="11.26" x2="9.32" y2="11.26"/><polygon class="cls-1" points="11.65 11.38 11.65 18 13.8 15.03 15.95 18 15.95 11.41 11.65 11.38"/><path class="cls-1" d="M13.8,5a2.28,2.28,0,1,0,2.27,2.27A2.28,2.28,0,0,0,13.8,5"/></g></g></g></g></svg>