<svg xmlns="http://www.w3.org/2000/svg" viewBox="0 0 23 20.52"><defs><style>.cls-1,.cls-2,.cls-4{fill:none;stroke:#383838;stroke-miterlimit:10;}.cls-2{stroke-dasharray:2.07 2.07;}.cls-3{fill:#383838;}.cls-4{stroke-dasharray:2.12 3.19;}</style></defs><title>Change working version</title><g id="Layer_2" data-name="Layer 2"><g id="Thunder_ADC" data-name="Thunder ADC"><g id="Row_3" data-name="Row 3"><g id="Change_working_version" data-name="Change working version"><circle class="cls-1" cx="2.48" cy="14.07" r="1.98"/><path class="cls-2" d="M22.5,6.52a2,2,0,1,1-2-2A2,2,0,0,1,22.5,6.52Z"/><path class="cls-1" d="M1.34,9.43,8.76,2.3S13.68-2,18.6,2.63"/><polygon class="cls-3" points="6.56 10.08 6.55 9.08 1.62 9.16 1.9 4.24 0.9 4.18 0.56 10.18 6.56 10.08"/><line class="cls-1" x1="21.43" y1="11.09" x2="20.71" y2="11.79"/><path class="cls-4" d="M18.41,14,14,18.22s-3.6,3.12-7.72,1.15"/><path class="cls-1" d="M4.93,18.54c-.25-.2-.51-.41-.77-.65"/><polygon class="cls-3" points="16.21 10.44 16.22 11.44 21.15 11.36 20.87 16.28 21.87 16.34 22.21 10.34 16.21 10.44"/></g></g></g></g></svg>