<svg xmlns="http://www.w3.org/2000/svg" viewBox="0 0 23 21.13"><defs><style>.cls-1,.cls-2{fill:none;stroke:#383838;}.cls-1{stroke-miterlimit:10;}.cls-2{stroke-linejoin:round;}</style></defs><title>Cluster 1</title><g id="Layer_2" data-name="Layer 2"><g id="Thunder_ADC" data-name="Thunder ADC"><g id="Row_2" data-name="Row 2"><g id="Cluster_1" data-name="Cluster 1"><line class="cls-1" x1="12.05" y1="14.68" x2="12.05" y2="17.72"/><line class="cls-2" x1="4.31" y1="19.34" x2="8.92" y2="19.34"/><line class="cls-2" x1="19.69" y1="19.34" x2="15.11" y2="19.34"/><circle class="cls-1" cx="11.98" cy="19.34" r="1.29"/><rect class="cls-1" x="0.5" y="0.5" width="22" height="6.43" rx="0.92" ry="0.92"/><line class="cls-1" x1="4.64" y1="3.72" x2="11.03" y2="3.72"/><line class="cls-1" x1="12.42" y1="2.88" x2="12.42" y2="4.56"/><line class="cls-1" x1="13.8" y1="2.88" x2="13.8" y2="4.56"/><line class="cls-1" x1="15.19" y1="2.88" x2="15.19" y2="4.56"/><line class="cls-1" x1="16.57" y1="2.88" x2="16.57" y2="4.56"/><line class="cls-1" x1="17.96" y1="2.88" x2="17.96" y2="4.56"/><line class="cls-1" x1="19.34" y1="2.88" x2="19.34" y2="4.56"/><line class="cls-1" x1="20.73" y1="2.88" x2="20.73" y2="4.56"/><rect class="cls-1" x="2.21" y="3.42" width="0.59" height="0.59"/><rect class="cls-1" x="0.5" y="8.26" width="22" height="6.43" rx="0.92" ry="0.92"/><line class="cls-1" x1="4.64" y1="11.48" x2="11.03" y2="11.48"/><line class="cls-1" x1="12.42" y1="10.64" x2="12.42" y2="12.32"/><line class="cls-1" x1="13.8" y1="10.64" x2="13.8" y2="12.32"/><line class="cls-1" x1="15.19" y1="10.64" x2="15.19" y2="12.32"/><line class="cls-1" x1="16.57" y1="10.64" x2="16.57" y2="12.32"/><line class="cls-1" x1="17.96" y1="10.64" x2="17.96" y2="12.32"/><line class="cls-1" x1="19.34" y1="10.64" x2="19.34" y2="12.32"/><line class="cls-1" x1="20.73" y1="10.64" x2="20.73" y2="12.32"/><rect class="cls-1" x="2.21" y="11.18" width="0.59" height="0.59"/></g></g></g></g></svg>