<svg xmlns="http://www.w3.org/2000/svg" viewBox="0 0 21.72 22.5"><defs><style>.cls-1,.cls-2{fill:none;stroke:#383838;stroke-miterlimit:10;}.cls-2{stroke-linecap:round;}</style></defs><title>Deploy</title><g id="Layer_2" data-name="Layer 2"><g id="Thunder_ADC" data-name="Thunder ADC"><g id="Row_3" data-name="Row 3"><g id="Deploy"><polyline class="cls-1" points="14.16 10.18 10.71 6.72 7.25 10.18"/><line class="cls-1" x1="10.71" y1="6.72" x2="10.71" y2="22.5"/><g id="device"><path class="cls-2" d="M5.44,6.25h-4A.92.92,0,0,1,.5,5.33V1.42A.92.92,0,0,1,1.42.5H20.3a.92.92,0,0,1,.92.92V5.33a.92.92,0,0,1-.92.92H16.14"/><line class="cls-1" x1="4.4" y1="3.38" x2="10.42" y2="3.38"/><line class="cls-1" x1="11.73" y1="2.58" x2="11.73" y2="4.17"/><line class="cls-1" x1="13.03" y1="2.58" x2="13.03" y2="4.17"/><line class="cls-1" x1="14.34" y1="2.58" x2="14.34" y2="4.17"/><line class="cls-1" x1="15.64" y1="2.58" x2="15.64" y2="4.17"/><line class="cls-1" x1="16.95" y1="2.58" x2="16.95" y2="4.17"/><line class="cls-1" x1="18.25" y1="2.58" x2="18.25" y2="4.17"/><line class="cls-1" x1="19.55" y1="2.58" x2="19.55" y2="4.17"/><rect class="cls-1" x="2.11" y="3.1" width="0.55" height="0.55"/></g></g></g></g></g></svg>