<svg xmlns="http://www.w3.org/2000/svg" viewBox="0 0 23 20.51"><defs><style>.cls-1,.cls-2,.cls-3{fill:none;stroke:#383838;stroke-miterlimit:10;}.cls-1{stroke-width:0.66px;}.cls-2{stroke-linecap:round;}</style></defs><title>Deploy (2)</title><g id="Layer_2" data-name="Layer 2"><g id="Thunder_ADC" data-name="Thunder ADC"><g id="Row_3" data-name="Row 3"><g id="Deploy"><polyline class="cls-1" points="11.59 11.92 9.18 9.51 6.77 11.92"/><line class="cls-1" x1="9.18" y1="9.51" x2="9.18" y2="20.51"/><path class="cls-2" d="M5,9.9H1.29A.79.79,0,0,1,.5,9.11V5.77A.78.78,0,0,1,1.29,5H17.41a.78.78,0,0,1,.79.78V9.11a.79.79,0,0,1-.79.79h-4.3"/><line class="cls-3" x1="3.83" y1="7.44" x2="8.97" y2="7.44"/><line class="cls-3" x1="10.09" y1="6.77" x2="10.09" y2="8.12"/><line class="cls-3" x1="11.2" y1="6.77" x2="11.2" y2="8.12"/><line class="cls-3" x1="12.32" y1="6.77" x2="12.32" y2="8.12"/><line class="cls-3" x1="13.43" y1="6.77" x2="13.43" y2="8.12"/><line class="cls-3" x1="14.54" y1="6.77" x2="14.54" y2="8.12"/><line class="cls-3" x1="15.66" y1="6.77" x2="15.66" y2="8.12"/><line class="cls-3" x1="16.77" y1="6.77" x2="16.77" y2="8.12"/><rect class="cls-3" x="1.88" y="7.21" width="0.47" height="0.47"/><path class="cls-3" d="M2.72,4.86V3.1a.4.4,0,0,1,.4-.4H19.9a.4.4,0,0,1,.4.4V7.44a.4.4,0,0,1-.4.4H18.18"/><path class="cls-3" d="M4.92,2.66V.9a.4.4,0,0,1,.4-.4H22.1a.4.4,0,0,1,.4.4V5.24a.4.4,0,0,1-.4.4H20.38"/></g></g></g></g></svg>