<svg xmlns="http://www.w3.org/2000/svg" viewBox="0 0 22.64 21.66"><defs><style>.cls-1{fill:none;stroke:#383838;stroke-miterlimit:10;}</style></defs><title>Monitor 1</title><g id="Layer_2" data-name="Layer 2"><g id="Thunder_ADC" data-name="Thunder ADC"><g id="Row_4" data-name="Row 4"><g id="Monitor_1" data-name="Monitor 1"><path class="cls-1" d="M8.3,11.32a3,3,0,0,1,6,0"/><path class="cls-1" d="M.5,11.32V10a.39.39,0,0,1,.39-.4H3.24A8.11,8.11,0,0,1,4.4,6.81L2.74,5.15a.39.39,0,0,1,0-.55L4.6,2.74a.39.39,0,0,1,.55,0L6.81,4.4a8.23,8.23,0,0,1,2.8-1.16V.89A.4.4,0,0,1,10,.5h2.63A.39.39,0,0,1,13,.89V3.24A8.28,8.28,0,0,1,15.83,4.4l1.66-1.66a.39.39,0,0,1,.55,0L19.9,4.6a.39.39,0,0,1,0,.55L18.24,6.81a8.17,8.17,0,0,1,1.15,2.8h2.36a.4.4,0,0,1,.39.4v1.31"/><line class="cls-1" x1="0.19" y1="14.02" x2="14.26" y2="14.02"/><line class="cls-1" x1="18.95" y1="14.02" x2="22.19" y2="14.02"/><circle class="cls-1" cx="16.79" cy="14.02" r="1.08"/><line class="cls-1" x1="22.19" y1="17.2" x2="8.13" y2="17.2"/><line class="cls-1" x1="3.44" y1="17.2" x2="0.19" y2="17.2"/><circle class="cls-1" cx="5.6" cy="17.2" r="1.08"/><line class="cls-1" x1="22.19" y1="20.08" x2="13.18" y2="20.08"/><line class="cls-1" x1="8.49" y1="20.08" x2="0.19" y2="20.08"/><circle class="cls-1" cx="11.01" cy="20.08" r="1.08"/></g></g></g></g></svg>