<svg xmlns="http://www.w3.org/2000/svg" viewBox="0 0 22.69 22.59"><defs><style>.cls-1{fill:none;stroke:#383838;stroke-linecap:round;stroke-linejoin:round;}.cls-2{fill:#383838;}</style></defs><title>Recycle</title><g id="Layer_2" data-name="Layer 2"><g id="Thunder_ADC" data-name="Thunder ADC"><g id="Row_4" data-name="Row 4"><g id="Recycle"><path class="cls-1" d="M10.36,18.5H2.5a.83.83,0,0,1-.72-1.25l3.44-5.57"/><polygon class="cls-2" points="6.96 16.64 5.98 16.84 5.02 12 0.27 13.32 0 12.35 5.79 10.75 6.96 16.64"/><path class="cls-1" d="M19.11,11.44l3,5.81c.32.56-.08,1.25-1.41,1.25H14"/><polygon class="cls-2" points="17.33 14.41 18.01 15.14 14.4 18.5 18.01 21.86 17.33 22.59 12.93 18.5 17.33 14.41"/><path class="cls-1" d="M6.58,8.64,11.22.92a.83.83,0,0,1,1.44,0l4.77,7.53"/><polygon class="cls-2" points="12.2 7.84 12.45 6.87 17.22 8.13 18.12 3.28 19.11 3.46 18 9.37 12.2 7.84"/></g></g></g></g></svg>