<svg xmlns="http://www.w3.org/2000/svg" viewBox="0 0 22 22"><defs><style>.cls-1,.cls-2{fill:none;stroke:#383838;stroke-miterlimit:10;}.cls-2{stroke-dasharray:1 3;}</style></defs><title>Server group</title><g id="Layer_2" data-name="Layer 2"><g id="Thunder_ADC" data-name="Thunder ADC"><g id="Row_2" data-name="Row 2"><g id="Server_group" data-name="Server group"><rect class="cls-1" x="2.36" y="11.05" width="15.64" height="4.34" rx="0.69" ry="0.69"/><line class="cls-1" x1="5.3" y1="13.22" x2="9.85" y2="13.22"/><line class="cls-1" x1="10.83" y1="12.63" x2="10.83" y2="13.82"/><line class="cls-1" x1="11.82" y1="12.63" x2="11.82" y2="13.82"/><line class="cls-1" x1="12.8" y1="12.63" x2="12.8" y2="13.82"/><line class="cls-1" x1="13.79" y1="12.63" x2="13.79" y2="13.82"/><line class="cls-1" x1="14.77" y1="12.63" x2="14.77" y2="13.82"/><line class="cls-1" x1="15.76" y1="12.63" x2="15.76" y2="13.82"/><line class="cls-1" x1="16.74" y1="12.63" x2="16.74" y2="13.82"/><rect class="cls-1" x="3.58" y="13.02" width="0.42" height="0.42"/><line class="cls-1" x1="12.79" y1="8.98" x2="12.79" y2="10.18"/><line class="cls-1" x1="13.77" y1="8.98" x2="13.77" y2="10.18"/><line class="cls-1" x1="14.76" y1="8.98" x2="14.76" y2="10.18"/><line class="cls-1" x1="15.74" y1="8.98" x2="15.74" y2="10.18"/><line class="cls-1" x1="16.72" y1="8.98" x2="16.72" y2="10.18"/><line class="cls-1" x1="17.71" y1="8.98" x2="17.71" y2="10.18"/><line class="cls-1" x1="18.69" y1="8.98" x2="18.69" y2="10.18"/><rect class="cls-1" x="5.53" y="9.37" width="0.42" height="0.42"/><path class="cls-1" d="M4.32,10.94v-3a.36.36,0,0,1,.36-.36H19.5a.36.36,0,0,1,.36.36v3.83a.36.36,0,0,1-.36.36H18"/><g id="v_Port" data-name="v Port"><rect class="cls-2" x="0.5" y="0.5" width="21" height="21" rx="0.88" ry="0.88"/></g></g></g></g></g></svg>