<svg xmlns="http://www.w3.org/2000/svg" viewBox="0 0 22.18 21.71"><defs><style>.cls-1{fill:none;stroke:#383838;stroke-miterlimit:10;}</style></defs><title>Settings 1</title><g id="Layer_2" data-name="Layer 2"><g id="Thunder_ADC" data-name="Thunder ADC"><g id="Row_1" data-name="Row 1"><g id="Settings_1" data-name="Settings 1"><path class="cls-1" d="M21.63,6.51,21,4.08,18.62,6.43a.91.91,0,0,1-1.29,0L15.75,4.86a.92.92,0,0,1,0-1.3l2.36-2.35L15.68.56,12.24,4l.5,1.85L12.59,6,1.76,16.8a2.56,2.56,0,0,0,3.62,3.62L16.21,9.59l.13-.14,1.85.49Z"/><circle class="cls-1" cx="3.62" cy="18.56" r="1.27"/><polyline class="cls-1" points="9.1 7.92 5.82 4.64 5.21 3.03 1.39 0.79 0.63 1.55 2.87 5.37 4.47 5.99 7.75 9.27"/><path class="cls-1" d="M15.86,12l4.35,4.34a2.87,2.87,0,0,1,0,4h0a2.86,2.86,0,0,1-4.05,0L11.82,16"/><line class="cls-1" x1="14.52" y1="13.33" x2="19.01" y2="17.83"/><line class="cls-1" x1="13.17" y1="14.68" x2="17.66" y2="19.18"/></g></g></g></g></svg>