<svg xmlns="http://www.w3.org/2000/svg" viewBox="0 0 23 23"><defs><style>.cls-1{fill:none;stroke:#383838;stroke-miterlimit:10;}</style></defs><title>Settings 2</title><g id="Layer_2" data-name="Layer 2"><g id="Thunder_ADC" data-name="Thunder ADC"><g id="Row_1" data-name="Row 1"><g id="Settings_2" data-name="Settings 2"><path class="cls-1" d="M11.5,14.57a3.07,3.07,0,1,1,3.07-3.07A3.08,3.08,0,0,1,11.5,14.57Z"/><path class="cls-1" d="M12.83,22.5H10.16a.39.39,0,0,1-.39-.4V19.71a8.42,8.42,0,0,1-2.85-1.17L5.23,20.22a.39.39,0,0,1-.56,0L2.78,18.34a.4.4,0,0,1,0-.57l1.69-1.68a8.18,8.18,0,0,1-1.18-2.86H.9a.39.39,0,0,1-.4-.39V10.17a.4.4,0,0,1,.4-.4H3.29A8.22,8.22,0,0,1,4.46,6.92L2.78,5.23a.39.39,0,0,1,0-.56L4.66,2.78a.4.4,0,0,1,.57,0L6.91,4.46A8.35,8.35,0,0,1,9.77,3.29V.9a.39.39,0,0,1,.39-.4h2.67a.4.4,0,0,1,.4.4V3.29a8.05,8.05,0,0,1,2.85,1.18l1.69-1.69a.4.4,0,0,1,.57,0l1.88,1.89a.39.39,0,0,1,0,.56L18.54,6.92a8.5,8.5,0,0,1,1.17,2.85H22.1a.4.4,0,0,1,.4.4v2.67a.39.39,0,0,1-.4.39H19.71a8.32,8.32,0,0,1-1.18,2.85l1.69,1.69a.4.4,0,0,1,0,.57l-1.89,1.88a.4.4,0,0,1-.56,0l-1.69-1.69a8.24,8.24,0,0,1-2.85,1.18V22.1A.4.4,0,0,1,12.83,22.5Z"/></g></g></g></g></svg>