<svg xmlns="http://www.w3.org/2000/svg" viewBox="0 0 21.96 21.68"><defs><style>.cls-1{fill:none;stroke:#383838;stroke-miterlimit:10;stroke-width:0.96px;}</style></defs><title>Shared Object 2</title><g id="Layer_2" data-name="Layer 2"><g id="Thunder_ADC" data-name="Thunder ADC"><g id="Row_1" data-name="Row 1"><g id="Shared_Object_2" data-name="Shared Object 2"><polygon class="cls-1" points="11.01 0.55 6.29 3.28 6.29 8.74 10.92 11.44 15.74 8.74 15.74 3.28 11.01 0.55"/><polyline class="cls-1" points="6.29 3.39 10.92 6.17 15.74 3.39"/><line class="cls-1" x1="10.92" y1="6.17" x2="10.92" y2="11.44"/><g id="_hand_" data-name="&lt;hand&gt;"><rect class="cls-1" x="0.48" y="11.43" width="3.66" height="9.77" rx="0.33" ry="0.33"/><path class="cls-1" d="M15.55,14.14s1.58-.6,2.69-1,1.45-.34,1.89-.11a2.63,2.63,0,0,1,1.11,1.11c.33.55.33,1.11-.11,1.33s-6.55,3-9,4.11-3,.55-4.22,0A5.59,5.59,0,0,0,5.81,19l-1.67-.07v-6A6.79,6.79,0,0,1,6.7,13C8,13.32,8.36,14.1,9.53,14.1s1.61-.45,4.27-1A2.64,2.64,0,0,1,16,15.21l-5.3,2.13"/><circle class="cls-1" cx="2.2" cy="18.48" r="0.61"/></g></g></g></g></g></svg>