<svg xmlns="http://www.w3.org/2000/svg" viewBox="0 0 21.27 22.92"><defs><style>.cls-1,.cls-2,.cls-3{fill:none;stroke:#383838;stroke-miterlimit:10;}.cls-1{stroke-width:0.93px;stroke-dasharray:3.79 1.89;}.cls-2,.cls-3{stroke-width:0.92px;}.cls-3{stroke-dasharray:1.55;}</style></defs><title>Virtual Servers</title><g id="Layer_2" data-name="Layer 2"><g id="Thunder_ADC" data-name="Thunder ADC"><g id="Row_2" data-name="Row 2"><g id="Virtual_Servers" data-name="Virtual Servers"><rect class="cls-1" x="0.46" y="0.46" width="20.35" height="5.95" rx="0.85" ry="0.85"/><line class="cls-2" x1="4.29" y1="3.44" x2="6.14" y2="3.44"/><line class="cls-2" x1="8.36" y1="3.44" x2="10.21" y2="3.44"/><line class="cls-3" x1="11.49" y1="2.66" x2="11.49" y2="4.21"/><line class="cls-3" x1="12.77" y1="2.66" x2="12.77" y2="4.21"/><line class="cls-3" x1="14.05" y1="2.66" x2="14.05" y2="4.21"/><line class="cls-3" x1="15.33" y1="2.66" x2="15.33" y2="4.21"/><line class="cls-3" x1="16.61" y1="2.66" x2="16.61" y2="4.21"/><line class="cls-3" x1="17.89" y1="2.66" x2="17.89" y2="4.21"/><line class="cls-3" x1="19.17" y1="2.66" x2="19.17" y2="4.21"/><rect class="cls-2" x="2.05" y="3.17" width="0.54" height="0.54"/><rect class="cls-1" x="0.46" y="8.49" width="20.35" height="5.95" rx="0.85" ry="0.85"/><line class="cls-2" x1="4.29" y1="11.46" x2="6.14" y2="11.46"/><line class="cls-2" x1="8.36" y1="11.46" x2="10.21" y2="11.46"/><line class="cls-3" x1="11.49" y1="10.69" x2="11.49" y2="12.24"/><line class="cls-3" x1="12.77" y1="10.69" x2="12.77" y2="12.24"/><line class="cls-3" x1="14.05" y1="10.69" x2="14.05" y2="12.24"/><line class="cls-3" x1="15.33" y1="10.69" x2="15.33" y2="12.24"/><line class="cls-3" x1="16.61" y1="10.69" x2="16.61" y2="12.24"/><line class="cls-3" x1="17.89" y1="10.69" x2="17.89" y2="12.24"/><line class="cls-3" x1="19.17" y1="10.69" x2="19.17" y2="12.24"/><rect class="cls-2" x="2.05" y="11.19" width="0.54" height="0.54"/><rect class="cls-1" x="0.46" y="16.51" width="20.35" height="5.95" rx="0.85" ry="0.85"/><line class="cls-2" x1="4.29" y1="19.49" x2="6.14" y2="19.49"/><line class="cls-2" x1="8.36" y1="19.49" x2="10.21" y2="19.49"/><line class="cls-3" x1="11.49" y1="18.71" x2="11.49" y2="20.26"/><line class="cls-3" x1="12.77" y1="18.71" x2="12.77" y2="20.26"/><line class="cls-3" x1="14.05" y1="18.71" x2="14.05" y2="20.26"/><line class="cls-3" x1="15.33" y1="18.71" x2="15.33" y2="20.26"/><line class="cls-3" x1="16.61" y1="18.71" x2="16.61" y2="20.26"/><line class="cls-3" x1="17.89" y1="18.71" x2="17.89" y2="20.26"/><line class="cls-3" x1="19.17" y1="18.71" x2="19.17" y2="20.26"/><rect class="cls-2" x="2.05" y="19.22" width="0.54" height="0.54"/></g></g></g></g></svg>