<svg xmlns="http://www.w3.org/2000/svg" viewBox="0 0 22 20.88"><defs><style>.cls-1,.cls-2,.cls-3,.cls-4,.cls-5{fill:none;stroke:#fff;}.cls-1,.cls-3,.cls-4,.cls-5{stroke-miterlimit:10;}.cls-2{stroke-linejoin:round;}.cls-3{stroke-dasharray:1.92 2.88;}.cls-4{stroke-dasharray:1.96 2.94;}.cls-5{stroke-dasharray:1.74;}</style></defs><title>Logical Cluster 2</title><g id="Layer_2" data-name="Layer 2"><g id="Thunder_ADC" data-name="Thunder ADC"><g id="Row_2" data-name="Row 2"><g id="Logical_Cluster_2" data-name="Logical Cluster 2"><line class="cls-1" x1="11.66" y1="14.24" x2="11.66" y2="15.24"/><line class="cls-1" x1="11.66" y1="16.37" x2="11.66" y2="17.37"/><line class="cls-2" x1="3.66" y1="19.05" x2="8.43" y2="19.05"/><line class="cls-2" x1="19.56" y1="19.05" x2="14.82" y2="19.05"/><circle class="cls-1" cx="11.59" cy="19.05" r="1.34"/><line class="cls-1" x1="0.5" y1="9.71" x2="0.5" y2="8.71"/><path class="cls-3" d="M.5,5.83V5.05C.5,3.3,5.2.5,11,.5s10.5,2,10.5,4.55V7.27"/><line class="cls-1" x1="21.5" y1="8.71" x2="21.5" y2="9.71"/><path class="cls-1" d="M21.5,9.6a2.19,2.19,0,0,1-.23,1"/><path class="cls-4" d="M19.11,12.49A18.24,18.24,0,0,1,11,14.15c-4.06,0-7.59-1-9.33-2.46"/><path class="cls-1" d="M.73,10.56a2.19,2.19,0,0,1-.23-1"/><path class="cls-1" d="M21.5,5.05a2.19,2.19,0,0,1-.23,1"/><path class="cls-4" d="M19.11,7.94A18.24,18.24,0,0,1,11,9.6c-4.06,0-7.59-1-9.33-2.46"/><path class="cls-1" d="M.73,6a2.19,2.19,0,0,1-.23-1"/><path class="cls-5" d="M3.41,10.47A8.57,8.57,0,0,1,1.9,9.6"/></g></g></g></g></svg>