<svg xmlns="http://www.w3.org/2000/svg" viewBox="0 0 23 22.04"><defs><style>.cls-1{fill:none;}.cls-1,.cls-2{stroke:#fff;stroke-miterlimit:10;}.cls-2{fill:#383838;}</style></defs><title>Support</title><g id="Layer_2" data-name="Layer 2"><g id="Thunder_ADC" data-name="Thunder ADC"><g id="Row_1" data-name="Row 1"><g id="Support"><path class="cls-1" d="M1.42.5H21.58a.92.92,0,0,1,.92.92V15.59a.92.92,0,0,1-.92.92H17.72v4.4l-4.84-4.4H1.42a.92.92,0,0,1-.92-.92V1.42A.92.92,0,0,1,1.42.5Z"/><path class="cls-2" d="M11,10.19a2.85,2.85,0,0,1,.11-.94,2.25,2.25,0,0,1,.59-.7,7.46,7.46,0,0,0,.81-1,1.78,1.78,0,0,0,.26-1,1.42,1.42,0,0,0-.35-1,1.35,1.35,0,0,0-1-.36,1.33,1.33,0,0,0-1,.36,1.23,1.23,0,0,0-.38.95H9.46v0A1.65,1.65,0,0,1,10,5.15a2.08,2.08,0,0,1,1.41-.49,2,2,0,0,1,1.44.52,1.9,1.9,0,0,1,.52,1.41A2.23,2.23,0,0,1,13,7.82a5.92,5.92,0,0,1-1,1.13,1.2,1.2,0,0,0-.39.51,3.12,3.12,0,0,0-.07.73Zm.69,2.08H11v-.79h.71Z"/></g></g></g></g></svg>