<svg xmlns="http://www.w3.org/2000/svg" width="68" height="37" viewBox="0 0 68 37">
    <g fill="none" fill-rule="nonzero">
        <path fill="#F6B221" d="M64.349 28.333c-.437-3.327-11.333-5.788-24.383-5.496-9.876.226-18.109 1.967-21.347 4.242a4.404 4.404 0 0 0-.283 1.165c1.797-2.428 10.321-4.476 20.82-4.711 12.079-.267 22.19 1.91 22.578 4.857.389 2.947-9.115 5.61-21.169 5.853-6.97.154-13.284-.502-17.453-1.62h-1.749c4.42 1.571 11.884 2.51 20.238 2.324 13.034-.291 23.234-3.238 22.797-6.549"/>
        <path fill="#FFF" d="M22.667 31.571h12.952c-.98-1.619-1.708-2.566-2.315-3.748-1.4-2.728-7.618-15.68-9.496-20.537h-12.07l1.174 1.424c-3.238 6.145-6.59 12.548-10.046 18.773-.737 1.336-1.627 2.47-2.688 4.088h7.44c-.446-1.619-.688-1.716-.527-2.428a13.325 13.325 0 0 1 2.162-4.857h11.665a15.284 15.284 0 0 1 1.749 3.578c.236.633.292 1.32.162 1.983a13.891 13.891 0 0 0-.462 1.538M15.43 13.058l3.699 7.601v.381h-7.796c.113-.18.195-.377.243-.583 1.328-2.429 2.494-5.027 3.813-7.407M58.836 12.952a3.74 3.74 0 0 0-3.602-2.428h-7.52a3.748 3.748 0 0 0-3.603 2.428c-.931 2.583-.623 14.572 0 15.778.623 1.206 1.287 2.841 3.554 2.841h7.61c2.266 0 2.938-1.619 3.561-2.825.624-1.206.931-13.195 0-15.777v-.017zm-5.407 13.52a.89.89 0 0 1-.899 1.052h-2.113c-.631 0-1.846-.43-1.846-1.053V15.324c0-.623 1.215-1.562 1.846-1.562h2.113c.623 0 .899.939.899 1.562v11.147zM42.095 29.726c-.076.397.031.807.292 1.117H35.91c.239-.291.36-.66.34-1.036v-11.99H34v-3.86l6.363-3.433h1.732v19.202z"/>
        <path fill="#F6B221" d="M67.757 2.898C66-1.538 53.242.915 39.254 8.378a89.299 89.299 0 0 0-10.985 6.89l.38.728a86.846 86.846 0 0 1 9.998-6.209C51.607 2.866 63.386.453 64.948 4.396c1.562 3.942-7.674 12.75-20.643 19.663-12.968 6.913-24.739 9.172-26.31 5.23-.412-1.045-.064-2.575.907-4.194h-.85c-1.044 1.62-1.4 3.481-.93 4.663 1.756 4.436 14.522 2.064 28.503-5.4 13.98-7.463 23.889-17.016 22.132-21.46"/>
        <path fill="#FFF" d="M61.378 33.19a1.546 1.546 0 0 1 1.62 1.539 1.619 1.619 0 1 1-1.62-1.539zm0 0a1.344 1.344 0 0 0-1.214 1.385 1.23 1.23 0 1 0 2.428 0 1.311 1.311 0 0 0-1.222-1.385h.008zm-.664 2.429v-1.692c.206-.037.415-.053.624-.048a.874.874 0 0 1 .55.121.364.364 0 0 1 .065.34 1.085 1.085 0 0 1-.43.38c.158.122.29.274.39.446a.81.81 0 0 0 .226.437h-.389a1.57 1.57 0 0 1-.129-.478.348.348 0 0 0-.324-.332h-.583V35.62zm.413-1.036h.178c.203 0 .365-.065.365-.235 0-.17-.106-.243-.34-.243a.858.858 0 0 0-.203 0V34.583z"/>
    </g>
</svg>
