<svg xmlns="http://www.w3.org/2000/svg" width="18" height="18" viewBox="0 0 18 18">
    <g fill="#757575" fill-rule="nonzero">
        <path d="M17.25 18H3c-1.65 0-3-1.35-3-3V.75C0 .3.3 0 .75 0s.75.3.75.75V15c0 .825.675 1.5 1.5 1.5h14.25c.45 0 .75.3.75.75s-.3.75-.75.75z"/>
        <path d="M3.75 15c-.45 0-.75-.3-.75-.75V10.5c0-.45.3-.75.75-.75s.75.3.75.75v3.75c0 .45-.3.75-.75.75zM6.75 15c-.45 0-.75-.3-.75-.75V7.5c0-.45.3-.75.75-.75s.75.3.75.75v6.75c0 .45-.3.75-.75.75zM9.75 15c-.45 0-.75-.3-.75-.75V9c0-.45.3-.75.75-.75s.75.3.75.75v5.25c0 .45-.3.75-.75.75zM12.75 15c-.45 0-.75-.3-.75-.75v-9c0-.45.3-.75.75-.75s.75.3.75.75v9c0 .45-.3.75-.75.75zM15.75 15c-.45 0-.75-.3-.75-.75v-4.5c0-.45.3-.75.75-.75s.75.3.75.75v4.5c0 .45-.3.75-.75.75z"/>
    </g>
</svg>
