<svg xmlns="http://www.w3.org/2000/svg" width="174" height="32" viewBox="0 0 174 32">
    <g fill="none" fill-rule="evenodd" stroke="#FFF" stroke-width="2">
        <path d="M1 29.6l3.175-3.572 2.158-.22 2.586-7.104 3.597-.45h1.836L17.03 16l1.913 1.014 2.142 1.69 2.602-.45 1.883 9.803 4.19-2.7V29.6M30 30l3.202-3.677 2.175-.227 2.608-7.312 3.626-.464h1.852l2.7-2.32 1.93 1.044 2.16 1.74 2.623-.464 1.899 10.092L59 25.632V30M59 30l3.202-3.677 2.175-.227 2.608-7.312 3.626-.464h1.852l2.7-2.32 1.93 1.044 2.16 1.74 2.623-.464 1.899 10.092L88 25.632V30"/>
        <path d="M87 30l3.202-3.677 2.175-.227 2.608-7.312 3.626-.464h1.852l2.7-2.32 1.93 1.044 2.16 1.74 2.623-.464 1.899 10.092 4.225-2.78V30M145 30.5l3.202-3.677 2.175-.227L154.5 9v21.5H174"/>
        <path d="M116 30l3.202-3.42 2.175-.21 2.608-6.8 2.709-6.985 2.537-5.293 3.263 5.293L136.253 6v10.954l2.403-.8 2.119 12.37L145 25.937V30"/>
    </g>
</svg>
