<svg xmlns="http://www.w3.org/2000/svg" width="109" height="20" viewBox="0 0 109 20">
    <g fill="#DBD9EE" fill-opacity=".457" fill-rule="evenodd" stroke="#887CC6" stroke-width="2">
        <path d="M1 19l3.974-2.364 2.701-.146 3.238-4.7 4.501-.299h2.299L21.065 10l2.394.671 2.682 1.118 3.257-.298 2.357 6.488L37 16.192V19M72 19l3.974-2.364 2.701-.146 3.238-4.7 4.501-.299h2.299L92.065 10l2.394.671 2.682 1.118 3.257-.298 2.357 6.488L108 16.192V19"/>
        <path d="M36 19l3.974-2.28 2.701-.14 3.238-4.534 3.362-4.656 3.15-3.528 4.05 3.528L61.141 3v7.303l2.984-.534 2.63 8.246L72 16.292V19"/>
    </g>
</svg>
