<svg xmlns="http://www.w3.org/2000/svg" width="32" height="32" viewBox="0 0 32 32">
    <g fill="#FFF" fill-rule="nonzero">
        <path d="M11.233 25.667H21.633V17H7.767v8.667h3.466zm7.8-7.8h1.734V24.8h-1.734v-6.933zm-2.6 0h1.734V24.8h-1.734v-6.933zm-2.6 0h1.734V24.8h-1.734v-6.933zm-2.6 0h1.734V24.8h-1.734v-6.933zm-2.6 6.933v-6.933h1.734V24.8H8.633zM24.233 20.467c.956 0 1.734-.778 1.734-1.734S25.189 17 24.233 17s-1.733.777-1.733 1.733c0 .956.777 1.734 1.733 1.734zm0-2.6a.868.868 0 1 1-.001 1.735.868.868 0 0 1 .001-1.735zM5.167 26.1c.24 0 .433-.194.433-.433V17a.433.433 0 1 0-.867 0v8.667c0 .24.194.433.434.433zM27.267 26.1c.24 0 .433-.194.433-.433V17a.433.433 0 1 0-.867 0v8.667c0 .24.194.433.434.433zM25.1 21.767h-1.733a.433.433 0 1 0 0 .866H25.1a.433.433 0 1 0 0-.866zM25.1 23.067h-1.733a.433.433 0 1 0 0 .866H25.1a.433.433 0 1 0 0-.866zM25.1 24.367h-1.733a.433.433 0 1 0 0 .866H25.1a.433.433 0 1 0 0-.866z"/>
        <path d="M3 4v23.4h26V4H3zm25.133 22.533H3.867v-10.4h24.266v10.4zM3.867 15.267v-10.4h24.266v10.4H3.867z"/>
        <path d="M18.167 5.733H7.767V14.4h13.866V5.733h-3.466zm-7.8 7.8H8.633V6.6h1.734v6.933zm2.6 0h-1.734V6.6h1.734v6.933zm2.6 0h-1.734V6.6h1.734v6.933zm2.6 0h-1.734V6.6h1.734v6.933zm2.6-6.933v6.933h-1.734V6.6h1.734zM24.233 5.733c-.956 0-1.733.778-1.733 1.734S23.277 9.2 24.233 9.2c.956 0 1.734-.777 1.734-1.733 0-.956-.778-1.734-1.734-1.734zm0 2.6a.868.868 0 1 1 .002-1.735.868.868 0 0 1-.002 1.735zM5.167 5.3a.433.433 0 0 0-.434.433V14.4a.433.433 0 1 0 .867 0V5.733a.433.433 0 0 0-.433-.433zM27.267 5.3a.433.433 0 0 0-.434.433V14.4a.433.433 0 1 0 .867 0V5.733a.433.433 0 0 0-.433-.433zM25.1 10.5h-1.733a.433.433 0 1 0 0 .867H25.1a.433.433 0 1 0 0-.867zM25.1 11.8h-1.733a.433.433 0 1 0 0 .867H25.1a.433.433 0 1 0 0-.867zM25.1 13.1h-1.733a.433.433 0 1 0 0 .867H25.1a.433.433 0 1 0 0-.867z"/>
    </g>
</svg>
