<svg xmlns="http://www.w3.org/2000/svg" width="16" height="16" viewBox="0 0 16 16">
    <g fill="#757575" fill-rule="nonzero">
        <path d="M10.501 15.877l3.196-1.862a.649.649 0 0 0 .234-.887l-.87-1.493a5.878 5.878 0 0 0 .667-1.164l1.728-.006a.649.649 0 0 0 .646-.652l-.013-3.698a.649.649 0 0 0-.65-.647h-.002l-1.73.007a6.161 6.161 0 0 0-.674-1.156l.86-1.503a.649.649 0 0 0-.241-.885L10.442.094a.65.65 0 0 0-.885.241l-.86 1.502a6.2 6.2 0 0 0-1.339.005L6.488.346A.65.65 0 0 0 5.6.112L2.405 1.974a.649.649 0 0 0-.234.887l.87 1.493a5.892 5.892 0 0 0-.666 1.164l-1.729.006A.649.649 0 0 0 0 6.175l.014 3.699a.649.649 0 0 0 .648.646h.003l1.73-.006c.182.408.407.795.675 1.156l-.86 1.503a.65.65 0 0 0 .24.885l3.21 1.837a.646.646 0 0 0 .885-.241l.86-1.502a6.17 6.17 0 0 0 1.339-.005l.87 1.496a.65.65 0 0 0 .887.234zm-.858-2.763a.65.65 0 0 0-.682-.31 4.897 4.897 0 0 1-1.785.005.649.649 0 0 0-.679.316l-.756 1.322-2.083-1.193.756-1.321a.649.649 0 0 0-.07-.746 4.867 4.867 0 0 1-.9-1.542.649.649 0 0 0-.611-.43H2.83L1.31 9.22l-.01-2.4 1.522-.006a.649.649 0 0 0 .61-.435c.104-.298.225-.566.37-.818.144-.251.313-.491.517-.732a.649.649 0 0 0 .066-.746L3.618 2.77l2.075-1.21.765 1.315a.648.648 0 0 0 .682.311 4.927 4.927 0 0 1 1.786-.005c.27.05.542-.077.679-.316l.756-1.321 2.083 1.192-.756 1.321a.649.649 0 0 0 .071.746c.395.458.698.977.9 1.543.093.258.337.43.611.43h.003l1.52-.006.01 2.4-1.521.006a.649.649 0 0 0-.61.434c-.106.3-.227.569-.37.819s-.313.49-.519.733a.649.649 0 0 0-.065.746l.766 1.314-2.075 1.208-.766-1.315z"/>
        <path d="M11.096 9.737c.466-.813.587-1.76.34-2.663a3.51 3.51 0 0 0-6.431-.822 3.513 3.513 0 0 0 3.043 5.252 3.519 3.519 0 0 0 3.048-1.767zM9.97 9.093a2.21 2.21 0 1 1 .215-1.679c.155.57.079 1.166-.215 1.679z"/>
    </g>
</svg>
