<svg xmlns="http://www.w3.org/2000/svg" width="43" height="43" viewBox="0 0 43 43">
    <g fill="none" fill-rule="evenodd" stroke="#2C2C2C" stroke-width="1.5">
        <path d="M40.292 13H2.708A1.69 1.69 0 0 1 1 11.295v-8.59A1.69 1.69 0 0 1 2.708 1h37.584C41.248 1 42 1.75 42 2.705v8.522C42 12.25 41.248 13 40.292 13zM9 8h12M23 6v3M26 6v3M29 6v3M31 6v3M34 6v3M36 6v3M39 6v3"/>
        <path d="M4 7h1v1H4zM40.292 28H2.708A1.695 1.695 0 0 1 1 26.286v-8.572C1 16.754 1.752 16 2.708 16h37.584c.956 0 1.708.754 1.708 1.714v8.572c0 .96-.752 1.714-1.708 1.714zM9 22h12M23 20v3M26 20v3M29 20v3M31 20v3M34 20v3M36 20v3M39 20v3"/>
        <path d="M4 21h1v1H4zM40.292 42H2.708A1.695 1.695 0 0 1 1 40.286v-8.572C1 30.754 1.752 30 2.708 30h37.584c.956 0 1.708.754 1.708 1.714v8.572c0 .96-.752 1.714-1.708 1.714zM9 36h12M23 35v3M26 35v3M29 35v3M31 35v3M34 35v3M36 35v3M39 35v3"/>
        <path d="M4 36h1v1H4z"/>
    </g>
</svg>
