<svg xmlns="http://www.w3.org/2000/svg" width="34" height="46" viewBox="0 0 34 46">
    <g fill="none" fill-rule="evenodd" stroke="#2C2C2C" stroke-width="1.25">
        <path d="M15.503 1c-4.146 0-7.756 3.696-7.489 7.393.267 3.696 1.07 7.657 1.07 7.657A6.646 6.646 0 0 0 15.503 21a6.646 6.646 0 0 0 6.42-4.95s.802-3.895 1.069-7.657C23.192 4.696 19.582 1 15.503 1zM26 27.696c-1.337-.882-2.874-1.492-4.545-1.628-1.337 1.628-3.41 2.646-5.682 2.646-2.273 0-4.345-1.018-5.682-2.714C5.01 26.271 1 30.546 1 35.704v7.6C1 44.254 1.735 45 2.671 45h15.842"/>
        <g stroke-linecap="round">
            <path d="M25.969 44.893c-3.633 0-6.605-2.948-6.605-6.552 0-3.604 2.972-6.552 6.605-6.552 3.632 0 6.604 2.948 6.604 6.552 0 3.626-2.972 6.552-6.604 6.552z"/>
            <path d="M25.969 44.893c-2.466 0-3.743-3.298-3.743-6.552 0-3.254 1.299-6.552 3.743-6.552 2.465 0 3.742 3.298 3.742 6.552 0 3.276-1.277 6.552-3.742 6.552z"/>
            <path d="M20.487 34.694c.022 0 2.201.546 5.482.546 3.302 0 5.46-.546 5.482-.546M31.45 41.989c-.022 0-2.091-.547-5.393-.547-3.303 0-5.57.547-5.592.547M19.364 38.45h13.21M26.596 31.614v13.323"/>
        </g>
    </g>
</svg>
