<svg xmlns="http://www.w3.org/2000/svg" width="32" height="32" viewBox="0 0 32 32">
    <g fill="#FFF" fill-rule="nonzero">
        <path d="M18.862 14.933c-.198-1.116-1.099-2.037-2.191-2.242a2.727 2.727 0 0 0-2.916 1.37c-.065.115-.19.188-.36.188h-.002v-3.616c0-1.108-.884-2.01-1.97-2.01H7.879c0-.15.085-.31.2-.378a2.832 2.832 0 0 0 1.376-2.434c0-.835-.36-1.623-.99-2.158a2.734 2.734 0 0 0-2.277-.607c-1.094.201-1.999 1.12-2.2 2.235-.216 1.204.31 2.371 1.344 2.974.105.061.184.22.184.369H1.97c-1.086 0-1.97.9-1.97 2.009v9.643c0 1.108.884 2.008 1.97 2.008h3.545c.434 0 .788-.36.788-.837 0-.427-.223-.824-.582-1.032-.738-.431-1.115-1.268-.959-2.131.143-.794.787-1.447 1.564-1.59a1.925 1.925 0 0 1 1.633.432c.45.384.707.945.707 1.542 0 .715-.377 1.381-.985 1.74a1.23 1.23 0 0 0-.59 1.073c0 .444.353.804.787.804h3.546c1.085 0 1.97-.901 1.97-2.01l.032-3.615c.139 0 .265.076.338.204a2.76 2.76 0 0 0 2.387 1.403c.82 0 1.591-.368 2.117-1.01a2.87 2.87 0 0 0 .594-2.324zm-1.2 1.808a1.95 1.95 0 0 1-1.511.722c-.7 0-1.354-.385-1.706-1.003a1.192 1.192 0 0 0-1.052-.604.797.797 0 0 0-.788.803v3.617c0 .664-.53 1.205-1.181 1.205l-3.546-.034c0-.142.075-.27.2-.345a2.832 2.832 0 0 0 1.376-2.434c0-.835-.36-1.623-.99-2.158a2.722 2.722 0 0 0-2.279-.607c-1.093.201-1.998 1.12-2.199 2.234-.216 1.205.31 2.372 1.344 2.975.114.066.185.195.185.369H1.97c-.652 0-1.182-.54-1.182-1.205v-9.643c0-.665.53-1.206 1.182-1.206h3.545c.433 0 .787-.36.789-.803 0-.442-.23-.86-.583-1.067-.739-.43-1.114-1.267-.96-2.13.144-.794.787-1.447 1.565-1.59a1.925 1.925 0 0 1 1.633.431c.45.385.707.946.707 1.543 0 .715-.376 1.38-.984 1.74-.359.214-.591.634-.591 1.073 0 .443.353.803.787.803h3.546c.651 0 1.181.541 1.181 1.206v3.616c0 .443.354.803.821.805.42 0 .809-.227 1.014-.594a1.942 1.942 0 0 1 2.089-.978c.777.145 1.417.801 1.557 1.594.108.61-.043 1.201-.423 1.665z"/>
        <path d="M19.768 27.675c1.116-.198 2.038-1.098 2.243-2.19a2.727 2.727 0 0 0-1.37-2.917c-.116-.064-.189-.19-.189-.359v-.002h3.617c1.108 0 2.008-.884 2.008-1.97l.001-3.545c.15 0 .31.084.378.2a2.832 2.832 0 0 0 2.434 1.376c.836 0 1.623-.361 2.158-.99.537-.63.757-1.457.607-2.278-.2-1.094-1.12-1.998-2.235-2.2-1.203-.216-2.371.31-2.974 1.344-.06.106-.22.184-.369.184v-3.545c0-1.086-.9-1.97-2.008-1.97h-9.643c-1.108 0-2.01.884-2.01 1.97v3.545c0 .434.36.788.838.788.428 0 .824-.223 1.033-.581.43-.738 1.267-1.115 2.13-.96.794.144 1.447.787 1.59 1.565a1.925 1.925 0 0 1-.431 1.632c-.384.45-.946.708-1.543.708-.715 0-1.38-.378-1.74-.985a1.23 1.23 0 0 0-1.073-.591.797.797 0 0 0-.803.788v3.545c0 1.086.9 1.97 2.009 1.97l3.616.033a.388.388 0 0 1-.204.337 2.76 2.76 0 0 0-1.403 2.387c0 .82.368 1.592 1.009 2.117a2.87 2.87 0 0 0 2.324.594zm-1.808-1.199a1.95 1.95 0 0 1-.722-1.512c0-.7.385-1.353 1.003-1.705.373-.212.604-.602.604-1.052a.797.797 0 0 0-.803-.788h-3.616c-.665 0-1.206-.53-1.206-1.182l.034-3.545c.142 0 .27.075.345.2a2.832 2.832 0 0 0 2.434 1.376c.836 0 1.623-.361 2.158-.99a2.722 2.722 0 0 0 .607-2.28c-.2-1.093-1.12-1.997-2.234-2.198-1.205-.217-2.372.31-2.975 1.343-.066.114-.194.185-.369.185v-3.545c0-.652.541-1.182 1.206-1.182h9.643c.664 0 1.205.53 1.205 1.182v3.545c0 .434.36.787.803.789.442 0 .861-.23 1.067-.583.43-.738 1.267-1.114 2.13-.959.794.144 1.447.786 1.59 1.565a1.925 1.925 0 0 1-.431 1.632c-.384.45-.946.708-1.543.708-.714 0-1.38-.377-1.74-.984a1.261 1.261 0 0 0-1.073-.592.797.797 0 0 0-.803.788v3.545c0 .652-.54 1.182-1.205 1.182h-3.617a.806.806 0 0 0-.805.82c0 .42.228.81.594 1.014a1.942 1.942 0 0 1 .978 2.09c-.145.776-.801 1.417-1.594 1.557-.61.108-1.2-.043-1.665-.424z"/>
    </g>
</svg>
