<svg xmlns="http://www.w3.org/2000/svg" width="32" height="32" viewBox="0 0 32 32">
    <path fill="#FFF" fill-rule="nonzero" d="M27.418 2H15.98a.635.635 0 0 0-.635.635v3.896a2.479 2.479 0 0 0-.636-.083 2.545 2.545 0 0 0-2.542 2.542 2.545 2.545 0 0 0 2.542 2.542c.216 0 .43-.028.636-.083v3.896H10.4a.636.636 0 0 0-.471 1.061c.213.236.331.537.331.845 0 .7-.57 1.271-1.27 1.271-.702 0-1.272-.57-1.272-1.27 0-.31.118-.61.332-.846a.635.635 0 0 0-.472-1.061H2.635A.635.635 0 0 0 2 15.98v11.438a2.545 2.545 0 0 0 2.542 2.542h22.876a2.545 2.545 0 0 0 2.542-2.542V4.542A2.545 2.545 0 0 0 27.418 2zM15.722 23.166a.636.636 0 0 0-.377.58v4.943H4.542c-.701 0-1.271-.57-1.271-1.27V16.615h3.26c-.054.206-.083.42-.083.635a2.545 2.545 0 0 0 2.542 2.542 2.545 2.545 0 0 0 2.46-3.177h3.895v4.307a.636.636 0 0 0 1.06.472c.238-.213.538-.331.846-.331.701 0 1.271.57 1.271 1.27 0 .701-.57 1.272-1.27 1.272-.309 0-.61-.118-.846-.332a.637.637 0 0 0-.684-.108zm12.967 4.252c0 .701-.57 1.271-1.27 1.271H16.615v-3.895c.206.055.42.083.635.083a2.545 2.545 0 0 0 2.542-2.542 2.545 2.545 0 0 0-2.542-2.542c-.216 0-.43.028-.635.082v-3.26h4.53a2.545 2.545 0 0 0 2.46 3.177 2.545 2.545 0 0 0 2.46-3.176h2.623v10.802zm0-12.073h-3.672a.636.636 0 0 0-.472 1.061c.214.236.332.537.332.845a1.272 1.272 0 0 1-2.542 0c0-.308.118-.609.331-.845a.635.635 0 0 0-.471-1.061h-5.58v-4.943a.636.636 0 0 0-1.06-.472 1.266 1.266 0 0 1-.846.331 1.272 1.272 0 0 1 0-2.542c.308 0 .608.118.845.332a.637.637 0 0 0 1.062-.473V3.271h10.802c.702 0 1.271.57 1.271 1.27v10.804z"/>
</svg>
