<svg xmlns="http://www.w3.org/2000/svg" width="32" height="32" viewBox="0 0 32 32">
    <g fill="#FFF" fill-rule="evenodd">
        <path d="M26.673 16.888a.526.526 0 0 0 .661-.342 11.06 11.06 0 0 0 .522-3.38C27.856 7.007 22.836 2 16.661 2c-1.671 0-3.284.359-4.782 1.07a11.174 11.174 0 0 0-6.482 10.113v1.639l-2.113 4.023c-.348.665-.371 1.342-.058 1.858.314.515.923.81 1.677.81h.494v3.41a2.768 2.768 0 0 0 2.768 2.76c.023 0 .052 0 .075-.005l2.479-.365.005 2.49c0 .289.238.526.528.526a.53.53 0 0 0 .529-.527l-.006-3.097c0-.15-.07-.295-.18-.4a.523.523 0 0 0-.418-.12l-3.035.45a1.72 1.72 0 0 1-1.683-1.713v-3.936a.53.53 0 0 0-.528-.526H4.903c-.377 0-.655-.11-.777-.307-.116-.197-.087-.498.087-.828l2.176-4.139a.501.501 0 0 0 .058-.243v-1.765c0-3.92 2.304-7.514 5.867-9.164a10.088 10.088 0 0 1 4.336-.966c5.594 0 10.144 4.538 10.144 10.118a10.13 10.13 0 0 1-.47 3.062.527.527 0 0 0 .349.66z"/>
        <path d="M28.96 29.802v-6.228a.53.53 0 0 0-.529-.527h-1.254v-1.875a3.594 3.594 0 0 0-3.592-3.584 3.594 3.594 0 0 0-3.592 3.584v1.875h-1.254a.53.53 0 0 0-.528.527v6.228c0 .29.238.527.528.527h9.686a.53.53 0 0 0 .534-.527zm-7.911-8.63a2.542 2.542 0 0 1 2.542-2.536 2.538 2.538 0 0 1 2.542 2.536v1.875h-5.078v-1.875h-.006zm6.854 8.11h-8.63v-5.187h8.63v5.186z"/>
    </g>
</svg>
