<svg xmlns="http://www.w3.org/2000/svg" width="48" height="48" viewBox="0 0 48 48">
    <path fill="#00AAF2" fill-rule="nonzero" d="M46.056 26.654c-.761-1.052-1.114-2.337-1.113-3.635v-.023c0-11.565-9.378-20.94-20.947-20.94-2.53 0-4.956.45-7.201 1.273-1.215.445-2.546.53-3.792.18-1.1-.31-2.275-.44-3.492-.357-5.115.352-9.232 4.542-9.497 9.66a10.18 10.18 0 0 0 1.922 6.526c.761 1.052 1.114 2.337 1.112 3.635v.023c0 11.565 9.379 20.94 20.948 20.94 2.53 0 4.956-.45 7.201-1.273 1.215-.445 2.546-.53 3.792-.18 1.1.31 2.275.44 3.492.357 5.115-.352 9.232-4.542 9.497-9.66a10.18 10.18 0 0 0-1.922-6.526zm-21.293-7.412c4.224 1.004 10.606 2.521 10.606 9.55 0 3.462-1.705 6.103-4.803 7.436-2.21.951-4.711 1.08-6.867 1.08-6.623 0-10.807-5.149-10.982-5.368a3.151 3.151 0 0 1 4.927-3.928c.01.012 2.512 2.884 6.055 2.997 4.268.135 5.243-1.134 5.369-2.218.154-1.323-1.024-2.294-5.763-3.42-4.018-.956-10.09-2.4-10.09-8.872 0-2.016.82-8.592 11.374-8.592 6.663 0 10.596 5.244 10.76 5.468a3.151 3.151 0 0 1-5.063 3.75c-.073-.095-2.325-2.599-5.697-2.919-2.552-.242-5.072.678-5.072 2.037 0 1.44.723 1.924 5.246 2.999z"/>
</svg>
