<svg xmlns="http://www.w3.org/2000/svg" width="48" height="48" viewBox="0 0 48 48">
    <path fill="#CE1312" fill-rule="nonzero" d="M19.044 30.27l-.002-13.582 12.97 6.814-12.968 6.768zM47.52 14.334s-.47-3.33-1.908-4.798C43.786 7.61 41.74 7.601 40.803 7.49 34.086 7 24.011 7 24.011 7h-.021s-10.076 0-16.793.49c-.939.111-2.984.12-4.81 2.046C.947 11.003.48 14.334.48 14.334S0 18.247 0 22.158v3.668c0 3.912.48 7.823.48 7.823s.468 3.331 1.906 4.798c1.827 1.926 4.226 1.866 5.294 2.067C11.52 40.885 24 41 24 41s10.086-.015 16.803-.505c.938-.113 2.983-.122 4.809-2.048 1.438-1.467 1.908-4.798 1.908-4.798s.48-3.91.48-7.823v-3.668c0-3.911-.48-7.824-.48-7.824z"/>
</svg>
