<svg xmlns="http://www.w3.org/2000/svg" width="24" height="24" viewBox="0 0 24 24">
    <g fill="#FFF" fill-rule="evenodd">
        <path d="M23.054 7.328a11.956 11.956 0 0 0-2.571-3.814A11.956 11.956 0 0 0 11.999 0a11.956 11.956 0 0 0-8.484 3.514A11.956 11.956 0 0 0 0 12a11.956 11.956 0 0 0 3.514 8.484A11.956 11.956 0 0 0 12 23.997a11.956 11.956 0 0 0 8.484-3.514 11.956 11.956 0 0 0 3.514-8.484c0-1.62-.317-3.191-.943-4.671zM11.999 22.445c-5.77 0-10.447-4.677-10.447-10.446 0-5.77 4.677-10.447 10.447-10.447s10.446 4.677 10.446 10.447S17.768 22.445 12 22.445z"/>
        <path d="M11.999 4.144c-4.331 0-7.855 3.524-7.855 7.855a.776.776 0 0 0 1.552 0A6.31 6.31 0 0 1 12 5.696 6.31 6.31 0 0 1 18.3 12a6.31 6.31 0 0 1-5.833 6.285l.512-.512a.776.776 0 1 0-1.098-1.097l-1.907 1.907a.776.776 0 0 0 0 1.097l1.907 1.907a.773.773 0 0 0 1.098 0 .776.776 0 0 0 0-1.097l-.644-.644c4.175-.177 7.517-3.629 7.517-7.846 0-4.331-3.524-7.855-7.854-7.855z"/>
        <path d="M11.999 7.24a.776.776 0 0 0-.776.776v3.983c0 .428.347.775.776.775h2.776a.776.776 0 0 0 0-1.551h-2V8.016a.776.776 0 0 0-.776-.776z"/>
    </g>
</svg>
