<svg xmlns="http://www.w3.org/2000/svg" width="24" height="24" viewBox="0 0 24 24">
    <g fill="#FFF" fill-rule="nonzero">
        <path d="M11.37 21.995V19.364a2.616 2.616 0 0 1-2.951-.54 2.594 2.594 0 0 1-.752-1.871c.01-.683.282-1.325.768-1.81a2.597 2.597 0 0 1 1.844-.766c.378 0 .75.082 1.09.238l.003-2.61H8.246c.076-.131.188-.296.316-.483.249-.363.434-.782.428-1.257a1.993 1.993 0 0 0-1.987-1.962c-1.097 0-1.987.89-1.987 1.987 0 .465.182.875.426 1.23.12.173.242.354.318.486H2.843a.834.834 0 0 0-.834.834v8.32c0 .461.373.835.834.835h8.526z"/>
        <path d="M19.366 12.614a2.616 2.616 0 0 1-.527 2.938 2.595 2.595 0 0 1-1.884.765 2.597 2.597 0 0 1-1.81-.768 2.597 2.597 0 0 1-.766-1.811c-.004-.39.078-.774.239-1.124h-2.624v3.132a9.211 9.211 0 0 1-.503-.33c-.348-.241-.756-.414-1.212-.414h-.026a1.993 1.993 0 0 0-1.96 1.96 1.986 1.986 0 0 0 1.987 2.015c.455 0 .853-.187 1.211-.414.221-.14.393-.267.504-.33v3.751h9.154c.461 0 .835-.374.835-.834v-8.536h-2.618z"/>
        <path d="M21.152 2h-9.155v3.832s.336-.29.443-.366a1.987 1.987 0 0 1 3.256 1.557A1.993 1.993 0 0 1 13.71 8.98c-.482 0-.925-.172-1.269-.458-.107-.076-.443-.367-.443-.367v3.833h3.752c-.03.06-.197.313-.334.507-.248.35-.416.77-.41 1.234a1.993 1.993 0 0 0 1.987 1.962 1.98 1.98 0 0 0 1.335-.515c.4-.364.652-.889.652-1.472 0-.456-.172-.862-.411-1.21a9.066 9.066 0 0 1-.333-.506h3.751V2.834A.834.834 0 0 0 21.152 2z"/>
    </g>
</svg>
