<svg xmlns="http://www.w3.org/2000/svg" width="24" height="24" viewBox="0 0 24 24">
    <g fill="#686868" fill-rule="nonzero">
        <path d="M5.533 17H.467a.467.467 0 0 0-.467.467v5.066c0 .258.21.467.467.467h5.066c.258 0 .467-.21.467-.467v-5.066A.467.467 0 0 0 5.533 17zM14.533 17H9.467a.467.467 0 0 0-.467.467v5.066c0 .258.21.467.467.467h5.066c.258 0 .467-.21.467-.467v-5.066a.467.467 0 0 0-.467-.467zM23.533 17h-5.066a.467.467 0 0 0-.467.467v5.066c0 .258.21.467.467.467h5.066c.258 0 .467-.21.467-.467v-5.066a.467.467 0 0 0-.467-.467zM9.467 7h5.066c.258 0 .467-.21.467-.467V1.467A.467.467 0 0 0 14.533 1H9.467A.467.467 0 0 0 9 1.467v5.066c0 .258.21.467.467.467zM2.495 14.994h1.016c.273 0 .495-.23.495-.514v-2.17h6.991v2.176c0 .284.222.514.495.514h1.016c.273 0 .495-.23.495-.514V12.31h6.991v2.172c0 .284.222.514.495.514h1.016c.273 0 .495-.23.495-.514v-3.74a.505.505 0 0 0-.495-.515h-8.503v-.713A.505.505 0 0 0 12.507 9h-1.015a.505.505 0 0 0-.495.514v.713H2.495a.505.505 0 0 0-.495.514v3.739c0 .283.222.514.495.514z"/>
    </g>
</svg>
