<svg xmlns="http://www.w3.org/2000/svg" width="16" height="16" viewBox="0 0 16 16">
    <path fill="#4A90E2" fill-rule="nonzero" d="M16 8A8 8 0 1 0 0 8a8 8 0 0 0 16 0zM6.548 5.529c-.128.245-.2.598-.218 1.06h-.948c0-.767.217-1.384.65-1.85.433-.468 1.028-.701 1.785-.701.7 0 1.26.2 1.68.6.422.398.632.909.632 1.53 0 .377-.077.683-.232.917-.155.234-.466.579-.935 1.034-.34.33-.562.61-.663.839-.101.229-.152.567-.152 1.014h-.948c0-.507.06-.917.18-1.227.121-.31.386-.667.794-1.069l.426-.42c.128-.121.23-.247.31-.379.141-.23.212-.47.212-.72 0-.348-.104-.65-.31-.905-.208-.255-.552-.383-1.031-.383-.594-.001-1.004.219-1.232.66zm.629 5.326h1.06v1.108h-1.06v-1.108z"/>
</svg>
