<svg xmlns="http://www.w3.org/2000/svg" width="32" height="32" viewBox="0 0 32 32">
    <g fill="#FFF" fill-rule="nonzero">
        <path d="M13.935 14.75l.783-.778-4.133-4.187L12 8.36a.544.544 0 0 0 0-.761 2.056 2.056 0 0 1 0-2.872c.76-.729 1.96-.729 2.72 0 .21.215.553.22.768.01l.009-.01 1.397-1.397 1.039 1.087c-.84 1.235-.7 2.89.337 3.965a3.002 3.002 0 0 0 3.888.364l1.033 1.055-4.47 4.383.762.778 4.861-4.797a.544.544 0 0 0 0-.766l-1.767-1.811a.544.544 0 0 0-.778 0 1.963 1.963 0 0 1-2.757 0 2.056 2.056 0 0 1 .027-2.86.544.544 0 0 0 0-.762L17.28 2.172a.544.544 0 0 0-.769-.009l-.008.009-1.409 1.468a3.002 3.002 0 0 0-3.888.364 3.154 3.154 0 0 0-.337 3.964l-1.43 1.436a.544.544 0 0 0 0 .761l4.497 4.585z"/>
        <path d="M29.906 14a2.012 2.012 0 0 0-1.305-1.47l-.109-.032a2.132 2.132 0 0 0-2.11.544l-7.248 7.15a1.044 1.044 0 0 1-.74.305h-.446c.076-.072.15-.15.223-.233a4.225 4.225 0 0 0 .897-3.106.544.544 0 0 0-.543-.467H7.649a.544.544 0 0 0-.386.157L4 20.111l.767.767 3.094-3.1h10.12a2.914 2.914 0 0 1-.636 1.773c-.539.63-1.43.946-2.627.946a.544.544 0 0 0 0 1.088h3.692a2.126 2.126 0 0 0 1.507-.615l7.227-7.167a1.055 1.055 0 0 1 1.033-.26h.06c.319.102.557.371.62.7.082.354-.025.725-.283.98l-8.336 8.233c-.2.191-.464.3-.74.304h-7.499a2.126 2.126 0 0 0-1.506.615L7.649 27.18l.767.772 2.833-2.8c.199-.2.47-.309.75-.305h7.494a2.126 2.126 0 0 0 1.506-.615l8.325-8.238a2.126 2.126 0 0 0 .582-1.996z"/>
    </g>
</svg>
