<svg xmlns="http://www.w3.org/2000/svg" width="24" height="23" viewBox="0 0 24 23">
    <g fill="#686868" fill-rule="nonzero" transform="translate(0 1)">
        <circle cx="2.727" cy="2.824" r="2.727"/>
        <circle cx="2.727" cy="10.323" r="2.727"/>
        <circle cx="2.727" cy="18.05" r="2.727"/>
        <path d="M8.565 4.607h14.809a.5.5 0 0 0 .5-.5l-.001-2.567a.5.5 0 0 0-.5-.5H8.564a.5.5 0 0 0-.5.5v2.567a.5.5 0 0 0 .5.5zM23.373 8.54H8.564a.5.5 0 0 0-.5.5v2.567a.5.5 0 0 0 .5.5h14.81a.5.5 0 0 0 .5-.5l-.001-2.567a.5.5 0 0 0-.5-.5zM23.373 16.266H8.564a.5.5 0 0 0-.5.5v2.568a.5.5 0 0 0 .5.5h14.81a.5.5 0 0 0 .5-.5l-.001-2.568a.5.5 0 0 0-.5-.5z"/>
    </g>
</svg>
