<svg xmlns="http://www.w3.org/2000/svg" width="48" height="48" viewBox="0 0 48 48">
    <path fill="#3E75C3" fill-rule="nonzero" d="M23.998 0C10.746 0 0 10.787 0 24.097 0 34.74 6.876 43.772 16.415 46.958c1.2.222 1.637-.522 1.637-1.16 0-.573-.02-2.088-.032-4.098-6.677 1.456-8.085-3.23-8.085-3.23-1.091-2.784-2.665-3.525-2.665-3.525-2.179-1.495.166-1.465.166-1.465 2.407.17 3.675 2.483 3.675 2.483 2.141 3.683 5.617 2.62 6.985 2.002.218-1.557.838-2.619 1.524-3.221-5.33-.609-10.932-2.675-10.932-11.908 0-2.63.934-4.781 2.47-6.466-.247-.61-1.07-3.059.235-6.377 0 0 2.015-.647 6.6 2.47 1.915-.534 3.967-.801 6.009-.811 2.038.01 4.091.277 6.009.811 4.58-3.117 6.592-2.47 6.592-2.47 1.31 3.318.486 5.767.239 6.377 1.538 1.685 2.467 3.835 2.467 6.466 0 9.256-5.611 11.293-10.957 11.89.86.744 1.628 2.213 1.628 4.462 0 3.22-.03 5.819-.03 6.61 0 .644.433 1.394 1.65 1.157C41.13 43.763 48 34.738 48 24.097 48 10.787 37.254 0 23.998 0"/>
</svg>
