<svg xmlns="http://www.w3.org/2000/svg" width="24" height="24" viewBox="0 0 24 24">
    <g fill="#FFF" fill-rule="evenodd">
        <path d="M15.765 0H5.388a3.316 3.316 0 0 0-3.312 3.312v17.303a3.316 3.316 0 0 0 3.312 3.312h13.175a3.316 3.316 0 0 0 3.311-3.312V6.83L15.764 0zm.476 3.114l2.848 3.183h-2.848V3.114zm3.912 17.501c0 .877-.713 1.59-1.59 1.59H5.388c-.877 0-1.59-.713-1.59-1.59V3.312c0-.877.713-1.59 1.59-1.59h9.131v6.297h5.634v12.596z"/>
        <path d="M10.118 17.53h8.018v1.721h-8.018zM10.118 13.417h8.018v1.721h-8.018zM10.118 9.289h8.018v1.721h-8.018zM6.628 10.16l-.567-.544-.796.826 1.386 1.334 2.004-2.043-.819-.804zM6.628 14.29l-.567-.546-.796.827 1.386 1.334 2.004-2.044-.819-.803zM6.628 18.402l-.567-.546-.796.827 1.386 1.334 2.004-2.044-.819-.803z"/>
    </g>
</svg>
