<svg xmlns="http://www.w3.org/2000/svg" width="24" height="24" viewBox="0 0 24 24">
    <g fill="#757575" fill-rule="nonzero">
        <path d="M23 24H4c-2.2 0-4-1.8-4-4V1c0-.6.4-1 1-1s1 .4 1 1v19c0 1.1.9 2 2 2h19c.6 0 1 .4 1 1s-.4 1-1 1z"/>
        <path d="M5 20c-.6 0-1-.4-1-1v-5c0-.6.4-1 1-1s1 .4 1 1v5c0 .6-.4 1-1 1zM9 20c-.6 0-1-.4-1-1v-9c0-.6.4-1 1-1s1 .4 1 1v9c0 .6-.4 1-1 1zM13 20c-.6 0-1-.4-1-1v-7c0-.6.4-1 1-1s1 .4 1 1v7c0 .6-.4 1-1 1zM17 20c-.6 0-1-.4-1-1V7c0-.6.4-1 1-1s1 .4 1 1v12c0 .6-.4 1-1 1zM21 20c-.6 0-1-.4-1-1v-6c0-.6.4-1 1-1s1 .4 1 1v6c0 .6-.4 1-1 1z"/>
    </g>
</svg>
