<svg xmlns="http://www.w3.org/2000/svg" width="24" height="24" viewBox="0 0 24 24">
    <g fill="#FFF" fill-rule="nonzero">
        <path d="M9.95 2H3.173C2.526 2 2 2.526 2 3.172V9.95c0 .646.526 1.172 1.172 1.172H9.95c.646 0 1.172-.526 1.172-1.172V3.17C11.123 2.527 10.597 2 9.95 2zM13.698 11.123h6.78c.646 0 1.171-.526 1.171-1.172V3.17c0-.645-.525-1.171-1.172-1.171h-6.779c-.646 0-1.172.526-1.172 1.172V9.95c0 .646.526 1.172 1.172 1.172zM9.95 12.526H3.173c-.646 0-1.172.526-1.172 1.172v6.78c0 .646.526 1.171 1.172 1.171H9.95c.646 0 1.172-.525 1.172-1.172v-6.779c0-.646-.526-1.172-1.172-1.172zM21.298 16.386H17.79v-3.509a.702.702 0 0 0-1.403 0v3.509h-3.509a.702.702 0 0 0 0 1.403h3.509v3.51a.702.702 0 0 0 1.403 0v-3.51h3.51a.702.702 0 0 0 0-1.403z"/>
    </g>
</svg>
