<svg xmlns="http://www.w3.org/2000/svg" width="32" height="35" viewBox="0 0 32 35">
    <g fill="#959595" fill-rule="nonzero">
        <path d="M5.569 6.9h3.75a1.57 1.57 0 0 0 1.568-1.57V1.581A1.57 1.57 0 0 0 9.318.012H5.57A1.57 1.57 0 0 0 4 1.582V5.33A1.57 1.57 0 0 0 5.569 6.9zM5.198 1.58c0-.205.166-.371.371-.371h3.75c.204 0 .37.166.37.371v3.75a.371.371 0 0 1-.37.37h-3.75a.371.371 0 0 1-.371-.37V1.58zM4 13.855a1.57 1.57 0 0 0 1.569 1.569h3.75a1.57 1.57 0 0 0 1.568-1.569v-3.75a1.57 1.57 0 0 0-1.569-1.568H5.57A1.57 1.57 0 0 0 4 10.106v3.749zm1.198-3.754c0-.205.166-.371.371-.371h3.75c.204 0 .37.166.37.371v3.75a.371.371 0 0 1-.37.37h-3.75a.371.371 0 0 1-.371-.37V10.1zM4 22.375a1.57 1.57 0 0 0 1.569 1.569h3.75a1.57 1.57 0 0 0 1.568-1.57v-3.748a1.57 1.57 0 0 0-1.569-1.57H5.57A1.57 1.57 0 0 0 4 18.627v3.749zm1.198-3.75c0-.205.166-.37.371-.37h3.75c.204 0 .37.165.37.37v3.75a.371.371 0 0 1-.37.371h-3.75a.371.371 0 0 1-.371-.371v-3.75zM27.355 1.552H13.888a.6.6 0 1 0 0 1.202h13.467a.6.6 0 1 0 0-1.202zM27.355 4.162H13.888a.6.6 0 1 0 0 1.203h13.467a.6.6 0 1 0 0-1.203zM27.355 10.072H13.888a.6.6 0 1 0 0 1.202h13.467a.6.6 0 1 0 0-1.202zM27.355 12.687H13.888a.6.6 0 1 0 0 1.202h13.467a.6.6 0 1 0 0-1.202zM27.355 18.596H13.888a.6.6 0 1 0 0 1.203h13.467a.6.6 0 1 0 0-1.203zM27.951 21.808a.6.6 0 0 0-.601-.601H13.888a.6.6 0 1 0 0 1.202h13.467a.603.603 0 0 0 .596-.601z"/>
    </g>
</svg>
