<svg xmlns="http://www.w3.org/2000/svg" width="32" height="36" viewBox="0 0 32 36">
    <g fill="none" fill-rule="evenodd">
        <g fill="#000" fill-rule="nonzero">
            <path d="M10.917 1.577C10.917.71 10.207 0 9.34 0H5.58c-.868 0-1.578.71-1.578 1.577v3.755c0 .868.71 1.577 1.577 1.577h3.756c.867 0 1.577-.71 1.577-1.577V1.577h.005zm-1.208 3.76c0 .202-.167.37-.37.37H5.58a.372.372 0 0 1-.37-.37v-3.76c0-.202.168-.37.37-.37h3.756c.202 0 .37.168.37.37v3.76h.004zM10.917 10.117c0-.867-.71-1.577-1.577-1.577H5.58c-.868 0-1.578.71-1.578 1.577v3.756c0 .867.71 1.577 1.577 1.577h3.756c.867 0 1.577-.71 1.577-1.577v-3.756h.005zm-1.208 3.756c0 .202-.167.37-.37.37H5.58a.372.372 0 0 1-.37-.37v-3.756c0-.202.168-.37.37-.37h3.756c.202 0 .37.168.37.37v3.756h.004zM9.34 17.076H5.58c-.868 0-1.578.71-1.578 1.577v3.755c0 .868.71 1.577 1.577 1.577h3.756c.867 0 1.577-.71 1.577-1.577v-3.755a1.574 1.574 0 0 0-1.572-1.577zm.37 5.337c0 .202-.168.37-.37.37H5.58a.372.372 0 0 1-.37-.37v-3.755c0-.202.167-.37.37-.37h3.755c.202 0 .37.168.37.37v3.755h.004zM12.543 13.873c0 .867.71 1.577 1.577 1.577h3.755c.868 0 1.577-.71 1.577-1.577v-3.756c0-.867-.71-1.577-1.577-1.577H14.12c-.867 0-1.577.71-1.577 1.577v3.756zm1.207-3.756c0-.202.168-.37.37-.37h3.755c.202 0 .37.168.37.37v3.756c0 .202-.168.37-.37.37H14.12a.372.372 0 0 1-.37-.37v-3.756zM12.543 22.413c0 .867.71 1.577 1.577 1.577h3.755c.868 0 1.577-.71 1.577-1.577v-3.755c0-.867-.71-1.577-1.577-1.577H14.12c-.867 0-1.577.71-1.577 1.577v3.755zm1.207-3.76c0-.202.168-.37.37-.37h3.755c.202 0 .37.168.37.37v3.755c0 .202-.168.37-.37.37H14.12a.372.372 0 0 1-.37-.37v-3.755zM21.078 13.873c0 .867.71 1.577 1.577 1.577h3.756c.867 0 1.577-.71 1.577-1.577v-3.756c0-.867-.71-1.577-1.577-1.577h-3.756c-.867 0-1.577.71-1.577 1.577v3.756zm1.208-3.756c0-.202.167-.37.37-.37h3.755c.202 0 .37.168.37.37v3.756c0 .202-.168.37-.37.37h-3.756a.372.372 0 0 1-.37-.37v-3.756zM21.078 22.413c0 .867.71 1.577 1.577 1.577h3.756c.867 0 1.577-.71 1.577-1.577v-3.755c0-.867-.71-1.577-1.577-1.577h-3.756c-.867 0-1.577.71-1.577 1.577v3.755zm1.208-3.76c0-.202.167-.37.37-.37h3.755c.202 0 .37.168.37.37v3.755c0 .202-.168.37-.37.37h-3.756a.372.372 0 0 1-.37-.37v-3.755zM12.543 1.577v3.755c0 .868.71 1.577 1.577 1.577h3.755c.868 0 1.577-.71 1.577-1.577V1.577C19.452.71 18.742 0 17.875 0H14.12c-.872 0-1.577.71-1.577 1.577zm1.207 0c0-.202.168-.37.37-.37h3.755c.202 0 .37.168.37.37v3.755c0 .202-.168.37-.37.37H14.12a.372.372 0 0 1-.37-.37V1.577zM22.655 6.914h3.756c.867 0 1.577-.71 1.577-1.577v-3.76C27.988.71 27.278 0 26.41 0h-3.756c-.867 0-1.577.71-1.577 1.577v3.755c0 .873.71 1.582 1.577 1.582zm-.37-5.337c0-.202.168-.37.37-.37h3.756c.202 0 .37.168.37.37v3.755c0 .202-.168.37-.37.37h-3.756a.372.372 0 0 1-.37-.37V1.577z"/>
        </g>
        <path fill="#4A90E2" d="M0 32h32v4H0z"/>
    </g>
</svg>
