<svg xmlns="http://www.w3.org/2000/svg" width="32" height="32" viewBox="0 0 32 32">
    <g fill="none" fill-rule="evenodd">
        <path fill="#0079C4" fill-rule="nonzero" d="M23.067 8.028C21.599 5.053 18.543 3 15 3c-4.75 0-8.63 3.682-8.967 8.345C2.542 12.34 0 15.39 0 19c0 4.26 3.54 7.731 8 7.977L22 27c5.247 0 10-4.253 10-9.5 0-5.055-3.952-9.177-8.933-9.472z"/>
        <path fill="#F2D23D" d="M16.474 20.932c-.217.523-.781.756-1.26.518-.48-.237-.692-.855-.474-1.38l2.543-4.51-4.266.03a.996.996 0 0 1-.927-.638.986.986 0 0 1-.015-.787l2.289-5.546a1 1 0 0 1 1.848.763l-1.554 4.169h4a1 1 0 0 1 1 1c0 .594-3.184 6.38-3.184 6.38z"/>
    </g>
</svg>
