<svg xmlns="http://www.w3.org/2000/svg" width="32" height="32" viewBox="0 0 32 32">
    <g fill="#FFF" fill-rule="evenodd">
        <path d="M16.53 15.279a.541.541 0 0 0-.54.539v3.4l-2.943 1.7a.536.536 0 1 0 .539.93l2.943-1.7 2.944 1.7a.544.544 0 0 0 .734-.195.54.54 0 0 0-.195-.736l-2.944-1.7v-3.4a.545.545 0 0 0-.539-.538zM14.231 10.167c-.545.284-1.747.954-2.878 1.878a1.56 1.56 0 0 0-.569 1.208v1.451c0 .296.243.54.539.54a.541.541 0 0 0 .539-.54v-1.451c0-.148.065-.284.178-.38 1.273-1.042 2.653-1.74 2.914-1.87a.63.63 0 0 0 .355-.57V8.39a.53.53 0 0 0-.237-.444.415.415 0 0 1-.19-.35v-2.12c0-.758.617-1.374 1.375-1.374h.456c.758 0 1.374.616 1.374 1.374v2.12a.415.415 0 0 1-.19.35.538.538 0 0 0-.236.444v2.05a.63.63 0 0 0 .355.568c.267.13 1.64.823 2.914 1.872a.493.493 0 0 1 .178.379v1.451c0 .296.243.539.539.539a.541.541 0 0 0 .539-.539v-1.451a1.56 1.56 0 0 0-.569-1.208 17.06 17.06 0 0 0-2.878-1.878V8.645a1.49 1.49 0 0 0 .426-1.043V5.476A2.447 2.447 0 0 0 16.72 3.03h-.456a2.447 2.447 0 0 0-2.446 2.446v2.12c0 .397.154.77.426 1.043v1.528h-.012zM7.461 17.488h.456c.758 0 1.374.616 1.374 1.374v2.12a.415.415 0 0 1-.19.35.538.538 0 0 0-.236.444v2.05a.63.63 0 0 0 .355.568c.267.13 1.641.824 2.914 1.872a.493.493 0 0 1 .178.38v1.45c0 .296.243.54.54.54a.541.541 0 0 0 .538-.54v-1.45a1.56 1.56 0 0 0-.568-1.21 17.06 17.06 0 0 0-2.88-1.877v-1.528a1.49 1.49 0 0 0 .427-1.043v-2.12a2.447 2.447 0 0 0-2.446-2.446h-.456a2.447 2.447 0 0 0-2.446 2.446v2.115c0 .396.154.77.426 1.042v1.528c-.545.285-1.747.954-2.878 1.878A1.56 1.56 0 0 0 2 26.639v1.451c0 .296.243.54.539.54a.541.541 0 0 0 .539-.54v-1.45c0-.149.065-.285.178-.38 1.273-1.042 2.653-1.741 2.914-1.872a.63.63 0 0 0 .355-.568v-2.044a.53.53 0 0 0-.237-.444.415.415 0 0 1-.19-.35v-2.12a1.358 1.358 0 0 1 1.363-1.374zM20.148 25.43a1.56 1.56 0 0 0-.568 1.21v1.45c0 .296.243.54.539.54a.541.541 0 0 0 .539-.54v-1.45c0-.149.065-.285.178-.38 1.273-1.042 2.653-1.741 2.914-1.872a.63.63 0 0 0 .355-.568v-2.044a.53.53 0 0 0-.237-.444.415.415 0 0 1-.19-.35v-2.12c0-.758.617-1.374 1.375-1.374h.456c.758 0 1.374.616 1.374 1.374v2.12a.415.415 0 0 1-.19.35.538.538 0 0 0-.236.444v2.05a.63.63 0 0 0 .355.568c.266.13 1.64.824 2.914 1.872a.493.493 0 0 1 .178.38v1.45c0 .296.243.54.539.54a.541.541 0 0 0 .539-.54v-1.45a1.56 1.56 0 0 0-.569-1.21 17.06 17.06 0 0 0-2.878-1.877v-1.528a1.49 1.49 0 0 0 .426-1.043v-2.12a2.447 2.447 0 0 0-2.446-2.446h-.456a2.447 2.447 0 0 0-2.447 2.446v2.115c0 .396.154.77.427 1.042v1.528c-.557.285-1.76.954-2.89 1.878z"/>
    </g>
</svg>
