<svg xmlns="http://www.w3.org/2000/svg" width="32" height="32" viewBox="0 0 32 32">
    <g fill="#FFF" fill-rule="evenodd">
        <path d="M4.372 28.973H9.32c.76 0 1.372-.62 1.372-1.376V24.91c0-.762-.618-1.377-1.372-1.377h-1.98v-3.067h6.862a2.143 2.143 0 0 0 1.583 1.588v1.48h-1.98c-.759 0-1.372.62-1.372 1.376v2.681c0 .762.619 1.376 1.373 1.376h4.946c.76 0 1.373-.62 1.373-1.376V24.91c0-.762-.619-1.377-1.373-1.377h-1.98v-1.479a2.143 2.143 0 0 0 1.584-1.588h6.862v3.067h-1.98c-.76 0-1.372.62-1.372 1.377v2.681c0 .762.618 1.376 1.372 1.376h4.947c.76 0 1.372-.62 1.372-1.376V24.91c0-.762-.618-1.377-1.372-1.377h-1.98v-3.557a.496.496 0 0 0-.494-.495h-7.36a2.142 2.142 0 0 0-2.077-1.648 2.142 2.142 0 0 0-2.078 1.648h-7.35a.496.496 0 0 0-.493.495v3.557h-1.98c-.76 0-1.372.62-1.372 1.377v2.681c0 .762.613 1.382 1.372 1.382zm14.765-4.063v2.681a.39.39 0 0 1-.391.392h-4.947a.39.39 0 0 1-.39-.392V24.91a.39.39 0 0 1 .39-.392h4.947c.217 0 .39.18.39.392zm9.426 0v2.681a.39.39 0 0 1-.39.392h-4.947a.39.39 0 0 1-.39-.392V24.91a.39.39 0 0 1 .39-.392h4.947c.217 0 .39.18.39.392zm-12.29-6.092a1.152 1.152 0 1 1 0 2.306 1.152 1.152 0 1 1 0-2.306zM3.982 24.91a.39.39 0 0 1 .39-.392H9.32a.39.39 0 0 1 .39.392v2.681a.39.39 0 0 1-.39.392H4.372a.39.39 0 0 1-.39-.392V24.91zM9.986 17.605a.496.496 0 0 0 .494-.495v-1.774a.76.76 0 0 1 .276-.587c1.562-1.29 3.26-2.143 3.58-2.306a.6.6 0 0 0 .342-.544V9.402a.487.487 0 0 0-.217-.408.674.674 0 0 1-.304-.56v-2.6c0-1.017.825-1.844 1.839-1.844h.559c1.014 0 1.838.827 1.838 1.844v2.589a.667.667 0 0 1-.303.56.494.494 0 0 0-.217.408v2.497c0 .234.13.446.341.55a19.729 19.729 0 0 1 3.58 2.306.769.769 0 0 1 .277.587v1.779c0 .272.222.495.493.495a.496.496 0 0 0 .494-.495v-1.774c0-.527-.233-1.017-.635-1.349-1.426-1.174-2.956-2.012-3.563-2.322V9.636c.33-.31.52-.745.52-1.208V5.834a2.826 2.826 0 0 0-2.82-2.829h-.559a2.826 2.826 0 0 0-2.82 2.829v2.589c0 .462.19.898.52 1.208v2.028c-.607.31-2.136 1.148-3.563 2.323a1.75 1.75 0 0 0-.635 1.349v1.779a.48.48 0 0 0 .483.495z"/>
    </g>
</svg>
