<svg xmlns="http://www.w3.org/2000/svg" width="32" height="32" viewBox="0 0 32 32">
    <g fill="#FFF" fill-rule="nonzero">
        <path d="M18.683 13.95a2.601 2.601 0 0 0-2.054-2.057c-1.107-.202-2.18.29-2.734 1.257-.06.106-.178.172-.337.172h-.002v-3.318a1.847 1.847 0 0 0-1.846-1.843L8.386 8.16c0-.137.079-.284.187-.347a2.588 2.588 0 0 0 1.29-2.233c0-.767-.338-1.49-.927-1.98A2.603 2.603 0 0 0 6.8 3.041a2.6 2.6 0 0 0-2.062 2.051 2.567 2.567 0 0 0 1.26 2.73c.098.055.172.2.172.338H2.846A1.847 1.847 0 0 0 1 10.004v8.849c0 1.017.829 1.843 1.846 1.843H6.17c.407 0 .739-.33.739-.768 0-.392-.21-.756-.545-.948a1.838 1.838 0 0 1-.9-1.955 1.85 1.85 0 0 1 2.997-1.063 1.84 1.84 0 0 1-.26 3.013c-.34.199-.554.564-.554.984 0 .407.332.737.739.737h3.324a1.847 1.847 0 0 0 1.846-1.843l.031-3.318c.13 0 .248.07.316.187a2.597 2.597 0 0 0 2.238 1.287 2.583 2.583 0 0 0 2.542-3.058zm-1.124 1.66a1.843 1.843 0 0 1-1.418.662 1.857 1.857 0 0 1-1.599-.92 1.122 1.122 0 0 0-.986-.555.739.739 0 0 0-.738.738v3.318c0 .61-.497 1.106-1.108 1.106l-3.324-.031c0-.13.07-.249.187-.316a2.588 2.588 0 0 0 1.29-2.234A2.585 2.585 0 0 0 6.8 14.841a2.6 2.6 0 0 0-2.062 2.05 2.568 2.568 0 0 0 1.26 2.73c.107.06.173.178.173.338H2.846c-.61 0-1.107-.496-1.107-1.106v-8.849c0-.61.497-1.106 1.107-1.106H6.17a.74.74 0 0 0 .74-.737c0-.406-.215-.79-.547-.979a1.84 1.84 0 0 1-.899-1.955 1.85 1.85 0 0 1 2.997-1.063 1.84 1.84 0 0 1-.259 3.012 1.152 1.152 0 0 0-.555.985c0 .407.332.737.739.737h3.324c.61 0 1.108.496 1.108 1.106v3.318c0 .407.331.738.77.74.393 0 .757-.21.95-.546a1.834 1.834 0 0 1 1.958-.897 1.848 1.848 0 0 1 1.46 1.463 1.832 1.832 0 0 1-.397 1.528z"/>
        <path d="M19.578 25.83a2.601 2.601 0 0 0 2.058-2.054c.202-1.107-.29-2.18-1.257-2.734-.107-.06-.173-.178-.173-.337v-.002h3.318a1.847 1.847 0 0 0 1.844-1.846v-3.324c.138 0 .284.08.347.187a2.588 2.588 0 0 0 2.234 1.29c.767 0 1.49-.338 1.98-.927.493-.59.694-1.367.557-2.136a2.6 2.6 0 0 0-2.05-2.062 2.567 2.567 0 0 0-2.73 1.26c-.056.098-.201.172-.338.172V9.994a1.847 1.847 0 0 0-1.844-1.847h-8.848a1.847 1.847 0 0 0-1.844 1.847v3.323c0 .407.33.739.769.739.392 0 .755-.21.947-.545a1.838 1.838 0 0 1 1.956-.9 1.85 1.85 0 0 1 1.062 2.997 1.84 1.84 0 0 1-3.012-.26 1.124 1.124 0 0 0-.985-.554.739.739 0 0 0-.737.739v3.324c0 1.017.827 1.846 1.844 1.846l3.318.031c0 .13-.07.248-.187.316a2.597 2.597 0 0 0-1.288 2.238 2.583 2.583 0 0 0 3.059 2.542zm-1.66-1.124a1.843 1.843 0 0 1-.661-1.418c0-.656.353-1.269.92-1.599.342-.198.554-.564.554-.986a.739.739 0 0 0-.737-.738h-3.318c-.61 0-1.106-.497-1.106-1.108l.03-3.324c.131 0 .249.07.317.187a2.588 2.588 0 0 0 2.233 1.29 2.585 2.585 0 0 0 2.537-3.064 2.6 2.6 0 0 0-2.05-2.062 2.568 2.568 0 0 0-2.729 1.26c-.06.107-.178.173-.338.173V9.994c0-.611.496-1.108 1.106-1.108h8.848c.61 0 1.106.497 1.106 1.108v3.323c0 .406.33.738.738.74.405 0 .79-.215.978-.547a1.84 1.84 0 0 1 1.956-.899 1.85 1.85 0 0 1 1.062 2.997 1.84 1.84 0 0 1-3.012-.259 1.152 1.152 0 0 0-.984-.555.739.739 0 0 0-.738.739v3.324c0 .61-.496 1.108-1.106 1.108h-3.318c-.407 0-.737.331-.739.77 0 .393.209.757.545.95a1.834 1.834 0 0 1 .898 1.958 1.848 1.848 0 0 1-1.463 1.46 1.832 1.832 0 0 1-1.528-.397z"/>
    </g>
</svg>
