<svg xmlns="http://www.w3.org/2000/svg" width="32" height="32" viewBox="0 0 32 32">
    <g fill="#000" fill-rule="nonzero">
        <path d="M31.263 23.502l-.81-.155a1.086 1.086 0 0 1-.821-.683 1.085 1.085 0 0 1 .138-1.058l.509-.694a.561.561 0 0 0-.056-.73l-1.1-1.099a.562.562 0 0 0-.712-.068l-.683.463c-.32.218-.709.253-1.064.098a1.086 1.086 0 0 1-.651-.846l-.131-.851a.56.56 0 0 0-.554-.475h-1.555c-.27 0-.501.19-.552.455l-.2 1.047a1.089 1.089 0 0 1-.664.813c-.35.147-.73.106-1.044-.106l-.882-.597a.562.562 0 0 0-.712.068l-1.1 1.099a.561.561 0 0 0-.056.73l.509.693c.23.312.28.698.138 1.058-.142.361-.441.61-.821.683l-.81.156a.562.562 0 0 0-.457.55v1.556c0 .277.202.513.476.555l.85.13c.384.06.692.297.847.652.155.355.12.742-.098 1.064l-.462.683a.561.561 0 0 0 .068.712l1.099 1.1a.563.563 0 0 0 .729.056l.694-.51c.311-.228.698-.28 1.058-.137.361.141.61.44.683.82l.155.811a.562.562 0 0 0 .552.455h1.555a.561.561 0 0 0 .555-.476l.092-.598c.059-.386.31-.705.67-.854.361-.15.764-.1 1.078.13l.488.358a.56.56 0 0 0 .73-.056l1.099-1.1a.561.561 0 0 0 .068-.712l-.463-.683a1.088 1.088 0 0 1-.098-1.064c.154-.355.463-.592.846-.651l.85-.13a.562.562 0 0 0 .477-.556v-1.555c0-.269-.192-.5-.457-.551zm-.667 1.625l-.374.058a2.217 2.217 0 0 0-1.704 1.312 2.217 2.217 0 0 0 .197 2.142l.203.3-.431.43-.1-.073a2.216 2.216 0 0 0-2.172-.262c-.726.301-1.23.944-1.35 1.72l-.018.123h-.61l-.068-.355a2.218 2.218 0 0 0-1.375-1.655 2.224 2.224 0 0 0-2.133.278l-.306.224-.43-.431.202-.3a2.219 2.219 0 0 0 .197-2.141 2.218 2.218 0 0 0-1.704-1.312l-.374-.058v-.61l.355-.067a2.218 2.218 0 0 0 1.654-1.375 2.22 2.22 0 0 0-.277-2.134l-.224-.305.431-.431.5.338c.62.422 1.408.501 2.103.214a2.225 2.225 0 0 0 1.336-1.639l.113-.592h.61l.057.375c.117.76.608 1.397 1.312 1.704a2.219 2.219 0 0 0 2.142-.197l.3-.203.43.431-.223.305a2.219 2.219 0 0 0-.278 2.134c.28.715.9 1.23 1.655 1.375l.355.068v.61z"/>
        <path d="M24.421 21.895a2.81 2.81 0 0 0-2.807 2.807 2.81 2.81 0 0 0 2.807 2.807 2.81 2.81 0 0 0 2.807-2.807 2.81 2.81 0 0 0-2.807-2.807zm0 4.491a1.686 1.686 0 0 1-1.684-1.684c0-.929.755-1.684 1.684-1.684.929 0 1.684.755 1.684 1.684 0 .928-.755 1.684-1.684 1.684zM15.439 6.737a.56.56 0 1 0 0 1.123h10.105a.56.56 0 1 0 0-1.123H15.439zM26.105 15.158a.56.56 0 0 0-.561-.562H15.439a.56.56 0 1 0 0 1.123h10.105a.56.56 0 0 0 .561-.561zM11.834 4.065a.56.56 0 0 0-.791.06L7.535 8.218 5.39 6.608a.56.56 0 1 0-.673.898l2.567 1.925a.557.557 0 0 0 .762-.084l3.85-4.491a.56.56 0 0 0-.061-.79zM11.834 11.925a.56.56 0 0 0-.791.06l-3.508 4.092-2.146-1.61a.56.56 0 1 0-.673.899l2.567 1.925a.557.557 0 0 0 .762-.085l3.85-4.49a.56.56 0 0 0-.061-.791zM11.043 20.407l-3.508 4.091-2.146-1.609a.56.56 0 1 0-.673.898l2.567 1.925a.557.557 0 0 0 .762-.084l3.85-4.491a.56.56 0 1 0-.852-.73z"/>
        <path d="M13.193 29.193H7.116a5.719 5.719 0 0 1-5.712-5.713V6.836a5.719 5.719 0 0 1 5.712-5.713h16.645a5.719 5.719 0 0 1 5.713 5.713v11.69a.56.56 0 1 0 1.122 0V6.836A6.843 6.843 0 0 0 23.761 0H7.116A6.843 6.843 0 0 0 .281 6.836V23.48a6.843 6.843 0 0 0 6.835 6.836h6.077a.56.56 0 1 0 0-1.123z"/>
    </g>
</svg>
