<svg xmlns="http://www.w3.org/2000/svg" width="32" height="32" viewBox="0 0 32 32">
    <g fill="#FFF" fill-rule="nonzero" transform="translate(3 3)">
        <path d="M25.648 19.44l-.626-.12a.838.838 0 0 1-.633-.526.837.837 0 0 1 .106-.817l.393-.536a.433.433 0 0 0-.043-.563l-.85-.848a.434.434 0 0 0-.549-.053l-.527.357a.836.836 0 0 1-.821.076.839.839 0 0 1-.503-.653l-.1-.657a.433.433 0 0 0-.428-.367h-1.2a.434.434 0 0 0-.426.352l-.155.808a.84.84 0 0 1-.512.628.838.838 0 0 1-.806-.082l-.681-.461a.434.434 0 0 0-.55.052l-.849.849a.433.433 0 0 0-.043.563l.393.535c.177.241.216.539.106.817a.838.838 0 0 1-.634.527l-.625.12a.433.433 0 0 0-.352.426v1.2c0 .214.156.396.368.428l.656.101a.84.84 0 0 1 .654.503.84.84 0 0 1-.076.82l-.357.528a.433.433 0 0 0 .052.55l.849.849c.15.15.39.169.563.043l.535-.393a.838.838 0 0 1 .817-.106c.279.109.47.34.527.633l.12.626a.433.433 0 0 0 .426.351h1.2a.433.433 0 0 0 .428-.367l.071-.462a.847.847 0 0 1 .517-.66.848.848 0 0 1 .833.101l.376.277a.433.433 0 0 0 .563-.044l.848-.849a.433.433 0 0 0 .053-.55l-.357-.527a.84.84 0 0 1-.076-.82.839.839 0 0 1 .653-.503l.657-.101a.433.433 0 0 0 .367-.428v-1.2a.434.434 0 0 0-.352-.426zm-.515 1.255l-.289.045a1.711 1.711 0 0 0-1.315 1.012 1.711 1.711 0 0 0 .152 1.654l.157.23-.333.333-.077-.056a1.712 1.712 0 0 0-1.676-.202c-.561.232-.95.729-1.043 1.328l-.014.094h-.47l-.053-.274a1.712 1.712 0 0 0-1.061-1.277 1.715 1.715 0 0 0-1.647.214l-.236.173-.332-.333.156-.23c.333-.492.39-1.11.153-1.654a1.712 1.712 0 0 0-1.316-1.013l-.289-.044v-.47l.274-.053a1.712 1.712 0 0 0 1.277-1.061 1.714 1.714 0 0 0-.214-1.647l-.173-.236.333-.332.385.26c.48.326 1.088.388 1.624.166a1.717 1.717 0 0 0 1.031-1.265l.088-.457h.47l.045.289c.09.587.469 1.079 1.012 1.316.545.237 1.163.18 1.654-.153l.23-.156.333.332-.172.236a1.713 1.713 0 0 0-.215 1.647c.217.552.695.949 1.277 1.061l.274.053v.47z"/>
        <path d="M20.367 18.2a2.17 2.17 0 0 0-2.167 2.167 2.17 2.17 0 0 0 2.167 2.166 2.17 2.17 0 0 0 2.166-2.166 2.17 2.17 0 0 0-2.166-2.167zm0 3.467c-.717 0-1.3-.584-1.3-1.3 0-.717.583-1.3 1.3-1.3.716 0 1.3.583 1.3 1.3 0 .716-.584 1.3-1.3 1.3zM4.55 2.6c-1.075 0-1.95.875-1.95 1.95S3.475 6.5 4.55 6.5 6.5 5.625 6.5 4.55 5.625 2.6 4.55 2.6zm0 3.033a1.084 1.084 0 0 1 0-2.166 1.084 1.084 0 0 1 0 2.166z"/>
        <circle cx="21.667" cy="3.9" r="1"/>
        <circle cx="19.933" cy="3.9" r="1"/>
        <circle cx="22.533" cy="5.2" r="1"/>
        <circle cx="20.8" cy="5.2" r="1"/>
        <circle cx="18.2" cy="3.9" r="1"/>
        <circle cx="19.067" cy="5.2" r="1"/>
        <circle cx="16.467" cy="3.9" r="1"/>
        <circle cx="17.333" cy="5.2" r="1"/>
        <circle cx="14.733" cy="3.9" r="1"/>
        <circle cx="15.6" cy="5.2" r="1"/>
        <path d="M26 7.103V1.997A1.999 1.999 0 0 0 24.003 0H1.997A1.999 1.999 0 0 0 0 1.997v5.106C0 7.739.305 8.3.77 8.667.305 9.033 0 9.594 0 10.23v5.106c0 .637.305 1.198.77 1.564-.465.366-.77.927-.77 1.563v5.106a2 2 0 0 0 1.997 1.998H14.3V24.7H1.997c-.623 0-1.13-.507-1.13-1.13v-5.107c0-.623.507-1.13 1.13-1.13h10.136v-.866H1.997c-.623 0-1.13-.507-1.13-1.13V10.23c0-.623.507-1.13 1.13-1.13h22.006c.623 0 1.13.507 1.13 1.13v4.937H26V10.23c0-.636-.305-1.198-.77-1.563.465-.367.77-.928.77-1.564zM1.997 8.233c-.623 0-1.13-.507-1.13-1.13V1.997c0-.623.507-1.13 1.13-1.13h22.006c.623 0 1.13.507 1.13 1.13v5.106c0 .623-.507 1.13-1.13 1.13H1.997z"/>
        <path d="M2.6 12.783c0 1.075.875 1.95 1.95 1.95s1.95-.875 1.95-1.95-.875-1.95-1.95-1.95-1.95.875-1.95 1.95zm3.033 0a1.084 1.084 0 0 1-2.166 0 1.084 1.084 0 0 1 2.166 0z"/>
        <circle cx="21.667" cy="12.133" r="1"/>
        <circle cx="19.933" cy="12.133" r="1"/>
        <circle cx="22.533" cy="13.433" r="1"/>
        <circle cx="20.8" cy="13.433" r="1"/>
        <circle cx="18.2" cy="12.133" r="1"/>
        <circle cx="19.067" cy="13.433" r="1"/>
        <circle cx="16.467" cy="12.133" r="1"/>
        <circle cx="17.333" cy="13.433" r="1"/>
        <circle cx="14.733" cy="12.133" r="1"/>
        <circle cx="15.6" cy="13.433" r="1"/>
        <path d="M2.6 21.017c0 1.075.875 1.95 1.95 1.95s1.95-.875 1.95-1.95-.875-1.95-1.95-1.95-1.95.875-1.95 1.95zm3.033 0a1.084 1.084 0 0 1-2.166 0 1.084 1.084 0 0 1 2.166 0z"/>
    </g>
</svg>
