<svg xmlns="http://www.w3.org/2000/svg" width="48" height="48" viewBox="0 0 48 48">
    <g fill="none" fill-rule="nonzero">
        <path fill="#26A6D1" d="M23.948 14.949a8.98 8.98 0 0 1 8.979 8.979 8.98 8.98 0 0 1-17.958 0c0-4.957 4.023-8.98 8.979-8.98z"/>
        <path fill="#3DB39E" d="M23.948 35.901c-6.058 0-11.052-4.501-11.848-10.344l-8.253-14.31-.01-.022-.922 1.334c-.228.417-.45.84-.653 1.273l-.441 1.033c-.147.356-.292.717-.422 1.085-.147.408-.274.821-.395 1.236l-.267.953c-.11.445-.205.89-.29 1.337l-.162.944c-.066.438-.116.874-.155 1.31l-.078 1.042c-.02.398-.027.795-.027 1.193s.006.796.027 1.193L.13 26.2c.04.435.092.874.155 1.31l.162.943c.087.448.18.892.29 1.337l.267.953c.122.412.248.828.395 1.236.13.365.276.725.422 1.085.143.344.28.69.441 1.031.204.433.425.853.654 1.275l.298.585.138.214c.263.45.553.88.847 1.31l.47.699c.283.386.592.754.902 1.125l.62.742c.27.295.558.576.842.86.285.285.564.578.86.843l.743.623c.371.307.74.616 1.125.9l.693.474c.431.294.864.585 1.31.847l.212.137.584.298c.419.228.84.454 1.273.656l.124.064.607.248c1.619.69 3.31 1.178 5.034 1.5l6.831-11.846c-.8.16-1.63.251-2.481.251z"/>
        <path fill="#EFC75E" d="M47.811 22.296l-.031-.395c-.17-2-.991-4.893-1.673-6.836H31.975c2.417 2.19 3.945 5.343 3.945 8.863 0 3.798-1.773 7.175-4.527 9.368l-8.418 14.6c2.96 0 6.945-.535 9.813-1.681l.097-.031.153-.065c.977-.405 1.944-.85 2.885-1.395a24.118 24.118 0 0 0 2.393-1.598l.043-.034a24.389 24.389 0 0 0 2.076-1.77l.102-.087.33-.337a23.88 23.88 0 0 0 3.707-4.778l.116-.17.208-.42c.326-.593.628-1.199.904-1.815l.353-.83c.233-.586.437-1.179.624-1.779l.247-.772c.229-.834.416-1.675.555-2.526l.058-.485c.103-.73.177-1.465.214-2.207l.014-.594c.012-.74-.003-1.483-.056-2.226z"/>
        <path fill="#E2574C" d="M44.676 11.956a24.06 24.06 0 0 0-1.652-2.46l-.193-.239a23.137 23.137 0 0 0-1.684-1.944l-.4-.411a24.265 24.265 0 0 0-2.035-1.803l-.155-.132a23.649 23.649 0 0 0-2.467-1.654l-.17-.114-.648-.336c-.374-.202-.747-.404-1.132-.585-.37-.173-.742-.325-1.114-.48l-.939-.373c-.453-.164-.911-.301-1.37-.442l-.764-.221c-.5-.13-1.004-.23-1.507-.328l-.712-.14c-.49-.08-.982-.13-1.474-.176l-.807-.082c-.421-.027-.842-.024-1.267-.03L23.147 0l-.808.058c-1.787.12-3.573.439-5.329.97l-.363.099c-.445.144-.883.319-1.323.49l-.844.334c-.362.155-.72.336-1.08.514-.346.17-.695.343-1.036.533l-.39.199-.574.37c-.34.21-.677.424-1.007.652-.324.226-.642.456-.954.693l-.823.657c-.34.284-.67.573-.992.872l-.61.596a23.46 23.46 0 0 0-1.03 1.092l-.223.27 6.81 11.814c1.565-4.79 6.065-8.257 11.379-8.257h20.726z"/>
    </g>
</svg>
