<svg xmlns="http://www.w3.org/2000/svg" width="32" height="32" viewBox="0 0 32 32">
    <g fill="#FFF" fill-rule="nonzero">
        <path d="M29.212 9H3.788A1.79 1.79 0 0 0 2 10.788v5.448a1.79 1.79 0 0 0 1.788 1.787h15.89a.426.426 0 0 0 0-.85H3.788a.937.937 0 0 1-.937-.937v-5.448c0-.517.42-.937.937-.937h25.424c.517 0 .937.42.937.937v4.086a.426.426 0 0 0 .851 0v-4.086A1.79 1.79 0 0 0 29.212 9z"/>
        <path d="M29.184 15.88v-.552a3.608 3.608 0 0 0-3.604-3.604 3.608 3.608 0 0 0-3.603 3.604v.552a1.336 1.336 0 0 0-.909 1.264v4.54c0 .735.599 1.334 1.334 1.334h6.356c.736 0 1.334-.599 1.334-1.334v-4.54c0-.587-.38-1.086-.908-1.264zm-3.604-3.305a2.756 2.756 0 0 1 2.753 2.753v.482h-5.505v-.482a2.756 2.756 0 0 1 2.752-2.753zm3.66 9.109a.483.483 0 0 1-.482.482h-6.356a.483.483 0 0 1-.482-.482v-4.54c0-.266.216-.483.482-.483h6.356c.266 0 .483.217.483.483v4.54zM8.907 12.39a.426.426 0 0 0-.581-.155l-.935.54v-1.08a.426.426 0 0 0-.85 0v1.08l-.935-.54a.426.426 0 1 0-.426.737l.934.54-.934.54a.426.426 0 0 0 .426.736l.934-.54v1.08a.426.426 0 0 0 .851 0v-1.08l.935.54a.424.424 0 0 0 .581-.155.426.426 0 0 0-.156-.582l-.934-.54.934-.539a.426.426 0 0 0 .156-.581zM14.355 12.39a.426.426 0 0 0-.581-.155l-.934.54v-1.08a.426.426 0 0 0-.852 0v1.08l-.934-.54a.426.426 0 1 0-.426.737l.935.54-.935.54a.426.426 0 0 0 .426.736l.934-.54v1.08a.426.426 0 0 0 .852 0v-1.08l.934.54a.424.424 0 0 0 .581-.155.426.426 0 0 0-.156-.582l-.934-.54.934-.539a.426.426 0 0 0 .156-.581zM19.803 12.39a.426.426 0 0 0-.581-.155l-.934.54v-1.08a.426.426 0 0 0-.852 0v1.08l-.934-.54a.426.426 0 1 0-.426.737l.935.54-.935.54a.426.426 0 0 0 .426.736l.934-.54v1.08a.426.426 0 0 0 .852 0v-1.08l.934.54a.424.424 0 0 0 .581-.155.426.426 0 0 0-.155-.582l-.935-.54.935-.539a.426.426 0 0 0 .155-.581z"/>
        <path d="M25.58 17.626c-.735 0-1.333.598-1.333 1.334 0 .586.38 1.085.908 1.264v.552a.426.426 0 0 0 .85 0v-.552c.528-.179.909-.678.909-1.264 0-.736-.598-1.334-1.334-1.334zm0 1.816a.483.483 0 1 1 .001-.966.483.483 0 0 1 0 .966z"/>
    </g>
</svg>
