<svg xmlns="http://www.w3.org/2000/svg" width="24" height="24" viewBox="0 0 24 24">
    <path fill="#FFF" fill-rule="evenodd" d="M20.385.035c-2.01 0-3.605 1.649-3.605 3.605 0 1.17.563 2.202 1.418 2.859l-2.361 6.612a3.967 3.967 0 0 0-.602-.05c-.336 0-.657.045-.963.134l-2.114-3.363c.538-.632.86-1.447.86-2.33 0-2.01-1.65-3.606-3.606-3.606-2.01 0-3.605 1.65-3.605 3.605 0 1.087.484 2.05 1.235 2.711l-2.914 6.183a3.68 3.68 0 0 0-.523-.04C1.595 16.356 0 18.006 0 19.96c0 2.01 1.65 3.605 3.605 3.605s3.55-1.595 3.605-3.605a3.6 3.6 0 0 0-1.26-2.73l2.914-6.173c.183.03.366.044.558.044.37 0 .731-.054 1.067-.163l2.079 3.309a3.605 3.605 0 0 0-.933 2.41c0 2.01 1.649 3.605 3.605 3.605a3.581 3.581 0 0 0 3.604-3.605c0-1.067-.449-2.02-1.175-2.677l2.415-6.76a3.581 3.581 0 0 0 3.911-3.59c-.005-2-1.6-3.595-3.61-3.595zM3.605 21.5a1.551 1.551 0 0 1-1.546-1.545c0-.825.672-1.546 1.546-1.546.825 0 1.546.671 1.546 1.546A1.554 1.554 0 0 1 3.605 21.5zM7.877 7.496c0-.824.671-1.545 1.545-1.545.874 0 1.546.72 1.546 1.545s-.672 1.546-1.546 1.546c-.824 0-1.545-.721-1.545-1.546zm8.908 9.166c0 .824-.72 1.545-1.545 1.545a1.551 1.551 0 0 1-1.546-1.545c0-.825.671-1.546 1.546-1.546.874 0 1.595.721 1.545 1.546zm3.6-11.482c-.825 0-1.545-.72-1.545-1.545s.671-1.546 1.545-1.546c.874 0 1.546.72 1.546 1.546 0 .824-.667 1.545-1.546 1.545z"/>
</svg>
