<svg xmlns="http://www.w3.org/2000/svg" width="24" height="24" viewBox="0 0 24 24">
    <g fill="#FFF" fill-rule="evenodd">
        <path d="M6.736 10.298a1.764 1.764 0 0 1 1.483.502l.98.98.926-.923-1.339-1.335a.535.535 0 0 1 .756-.755l1.339 1.339.927-.923-.984-.984a1.768 1.768 0 0 1-.503-1.482 4.17 4.17 0 0 0-4.748-4.671.249.249 0 0 0-.14.42l1.262 1.262c.6.6.6 1.572 0 2.168l-.775.776c-.6.6-1.572.6-2.169 0L2.486 5.41a.249.249 0 0 0-.421.14 4.17 4.17 0 0 0 4.671 4.749v-.001zM14.584 11.96l-.927.923 5.505 5.504a.535.535 0 0 1-.756.755l-5.504-5.504-.927.923 5.672 5.672a1.842 1.842 0 0 0 2.605-2.605l-5.668-5.668z"/>
        <path d="M16.712 8.285h2.446l2.446-4.888-1.221-1.22-4.892 2.441v2.446l-6.648 6.627L7.647 12.5l-4.818 4.818a2.568 2.568 0 0 0 0 3.634 2.568 2.568 0 0 0 3.634 0l4.818-4.818-1.22-1.22 6.65-6.628z"/>
    </g>
</svg>
