<svg xmlns="http://www.w3.org/2000/svg" width="32" height="32" viewBox="0 0 32 32">
    <path fill="#FFF" fill-rule="nonzero" d="M23.34 7h-7.353a.408.408 0 0 0-.408.409v2.504a1.636 1.636 0 0 0-2.043 1.581 1.636 1.636 0 0 0 2.043 1.58v2.505H12.4a.409.409 0 0 0-.303.682.81.81 0 0 1-.604 1.36.81.81 0 1 1-.604-1.36.408.408 0 0 0-.304-.682H7.41a.408.408 0 0 0-.409.408v7.353c0 .902.733 1.634 1.634 1.634H23.34c.901 0 1.634-.732 1.634-1.634V8.634c0-.901-.733-1.634-1.634-1.634zm-7.519 13.607a.41.41 0 0 0-.242.373v3.177H8.634a.818.818 0 0 1-.817-.817v-6.944h2.095a1.63 1.63 0 0 0 1.582 2.042 1.636 1.636 0 0 0 1.581-2.042h2.504v2.769a.41.41 0 0 0 .682.303.814.814 0 0 1 .543-.213.818.818 0 0 1 0 1.634.813.813 0 0 1-.543-.213.41.41 0 0 0-.44-.07zm8.336 2.733c0 .45-.366.817-.817.817h-6.944v-2.504a1.636 1.636 0 0 0 2.043-1.581 1.636 1.636 0 0 0-2.043-1.58v-2.096h2.912a1.63 1.63 0 0 0 1.581 2.042 1.636 1.636 0 0 0 1.582-2.042h1.686v6.944zm0-7.761h-2.36a.409.409 0 0 0-.304.682.81.81 0 0 1-.604 1.36.81.81 0 1 1-.604-1.36.408.408 0 0 0-.303-.682h-3.586V12.4a.41.41 0 0 0-.682-.303.814.814 0 0 1-.544.213.818.818 0 0 1 0-1.634c.198 0 .391.075.544.213a.41.41 0 0 0 .682-.304V7.817h6.944c.451 0 .817.367.817.817v6.945z"/>
</svg>
