<svg xmlns="http://www.w3.org/2000/svg" width="24" height="24" viewBox="0 0 24 24">
    <g fill="#FFF" fill-rule="nonzero">
        <path d="M11.977 2.031c-3.307 0-6.3 1.34-8.467 3.506l-.002.002-.002.003A11.94 11.94 0 0 0 0 13.997L0 14.008v.01c.003 2.816.981 5.485 2.738 7.612.19.23.472.362.77.362h16.937c.298 0 .58-.132.77-.362a11.93 11.93 0 0 0 2.739-7.622c0-6.614-5.363-11.977-11.977-11.977zm7.985 17.965H3.992a9.917 9.917 0 0 1-1.946-4.99H4.99a.998.998 0 1 0 0-1.996H2.046c.2-2.007.993-3.84 2.203-5.318l.67.67a.998.998 0 0 0 1.412-1.411l-.67-.67a9.934 9.934 0 0 1 5.318-2.204v2.945a.998.998 0 1 0 1.996 0V4.077c2.007.2 3.839.993 5.318 2.203l-.67.67a.998.998 0 0 0 1.411 1.412l.67-.67a9.934 9.934 0 0 1 2.204 5.318h-2.945a.998.998 0 1 0 0 1.996h2.945a9.918 9.918 0 0 1-1.946 4.99z"/>
        <path d="M12.148 16.004l2.822-5.646-5.645 2.824z"/>
    </g>
</svg>
