<svg xmlns="http://www.w3.org/2000/svg" width="24" height="24" viewBox="0 0 24 24">
    <g fill="#FFF" fill-rule="nonzero">
        <path d="M12.902 20.246l-.377-.116a.57.57 0 0 0-.412.03l-.76.361-.759-.361a.571.571 0 0 0-.412-.03l-.377.116a1.588 1.588 0 0 0-1.088 1.509v1.675c0 .315.255.57.57.57h4.133a.57.57 0 0 0 .57-.57v-1.675c0-.686-.437-1.292-1.088-1.51zM9.562 17.993c0 .988.804 1.791 1.792 1.791.987 0 1.79-.803 1.79-1.791 0-.988-.803-1.791-1.79-1.791-.988 0-1.792.803-1.792 1.79zM9.288 7.87h4.132a.57.57 0 0 0 .57-.57V5.623c0-.686-.437-1.292-1.088-1.509L12.525 4a.57.57 0 0 0-.412.03l-.76.361-.759-.36a.57.57 0 0 0-.412-.03l-.377.115a1.588 1.588 0 0 0-1.088 1.509v1.675c0 .315.256.57.57.57zM11.354 3.582c.987 0 1.79-.803 1.79-1.79 0-.989-.803-1.792-1.79-1.792-.988 0-1.792.803-1.792 1.791 0 .988.804 1.791 1.792 1.791zM4.215 20.246l-.378-.116a.57.57 0 0 0-.412.03l-.76.361-.758-.361a.57.57 0 0 0-.412-.03l-.378.116A1.588 1.588 0 0 0 .03 21.755v1.675c0 .315.256.57.57.57h4.133a.57.57 0 0 0 .57-.57v-1.675c0-.686-.437-1.292-1.087-1.51zM2.666 19.784c.987 0 1.791-.803 1.791-1.791 0-.988-.804-1.791-1.791-1.791-.988 0-1.791.803-1.791 1.79 0 .989.803 1.792 1.79 1.792zM21.59 20.246l-.377-.116a.57.57 0 0 0-.413.03l-.759.361-.759-.36a.571.571 0 0 0-.412-.031l-.378.116a1.588 1.588 0 0 0-1.087 1.509v1.675c0 .315.255.57.57.57h4.132a.57.57 0 0 0 .57-.57v-1.675c0-.686-.437-1.292-1.087-1.51zM18.25 17.993c0 .988.804 1.791 1.791 1.791.988 0 1.791-.803 1.791-1.791 0-.988-.803-1.791-1.79-1.791-.988 0-1.792.803-1.792 1.79zM2.666 14.713c.382 0 .692-.31.692-.693v-1.386h7.303v1.386a.692.692 0 0 0 1.385 0v-1.386h7.303v1.386a.692.692 0 0 0 1.384 0v-2.078a.692.692 0 0 0-.692-.693h-7.995V9.336a.692.692 0 0 0-1.385 0v1.913H2.666a.692.692 0 0 0-.693.693v2.078c0 .383.31.693.693.693z"/>
    </g>
</svg>
