<svg xmlns="http://www.w3.org/2000/svg" width="24" height="24" viewBox="0 0 24 24">
    <g fill="#FFF" fill-rule="evenodd">
        <path d="M11.88 10c-.099 0-.198 0-.297-.1l-10.89-4C.297 5.8 0 5.4 0 5s.297-.8.693-.9l10.89-4c.198-.1.495-.1.693 0l10.89 4c.297.1.594.5.594.9s-.297.8-.693.9l-10.89 4c-.099.1-.198.1-.297.1zM3.861 5l8.019 2.9L19.899 5 11.88 2.1 3.861 5zM11.88 24c-.099 0-.198 0-.297-.1l-10.89-4c-.495-.2-.792-.8-.594-1.3.198-.5.792-.8 1.287-.6l10.494 3.9L22.473 18c.495-.2 1.089.1 1.287.6.198.5-.099 1.1-.594 1.3l-10.89 4c-.198.1-.297.1-.396.1z"/>
        <path d="M11.88 24c-.594 0-.99-.4-.99-1V9c0-.6.396-1 .99-1s.99.4.99 1v14c0 .6-.396 1-.99 1zM22.77 20c-.594 0-.99-.4-.99-1V5c0-.6.396-1 .99-1s.99.4.99 1v14c0 .6-.396 1-.99 1zM.99 20C.396 20 0 19.6 0 19V5c0-.6.396-1 .99-1s.99.4.99 1v14c0 .6-.396 1-.99 1z"/>
    </g>
</svg>
