<svg xmlns="http://www.w3.org/2000/svg" width="24" height="24" viewBox="0 0 24 24">
    <g fill="#FFF" fill-rule="nonzero">
        <path d="M20.404 1.715H16.63l.254 1.178c.032.147.03.293.014.438h2.697v19.038H4.659V3.331h2.698a1.361 1.361 0 0 1 .014-.44l.254-1.176H3.852a.807.807 0 0 0-.807.808v20.654c0 .445.36.808.807.808h16.552a.808.808 0 0 0 .807-.808V2.523a.808.808 0 0 0-.807-.808z"/>
        <path d="M17.695 7.553h-5.517a.807.807 0 1 0 0 1.615h5.517a.807.807 0 1 0 0-1.615zM17.695 12.506h-5.517a.807.807 0 1 0 0 1.616h5.517a.808.808 0 0 0 0-1.616zM6.04 7.743a.808.808 0 0 0-.097 1.138l1.178 1.396a.806.806 0 0 0 1.304-.097l2.119-3.43A.806.806 0 1 0 9.17 5.9L7.636 8.384l-.459-.543a.806.806 0 0 0-1.137-.097zM7.974 12.103a1.211 1.211 0 1 0-.001 2.423 1.211 1.211 0 0 0 0-2.423zM17.695 17.351h-5.517a.807.807 0 1 0 0 1.615h5.517a.807.807 0 1 0 0-1.615zM7.974 16.948a1.211 1.211 0 1 0-.001 2.422 1.211 1.211 0 0 0 0-2.422zM8.702 3.734h6.85a.553.553 0 0 0 .543-.672L15.528.437A.555.555 0 0 0 14.986 0H9.27a.555.555 0 0 0-.542.437L8.16 3.062a.553.553 0 0 0 .542.672z"/>
    </g>
</svg>
