<svg xmlns="http://www.w3.org/2000/svg" width="32" height="32" viewBox="0 0 32 32">
    <g fill="#FFF" fill-rule="nonzero">
        <path d="M27.61 21.614l-3.142 4.514-2.217-1.82a.561.561 0 1 0-.712.868l2.687 2.205a.559.559 0 0 0 .817-.113l3.488-5.013a.561.561 0 1 0-.922-.641z"/>
        <path d="M30.316 20.045V6.835A6.843 6.843 0 0 0 23.48 0H6.836A6.843 6.843 0 0 0 0 6.836V23.48a6.843 6.843 0 0 0 6.836 6.836h13.209A7.264 7.264 0 0 0 24.702 32C28.726 32 32 28.726 32 24.702a7.264 7.264 0 0 0-1.684-4.657zm-23.48 9.148a5.719 5.719 0 0 1-5.713-5.713V6.836a5.719 5.719 0 0 1 5.713-5.713H23.48a5.719 5.719 0 0 1 5.713 5.713v12.121c-.042-.033-.087-.06-.13-.093a7.093 7.093 0 0 0-.359-.258l-.04-.024a7.282 7.282 0 0 0-.907-.499c-.043-.02-.084-.042-.127-.06-.123-.055-.25-.102-.377-.15-.08-.03-.16-.06-.242-.088a7.481 7.481 0 0 0-.655-.184 6.954 6.954 0 0 0-.713-.129c-.087-.011-.174-.025-.263-.034a6.988 6.988 0 0 0-.678-.034c-3.444 0-6.331 2.4-7.095 5.614h-2.45a.561.561 0 1 0 0 1.122h2.275a7.144 7.144 0 0 0-.028.562c0 .227.013.453.034.678.008.09.022.176.033.264a6.856 6.856 0 0 0 .314 1.37c.027.078.057.156.086.234.048.129.096.257.151.383.016.037.036.073.053.11.15.326.32.64.515.938l.015.023c.082.124.17.243.26.362.031.043.06.087.092.129H6.836zm17.866 1.684a6.143 6.143 0 0 1-4.12-1.589 6.084 6.084 0 0 1-.39-.38l-.08-.09a6.355 6.355 0 0 1-.334-.404c-.024-.032-.05-.064-.073-.097a6.22 6.22 0 0 1-.292-.443l-.056-.091a6.175 6.175 0 0 1-.253-.488l-.038-.079a5.98 5.98 0 0 1-.207-.53l-.024-.066c-.06-.184-.11-.37-.154-.56l-.017-.065a5.934 5.934 0 0 1-.091-.564c-.003-.026-.01-.052-.012-.08a6.183 6.183 0 0 1 6.792-6.79c.026.003.05.01.075.012.191.023.381.053.568.093.022.005.042.012.063.016.19.044.377.094.562.154l.061.023c.182.061.361.131.537.21.024.01.048.024.073.035a6.3 6.3 0 0 1 .493.255c.03.017.058.036.086.053.154.093.303.19.448.296l.092.069c.141.106.278.22.41.338a6.283 6.283 0 0 1 .47.471 6.14 6.14 0 0 1 1.586 4.116 6.183 6.183 0 0 1-6.175 6.175z"/>
        <path d="M15.158 7.86h10.105a.561.561 0 1 0 0-1.123H15.158a.561.561 0 1 0 0 1.123zM15.158 15.72h10.105a.561.561 0 1 0 0-1.124H15.158a.561.561 0 1 0 0 1.123zM10.762 4.126L7.254 8.218l-2.145-1.61a.561.561 0 0 0-.674.898l2.566 1.925a.558.558 0 0 0 .764-.084l3.85-4.491a.561.561 0 1 0-.853-.73zM10.762 11.986l-3.508 4.091-2.145-1.61a.561.561 0 0 0-.674.899l2.566 1.925a.558.558 0 0 0 .764-.085l3.85-4.49a.561.561 0 1 0-.853-.73zM10.762 20.407l-3.508 4.091-2.145-1.609a.562.562 0 0 0-.674.898l2.566 1.925a.558.558 0 0 0 .764-.084l3.85-4.491a.561.561 0 1 0-.853-.73z"/>
    </g>
</svg>
