<svg xmlns="http://www.w3.org/2000/svg" width="24" height="24" viewBox="0 0 24 24">
    <path fill="#FFF" fill-rule="evenodd" d="M20.342 17.014a7.557 7.557 0 0 1-2.281-5.398V9.723c0-3.013-2.115-5.54-4.969-6.238V1.56C13.092.7 12.38 0 11.5 0c-.88 0-1.592.699-1.592 1.56v1.925c-2.854.697-4.969 3.225-4.969 6.238v1.893c0 2.025-.82 3.966-2.281 5.398a2.168 2.168 0 0 0-.487 2.398 2.246 2.246 0 0 0 2.074 1.358h3.959C8.204 22.554 9.68 24 11.5 24c1.82 0 3.296-1.446 3.296-3.23h3.959c.908 0 1.726-.536 2.074-1.358a2.168 2.168 0 0 0-.487-2.398zm-8.842 5.4c-.925 0-1.678-.737-1.678-1.644h3.356c0 .907-.753 1.645-1.678 1.645zm7.834-3.609a.626.626 0 0 1-.58.38H4.246a.626.626 0 0 1-.58-.38.604.604 0 0 1 .137-.67c1.777-1.741 2.755-4.056 2.755-6.519V9.723c0-2.671 2.218-4.844 4.943-4.844 2.725 0 4.943 2.173 4.943 4.844v1.893c0 2.463.978 4.778 2.755 6.52.18.176.234.439.136.67z"/>
</svg>
