<svg xmlns="http://www.w3.org/2000/svg" width="48" height="48" viewBox="0 0 48 48">
    <g fill="none" fill-rule="nonzero">
        <path fill="#8DC3E9" d="M25 0S19.545 6.62 7 6.62v15.795c0 8.248 3.541 16.202 9.952 21.298C19.222 45.517 21.897 47.07 25 48c3.103-.931 5.778-2.483 8.048-4.287C39.458 38.617 43 30.663 43 22.415V6.621C30.455 6.62 25 0 25 0z"/>
        <path fill="#4A90E2" d="M25 44.4c-1.91-.753-3.76-1.83-5.515-3.215C13.92 36.796 10.6 29.698 10.6 22.196V10.038C17.252 9.186 21.975 6.864 25 4.8c3.025 2.064 7.748 4.386 14.4 5.238v12.158c0 7.502-3.321 14.6-8.884 18.99C28.76 42.57 26.911 43.646 25 44.4z"/>
        <path fill="#F2D23D" d="M25.634 22.344c.93-1.81.888-3.82-.652-5.33-2.02-1.983-5.359-1.88-7.241.307-1.637 1.901-1.494 4.788.31 6.536 1.372 1.33 3.263 1.623 4.975 1.045l.87.87h1.544v1.206h1.229v1.207h1.536v1.507h.922v.837c0 .244.012.316.17.47.119.117.277.188.445.201H32.2v-2.714l-6.566-6.142zm-4.346-2.132c-.6.588-1.572.588-2.172 0-.6-.59-.6-1.544 0-2.133a1.557 1.557 0 0 1 2.172 0c.6.589.6 1.544 0 2.133z"/>
    </g>
</svg>
