<?xml version="1.0" encoding="UTF-8"?>
<svg width="64px" height="64px" viewBox="0 0 64 64" version="1.1" xmlns="http://www.w3.org/2000/svg" xmlns:xlink="http://www.w3.org/1999/xlink">
    <!-- Generator: sketchtool 52.5 (67469) - http://www.bohemiancoding.com/sketch -->
    <title>F82B46D8-D7BE-405A-9EDC-326D0DB19631</title>
    <desc>Created with sketchtool.</desc>
    <defs>
        <linearGradient x1="50%" y1="-7.8125%" x2="50%" y2="109.375%" id="linearGradient-1">
            <stop stop-color="#60B7FF" offset="0%"></stop>
            <stop stop-color="#0075C9" offset="100%"></stop>
        </linearGradient>
        <circle id="path-2" cx="32" cy="32" r="31"></circle>
        <filter x="-4.0%" y="-4.0%" width="108.1%" height="108.1%" filterUnits="objectBoundingBox" id="filter-3">
            <feGaussianBlur stdDeviation="1.5" in="SourceAlpha" result="shadowBlurInner1"></feGaussianBlur>
            <feOffset dx="2" dy="1" in="shadowBlurInner1" result="shadowOffsetInner1"></feOffset>
            <feComposite in="shadowOffsetInner1" in2="SourceAlpha" operator="arithmetic" k2="-1" k3="1" result="shadowInnerInner1"></feComposite>
            <feColorMatrix values="0 0 0 0 0   0 0 0 0 0   0 0 0 0 0  0 0 0 0.3 0" type="matrix" in="shadowInnerInner1"></feColorMatrix>
        </filter>
        <linearGradient x1="0%" y1="0%" x2="100%" y2="100%" id="linearGradient-4">
            <stop stop-color="#73CFFA" offset="0%"></stop>
            <stop stop-color="#3FA1F2" offset="100%"></stop>
        </linearGradient>
    </defs>
    <g id="Symbols" stroke="none" stroke-width="1" fill="none" fill-rule="evenodd">
        <g id="icon-ThunderADC">
            <g id="ADC_icon_Active">
                <g id="ADC-icon-circle">
                    <g id="Oval-Copy-11" fill-rule="nonzero">
                        <use fill="url(#linearGradient-1)" xlink:href="#path-2"></use>
                        <use fill="black" fill-opacity="1" filter="url(#filter-3)" xlink:href="#path-2"></use>
                    </g>
                    <path d="M32,60 C47.463973,60 60,47.463973 60,32 C60,16.536027 47.463973,4 32,4 C16.536027,4 4,16.536027 4,32 C4,47.463973 16.536027,60 32,60 Z M32,64 C14.326888,64 0,49.673112 0,32 C0,14.326888 14.326888,0 32,0 C49.673112,0 64,14.326888 64,32 C64,49.673112 49.673112,64 32,64 Z" id="Oval-Copy-12" fill="url(#linearGradient-4)" fill-rule="nonzero"></path>
                    <path d="M52,30.7422994 C52,36.1316177 47.6311826,40.5004352 42.2418642,40.5004352 C41.1372947,40.5004352 40.2418642,39.6050047 40.2418642,38.5004352 C40.2418642,37.3958657 41.1372947,36.5004352 42.2418642,36.5004352 C45.4220436,36.5004352 48,33.9224787 48,30.7422994 C48,28.2233829 46.3669208,26.0195861 44.0059147,25.2603588 L41.785705,24.5464073 L42.8297986,22.4609994 C43.0593458,22.0025162 43.1794997,21.5077037 43.1794997,20.9977474 C43.1794997,19.1865926 41.711374,17.7185276 39.9002799,17.7185276 C39.3087343,17.7185276 38.7416455,17.8779825 38.2352402,18.1784957 L36.4270803,19.2515016 L35.4457681,17.3919827 C34.031217,14.7115063 31.2537875,13 28.171206,13 C23.6306928,13 19.9502551,16.6803592 19.9502551,21.2206352 C19.9502551,21.2953582 19.9524551,21.3725475 19.9584597,21.523415 L20.010033,22.8191923 L18.8480723,23.3949925 C16.5095686,24.5538192 15,26.9357605 15,29.5899759 C15,33.4066167 18.0938185,36.5004352 21.9104592,36.5004352 C23.0150287,36.5004352 23.9104592,37.3958657 23.9104592,38.5004352 C23.9104592,39.6050047 23.0150287,40.5004352 21.9104592,40.5004352 C15.8846795,40.5004352 11,35.6157557 11,29.5899759 C11,25.832114 12.9184134,22.4179542 15.9750633,20.4355918 C16.3797606,14.0520088 21.6852966,9 28.171206,9 C32.1234942,9 35.740574,10.8945628 38.0077146,13.9700522 C38.6186859,13.8044028 39.2536854,13.7185276 39.9002799,13.7185276 C43.920476,13.7185276 47.1794997,16.9774166 47.1794997,20.9977474 C47.1794997,21.4244782 47.1418631,21.8465025 47.0683317,22.2603635 C50.055562,23.9606893 52,27.1632285 52,30.7422994 Z" id="Stroke-1" fill="#FFFFFF" fill-rule="nonzero"></path>
                    <g id="Group-9" transform="translate(17.000000, 31.000000)" fill="#FFFFFF">
                        <rect id="Rectangle-15" x="11" y="0" width="8" height="8"></rect>
                        <rect id="Rectangle-15-Copy" x="0" y="14" width="8" height="8"></rect>
                        <rect id="Rectangle-15-Copy-2" x="11" y="14" width="8" height="8"></rect>
                        <rect id="Rectangle-15-Copy-3" x="22" y="14" width="8" height="8"></rect>
                        <polygon id="Line-5" fill-rule="nonzero" points="12.1792919 4.40306263 14.5969374 6.17929193 4.94570807 19.3156874 2.52806263 17.5394581"></polygon>
                        <polygon id="Line-6" fill-rule="nonzero" points="15.4 5.2 17.8 3.4 28.6 17.8 26.2 19.6"></polygon>
                        <polygon id="Line-7" fill-rule="nonzero" points="13.7428571 5.5 16.7428571 5.5 16.7428571 18.1839286 13.7428571 18.1839286"></polygon>
                    </g>
                </g>
            </g>
        </g>
    </g>
</svg>