<svg xmlns="http://www.w3.org/2000/svg" viewBox="0 0 20.12 25"><defs><style>.cls-1{fill:none;stroke:#fff;stroke-miterlimit:10;}</style></defs><title>Alert</title><g id="Layer_2" data-name="Layer 2"><g id="Hermony_controler" data-name="Hermony controler"><g id="Row_6" data-name="Row 6"><g id="Alert"><path class="cls-1" d="M19.14,20.92H1a.49.49,0,0,1-.42-.24.48.48,0,0,1,0-.48l1.64-2.73a8.13,8.13,0,0,0,1.16-4.18v-2.4a6.69,6.69,0,0,1,13.38,0v2.4a8.13,8.13,0,0,0,1.16,4.18l1.64,2.73a.48.48,0,0,1-.41.72Z"/><path class="cls-1" d="M8.15,4.32V2.41a1.91,1.91,0,0,1,3.82,0V4.32"/><path class="cls-1" d="M12.13,20.91a2.39,2.39,0,1,1-4.14,0"/></g></g></g></g></svg>