<svg xmlns="http://www.w3.org/2000/svg" viewBox="0 0 25 24.89"><defs><style>.cls-1{fill:none;stroke:#fff;stroke-linecap:round;stroke-linejoin:round;}</style></defs><title>Apps</title><g id="Layer_2" data-name="Layer 2"><g id="Hermony_controler" data-name="Hermony controler"><g id="Row_7" data-name="Row 7"><g id="Apps"><path class="cls-1" d="M12.51,7.5V12a.5.5,0,0,1-.5.5H7.73"/><path class="cls-1" d="M5.32,12.49H1A.5.5,0,0,1,.53,12V1A.49.49,0,0,1,1,.5H12a.5.5,0,0,1,.5.5V5.1"/><path class="cls-1" d="M17.2,12.49H13a.51.51,0,0,1-.5-.5V7.7"/><path class="cls-1" d="M12.51,5V1A.5.5,0,0,1,13,.5H24a.5.5,0,0,1,.5.5V12a.5.5,0,0,1-.5.5H19.9"/><path class="cls-1" d="M12.51,5.1a1.7,1.7,0,1,1,0,2.4"/><path class="cls-1" d="M5.32,12.5a1.7,1.7,0,1,1,2.41,0"/><path class="cls-1" d="M12.49,16.9v-4a.49.49,0,0,1,.49-.5h4.29"/><path class="cls-1" d="M19.68,12.41H24a.5.5,0,0,1,.5.5v11a.49.49,0,0,1-.5.49H13a.49.49,0,0,1-.49-.49V19.8"/><path class="cls-1" d="M19.68,12.4a1.7,1.7,0,1,1-2.41,0"/><path class="cls-1" d="M7.78,12.45l4.21,0a.51.51,0,0,1,.5.5v4.29"/><path class="cls-1" d="M12.49,20.36v3.53a.5.5,0,0,1-.5.5H1a.5.5,0,0,1-.5-.5v-11a.5.5,0,0,1,.5-.5H5.1"/><path class="cls-1" d="M12.5,19.71a1.7,1.7,0,1,1,0-2.41"/></g></g></g></g></svg>