<svg xmlns="http://www.w3.org/2000/svg" viewBox="0 0 25 20.73"><defs><style>.cls-1{fill:none;stroke:#fff;stroke-linecap:round;stroke-linejoin:round;}</style></defs><title>Apps Catalog</title><g id="Layer_2" data-name="Layer 2"><g id="Hermony_controler" data-name="Hermony controler"><g id="Row_7" data-name="Row 7"><g id="Apps_Catalog" data-name="Apps Catalog"><path class="cls-1" d="M10.37,6.25V9.94a.41.41,0,0,1-.41.41H6.44"/><path class="cls-1" d="M4.46,10.35H.93a.41.41,0,0,1-.41-.41v-9A.41.41,0,0,1,.93.5h9a.41.41,0,0,1,.41.41V4.28"/><path class="cls-1" d="M10.37,4.28a1.39,1.39,0,1,1,1,2.38,1.36,1.36,0,0,1-1-.41"/><path class="cls-1" d="M4.46,10.36a1.42,1.42,0,0,1-.41-1,1.4,1.4,0,1,1,2.39,1"/><path class="cls-1" d="M6.4,10.38H9.94a.41.41,0,0,1,.41.41v3.52"/><path class="cls-1" d="M10.35,16.29v3.53a.41.41,0,0,1-.41.41h-9a.41.41,0,0,1-.41-.41v-9a.41.41,0,0,1,.41-.41H4.28"/><path class="cls-1" d="M10.36,16.29A1.4,1.4,0,0,1,8,15.3a1.4,1.4,0,0,1,2.38-1"/><line class="cls-1" x1="15.02" y1="4.49" x2="24.5" y2="4.49"/><line class="cls-1" x1="15.02" y1="15.64" x2="24.5" y2="15.64"/></g></g></g></g></svg>