<svg xmlns="http://www.w3.org/2000/svg" viewBox="0 0 23 21.83"><defs><style>.cls-1,.cls-2{fill:none;stroke:#fff;}.cls-1{stroke-miterlimit:10;}.cls-2{stroke-linejoin:round;}</style></defs><title>Cluster 2</title><g id="Layer_2" data-name="Layer 2"><g id="Thunder_ADC" data-name="Thunder ADC"><g id="Row_2" data-name="Row 2"><g id="Cluster_2" data-name="Cluster 2"><line class="cls-1" x1="11.4" y1="14.89" x2="11.4" y2="18.18"/><line class="cls-2" x1="3.01" y1="19.93" x2="8.01" y2="19.93"/><line class="cls-2" x1="19.67" y1="19.93" x2="14.71" y2="19.93"/><circle class="cls-1" cx="11.33" cy="19.93" r="1.4"/><path class="cls-1" d="M.5,10.15V5.27C.5,3.43,5.42.5,11.5.5s11,2.13,11,4.77v4.88"/><path class="cls-1" d="M22.5,10c0,2.64-4.92,4.77-11,4.77S.5,12.67.5,10"/><path class="cls-1" d="M22.5,5.27c0,2.63-4.92,4.76-11,4.76S.5,7.9.5,5.27"/><path class="cls-1" d="M3.54,10.94A8.31,8.31,0,0,1,2,10"/></g></g></g></g></svg>