<svg xmlns="http://www.w3.org/2000/svg" viewBox="0 0 24.68 22.16"><defs><style>.cls-1{fill:none;stroke:#fff;stroke-miterlimit:10;}.cls-2{fill:#fff;}</style></defs><title>Config Backup</title><g id="Layer_2" data-name="Layer 2"><g id="Hermony_controler" data-name="Hermony controler"><g id="Row_5" data-name="Row 5"><g id="Config_Backup" data-name="Config Backup"><rect class="cls-1" x="0.5" y="0.5" width="19.58" height="5.72" rx="0.82" ry="0.82"/><line class="cls-1" x1="4.18" y1="3.36" x2="9.87" y2="3.36"/><line class="cls-1" x1="11.11" y1="2.61" x2="11.11" y2="4.11"/><line class="cls-1" x1="12.34" y1="2.61" x2="12.34" y2="4.11"/><line class="cls-1" x1="13.57" y1="2.61" x2="13.57" y2="4.11"/><line class="cls-1" x1="14.8" y1="2.61" x2="14.8" y2="4.11"/><line class="cls-1" x1="16.03" y1="2.61" x2="16.03" y2="4.11"/><line class="cls-1" x1="17.27" y1="2.61" x2="17.27" y2="4.11"/><line class="cls-1" x1="18.5" y1="2.61" x2="18.5" y2="4.11"/><rect class="cls-1" x="2.03" y="3.1" width="0.52" height="0.52"/><path class="cls-1" d="M13.18,13.94H1.32a.82.82,0,0,1-.82-.81V9a.82.82,0,0,1,.82-.82H19.26a.82.82,0,0,1,.82.82v.75"/><line class="cls-1" x1="4.18" y1="11.08" x2="9.87" y2="11.08"/><line class="cls-1" x1="11.11" y1="10.34" x2="11.11" y2="11.83"/><line class="cls-1" x1="12.34" y1="10.34" x2="12.34" y2="11.83"/><line class="cls-1" x1="13.57" y1="10.34" x2="13.57" y2="11.83"/><line class="cls-1" x1="14.8" y1="10.34" x2="14.8" y2="11.83"/><rect class="cls-1" x="2.03" y="10.82" width="0.52" height="0.52"/><path class="cls-1" d="M14.8,21.66H1.32a.82.82,0,0,1-.82-.81V16.76a.82.82,0,0,1,.82-.82H12.91"/><line class="cls-1" x1="4.18" y1="18.8" x2="9.87" y2="18.8"/><line class="cls-1" x1="11.11" y1="18.06" x2="11.11" y2="19.55"/><line class="cls-1" x1="12.34" y1="18.06" x2="12.34" y2="19.55"/><rect class="cls-1" x="2.03" y="18.54" width="0.52" height="0.52"/><path class="cls-1" d="M15,16.88c0-.1,0-.4,0-.51"/><path class="cls-1" d="M16.36,13.32a4.59,4.59,0,1,1,3.23,7.84,4.62,4.62,0,0,1-4.42-3.33"/><polygon class="cls-2" points="18.99 13.9 19.02 13.4 16.56 13.26 16.88 10.82 16.39 10.75 15.99 13.73 18.99 13.9"/><path class="cls-1" d="M19.37,14.28v2.07a.21.21,0,0,0,.07.16l2.39,2.39"/></g></g></g></g></svg>