<svg xmlns="http://www.w3.org/2000/svg" viewBox="0 0 25 14.1"><defs><style>.cls-1,.cls-3{fill:none;stroke:#fff;stroke-miterlimit:10;}.cls-1{stroke-linecap:round;}.cls-2{font-size:12px;fill:#fff;font-family:MyriadPro-Regular, Myriad Pro;}</style></defs><title>Credential</title><g id="Layer_2" data-name="Layer 2"><g id="Hermony_controler" data-name="Hermony controler"><g id="Row_5" data-name="Row 5"><g id="Credential"><path class="cls-1" d="M17.68,9.5H2.05A1.56,1.56,0,0,1,.5,8V2.05A1.56,1.56,0,0,1,2.05.5H23A1.56,1.56,0,0,1,24.5,2.05V3.44"/><text class="cls-2" transform="translate(1.6 11.1)">*</text><text class="cls-2" transform="translate(7.1 11.1)">*</text><text class="cls-2" transform="translate(12.6 11.1)">*</text><rect class="cls-3" x="18.5" y="4.59" width="6" height="4.84" rx="0.66" ry="0.66"/><path class="cls-3" d="M23.06,4.66V4.07a1.54,1.54,0,0,0-1.54-1.54h0a1.54,1.54,0,0,0-1.54,1.54v.59"/><path class="cls-3" d="M22.22,8.14v-1a.73.73,0,1,0-.9,0v1Z"/></g></g></g></g></svg>