<svg xmlns="http://www.w3.org/2000/svg" viewBox="0 0 25 22.77"><defs><style>.cls-1{fill:none;stroke:#fff;stroke-miterlimit:10;}</style></defs><title>Devices</title><g id="Layer_2" data-name="Layer 2"><g id="Hermony_controler" data-name="Hermony controler"><g id="Row_5" data-name="Row 5"><g id="Devices"><path class="cls-1" d="M19.48,18.65a1.4,1.4,0,1,1,1.4-1.4A1.4,1.4,0,0,1,19.48,18.65Z"/><path class="cls-1" d="M20.09,22.27H18.87a.19.19,0,0,1-.18-.19V21a3.8,3.8,0,0,1-1.3-.53l-.77.77a.19.19,0,0,1-.26,0l-.86-.86a.19.19,0,0,1,0-.26l.77-.77a3.82,3.82,0,0,1-.54-1.3H14.64a.18.18,0,0,1-.18-.18V16.64a.18.18,0,0,1,.18-.18h1.09a3.73,3.73,0,0,1,.54-1.3l-.77-.77a.19.19,0,0,1,0-.26l.86-.86a.19.19,0,0,1,.26,0l.77.77a3.73,3.73,0,0,1,1.3-.54V12.41a.18.18,0,0,1,.18-.18h1.22a.18.18,0,0,1,.18.18V13.5a3.73,3.73,0,0,1,1.3.54l.77-.77a.19.19,0,0,1,.26,0l.86.86a.19.19,0,0,1,0,.26l-.77.77a3.73,3.73,0,0,1,.54,1.3h1.09a.18.18,0,0,1,.18.18v1.22a.18.18,0,0,1-.18.18H23.23a3.82,3.82,0,0,1-.54,1.3l.77.77a.19.19,0,0,1,0,.26l-.86.86a.19.19,0,0,1-.26,0l-.77-.77a3.92,3.92,0,0,1-1.3.53v1.09A.19.19,0,0,1,20.09,22.27Z"/><rect class="cls-1" x="0.5" y="0.5" width="19.58" height="5.72" rx="0.82" ry="0.82"/><line class="cls-1" x1="4.18" y1="3.36" x2="9.87" y2="3.36"/><line class="cls-1" x1="11.11" y1="2.61" x2="11.11" y2="4.11"/><line class="cls-1" x1="12.34" y1="2.61" x2="12.34" y2="4.11"/><line class="cls-1" x1="13.57" y1="2.61" x2="13.57" y2="4.11"/><line class="cls-1" x1="14.8" y1="2.61" x2="14.8" y2="4.11"/><line class="cls-1" x1="16.03" y1="2.61" x2="16.03" y2="4.11"/><line class="cls-1" x1="17.27" y1="2.61" x2="17.27" y2="4.11"/><line class="cls-1" x1="18.5" y1="2.61" x2="18.5" y2="4.11"/><rect class="cls-1" x="2.03" y="3.1" width="0.52" height="0.52"/><path class="cls-1" d="M13.18,13.94H1.32a.82.82,0,0,1-.82-.81V9a.82.82,0,0,1,.82-.82H19.26a.82.82,0,0,1,.82.82v.75"/><line class="cls-1" x1="4.18" y1="11.08" x2="9.87" y2="11.08"/><line class="cls-1" x1="11.11" y1="10.34" x2="11.11" y2="11.83"/><line class="cls-1" x1="12.34" y1="10.34" x2="12.34" y2="11.83"/><line class="cls-1" x1="13.57" y1="10.34" x2="13.57" y2="11.83"/><line class="cls-1" x1="14.8" y1="10.34" x2="14.8" y2="11.83"/><rect class="cls-1" x="2.03" y="10.82" width="0.52" height="0.52"/><path class="cls-1" d="M14.8,21.66H1.32a.82.82,0,0,1-.82-.81V16.76a.82.82,0,0,1,.82-.82H12.91"/><line class="cls-1" x1="4.18" y1="18.8" x2="9.87" y2="18.8"/><line class="cls-1" x1="11.11" y1="18.06" x2="11.11" y2="19.55"/><line class="cls-1" x1="12.34" y1="18.06" x2="12.34" y2="19.55"/><rect class="cls-1" x="2.03" y="18.54" width="0.52" height="0.52"/></g></g></g></g></svg>