<svg xmlns="http://www.w3.org/2000/svg" viewBox="0 0 200 200">
  <defs>
  </defs>
  <title>in-abnormal-progress</title>
  <path fill="none" d="M 0 -50 L 0 -100 Z" stroke="#a80115" stroke-width="10" transform="translate(100,100)"></path>
  <path fill="none" d="M 0 -50 L 0 -100 Z" stroke="#a80115" stroke-width="10" transform="translate(100,100) rotate(36 0 0)"></path>
  <path fill="none" d="M 0 -50 L 0 -100 Z" stroke="#a80115" stroke-width="10" transform="translate(100,100) rotate(72 0 0)"></path>
  <path fill="none" d="M 0 -50 L 0 -100 Z" stroke="#a80115" stroke-width="10" transform="translate(100,100) rotate(108 0 0)"></path>
  <path fill="none" d="M 0 -50 L 0 -100 Z" stroke="#a80115" stroke-width="10" transform="translate(100,100) rotate(144 0 0)"></path>
  <path fill="none" d="M 0 -50 L 0 -100 Z" stroke="#a80115" stroke-width="10" transform="translate(100,100) rotate(180 0 0)"></path>
  <path fill="none" d="M 0 -50 L 0 -100 Z" stroke="#a80115" stroke-width="10" transform="translate(100,100) rotate(216 0 0)"></path>
  <path fill="none" d="M 0 -50 L 0 -100 Z" stroke="#a80115" stroke-width="10" transform="translate(100,100) rotate(252 0 0)"></path>
  <path fill="none" d="M 0 -50 L 0 -100 Z" stroke="#a80115" stroke-width="10" transform="translate(100,100) rotate(288 0 0)"></path>
  <path fill="none" d="M 0 -50 L 0 -100 Z" stroke="#a80115" stroke-width="10" transform="translate(100,100) rotate(324 0 0)"></path>
</svg>
