<svg xmlns="http://www.w3.org/2000/svg" viewBox="0 0 25 23.8"><defs><style>.cls-1,.cls-2,.cls-3,.cls-4,.cls-5,.cls-6,.cls-7{fill:none;stroke:#fff;stroke-linejoin:round;}.cls-2,.cls-3,.cls-4,.cls-5,.cls-6,.cls-7{stroke-linecap:round;}.cls-3{stroke-dasharray:2.64 2.64;}.cls-4{stroke-dasharray:3.01 3.01;}.cls-5{stroke-dasharray:2.56 2.56;}.cls-6{stroke-dasharray:2.98 2.98;}.cls-7{stroke-dasharray:0.75 1.13;}</style></defs><title>Infrastructure 2</title><g id="Layer_2" data-name="Layer 2"><g id="Hermony_controler" data-name="Hermony controler"><g id="Row_5" data-name="Row 5"><g id="Infrastructure_2" data-name="Infrastructure 2"><rect class="cls-1" x="0.5" y="0.5" width="6" height="4.8" rx="0.36" ry="0.36" transform="translate(7 5.8) rotate(180)"/><rect class="cls-1" x="8.75" y="8.9" width="7.5" height="6" rx="0.45" ry="0.45" transform="translate(25 23.8) rotate(180)"/><rect class="cls-1" x="18.5" y="0.5" width="6" height="4.8" rx="0.36" ry="0.36" transform="translate(43 5.8) rotate(180)"/><rect class="cls-1" x="0.5" y="18.5" width="6" height="4.8" rx="0.36" ry="0.36" transform="translate(7 41.8) rotate(180)"/><rect class="cls-1" x="18.5" y="18.5" width="6" height="4.8" rx="0.36" ry="0.36" transform="translate(43 41.8) rotate(180)"/><line class="cls-2" x1="17.89" y1="21.09" x2="16.39" y2="21.09"/><line class="cls-3" x1="13.75" y1="21.09" x2="9.8" y2="21.09"/><line class="cls-2" x1="8.48" y1="21.09" x2="6.98" y2="21.09"/><line class="cls-2" x1="21.55" y1="5.96" x2="21.55" y2="7.46"/><line class="cls-4" x1="21.55" y1="10.47" x2="21.55" y2="14.99"/><line class="cls-2" x1="21.55" y1="16.5" x2="21.55" y2="18"/><line class="cls-2" x1="7.12" y1="3.09" x2="8.62" y2="3.09"/><line class="cls-5" x1="11.19" y1="3.09" x2="15.03" y2="3.09"/><line class="cls-2" x1="16.32" y1="3.09" x2="17.82" y2="3.09"/><line class="cls-2" x1="3.55" y1="17.89" x2="3.55" y2="16.39"/><line class="cls-6" x1="3.55" y1="13.41" x2="3.55" y2="8.95"/><line class="cls-2" x1="3.55" y1="7.46" x2="3.55" y2="5.96"/><line class="cls-2" x1="12.81" y1="8.74" x2="12.81" y2="7.24"/><line class="cls-2" x1="12.81" y1="5.74" x2="12.81" y2="4.24"/><line class="cls-2" x1="12.81" y1="15.49" x2="12.81" y2="16.99"/><line class="cls-2" x1="12.81" y1="19.24" x2="12.81" y2="20.74"/><line class="cls-2" x1="8.31" y1="11.74" x2="7.56" y2="11.74"/><line class="cls-7" x1="6.44" y1="11.74" x2="5.13" y2="11.74"/><line class="cls-2" x1="4.56" y1="11.74" x2="3.81" y2="11.74"/><line class="cls-2" x1="16.56" y1="11.74" x2="18.06" y2="11.74"/><line class="cls-2" x1="20.31" y1="11.74" x2="21.81" y2="11.74"/></g></g></g></g></svg>