<svg xmlns="http://www.w3.org/2000/svg" viewBox="0 0 25 24.92"><defs><style>.cls-1{fill:none;stroke:#fff;stroke-linecap:round;stroke-linejoin:round;}</style></defs><title>Installed Apps</title><g id="Layer_2" data-name="Layer 2"><g id="Hermony_controler" data-name="Hermony controler"><g id="Row_7" data-name="Row 7"><g id="Installed_Apps" data-name="Installed Apps"><path class="cls-1" d="M12.53,7.51V12a.5.5,0,0,1-.5.5H7.73"/><path class="cls-1" d="M5.32,12.5H1a.5.5,0,0,1-.5-.5V1A.5.5,0,0,1,1,.5H12a.51.51,0,0,1,.5.5V5.1"/><path class="cls-1" d="M12.52,5.1a1.74,1.74,0,0,1,1.21-.49,1.7,1.7,0,0,1,0,3.4,1.67,1.67,0,0,1-1.2-.5"/><path class="cls-1" d="M5.32,12.51a1.68,1.68,0,0,1-.5-1.2,1.7,1.7,0,0,1,3.4,0,1.67,1.67,0,0,1-.49,1.19"/><path class="cls-1" d="M12.5,16.92v-4a.5.5,0,0,1,.5-.5h4.29"/><path class="cls-1" d="M19.7,12.42H24a.51.51,0,0,1,.5.5v11a.5.5,0,0,1-.5.5H13a.5.5,0,0,1-.5-.5v-4.1"/><path class="cls-1" d="M19.7,12.41a1.7,1.7,0,1,1-2.41,0"/><path class="cls-1" d="M7.79,12.47,12,12.42a.5.5,0,0,1,.5.5v4.29"/><path class="cls-1" d="M12.5,20.38v3.54a.5.5,0,0,1-.5.5H1a.51.51,0,0,1-.5-.5v-11a.5.5,0,0,1,.5-.5H5.1"/><path class="cls-1" d="M12.51,19.74a1.72,1.72,0,0,1-1.2.49,1.7,1.7,0,1,1,1.19-2.91"/></g></g></g></g></svg>