<svg xmlns="http://www.w3.org/2000/svg" viewBox="0 0 22.53 24.89"><defs><style>.cls-1,.cls-2,.cls-3{fill:none;stroke:#fff;stroke-width:0.89px;}.cls-1,.cls-2{stroke-linecap:round;}.cls-1{stroke-linejoin:round;}.cls-2,.cls-3{stroke-miterlimit:10;}</style></defs><title>My Apps 2</title><g id="Layer_2" data-name="Layer 2"><g id="Hermony_controler" data-name="Hermony controler"><g id="Row_7" data-name="Row 7"><g id="My_Apps_2" data-name="My Apps 2"><path class="cls-1" d="M19.87,20.61v3.44a.4.4,0,0,1-.39.39H16.19"/><path class="cls-1" d="M14.34,24.44H11.05a.39.39,0,0,1-.38-.39V15.62a.38.38,0,0,1,.38-.38h8.43a.39.39,0,0,1,.39.38v3.15"/><path class="cls-1" d="M19.86,18.77A1.3,1.3,0,1,1,20.78,21a1.26,1.26,0,0,1-.91-.38"/><path class="cls-1" d="M14.34,24.44a1.3,1.3,0,1,1,2.23-.92,1.28,1.28,0,0,1-.38.92"/><path class="cls-2" d="M14.83,13.63a5.09,5.09,0,0,0-3.53-1.87,4,4,0,0,1-6,0A5.11,5.11,0,0,0,.44,16.84v4a.88.88,0,0,0,.89.88H8.21"/><path class="cls-3" d="M8.21.44a4,4,0,0,0-3.94,4,33.44,33.44,0,0,0,.55,4.08,3.51,3.51,0,0,0,6.79,0,35.85,35.85,0,0,0,.55-4.08A4,4,0,0,0,8.21.44Z"/></g></g></g></g></svg>