<svg xmlns="http://www.w3.org/2000/svg" viewBox="0 0 25 24.79"><defs><style>.cls-1,.cls-2{fill:none;stroke:#fff;}.cls-1{stroke-miterlimit:10;}.cls-2{stroke-linecap:round;stroke-linejoin:round;}</style></defs><title>My Apps</title><g id="Layer_2" data-name="Layer 2"><g id="Hermony_controler" data-name="Hermony controler"><g id="Row_7" data-name="Row 7"><g id="My_Apps" data-name="My Apps"><g id="_hand_" data-name="&lt;hand&gt;"><rect class="cls-1" x="0.5" y="13.13" width="4.19" height="11.17" rx="0.38" ry="0.38"/><path class="cls-1" d="M17.73,16.22s1.8-.68,3.07-1.19,1.65-.38,2.16-.13a3.09,3.09,0,0,1,1.27,1.27c.38.64.38,1.27-.13,1.52s-7.48,3.43-10.28,4.7S10.4,23,9,22.39a6.36,6.36,0,0,0-2.41-.64l-1.9-.08V14.78a7.72,7.72,0,0,1,2.92.12c1.43.38,1.9,1.27,3.23,1.27s1.84-.51,4.89-1.14a3,3,0,0,1,2.53,2.41L12.2,19.88"/><circle class="cls-1" cx="2.47" cy="21.18" r="0.7"/></g><path class="cls-2" d="M19.17,6.57v3.89a.43.43,0,0,1-.43.43H15"/><path class="cls-2" d="M12.94,10.89H9.22a.44.44,0,0,1-.44-.43V.93A.44.44,0,0,1,9.22.5h9.52a.43.43,0,0,1,.43.43V4.48"/><path class="cls-2" d="M19.17,4.48a1.49,1.49,0,0,1,1-.43,1.48,1.48,0,0,1,0,3,1.51,1.51,0,0,1-1-.43"/><path class="cls-2" d="M12.94,10.89a1.43,1.43,0,0,1-.43-1,1.47,1.47,0,1,1,2.94,0,1.45,1.45,0,0,1-.43,1"/></g></g></g></g></svg>