<svg xmlns="http://www.w3.org/2000/svg" viewBox="0 0 25 22.77"><defs><style>.cls-1{fill:none;stroke:#fff;stroke-linejoin:round;}</style></defs><title>Partition Config</title><g id="Layer_2" data-name="Layer 2"><g id="Hermony_controler" data-name="Hermony controler"><g id="Row_5" data-name="Row 5"><g id="Partition_Config" data-name="Partition Config"><rect class="cls-1" x="6.65" y="17.61" width="4.66" height="4.66" rx="0.48" ry="0.48"/><rect class="cls-1" x="12.8" y="17.61" width="4.66" height="4.66" rx="0.48" ry="0.48"/><rect class="cls-1" x="6.65" y="11.31" width="4.66" height="4.66" rx="0.48" ry="0.48"/><rect class="cls-1" x="14.54" y="7.08" width="4.66" height="4.66" rx="0.48" ry="0.48" transform="translate(6.11 -6.64) rotate(27)"/><rect class="cls-1" x="9.7" y="3.02" width="4.66" height="4.66" rx="0.48" ry="0.48" transform="translate(3.74 -4.88) rotate(27)"/><rect class="cls-1" x="0.5" y="17.61" width="4.66" height="4.66" rx="0.48" ry="0.48"/><rect class="cls-1" x="0.5" y="11.31" width="4.66" height="4.66" rx="0.48" ry="0.48"/><rect class="cls-1" x="0.5" y="5.06" width="4.66" height="4.66" rx="0.48" ry="0.48"/><rect class="cls-1" x="19.2" y="1.14" width="4.66" height="4.66" rx="0.48" ry="0.48" transform="translate(3.92 -9.4) rotate(27)"/></g></g></g></g></svg>