<svg xmlns="http://www.w3.org/2000/svg" viewBox="0 0 24 23.77"><defs><style>.cls-1{fill:#fff;}.cls-2,.cls-3{fill:none;stroke:#fff;stroke-miterlimit:10;}.cls-3{stroke-linecap:round;}</style></defs><title>Provider</title><g id="Layer_2" data-name="Layer 2"><g id="Hermony_controler" data-name="Hermony controler"><g id="Row_6" data-name="Row 6"><g id="Provider"><path class="cls-1" d="M21.14,19.05a1.86,1.86,0,1,1-1.85,1.86,1.86,1.86,0,0,1,1.85-1.86m0-1A2.86,2.86,0,1,0,24,20.91a2.86,2.86,0,0,0-2.86-2.86Z"/><path class="cls-1" d="M12,19.05a1.86,1.86,0,1,1-1.86,1.86A1.86,1.86,0,0,1,12,19.05m0-1a2.86,2.86,0,1,0,2.86,2.86A2.87,2.87,0,0,0,12,18.05Z"/><path class="cls-1" d="M2.86,19.05A1.86,1.86,0,1,1,1,20.91a1.85,1.85,0,0,1,1.86-1.86m0-1a2.86,2.86,0,1,0,2.85,2.86,2.86,2.86,0,0,0-2.85-2.86Z"/><path class="cls-2" d="M2.84,18.14l0-4.82a1.38,1.38,0,0,1,1.38-1.38h15.5a1.39,1.39,0,0,1,1.39,1.38l0,4.82"/><line class="cls-2" x1="11.95" y1="9.02" x2="11.95" y2="18.2"/><path class="cls-3" d="M11.94,9.66a4.58,4.58,0,1,1,4.58-4.58A4.58,4.58,0,0,1,11.94,9.66Z"/><path class="cls-3" d="M11.94,9.66c-1.7,0-2.6-2.31-2.6-4.58S10.24.5,11.94.5s2.61,2.3,2.61,4.58S13.65,9.66,11.94,9.66Z"/><path class="cls-3" d="M8.14,2.53a17.46,17.46,0,0,0,3.8.38,17.51,17.51,0,0,0,3.81-.38"/><path class="cls-3" d="M15.75,7.62A16.54,16.54,0,0,0,12,7.24a17.38,17.38,0,0,0-3.87.39"/><line class="cls-3" x1="7.37" y1="5.14" x2="16.52" y2="5.14"/><line class="cls-3" x1="11.94" y1="0.5" x2="11.94" y2="9.66"/></g></g></g></g></svg>