<svg xmlns="http://www.w3.org/2000/svg" viewBox="0 0 20.7 25"><defs><style>.cls-1{fill:none;}.cls-1,.cls-2{stroke:#fff;stroke-miterlimit:10;}.cls-2{font-size:5px;fill:#383838;font-family:MyriadPro-Regular, Myriad Pro;letter-spacing:0.32em;}</style></defs><title>SSL Certificate</title><g id="Layer_2" data-name="Layer 2"><g id="Hermony_controler" data-name="Hermony controler"><g id="Row_6" data-name="Row 6"><g id="SSL_Certificate" data-name="SSL Certificate"><path class="cls-1" d="M.5,1.3V18.39L6.61,24.5H19.4a.8.8,0,0,0,.8-.8V1.3a.8.8,0,0,0-.8-.8H1.3A.8.8,0,0,0,.5,1.3ZM.93,18.7H5.71a.56.56,0,0,1,.56.56V24"/><line class="cls-1" x1="3.6" y1="9.37" x2="10.26" y2="9.37"/><line class="cls-1" x1="3.6" y1="12.8" x2="10.12" y2="12.8"/><line class="cls-1" x1="3.6" y1="16.24" x2="10.12" y2="16.24"/><polygon class="cls-1" points="12.67 15.97 12.67 23.19 15.01 19.95 17.36 23.19 17.36 16 12.67 15.97"/><path class="cls-1" d="M15,9a2.49,2.49,0,1,0,2.48,2.49A2.48,2.48,0,0,0,15,9"/><text class="cls-2" transform="translate(3.87 6.15)">SSL</text></g></g></g></g></svg>