<svg xmlns="http://www.w3.org/2000/svg" viewBox="0 0 25 21.66"><defs><style>.cls-1{fill:#fff;}.cls-2{fill:none;stroke:#fff;stroke-miterlimit:10;}</style></defs><title>Tenant</title><g id="Layer_2" data-name="Layer 2"><g id="Hermony_controler" data-name="Hermony controler"><g id="Row_6" data-name="Row 6"><g id="Tenant"><path class="cls-1" d="M12.59,1a2.18,2.18,0,1,1-2.17,2.18A2.19,2.19,0,0,1,12.59,1m0-1a3.18,3.18,0,1,0,3.18,3.18A3.17,3.17,0,0,0,12.59,0Z"/><path class="cls-2" d="M4,11.7V10.14A1.38,1.38,0,0,1,5.32,8.77H19.78a1.37,1.37,0,0,1,1.37,1.37v1.59"/><line class="cls-2" x1="12.56" y1="5.87" x2="12.59" y2="11.72"/><path class="cls-2" d="M22.44,16.79a1.73,1.73,0,0,1-2.65,0A2.25,2.25,0,0,0,17.66,19v1.74a.39.39,0,0,0,.39.39h6.06a.39.39,0,0,0,.39-.39V19A2.25,2.25,0,0,0,22.44,16.79Z"/><path class="cls-2" d="M21.08,11.81a1.74,1.74,0,0,0-1.73,1.74,14.33,14.33,0,0,0,.24,1.79,1.53,1.53,0,0,0,1.49,1.16,1.55,1.55,0,0,0,1.5-1.16,16.85,16.85,0,0,0,.24-1.79A1.76,1.76,0,0,0,21.08,11.81Z"/><path class="cls-2" d="M5.28,16.79a1.74,1.74,0,0,1-2.66,0A2.25,2.25,0,0,0,.5,19v1.74a.39.39,0,0,0,.39.39H7a.39.39,0,0,0,.39-.39V19A2.25,2.25,0,0,0,5.28,16.79Z"/><path class="cls-2" d="M3.92,11.81a1.76,1.76,0,0,0-1.74,1.74,16.85,16.85,0,0,0,.24,1.79,1.55,1.55,0,0,0,1.5,1.16,1.53,1.53,0,0,0,1.49-1.16,14.33,14.33,0,0,0,.24-1.79A1.74,1.74,0,0,0,3.92,11.81Z"/><path class="cls-2" d="M13.88,16.79a1.73,1.73,0,0,1-2.65,0A2.25,2.25,0,0,0,9.1,19v1.74a.39.39,0,0,0,.39.39h6.06a.38.38,0,0,0,.39-.39V19A2.25,2.25,0,0,0,13.88,16.79Z"/><path class="cls-2" d="M12.52,11.81a1.74,1.74,0,0,0-1.73,1.74A14.33,14.33,0,0,0,11,15.34a1.54,1.54,0,0,0,3,0,16.85,16.85,0,0,0,.24-1.79A1.76,1.76,0,0,0,12.52,11.81Z"/></g></g></g></g></svg>