<svg xmlns="http://www.w3.org/2000/svg" viewBox="0 0 25 17.8"><defs><style>.cls-1{fill:none;stroke:#fff;stroke-miterlimit:10;}</style></defs><title>Users</title><g id="Layer_2" data-name="Layer 2"><g id="Hermony_controler" data-name="Hermony controler"><g id="Row_6" data-name="Row 6"><g id="Users"><path class="cls-1" d="M12.5.5A3.15,3.15,0,0,0,9.38,3.62a27,27,0,0,0,.44,3.22,2.77,2.77,0,0,0,5.36,0,27,27,0,0,0,.44-3.22A3.15,3.15,0,0,0,12.5.5Z"/><path class="cls-1" d="M14.94,9.44a3.1,3.1,0,0,1-4.76,0,4.05,4.05,0,0,0-3.82,4v3.13a.71.71,0,0,0,.7.71H17.94a.71.71,0,0,0,.7-.71V13.46A4,4,0,0,0,14.94,9.44Z"/><path class="cls-1" d="M5.34,4.06A2.47,2.47,0,0,0,2.88,6.51a22.33,22.33,0,0,0,.34,2.54,2.19,2.19,0,0,0,4.24,0A22.33,22.33,0,0,0,7.8,6.51,2.47,2.47,0,0,0,5.34,4.06Z"/><path class="cls-1" d="M5.39,12a2.45,2.45,0,0,1-1.88-.87,3.19,3.19,0,0,0-3,3.17v2.47a.56.56,0,0,0,.55.56H5.39"/><path class="cls-1" d="M19.66,4.06A2.47,2.47,0,0,0,17.2,6.51a22.33,22.33,0,0,0,.34,2.54,2.19,2.19,0,0,0,4.24,0,22.33,22.33,0,0,0,.34-2.54A2.47,2.47,0,0,0,19.66,4.06Z"/><path class="cls-1" d="M19.71,17.3H24a.56.56,0,0,0,.55-.56V14.27a3.18,3.18,0,0,0-2.92-3.16,2.44,2.44,0,0,1-1.87.86"/></g></g></g></g></svg>