<?xml version="1.0" encoding="UTF-8"?>
<svg width="32px" height="32px" viewBox="0 0 32 32" version="1.1" xmlns="http://www.w3.org/2000/svg" xmlns:xlink="http://www.w3.org/1999/xlink">
    <!-- Generator: sketchtool 49.3 (51167) - http://www.bohemiancoding.com/sketch -->
    <title>B2F9C09E-ED21-42E3-9E10-2C24928E0670</title>
    <desc>Created with sketchtool.</desc>
    <defs></defs>
    <g id="Master" stroke="none" stroke-width="1" fill="none" fill-rule="evenodd">
        <g id="app-assets" transform="translate(-498.000000, -479.000000)" fill-rule="nonzero">
            <g id="settings-1" transform="translate(501.000000, 481.000000)">
                <g id="Layer_1">
                    <path d="M18.75833,7.85230219 C18.5838171,7.15430616 18.2930179,6.45631014 17.943992,5.81654076 L18.6419881,4.18792048 L16.1990298,1.8031332 L14.5704095,2.50112922 C13.9305845,2.15215905 13.2907594,1.86130417 12.5346481,1.68679125 L11.952994,0 L8.52124056,0 L7.88141551,1.68679125 C7.18341948,1.86130417 6.48542346,2.15210338 5.84565408,2.50112922 L4.21697813,1.8031332 L1.83219085,4.18792048 L2.53018688,5.81654076 C2.1812167,6.45636581 1.89036183,7.09619085 1.71584891,7.85230219 L0.0290576541,8.49212724 L0.0290576541,11.9238807 L1.71584891,12.5637058 C1.89036183,13.2617018 2.18116103,13.9596978 2.53018688,14.5994672 L1.83219085,16.2280875 L4.27514911,18.6128748 L5.90376938,17.9148787 C6.54359443,18.2638489 7.18341948,18.5547038 7.93953082,18.7292167 L8.57935586,20.416008 L11.9529384,20.416008 L12.5927634,18.7292167 C13.2907594,18.5547038 13.9887555,18.2639046 14.6285249,17.9148787 L16.2571451,18.6128748 L18.7001034,16.2280875 L18.0021074,14.5994672 C18.3510775,13.9596421 18.6419324,13.3198171 18.8164453,12.5637058 L20.5032366,11.9238807 L20.5032366,8.49212724 L18.75833,7.85230219 Z M10.2080318,14.366839 C7.88141551,14.366839 6.02011133,12.5055348 6.02011133,10.1789185 C6.02011133,7.85230219 7.88141551,5.99099801 10.2080318,5.99099801 C12.5346481,5.99099801 14.3959523,7.85230219 14.3959523,10.1789185 C14.3959523,12.5055348 12.5346481,14.366839 10.2080318,14.366839 Z" id="Shape" fill="#84DBFF"></path>
                    <g id="Group" transform="translate(3.952286, 3.896620)" fill="#54C0EB">
                        <path d="M9.22213121,9.24873956 C7.59351093,10.8773598 4.97603976,10.8773598 3.34741948,9.24873956 L1.83514115,10.7610179 C4.2780994,13.2039761 8.29150696,13.2039761 10.7344095,10.7610179 C13.1773121,8.31805964 13.1773678,4.36282306 10.7344095,1.8617495 L9.22213121,3.37402783 C10.8508072,5.00264811 10.8508072,7.62011928 9.22213121,9.24873956 Z" id="Shape"></path>
                        <path d="M1.83514115,1.8617495 C-0.607817097,4.30470775 -0.607817097,8.25994433 1.83514115,10.7610179 L3.34741948,9.24873956 C1.7187992,7.62011928 1.7187992,5.00264811 3.34741948,3.37402783 C4.97603976,1.74540755 7.59351093,1.74540755 9.22213121,3.37402783 L10.7344095,1.8617495 C8.29150696,-0.581208748 4.2780994,-0.581208748 1.83514115,1.8617495 Z" id="Shape"></path>
                    </g>
                    <path d="M19.7471252,23.8477614 C19.8052962,23.4987913 19.8052962,23.2079364 19.7471252,22.8589662 L20.3287793,22.2773121 L19.7471252,20.8232048 L18.9327873,20.8232048 C18.7582744,20.5905209 18.4674751,20.3578926 18.2347913,20.1252087 L18.2347913,19.3108708 L16.7806839,18.7292167 L16.1990298,19.3108708 C15.8500596,19.2526998 15.5592048,19.2526998 15.2102346,19.3108708 L14.6285805,18.7292167 L13.1744732,19.3108708 L13.1744732,20.1252087 C12.9417893,20.2997217 12.709161,20.5905209 12.4764771,20.8232048 L11.6621392,20.8232048 L11.0804851,22.2773121 L11.6621392,22.8589662 C11.6039682,23.2079364 11.6039682,23.4987913 11.6621392,23.8477614 L11.0804851,24.4294155 L11.6621392,25.8835229 L12.4764771,25.8835229 C12.6509901,26.1162068 12.9417893,26.348835 13.1744732,26.5815189 L13.1744732,27.3958569 L14.6285805,27.9775109 L15.2102346,27.3958569 C15.5592048,27.4540278 15.8500596,27.4540278 16.1990298,27.3958569 L16.7806839,27.9775109 L18.2347913,27.3958569 L18.2347913,26.5815189 C18.4674751,26.407006 18.7001034,26.1162068 18.9327873,25.8835229 L19.7471252,25.8835229 L20.3287793,24.4294155 L19.7471252,23.8477614 Z M15.0938926,25.0692406 C14.1050974,24.6620994 13.6397853,23.5569622 14.0469264,22.6262823 C14.4540676,21.6374871 15.5592048,21.172175 16.4898847,21.5793161 C17.4786799,21.9864573 17.943992,23.0915944 17.5368509,24.0222744 C17.1296541,25.0110696 16.0245169,25.4763817 15.0938926,25.0692406 Z" id="Shape" fill="#4CDBC4"></path>
                    <path d="M27.3667435,16.2281431 C27.4249145,15.879173 27.4249145,15.5883181 27.3667435,15.2393479 L27.9483976,14.6576938 L27.3667435,13.2035865 L26.5524056,13.2035865 C26.3778926,12.9709026 26.0870934,12.7382744 25.8544095,12.5055905 L25.8544095,11.6912525 L24.4003022,11.1095984 L23.8186481,11.6912525 C23.4696779,11.6330815 23.1788231,11.6330815 22.8298529,11.6912525 L22.2481988,11.1095984 L20.7940915,11.6912525 L20.7940915,12.5055905 C20.5614076,12.6801034 20.3287793,12.9709026 20.0960954,13.2035865 L19.2817575,13.2035865 L18.7001034,14.6576938 L19.2817575,15.2393479 C19.2235865,15.5883181 19.2235865,15.879173 19.2817575,16.2281431 L18.7001034,16.8097972 L19.2817575,18.2639046 L20.0960954,18.2639046 C20.2706083,18.4965885 20.5614076,18.7292167 20.7940915,18.9619006 L20.7940915,19.7762386 L22.2481988,20.3578926 L22.8298529,19.7762386 C23.1788231,19.8344095 23.4696779,19.8344095 23.8186481,19.7762386 L24.4003022,20.3578926 L25.8544095,19.7762386 L25.8544095,18.9619006 C26.0870934,18.7873877 26.3197217,18.4965885 26.5524056,18.2639046 L27.3667435,18.2639046 L27.9483976,16.8097972 L27.3667435,16.2281431 Z M22.6553956,17.5077376 C21.6666004,17.1005964 21.2012883,15.9954592 21.6084294,15.0647793 C22.0155706,14.0759841 23.1207078,13.610672 24.0513877,14.0178131 C25.0401829,14.4249543 25.505495,15.5300915 25.0983539,16.4607714 C24.749328,17.4495666 23.6441909,17.9149344 22.6553956,17.5077376 Z" id="Shape" fill="#FF7058"></path>
                </g>
            </g>
        </g>
    </g>
</svg>