<?xml version="1.0" encoding="UTF-8"?>
<svg width="24px" height="24px" viewBox="0 0 24 24" version="1.1" xmlns="http://www.w3.org/2000/svg" xmlns:xlink="http://www.w3.org/1999/xlink">
    <!-- Generator: sketchtool 49.3 (51167) - http://www.bohemiancoding.com/sketch -->
    <title>AD62AF00-88E4-4130-AC93-14F77E668F60</title>
    <desc>Created with sketchtool.</desc>
    <defs></defs>
    <g id="Master" stroke="none" stroke-width="1" fill="none" fill-rule="evenodd">
        <g id="app-assets" transform="translate(-566.000000, -131.000000)" fill="#00AA6C" fill-rule="nonzero">
            <g id="icon-circleCheck" transform="translate(566.000000, 131.000000)">
                <path d="M12,0 C5.37272727,0 0,5.37245455 0,12 C0,18.6275455 5.37272727,24 12,24 C18.6272727,24 24,18.6275455 24,12 C24,5.37245455 18.6272727,0 12,0 Z M12,21.8181818 C6.57763636,21.8181818 2.18181818,17.4223636 2.18181818,12 C2.18181818,6.57763636 6.57763636,2.18181818 12,2.18181818 C17.4223636,2.18181818 21.8181818,6.57763636 21.8181818,12 C21.8181818,17.4223636 17.4223636,21.8181818 12,21.8181818 Z M14.8982727,9.04636364 L11.0410909,12.9032727 L9.49854545,11.3607273 C9.07254545,10.9347273 8.382,10.9347273 7.95572727,11.3607273 C7.52972727,11.7867273 7.52972727,12.4775455 7.95572727,12.9038182 L10.2695455,15.2168182 C10.6955455,15.6428182 11.3866364,15.6428182 11.8123636,15.2168182 L16.4408182,10.5886364 C16.8668182,10.1626364 16.8673636,9.47209091 16.4410909,9.04581818 C16.0153636,8.62063636 15.3242727,8.62063636 14.8982727,9.04636364 Z" id="icon-checkCircle"></path>
            </g>
        </g>
    </g>
</svg>