<?xml version="1.0" encoding="UTF-8"?>
<svg width="68px" height="37px" viewBox="0 0 68 37" version="1.1" xmlns="http://www.w3.org/2000/svg" xmlns:xlink="http://www.w3.org/1999/xlink">
    <!-- Generator: sketchtool 49.3 (51167) - http://www.bohemiancoding.com/sketch -->
    <title>E2AFFDA5-42F0-44D3-A17D-5702A24390EF</title>
    <desc>Created with sketchtool.</desc>
    <defs></defs>
    <g id="Master" stroke="none" stroke-width="1" fill="none" fill-rule="evenodd">
        <g id="app-assets" transform="translate(-51.000000, -34.000000)" fill-rule="nonzero">
            <g id="a10-logo-white" transform="translate(51.000000, 34.000000)">
                <path d="M64.3490476,28.3333333 C63.9119048,25.0061905 53.0157143,22.5452381 39.9661905,22.8366667 C30.09,23.0633333 21.8571429,24.8038095 18.6190476,27.0785714 C18.4718717,27.4523996 18.3765429,27.8446093 18.3357143,28.2442857 C20.1328571,25.8157143 28.6571429,23.767619 39.1566667,23.5328571 C51.2347619,23.2657143 61.3457143,25.4433333 61.7342857,28.39 C62.1228571,31.3366667 52.6190476,34 40.5652381,34.2428571 C33.5952381,34.3966667 27.2809524,33.7409524 23.1119048,32.6238095 L22.302381,32.6238095 L22.302381,32.6238095 L21.3633333,32.6238095 C25.7833333,34.1942857 33.2471429,35.1333333 41.6014286,34.9471429 C54.6347619,34.6557143 64.8347619,31.7090476 64.397619,28.3980952" id="Shape" fill="#F6B221"></path>
                <path d="M22.6666667,31.5714286 L35.6190476,31.5714286 C34.6395238,29.952381 33.9109524,29.0052381 33.3038095,27.8233333 C31.9033333,25.0952381 25.6861905,12.1428571 23.8080952,7.28571429 L11.7380952,7.28571429 L12.9119048,8.71047619 C9.67380952,14.8547619 6.32238095,21.2580952 2.86571429,27.4833333 C2.12904762,28.8190476 1.23857143,29.952381 0.178095238,31.5714286 L7.61761905,31.5714286 C7.17238095,29.952381 6.92952381,29.8552381 7.09142857,29.1428571 C7.47832505,27.3950585 8.21343016,25.7431369 9.25285714,24.2857143 L20.9180952,24.2857143 C21.6545133,25.3970456 22.2423596,26.5999534 22.6666667,27.8638095 C22.9032368,28.4971763 22.9592871,29.1837935 22.8285714,29.8471429 C22.6452324,30.3505149 22.4911655,30.8640711 22.3671429,31.3852381 M15.4295238,13.057619 L19.1290476,20.6590476 L19.1290476,20.7157143 L19.1290476,20.8614286 L19.1290476,21.0395238 L11.3333333,21.0395238 C11.4461888,20.860123 11.5282716,20.6631243 11.5761905,20.4566667 C12.9038095,18.0280952 14.0695238,15.4295238 15.3890476,13.0495238" id="Shape" fill="#FFFFFF"></path>
                <path d="M58.8361905,12.952381 C58.2768908,11.4568994 56.8298929,10.4813953 55.2338095,10.5238095 L47.7133333,10.5238095 C46.1179724,10.4838733 44.6722783,11.4584986 44.1109524,12.952381 C43.18,15.5347619 43.487619,27.5238095 44.1109524,28.73 C44.7342857,29.9361905 45.3980952,31.5714286 47.6647619,31.5714286 L55.2742857,31.5714286 C57.5409524,31.5714286 58.2128571,29.952381 58.8361905,28.7461905 C59.4595238,27.54 59.7671429,15.5509524 58.8361905,12.9685714 L58.8361905,12.952381 Z M53.4285714,26.4714286 C53.4774955,26.7355252 53.4046019,27.0075953 53.2301943,27.2118564 C53.0557868,27.4161175 52.7985004,27.5307446 52.53,27.5238095 L50.4171429,27.5238095 C49.7857143,27.5238095 48.5714286,27.0947619 48.5714286,26.4714286 L48.5714286,15.3242857 C48.5714286,14.7009524 49.7857143,13.7619048 50.4171429,13.7619048 L52.53,13.7619048 C53.1533333,13.7619048 53.4285714,14.7009524 53.4285714,15.3242857 L53.4285714,26.4714286 Z" id="Shape" fill="#FFFFFF"></path>
                <path d="M42.0952381,29.7257143 C42.0193152,30.1229771 42.1263578,30.533307 42.3866667,30.8428571 L35.9104762,30.8428571 C36.1486059,30.5516955 36.2698109,30.1823089 36.2504762,29.8066667 C36.2504762,29.8471429 36.2504762,17.817619 36.2504762,17.817619 L34,17.817619 L34,13.9561905 L40.3628571,10.5238095 L42.0952381,10.5238095 L42.0952381,29.7257143 Z" id="Shape" fill="#FFFFFF"></path>
                <path d="M67.7571429,2.89809524 C66.0004762,-1.53809524 53.242381,0.914761905 39.2538095,8.37857143 C35.4299598,10.405682 31.7585374,12.7080994 28.2685714,15.267619 L28.6490476,15.9961905 C31.8373569,13.7028264 35.177564,11.628382 38.6466667,9.78714286 C51.6071429,2.86571429 63.3857143,0.453333333 64.9480952,4.39571429 C66.5104762,8.33809524 57.2738095,17.1457143 44.3052381,24.0590476 C31.3366667,30.972381 19.5661905,33.2309524 17.9957143,29.2885714 C17.5828571,28.2442857 17.9309524,26.7142857 18.902381,25.0952381 L18.052381,25.0952381 C17.0080952,26.7142857 16.6519048,28.5761905 17.1214286,29.7580952 C18.8780952,34.1942857 31.6442857,31.822381 45.6247619,24.3585714 C59.6052381,16.8947619 69.5138095,7.34238095 67.7571429,2.89809524" id="Shape" fill="#F6B221"></path>
                <path d="M61.3780952,33.1904762 C61.7992398,33.170606 62.2102342,33.3235756 62.5159034,33.6139613 C62.8215726,33.9043471 62.9954039,34.306962 62.9971429,34.7285714 C63.0302441,35.3897792 62.6574515,36.0045252 62.0558291,36.2808256 C61.4542068,36.557126 60.7449776,36.4393079 60.2650021,35.9833311 C59.7850265,35.5273544 59.6310165,34.8250952 59.8761216,34.2101034 C60.1212267,33.5951117 60.71606,33.1913042 61.3780952,33.1904762 L61.3780952,33.1904762 L61.3780952,33.1904762 Z M61.3780952,33.1904762 C60.671115,33.2585054 60.1391511,33.8649443 60.1638095,34.5747619 C60.0849773,35.0559076 60.2976693,35.5382184 60.7061008,35.8044879 C61.1145324,36.0707574 61.6416581,36.0707574 62.0500896,35.8044879 C62.4585211,35.5382184 62.6712132,35.0559076 62.592381,34.5747619 C62.6339581,33.8560295 62.0883532,33.238159 61.37,33.1904762 L61.37,33.1904762 L61.3780952,33.1904762 Z M60.7142857,35.6190476 L60.7142857,35.6190476 L60.7142857,33.9271429 C60.9198747,33.8898246 61.1287309,33.8735501 61.337619,33.8785714 C61.5294851,33.8571602 61.7230427,33.8998568 61.8880952,34 C61.9655818,34.0951864 61.989926,34.2229935 61.9528571,34.34 C61.8465599,34.5030157 61.6983656,34.6344333 61.5238095,34.7204762 L61.5238095,34.7204762 C61.6808946,34.8423776 61.8128536,34.9935806 61.912381,35.1657143 C61.940711,35.3314303 62.0199327,35.4842148 62.1390476,35.6028571 L61.7504762,35.6028571 C61.6823317,35.4514963 61.6386144,35.2902891 61.6209524,35.1252381 C61.6131365,34.948351 61.4737831,34.8055137 61.2971429,34.7933333 L60.7142857,34.7933333 L60.7142857,35.6028571 L60.7142857,35.6190476 Z M61.1271429,34.5828571 L61.3052381,34.5828571 C61.507619,34.5828571 61.6695238,34.5180952 61.6695238,34.3480952 C61.6695238,34.1780952 61.5642857,34.1052381 61.3295238,34.1052381 C61.2622997,34.097255 61.194367,34.097255 61.1271429,34.1052381 L61.1271429,34.5585714 L61.1271429,34.5828571 Z" id="Shape" fill="#FFFFFF"></path>
            </g>
        </g>
    </g>
</svg>