<?xml version="1.0" encoding="UTF-8"?>
<svg width="32px" height="32px" viewBox="0 0 32 32" version="1.1" xmlns="http://www.w3.org/2000/svg" xmlns:xlink="http://www.w3.org/1999/xlink">
    <!-- Generator: sketchtool 49.3 (51167) - http://www.bohemiancoding.com/sketch -->
    <title>2CD9588C-73B1-4842-BD2A-96DDCBDF6831</title>
    <desc>Created with sketchtool.</desc>
    <defs></defs>
    <g id="Master" stroke="none" stroke-width="1" fill="none" fill-rule="evenodd">
        <g id="app-assets" transform="translate(-202.000000, -481.000000)">
            <g id="icon-ThunderADC" transform="translate(202.000000, 484.000000)">
                <g id="Group-2">
                    <g id="thunder.1" fill="#0079C4" fill-rule="nonzero">
                        <path d="M23.067,5.028 C21.599,2.053 18.543,0 15,0 C10.25,0 6.37,3.682 6.033,8.345 C2.542,9.34 0,12.39 0,16 C0,20.26 3.54,23.731 8,23.977 C8,23.977 21.831,24 22,24 C27.247,24 32,19.747 32,14.5 C32,9.445 28.048,5.323 23.067,5.028 Z" id="thunder"></path>
                    </g>
                    <path d="M16.4736886,17.931931 C16.2566886,18.454931 15.6926886,18.687931 15.2136886,18.449931 C14.7336886,18.212931 14.5216886,17.594931 14.7396886,17.070931 L17.2826886,12.560931 L13.0166886,12.589931 C12.5926886,12.589931 12.2346886,12.323931 12.0896886,11.951931 C11.9816886,11.709931 11.9646886,11.428931 12.0746886,11.164931 L14.3636886,5.618931 C14.5746886,5.108931 15.1586886,4.864931 15.6696886,5.075931 C16.1796886,5.285931 16.4226886,5.870931 16.2116886,6.381931 L14.6576886,10.550931 L18.6576886,10.550931 C19.2096886,10.550931 19.6576886,10.998931 19.6576886,11.550931 C19.6576886,12.144931 16.4736886,17.931931 16.4736886,17.931931 Z" id="thunder-path" fill="#F2D23D"></path>
                </g>
            </g>
        </g>
    </g>
</svg>