<?xml version="1.0" encoding="UTF-8"?>
<svg width="24px" height="24px" viewBox="0 0 24 24" version="1.1" xmlns="http://www.w3.org/2000/svg" xmlns:xlink="http://www.w3.org/1999/xlink">
    <!-- Generator: sketchtool 49 (51002) - http://www.bohemiancoding.com/sketch -->
    <title>79BD675A-BEAC-4033-85E5-C14D92452AC0</title>
    <desc>Created with sketchtool.</desc>
    <defs></defs>
    <g id="Master" stroke="none" stroke-width="1" fill="none" fill-rule="evenodd">
        <g id="assets" transform="translate(-392.000000, -70.000000)" fill="#FFFFFF">
            <g id="icon-policy" transform="translate(394.000000, 70.000000)">
                <path d="M13.7647229,0 L3.38784269,0 C1.56167919,0 0.0757931949,1.48588599 0.0757931949,3.31204949 L0.0757931949,20.6150985 C0.0757931949,22.441262 1.56167919,23.927148 3.38784269,23.927148 L16.5627362,23.927148 C18.3888997,23.927148 19.8744463,22.441262 19.8744463,20.6150985 L19.8744463,6.82919311 L13.7647229,0 Z M14.2407494,3.11374282 L17.089103,6.29717013 L14.2407494,6.29717013 L14.2407494,3.11374282 Z M18.1533752,20.6149854 C18.1530358,21.4921502 17.4397879,22.2056244 16.5627362,22.2056244 L3.38784269,22.2056244 C2.51079099,22.2056244 1.79720371,21.4921502 1.79720371,20.6149854 L1.79720371,3.31193637 C1.79720371,2.43488467 2.51067786,1.72129739 3.38784269,1.72129739 L12.5194521,1.72129739 L12.5194521,8.01858065 L18.1533752,8.01858065 L18.1533752,20.6149854 Z" id="Shape"></path>
                <rect id="Rectangle-path" x="8.1175643" y="17.5296368" width="8.01812815" height="1.72141052"></rect>
                <rect id="Rectangle-path" x="8.1175643" y="13.41746" width="8.01812815" height="1.72141052"></rect>
                <rect id="Rectangle-path" x="8.1175643" y="9.28899337" width="8.01812815" height="1.72141052"></rect>
                <polygon id="Shape" points="4.62779673 10.1608414 4.06104463 9.61569598 3.26532921 10.4422943 4.65132656 11.7761414 6.65498188 9.7327795 5.83596288 8.92914538"></polygon>
                <polygon id="Shape" points="4.62779673 14.2896474 4.06104463 13.7439364 3.26532921 14.5711003 4.65132656 15.904608 6.65498188 13.8613593 5.83596288 13.0577251"></polygon>
                <polygon id="Shape" points="4.62779673 18.4015979 4.06104463 17.8558869 3.26532921 18.6830508 4.65132656 20.0165586 6.65498188 17.9731966 5.83596288 17.1695625"></polygon>
            </g>
        </g>
    </g>
</svg>