<?xml version="1.0" encoding="UTF-8"?>
<svg width="24px" height="24px" viewBox="0 0 24 24" version="1.1" xmlns="http://www.w3.org/2000/svg" xmlns:xlink="http://www.w3.org/1999/xlink">
    <!-- Generator: sketchtool 49 (51002) - http://www.bohemiancoding.com/sketch -->
    <title>4C486E42-EF6C-4355-BE6F-029D6A04FD3C</title>
    <desc>Created with sketchtool.</desc>
    <defs></defs>
    <g id="Master" stroke="none" stroke-width="1" fill="none" fill-rule="evenodd">
        <g id="assets" transform="translate(-76.000000, -69.000000)" fill="#FFFFFF">
            <g id="icon-explore" transform="translate(76.000000, 69.000000)">
                <path d="M11.88,10 C11.781,10 11.682,10 11.583,9.9 L0.693,5.9 C0.297,5.8 0,5.4 0,5 C0,4.6 0.297,4.2 0.693,4.1 L11.583,0.1 C11.781,-3.63795799e-13 12.078,-3.63795799e-13 12.276,0.1 L23.166,4.1 C23.463,4.2 23.76,4.6 23.76,5 C23.76,5.4 23.463,5.8 23.067,5.9 L12.177,9.9 C12.078,10 11.979,10 11.88,10 L11.88,10 Z M3.861,5 L11.88,7.9 L19.899,5 L11.88,2.1 L3.861,5 L3.861,5 Z" id="Shape"></path>
                <path d="M11.88,24 C11.781,24 11.682,24 11.583,23.9 L0.693,19.9 C0.198,19.7 -0.099,19.1 0.099,18.6 C0.297,18.1 0.891,17.8 1.386,18 L11.88,21.9 L22.473,18 C22.968,17.8 23.562,18.1 23.76,18.6 C23.958,19.1 23.661,19.7 23.166,19.9 L12.276,23.9 C12.078,24 11.979,24 11.88,24 L11.88,24 Z" id="Shape"></path>
                <path d="M11.88,24 C11.286,24 10.89,23.6 10.89,23 L10.89,9 C10.89,8.4 11.286,8 11.88,8 C12.474,8 12.87,8.4 12.87,9 L12.87,23 C12.87,23.6 12.474,24 11.88,24 L11.88,24 Z" id="Shape"></path>
                <path d="M22.77,20 C22.176,20 21.78,19.6 21.78,19 L21.78,5 C21.78,4.4 22.176,4 22.77,4 C23.364,4 23.76,4.4 23.76,5 L23.76,19 C23.76,19.6 23.364,20 22.77,20 L22.77,20 Z" id="Shape"></path>
                <path d="M0.99,20 C0.396,20 0,19.6 0,19 L0,5 C0,4.4 0.396,4 0.99,4 C1.584,4 1.98,4.4 1.98,5 L1.98,19 C1.98,19.6 1.584,20 0.99,20 L0.99,20 Z" id="Shape"></path>
            </g>
        </g>
    </g>
</svg>