<?xml version="1.0" encoding="UTF-8"?>
<svg width="24px" height="24px" viewBox="0 0 24 24" version="1.1" xmlns="http://www.w3.org/2000/svg" xmlns:xlink="http://www.w3.org/1999/xlink">
    <!-- Generator: sketchtool 49.3 (51167) - http://www.bohemiancoding.com/sketch -->
    <title>8C79BDB9-91BF-45A0-A5A7-4067CDAA472E</title>
    <desc>Created with sketchtool.</desc>
    <defs></defs>
    <g id="Master" stroke="none" stroke-width="1" fill="none" fill-rule="evenodd">
        <g id="app-assets" transform="translate(-179.000000, -41.000000)" fill="#FFFFFF">
            <g id="icon-insight" transform="translate(179.000000, 41.000000)">
                <path d="M20.3851852,0.0345679012 C18.3753086,0.0345679012 16.7802469,1.68395062 16.7802469,3.63950617 C16.7802469,4.80987654 17.3432099,5.84197531 18.1975309,6.49876543 L15.837037,13.1111111 C15.6444444,13.0814815 15.4419753,13.0617284 15.2345679,13.0617284 C14.8987654,13.0617284 14.5777778,13.1061728 14.2716049,13.1950617 L12.1580247,9.83209877 C12.6962963,9.2 13.017284,8.38518519 13.017284,7.50123457 C13.017284,5.49135802 11.3679012,3.8962963 9.41234568,3.8962963 C7.40246914,3.8962963 5.80740741,5.54567901 5.80740741,7.50123457 C5.80740741,8.58765432 6.29135802,9.55061728 7.04197531,10.2123457 L4.12839506,16.3950617 C3.95555556,16.3703704 3.78271605,16.3555556 3.60493827,16.3555556 C1.59506173,16.3555556 0,18.0049383 0,19.9604938 C0,21.9703704 1.64938272,23.5654321 3.60493827,23.5654321 C5.56049383,23.5654321 7.15555556,21.9703704 7.20987654,19.9604938 C7.20987654,18.8641975 6.71604938,17.891358 5.95061728,17.2296296 L8.86419753,11.0567901 C9.04691358,11.0864198 9.22962963,11.1012346 9.42222222,11.1012346 C9.79259259,11.1012346 10.1530864,11.0469136 10.4888889,10.9382716 L12.5679012,14.2469136 C11.9901235,14.8888889 11.6345679,15.7382716 11.6345679,16.6567901 C11.6345679,18.6666667 13.2839506,20.2617284 15.2395062,20.2617284 C17.2493827,20.2617284 18.8444444,18.6666667 18.8444444,16.6567901 C18.8444444,15.5901235 18.3950617,14.637037 17.6691358,13.9802469 L20.0839506,7.21975309 C20.182716,7.22962963 20.2864198,7.2345679 20.3901235,7.2345679 C22.4,7.2345679 23.9950617,5.63950617 23.9950617,3.62962963 C23.9901235,1.62962963 22.3950617,0.0345679012 20.3851852,0.0345679012 Z M3.60493827,21.5012346 C2.78024691,21.5012346 2.05925926,20.8296296 2.05925926,19.9555556 C2.05925926,19.1308642 2.7308642,18.4098765 3.60493827,18.4098765 C4.42962963,18.4098765 5.15061728,19.0814815 5.15061728,19.9555556 C5.14567901,20.7802469 4.47901235,21.5012346 3.60493827,21.5012346 Z M7.87654321,7.4962963 C7.87654321,6.67160494 8.54814815,5.95061728 9.42222222,5.95061728 C10.2962963,5.95061728 10.9679012,6.67160494 10.9679012,7.4962963 C10.9679012,8.32098765 10.2962963,9.04197531 9.42222222,9.04197531 C8.59753086,9.04197531 7.87654321,8.32098765 7.87654321,7.4962963 Z M16.7851852,16.6617284 C16.7851852,17.4864198 16.0641975,18.2074074 15.2395062,18.2074074 C14.4148148,18.2074074 13.6938272,17.5358025 13.6938272,16.6617284 C13.6938272,15.837037 14.3654321,15.1160494 15.2395062,15.1160494 C16.1135802,15.1160494 16.8345679,15.837037 16.7851852,16.6617284 Z M20.3851852,5.18024691 C19.5604938,5.18024691 18.8395062,4.45925926 18.8395062,3.6345679 C18.8395062,2.80987654 19.5111111,2.08888889 20.3851852,2.08888889 C21.2592593,2.08888889 21.9308642,2.80987654 21.9308642,3.6345679 C21.9308642,4.45925926 21.2641975,5.18024691 20.3851852,5.18024691 Z" id="Shape"></path>
            </g>
        </g>
    </g>
</svg>