<svg xmlns="http://www.w3.org/2000/svg" width="32" height="32" viewBox="0 0 32 32">
    <g fill="none" fill-rule="nonzero">
        <path fill="#0079C4" d="M3 10.858h8.373v5.641H3z"/>
        <path fill="#8DC3E9" d="M11.373 10.858h8.373v5.641h-8.373z"/>
        <path fill="#0079C4" d="M19.746 10.858h8.814v5.641h-8.814zM7.407 16.499h8.373v5.641H7.407z"/>
        <path fill="#8DC3E9" d="M3 16.499h4.407v5.641H3z"/>
        <path fill="#0078C3" d="M24.153 16.499h4.407v5.641h-4.407z"/>
        <path fill="#ED7161" d="M15.78 16.499h8.373v5.641H15.78z"/>
        <path fill="#0079C4" d="M7.407 5.218h8.373v5.641H7.407z"/>
        <path fill="#8DC3E9" d="M7.407 10.858H3V6.064c0-.467.385-.846.86-.846h3.547v5.64z"/>
        <path fill="#0079C4" d="M28.56 10.858h-4.407v-5.64H27.7c.475 0 .86.379.86.846v4.794z"/>
        <path fill="#8DC3E9" d="M15.78 5.218h8.373v5.641H15.78z"/>
        <path fill="#0079C4" d="M11.373 27.78H3.859A.853.853 0 0 1 3 26.935V22.14h8.373v5.64z"/>
        <path fill="#8DC3E9" d="M11.373 22.14h8.373v5.641h-8.373z"/>
        <path fill="#0079C4" d="M27.7 27.78h-7.954v-5.64h8.813v4.794a.853.853 0 0 1-.859.847z"/>
        <path fill="#FFF" d="M3 10.425h25.559v1H3zM3 16.065h25.559v1H3zM3 21.706h25.559v1H3zM6.966 5.218h1v5.207h-1zM15.339 5.218h1v5.207h-1zM23.712 5.218h1v5.207h-1z"/>
        <path fill="#D1D4D1" d="M19.305 11.292h1v5.207h-1z"/>
        <path fill="#FFF" d="M10.932 11.292h1v5.207h-1zM6.966 16.933h1v5.207h-1z"/>
        <path fill="#D1D4D1" d="M15.339 16.933h1v5.207h-1zM23.712 16.933h1v5.207h-1zM19.305 22.574h1v5.207h-1z"/>
        <path fill="#FFF" d="M10.932 22.574h1v5.207h-1z"/>
        <path fill="#F2D23D" d="M26.43 14.331l-2.07-2.324c-.288 2.569-1.035 4.549-1.035 4.549 0-3.392-1.24-6.406-2.83-8.884l-.254-.285-2.023 2.27c-2.61 2.926-3.719 6.901-2.86 10.703l.022.101s-1.568-2.185-2.283-4.888a8.197 8.197 0 0 0 .808 9.873c3.334 3.74 9.229 3.766 12.6.08 2.888-3.158 2.774-8-.074-11.195z"/>
    </g>
</svg>
