<svg xmlns="http://www.w3.org/2000/svg" width="32" height="32" viewBox="0 0 32 32">
    <g fill="none" fill-rule="nonzero">
        <path fill="#0079C4" d="M4 27.375l9.6-8.125L4 11.287z"/>
        <path fill="#F2D23D" d="M18.4 19.413l9.6 7.962v-16.25l-9.6 8.288zm8 4.55l-5.44-4.55 5.44-4.876v9.425z"/>
        <path fill="#B9B9B9" d="M15.2 11.125h1.6v1.625h-1.6zM15.2 7.875h1.6V9.5h-1.6zM15.2 14.375h1.6V16h-1.6zM15.2 17.625h1.6v1.625h-1.6zM15.2 20.875h1.6V22.5h-1.6zM15.2 24.125h1.6v1.625h-1.6zM15.2 27.375h1.6V29h-1.6z"/>
        <path fill="#B9B9B9" d="M16 4.625c2.08 0 4.16 1.138 5.76 3.088L20 9.5h4.8V4.625l-1.92 1.95C20.96 4.3 18.56 3 16 3c-3.04 0-5.76 1.625-7.84 4.713l1.28.974c1.76-2.6 4-4.062 6.56-4.062z"/>
    </g>
</svg>
