<svg xmlns="http://www.w3.org/2000/svg" width="32" height="32" viewBox="0 0 32 32">
    <g fill="none" fill-rule="nonzero">
        <path fill="#8DC3E9" d="M16.5 2S13.318 5.862 6 5.862v9.214c0 4.81 2.066 9.45 5.806 12.423C13.129 28.552 14.69 29.457 16.5 30c1.81-.543 3.37-1.448 4.694-2.5C24.934 24.525 27 19.886 27 15.075V5.862C19.682 5.862 16.5 2 16.5 2z"/>
        <path fill="#4A90E2" d="M16.5 27.9a12.745 12.745 0 0 1-3.217-1.875C10.037 23.465 8.1 19.324 8.1 14.948V7.856c3.88-.497 6.635-1.852 8.4-3.056 1.765 1.204 4.52 2.559 8.4 3.056v7.092c0 4.376-1.937 8.517-5.182 11.077A12.757 12.757 0 0 1 16.5 27.9z"/>
        <path fill="#F2D23D" d="M16.87 15.034c.543-1.056.518-2.228-.38-3.11a2.905 2.905 0 0 0-4.225.18c-.954 1.109-.871 2.793.181 3.813.8.776 1.904.947 2.903.61l.507.507h.9v.703h.718v.704h.896v.88h.538v.488c0 .142.007.184.098.274.07.068.162.11.26.117H20.7v-1.583l-3.83-3.583zm-2.535-1.244a.908.908 0 0 1-1.268 0 .868.868 0 0 1 0-1.244.908.908 0 0 1 1.268 0c.35.344.35.9 0 1.244z"/>
    </g>
</svg>
