<svg xmlns="http://www.w3.org/2000/svg" width="32" height="32" viewBox="0 0 32 32">
    <g fill="none" fill-rule="nonzero">
        <path fill="#84DBFF" d="M21.758 9.852a8.76 8.76 0 0 0-.814-2.035l.698-1.63-2.443-2.384-1.629.698c-.64-.349-1.28-.64-2.035-.814L14.953 2h-3.432l-.64 1.687a8.76 8.76 0 0 0-2.035.814l-1.629-.698-2.385 2.385.698 1.629c-.349.64-.64 1.28-.814 2.035l-1.687.64v3.432l1.687.64a8.76 8.76 0 0 0 .814 2.035l-.698 1.63 2.443 2.384 1.629-.698c.64.349 1.28.64 2.036.814l.64 1.687h3.373l.64-1.687a8.76 8.76 0 0 0 2.036-.814l1.628.698 2.443-2.385-.698-1.629c.35-.64.64-1.28.814-2.035l1.687-.64v-3.432l-1.745-.64zm-8.55 6.515a4.17 4.17 0 0 1-4.188-4.188 4.17 4.17 0 0 1 4.188-4.188 4.17 4.17 0 0 1 4.188 4.188 4.17 4.17 0 0 1-4.188 4.188z"/>
        <g fill="#54C0EB">
            <path d="M16.174 15.145a4.143 4.143 0 0 1-5.874 0l-1.513 1.513c2.443 2.443 6.457 2.443 8.9 0 2.443-2.443 2.443-6.399 0-8.9l-1.513 1.513a4.142 4.142 0 0 1 0 5.874zM8.787 7.758c-2.443 2.443-2.443 6.399 0 8.9l1.513-1.513a4.143 4.143 0 0 1 0-5.874 4.143 4.143 0 0 1 5.874 0l1.513-1.513c-2.443-2.443-6.457-2.443-8.9 0z"/>
        </g>
        <path fill="#4CDBC4" d="M22.747 25.848c.058-.35.058-.64 0-.989l.582-.582-.582-1.454h-.814c-.175-.232-.466-.465-.698-.698v-.814l-1.454-.582-.582.582a2.823 2.823 0 0 0-.989 0l-.581-.582-1.455.582v.814c-.232.175-.465.466-.698.698h-.814l-.582 1.454.582.582c-.058.349-.058.64 0 .989l-.582.581.582 1.455h.814c.175.232.466.465.698.698v.814l1.455.582.581-.582c.35.058.64.058.989 0l.582.582 1.454-.582v-.814c.232-.175.465-.466.698-.698h.814l.582-1.455-.582-.581zm-4.653 1.221c-.989-.407-1.454-1.512-1.047-2.443.407-.989 1.512-1.454 2.443-1.047.989.407 1.454 1.513 1.047 2.443-.407.99-1.512 1.454-2.443 1.047z"/>
        <path fill="#FF7058" d="M30.367 18.228c.058-.349.058-.64 0-.989l.581-.581-.581-1.454h-.815c-.174-.233-.465-.466-.698-.698v-.815L27.4 13.11l-.581.581a2.823 2.823 0 0 0-.99 0l-.58-.581-1.455.581v.815c-.233.174-.465.465-.698.698h-.814l-.582 1.454.582.581c-.058.35-.058.64 0 .99l-.582.58.582 1.455h.814c.175.233.465.465.698.698v.814l1.454.582.582-.582c.349.058.64.058.989 0l.581.582 1.454-.582v-.814c.233-.175.466-.465.698-.698h.815l.581-1.454-.581-.582zm-4.712 1.28c-.988-.407-1.454-1.513-1.047-2.443.408-.989 1.513-1.454 2.443-1.047.99.407 1.454 1.512 1.047 2.443-.349.989-1.454 1.454-2.443 1.047z"/>
    </g>
</svg>
